<?xml version="1.0" encoding="UTF-8"?>
<svg xmlns="http://www.w3.org/2000/svg" xmlns:xlink="http://www.w3.org/1999/xlink" width="2697pt" height="1199pt" viewBox="0 0 2697 1199" version="1.1">
<g id="surface1">
<path style="fill:none;stroke-width:0.01;stroke-linecap:round;stroke-linejoin:miter;stroke:rgb(0%,0%,0%);stroke-opacity:1;stroke-miterlimit:10;" d="M 0.426002 0.45 L 0.426002 2.049603 " transform="matrix(600,0,0,-600,-19.980001,1465.999996)"/>
<path style="fill:none;stroke-width:0.01;stroke-linecap:round;stroke-linejoin:miter;stroke:rgb(0%,0%,0%);stroke-opacity:1;stroke-miterlimit:10;" d="M 0.426002 2.049603 L 4.513001 2.049603 " transform="matrix(600,0,0,-600,-19.980001,1465.999996)"/>
<path style="fill:none;stroke-width:0.01;stroke-linecap:round;stroke-linejoin:miter;stroke:rgb(0%,0%,0%);stroke-opacity:1;stroke-miterlimit:10;" d="M 4.513001 2.049603 L 4.513001 0.45 " transform="matrix(600,0,0,-600,-19.980001,1465.999996)"/>
<path style="fill:none;stroke-width:0.01;stroke-linecap:round;stroke-linejoin:miter;stroke:rgb(0%,0%,0%);stroke-opacity:1;stroke-miterlimit:10;" d="M 4.513001 0.45 L 0.426002 0.45 " transform="matrix(600,0,0,-600,-19.980001,1465.999996)"/>
<path style="fill:none;stroke-width:0.0051;stroke-linecap:round;stroke-linejoin:miter;stroke:rgb(0%,0%,0%);stroke-opacity:1;stroke-miterlimit:10;" d="M 0.426002 0.45 L 0.0491984 0.45 " transform="matrix(600,0,0,-600,-19.980001,1465.999996)"/>
<path style="fill:none;stroke-width:0.0051;stroke-linecap:round;stroke-linejoin:miter;stroke:rgb(0%,0%,0%);stroke-opacity:1;stroke-miterlimit:10;" d="M 0.126002 0.452598 L 0.136197 0.552402 " transform="matrix(600,0,0,-600,-19.980001,1465.999996)"/>
<path style="fill:none;stroke-width:0.0051;stroke-linecap:round;stroke-linejoin:miter;stroke:rgb(0%,0%,0%);stroke-opacity:1;stroke-miterlimit:10;" d="M 0.138502 0.552402 L 0.126002 0.452598 " transform="matrix(600,0,0,-600,-19.980001,1465.999996)"/>
<path style="fill:none;stroke-width:0.0051;stroke-linecap:round;stroke-linejoin:miter;stroke:rgb(0%,0%,0%);stroke-opacity:1;stroke-miterlimit:10;" d="M 0.126002 0.452598 L 0.115702 0.552402 " transform="matrix(600,0,0,-600,-19.980001,1465.999996)"/>
<path style="fill:none;stroke-width:0.0051;stroke-linecap:round;stroke-linejoin:miter;stroke:rgb(0%,0%,0%);stroke-opacity:1;stroke-miterlimit:10;" d="M 0.113398 0.552402 L 0.138502 0.552402 " transform="matrix(600,0,0,-600,-19.980001,1465.999996)"/>
<path style="fill:none;stroke-width:0.0051;stroke-linecap:round;stroke-linejoin:miter;stroke:rgb(0%,0%,0%);stroke-opacity:1;stroke-miterlimit:10;" d="M 0.131099 0.552402 L 0.126002 0.452598 " transform="matrix(600,0,0,-600,-19.980001,1465.999996)"/>
<path style="fill:none;stroke-width:0.0051;stroke-linecap:round;stroke-linejoin:miter;stroke:rgb(0%,0%,0%);stroke-opacity:1;stroke-miterlimit:10;" d="M 0.126002 0.452598 L 0.1208 0.552402 " transform="matrix(600,0,0,-600,-19.980001,1465.999996)"/>
<path style="fill:none;stroke-width:0.0051;stroke-linecap:round;stroke-linejoin:miter;stroke:rgb(0%,0%,0%);stroke-opacity:1;stroke-miterlimit:10;" d="M 0.113398 0.552402 L 0.126002 0.452598 " transform="matrix(600,0,0,-600,-19.980001,1465.999996)"/>
<path style="fill:none;stroke-width:0.0051;stroke-linecap:round;stroke-linejoin:miter;stroke:rgb(0%,0%,0%);stroke-opacity:1;stroke-miterlimit:10;" d="M 0.126002 0.452598 L 0.126002 2.047402 " transform="matrix(600,0,0,-600,-19.980001,1465.999996)"/>
<path style="fill:none;stroke-width:0.0051;stroke-linecap:round;stroke-linejoin:miter;stroke:rgb(0%,0%,0%);stroke-opacity:1;stroke-miterlimit:10;" d="M 0.126002 2.047402 L 0.136197 1.947598 " transform="matrix(600,0,0,-600,-19.980001,1465.999996)"/>
<path style="fill:none;stroke-width:0.0051;stroke-linecap:round;stroke-linejoin:miter;stroke:rgb(0%,0%,0%);stroke-opacity:1;stroke-miterlimit:10;" d="M 0.138502 1.947598 L 0.126002 2.047402 " transform="matrix(600,0,0,-600,-19.980001,1465.999996)"/>
<path style="fill:none;stroke-width:0.0051;stroke-linecap:round;stroke-linejoin:miter;stroke:rgb(0%,0%,0%);stroke-opacity:1;stroke-miterlimit:10;" d="M 0.126002 2.047402 L 0.115702 1.947598 " transform="matrix(600,0,0,-600,-19.980001,1465.999996)"/>
<path style="fill:none;stroke-width:0.0051;stroke-linecap:round;stroke-linejoin:miter;stroke:rgb(0%,0%,0%);stroke-opacity:1;stroke-miterlimit:10;" d="M 0.113398 1.947598 L 0.138502 1.947598 " transform="matrix(600,0,0,-600,-19.980001,1465.999996)"/>
<path style="fill:none;stroke-width:0.0051;stroke-linecap:round;stroke-linejoin:miter;stroke:rgb(0%,0%,0%);stroke-opacity:1;stroke-miterlimit:10;" d="M 0.131099 1.947598 L 0.126002 2.047402 " transform="matrix(600,0,0,-600,-19.980001,1465.999996)"/>
<path style="fill:none;stroke-width:0.0051;stroke-linecap:round;stroke-linejoin:miter;stroke:rgb(0%,0%,0%);stroke-opacity:1;stroke-miterlimit:10;" d="M 0.126002 2.047402 L 0.1208 1.947598 " transform="matrix(600,0,0,-600,-19.980001,1465.999996)"/>
<path style="fill:none;stroke-width:0.0051;stroke-linecap:round;stroke-linejoin:miter;stroke:rgb(0%,0%,0%);stroke-opacity:1;stroke-miterlimit:10;" d="M 0.113398 1.947598 L 0.126002 2.047402 " transform="matrix(600,0,0,-600,-19.980001,1465.999996)"/>
<path style="fill:none;stroke-width:0.0051;stroke-linecap:round;stroke-linejoin:miter;stroke:rgb(0%,0%,0%);stroke-opacity:1;stroke-miterlimit:10;" d="M 0.0491984 2.05 L 0.426002 2.05 " transform="matrix(600,0,0,-600,-19.980001,1465.999996)"/>
<path style="fill:none;stroke-width:0.0051;stroke-linecap:round;stroke-linejoin:miter;stroke:rgb(0%,0%,0%);stroke-opacity:1;stroke-miterlimit:10;" d="M 0.426002 2.049603 L 0.425898 2.4264 " transform="matrix(600,0,0,-600,-19.980001,1465.999996)"/>
<path style="fill:none;stroke-width:0.0051;stroke-linecap:round;stroke-linejoin:miter;stroke:rgb(0%,0%,0%);stroke-opacity:1;stroke-miterlimit:10;" d="M 0.428502 2.349603 L 0.5283 2.359902 " transform="matrix(600,0,0,-600,-19.980001,1465.999996)"/>
<path style="fill:none;stroke-width:0.0051;stroke-linecap:round;stroke-linejoin:miter;stroke:rgb(0%,0%,0%);stroke-opacity:1;stroke-miterlimit:10;" d="M 0.5283 2.362201 L 0.5283 2.336999 " transform="matrix(600,0,0,-600,-19.980001,1465.999996)"/>
<path style="fill:none;stroke-width:0.0051;stroke-linecap:round;stroke-linejoin:miter;stroke:rgb(0%,0%,0%);stroke-opacity:1;stroke-miterlimit:10;" d="M 0.5283 2.336999 L 0.428502 2.349603 " transform="matrix(600,0,0,-600,-19.980001,1465.999996)"/>
<path style="fill:none;stroke-width:0.0051;stroke-linecap:round;stroke-linejoin:miter;stroke:rgb(0%,0%,0%);stroke-opacity:1;stroke-miterlimit:10;" d="M 0.428502 2.349603 L 0.5283 2.339401 " transform="matrix(600,0,0,-600,-19.980001,1465.999996)"/>
<path style="fill:none;stroke-width:0.0051;stroke-linecap:round;stroke-linejoin:miter;stroke:rgb(0%,0%,0%);stroke-opacity:1;stroke-miterlimit:10;" d="M 0.5283 2.344499 L 0.428502 2.349603 " transform="matrix(600,0,0,-600,-19.980001,1465.999996)"/>
<path style="fill:none;stroke-width:0.0051;stroke-linecap:round;stroke-linejoin:miter;stroke:rgb(0%,0%,0%);stroke-opacity:1;stroke-miterlimit:10;" d="M 0.428502 2.349603 L 0.5283 2.354701 " transform="matrix(600,0,0,-600,-19.980001,1465.999996)"/>
<path style="fill:none;stroke-width:0.0051;stroke-linecap:round;stroke-linejoin:miter;stroke:rgb(0%,0%,0%);stroke-opacity:1;stroke-miterlimit:10;" d="M 0.5283 2.362201 L 0.428502 2.349603 " transform="matrix(600,0,0,-600,-19.980001,1465.999996)"/>
<path style="fill:none;stroke-width:0.0051;stroke-linecap:round;stroke-linejoin:miter;stroke:rgb(0%,0%,0%);stroke-opacity:1;stroke-miterlimit:10;" d="M 0.428502 2.349603 L 4.523398 2.35 " transform="matrix(600,0,0,-600,-19.980001,1465.999996)"/>
<path style="fill:none;stroke-width:0.0051;stroke-linecap:round;stroke-linejoin:miter;stroke:rgb(0%,0%,0%);stroke-opacity:1;stroke-miterlimit:10;" d="M 4.523398 2.35 L 4.423599 2.339798 " transform="matrix(600,0,0,-600,-19.980001,1465.999996)"/>
<path style="fill:none;stroke-width:0.0051;stroke-linecap:round;stroke-linejoin:miter;stroke:rgb(0%,0%,0%);stroke-opacity:1;stroke-miterlimit:10;" d="M 4.423599 2.337402 L 4.523398 2.35 " transform="matrix(600,0,0,-600,-19.980001,1465.999996)"/>
<path style="fill:none;stroke-width:0.0051;stroke-linecap:round;stroke-linejoin:miter;stroke:rgb(0%,0%,0%);stroke-opacity:1;stroke-miterlimit:10;" d="M 4.523398 2.35 L 4.423599 2.360202 " transform="matrix(600,0,0,-600,-19.980001,1465.999996)"/>
<path style="fill:none;stroke-width:0.0051;stroke-linecap:round;stroke-linejoin:miter;stroke:rgb(0%,0%,0%);stroke-opacity:1;stroke-miterlimit:10;" d="M 4.423599 2.362598 L 4.423599 2.337402 " transform="matrix(600,0,0,-600,-19.980001,1465.999996)"/>
<path style="fill:none;stroke-width:0.0051;stroke-linecap:round;stroke-linejoin:miter;stroke:rgb(0%,0%,0%);stroke-opacity:1;stroke-miterlimit:10;" d="M 4.423599 2.344902 L 4.523398 2.35 " transform="matrix(600,0,0,-600,-19.980001,1465.999996)"/>
<path style="fill:none;stroke-width:0.0051;stroke-linecap:round;stroke-linejoin:miter;stroke:rgb(0%,0%,0%);stroke-opacity:1;stroke-miterlimit:10;" d="M 4.523398 2.35 L 4.423599 2.355098 " transform="matrix(600,0,0,-600,-19.980001,1465.999996)"/>
<path style="fill:none;stroke-width:0.0051;stroke-linecap:round;stroke-linejoin:miter;stroke:rgb(0%,0%,0%);stroke-opacity:1;stroke-miterlimit:10;" d="M 4.423599 2.362598 L 4.523398 2.35 " transform="matrix(600,0,0,-600,-19.980001,1465.999996)"/>
<path style="fill:none;stroke-width:0.0051;stroke-linecap:round;stroke-linejoin:miter;stroke:rgb(0%,0%,0%);stroke-opacity:1;stroke-miterlimit:10;" d="M 4.525898 2.426797 L 4.526002 2.05 " transform="matrix(600,0,0,-600,-19.980001,1465.999996)"/>
<path style="fill:none;stroke-width:0.006;stroke-linecap:round;stroke-linejoin:miter;stroke:rgb(0%,0%,0%);stroke-opacity:1;stroke-miterlimit:10;" d="M 2.6344 2.407402 L 2.591698 2.407402 " transform="matrix(600,0,0,-600,-19.980001,1465.999996)"/>
<path style="fill:none;stroke-width:0.006;stroke-linecap:round;stroke-linejoin:miter;stroke:rgb(0%,0%,0%);stroke-opacity:1;stroke-miterlimit:10;" d="M 2.591698 2.407402 L 2.623697 2.439499 " transform="matrix(600,0,0,-600,-19.980001,1465.999996)"/>
<path style="fill:none;stroke-width:0.006;stroke-linecap:round;stroke-linejoin:miter;stroke:rgb(0%,0%,0%);stroke-opacity:1;stroke-miterlimit:10;" d="M 2.623697 2.439499 L 2.623697 2.375397 " transform="matrix(600,0,0,-600,-19.980001,1465.999996)"/>
<path style="fill:none;stroke-width:0.006;stroke-linecap:round;stroke-linejoin:miter;stroke:rgb(0%,0%,0%);stroke-opacity:1;stroke-miterlimit:10;" d="M 2.569999 2.375397 L 2.527297 2.375397 " transform="matrix(600,0,0,-600,-19.980001,1465.999996)"/>
<path style="fill:none;stroke-width:0.006;stroke-linecap:round;stroke-linejoin:miter;stroke:rgb(0%,0%,0%);stroke-opacity:1;stroke-miterlimit:10;" d="M 2.548599 2.375397 L 2.548599 2.439499 " transform="matrix(600,0,0,-600,-19.980001,1465.999996)"/>
<path style="fill:none;stroke-width:0.006;stroke-linecap:round;stroke-linejoin:miter;stroke:rgb(0%,0%,0%);stroke-opacity:1;stroke-miterlimit:10;" d="M 2.548599 2.439499 L 2.527297 2.418099 " transform="matrix(600,0,0,-600,-19.980001,1465.999996)"/>
<path style="fill:none;stroke-width:0.006;stroke-linecap:round;stroke-linejoin:miter;stroke:rgb(0%,0%,0%);stroke-opacity:1;stroke-miterlimit:10;" d="M 2.505702 2.3861 L 2.505702 2.375397 " transform="matrix(600,0,0,-600,-19.980001,1465.999996)"/>
<path style="fill:none;stroke-width:0.006;stroke-linecap:round;stroke-linejoin:miter;stroke:rgb(0%,0%,0%);stroke-opacity:1;stroke-miterlimit:10;" d="M 2.505702 2.375397 L 2.494999 2.375397 " transform="matrix(600,0,0,-600,-19.980001,1465.999996)"/>
<path style="fill:none;stroke-width:0.006;stroke-linecap:round;stroke-linejoin:miter;stroke:rgb(0%,0%,0%);stroke-opacity:1;stroke-miterlimit:10;" d="M 2.494999 2.375397 L 2.494999 2.3861 " transform="matrix(600,0,0,-600,-19.980001,1465.999996)"/>
<path style="fill:none;stroke-width:0.006;stroke-linecap:round;stroke-linejoin:miter;stroke:rgb(0%,0%,0%);stroke-opacity:1;stroke-miterlimit:10;" d="M 2.494999 2.3861 L 2.505702 2.3861 " transform="matrix(600,0,0,-600,-19.980001,1465.999996)"/>
<path style="fill:none;stroke-width:0.006;stroke-linecap:round;stroke-linejoin:miter;stroke:rgb(0%,0%,0%);stroke-opacity:1;stroke-miterlimit:10;" d="M 2.4733 2.407402 L 2.430598 2.407402 " transform="matrix(600,0,0,-600,-19.980001,1465.999996)"/>
<path style="fill:none;stroke-width:0.006;stroke-linecap:round;stroke-linejoin:miter;stroke:rgb(0%,0%,0%);stroke-opacity:1;stroke-miterlimit:10;" d="M 2.430598 2.407402 L 2.462597 2.439499 " transform="matrix(600,0,0,-600,-19.980001,1465.999996)"/>
<path style="fill:none;stroke-width:0.006;stroke-linecap:round;stroke-linejoin:miter;stroke:rgb(0%,0%,0%);stroke-opacity:1;stroke-miterlimit:10;" d="M 2.462597 2.439499 L 2.462597 2.375397 " transform="matrix(600,0,0,-600,-19.980001,1465.999996)"/>
<path style="fill:none;stroke-width:0.006;stroke-linecap:round;stroke-linejoin:miter;stroke:rgb(0%,0%,0%);stroke-opacity:1;stroke-miterlimit:10;" d="M 2.408801 2.3861 L 2.398202 2.375397 " transform="matrix(600,0,0,-600,-19.980001,1465.999996)"/>
<path style="fill:none;stroke-width:0.006;stroke-linecap:round;stroke-linejoin:miter;stroke:rgb(0%,0%,0%);stroke-opacity:1;stroke-miterlimit:10;" d="M 2.398202 2.375397 L 2.376803 2.375397 " transform="matrix(600,0,0,-600,-19.980001,1465.999996)"/>
<path style="fill:none;stroke-width:0.006;stroke-linecap:round;stroke-linejoin:miter;stroke:rgb(0%,0%,0%);stroke-opacity:1;stroke-miterlimit:10;" d="M 2.376803 2.375397 L 2.366099 2.3861 " transform="matrix(600,0,0,-600,-19.980001,1465.999996)"/>
<path style="fill:none;stroke-width:0.006;stroke-linecap:round;stroke-linejoin:miter;stroke:rgb(0%,0%,0%);stroke-opacity:1;stroke-miterlimit:10;" d="M 2.366099 2.3861 L 2.408801 2.428802 " transform="matrix(600,0,0,-600,-19.980001,1465.999996)"/>
<path style="fill:none;stroke-width:0.006;stroke-linecap:round;stroke-linejoin:miter;stroke:rgb(0%,0%,0%);stroke-opacity:1;stroke-miterlimit:10;" d="M 2.408801 2.428802 L 2.408801 2.3861 " transform="matrix(600,0,0,-600,-19.980001,1465.999996)"/>
<path style="fill:none;stroke-width:0.006;stroke-linecap:round;stroke-linejoin:miter;stroke:rgb(0%,0%,0%);stroke-opacity:1;stroke-miterlimit:10;" d="M 2.366099 2.3861 L 2.366099 2.428802 " transform="matrix(600,0,0,-600,-19.980001,1465.999996)"/>
<path style="fill:none;stroke-width:0.006;stroke-linecap:round;stroke-linejoin:miter;stroke:rgb(0%,0%,0%);stroke-opacity:1;stroke-miterlimit:10;" d="M 2.366099 2.428802 L 2.376803 2.439499 " transform="matrix(600,0,0,-600,-19.980001,1465.999996)"/>
<path style="fill:none;stroke-width:0.006;stroke-linecap:round;stroke-linejoin:miter;stroke:rgb(0%,0%,0%);stroke-opacity:1;stroke-miterlimit:10;" d="M 2.376803 2.439499 L 2.398202 2.439499 " transform="matrix(600,0,0,-600,-19.980001,1465.999996)"/>
<path style="fill:none;stroke-width:0.006;stroke-linecap:round;stroke-linejoin:miter;stroke:rgb(0%,0%,0%);stroke-opacity:1;stroke-miterlimit:10;" d="M 2.398202 2.439499 L 2.408801 2.428802 " transform="matrix(600,0,0,-600,-19.980001,1465.999996)"/>
<path style="fill:none;stroke-width:0.006;stroke-linecap:round;stroke-linejoin:miter;stroke:rgb(0%,0%,0%);stroke-opacity:1;stroke-miterlimit:10;" d="M 2.323001 2.439499 L 2.301698 2.418099 " transform="matrix(600,0,0,-600,-19.980001,1465.999996)"/>
<path style="fill:none;stroke-width:0.006;stroke-linecap:round;stroke-linejoin:miter;stroke:rgb(0%,0%,0%);stroke-opacity:1;stroke-miterlimit:10;" d="M 2.323001 2.439499 L 2.323001 2.375397 " transform="matrix(600,0,0,-600,-19.980001,1465.999996)"/>
<path style="fill:none;stroke-width:0.006;stroke-linecap:round;stroke-linejoin:miter;stroke:rgb(0%,0%,0%);stroke-opacity:1;stroke-miterlimit:10;" d="M 2.301698 2.375397 L 2.3444 2.375397 " transform="matrix(600,0,0,-600,-19.980001,1465.999996)"/>
<path style="fill:none;stroke-width:0.006;stroke-linecap:round;stroke-linejoin:miter;stroke:rgb(0%,0%,0%);stroke-opacity:1;stroke-miterlimit:10;" d="M 0.100299 1.365599 L 0.0363013 1.365599 " transform="matrix(600,0,0,-600,-19.980001,1465.999996)"/>
<path style="fill:none;stroke-width:0.006;stroke-linecap:round;stroke-linejoin:miter;stroke:rgb(0%,0%,0%);stroke-opacity:1;stroke-miterlimit:10;" d="M 0.0363013 1.365599 L 0.0683 1.3336 " transform="matrix(600,0,0,-600,-19.980001,1465.999996)"/>
<path style="fill:none;stroke-width:0.006;stroke-linecap:round;stroke-linejoin:miter;stroke:rgb(0%,0%,0%);stroke-opacity:1;stroke-miterlimit:10;" d="M 0.0683 1.3336 L 0.0683 1.376302 " transform="matrix(600,0,0,-600,-19.980001,1465.999996)"/>
<path style="fill:none;stroke-width:0.006;stroke-linecap:round;stroke-linejoin:miter;stroke:rgb(0%,0%,0%);stroke-opacity:1;stroke-miterlimit:10;" d="M 0.0790031 1.311797 L 0.0683 1.3011 " transform="matrix(600,0,0,-600,-19.980001,1465.999996)"/>
<path style="fill:none;stroke-width:0.006;stroke-linecap:round;stroke-linejoin:miter;stroke:rgb(0%,0%,0%);stroke-opacity:1;stroke-miterlimit:10;" d="M 0.0683 1.3011 L 0.0683 1.269102 " transform="matrix(600,0,0,-600,-19.980001,1465.999996)"/>
<path style="fill:none;stroke-width:0.006;stroke-linecap:round;stroke-linejoin:miter;stroke:rgb(0%,0%,0%);stroke-opacity:1;stroke-miterlimit:10;" d="M 0.0683 1.269102 L 0.0896997 1.269102 " transform="matrix(600,0,0,-600,-19.980001,1465.999996)"/>
<path style="fill:none;stroke-width:0.006;stroke-linecap:round;stroke-linejoin:miter;stroke:rgb(0%,0%,0%);stroke-opacity:1;stroke-miterlimit:10;" d="M 0.0896997 1.269102 L 0.100299 1.279798 " transform="matrix(600,0,0,-600,-19.980001,1465.999996)"/>
<path style="fill:none;stroke-width:0.006;stroke-linecap:round;stroke-linejoin:miter;stroke:rgb(0%,0%,0%);stroke-opacity:1;stroke-miterlimit:10;" d="M 0.100299 1.279798 L 0.100299 1.3011 " transform="matrix(600,0,0,-600,-19.980001,1465.999996)"/>
<path style="fill:none;stroke-width:0.006;stroke-linecap:round;stroke-linejoin:miter;stroke:rgb(0%,0%,0%);stroke-opacity:1;stroke-miterlimit:10;" d="M 0.100299 1.3011 L 0.0896997 1.311797 " transform="matrix(600,0,0,-600,-19.980001,1465.999996)"/>
<path style="fill:none;stroke-width:0.006;stroke-linecap:round;stroke-linejoin:miter;stroke:rgb(0%,0%,0%);stroke-opacity:1;stroke-miterlimit:10;" d="M 0.0896997 1.311797 L 0.0790031 1.311797 " transform="matrix(600,0,0,-600,-19.980001,1465.999996)"/>
<path style="fill:none;stroke-width:0.006;stroke-linecap:round;stroke-linejoin:miter;stroke:rgb(0%,0%,0%);stroke-opacity:1;stroke-miterlimit:10;" d="M 0.0469979 1.290501 L 0.0683 1.269102 " transform="matrix(600,0,0,-600,-19.980001,1465.999996)"/>
<path style="fill:none;stroke-width:0.006;stroke-linecap:round;stroke-linejoin:miter;stroke:rgb(0%,0%,0%);stroke-opacity:1;stroke-miterlimit:10;" d="M 0.0469979 1.290501 L 0.0363013 1.311797 " transform="matrix(600,0,0,-600,-19.980001,1465.999996)"/>
<path style="fill:none;stroke-width:0.006;stroke-linecap:round;stroke-linejoin:miter;stroke:rgb(0%,0%,0%);stroke-opacity:1;stroke-miterlimit:10;" d="M 0.0896997 1.247598 L 0.100299 1.247598 " transform="matrix(600,0,0,-600,-19.980001,1465.999996)"/>
<path style="fill:none;stroke-width:0.006;stroke-linecap:round;stroke-linejoin:miter;stroke:rgb(0%,0%,0%);stroke-opacity:1;stroke-miterlimit:10;" d="M 0.100299 1.247598 L 0.100299 1.236901 " transform="matrix(600,0,0,-600,-19.980001,1465.999996)"/>
<path style="fill:none;stroke-width:0.006;stroke-linecap:round;stroke-linejoin:miter;stroke:rgb(0%,0%,0%);stroke-opacity:1;stroke-miterlimit:10;" d="M 0.100299 1.236901 L 0.0896997 1.236901 " transform="matrix(600,0,0,-600,-19.980001,1465.999996)"/>
<path style="fill:none;stroke-width:0.006;stroke-linecap:round;stroke-linejoin:miter;stroke:rgb(0%,0%,0%);stroke-opacity:1;stroke-miterlimit:10;" d="M 0.0896997 1.236901 L 0.0896997 1.247598 " transform="matrix(600,0,0,-600,-19.980001,1465.999996)"/>
<path style="fill:none;stroke-width:0.006;stroke-linecap:round;stroke-linejoin:miter;stroke:rgb(0%,0%,0%);stroke-opacity:1;stroke-miterlimit:10;" d="M 0.0896997 1.215098 L 0.100299 1.204499 " transform="matrix(600,0,0,-600,-19.980001,1465.999996)"/>
<path style="fill:none;stroke-width:0.006;stroke-linecap:round;stroke-linejoin:miter;stroke:rgb(0%,0%,0%);stroke-opacity:1;stroke-miterlimit:10;" d="M 0.100299 1.204499 L 0.100299 1.183099 " transform="matrix(600,0,0,-600,-19.980001,1465.999996)"/>
<path style="fill:none;stroke-width:0.006;stroke-linecap:round;stroke-linejoin:miter;stroke:rgb(0%,0%,0%);stroke-opacity:1;stroke-miterlimit:10;" d="M 0.100299 1.183099 L 0.0896997 1.172402 " transform="matrix(600,0,0,-600,-19.980001,1465.999996)"/>
<path style="fill:none;stroke-width:0.006;stroke-linecap:round;stroke-linejoin:miter;stroke:rgb(0%,0%,0%);stroke-opacity:1;stroke-miterlimit:10;" d="M 0.0896997 1.172402 L 0.0469979 1.215098 " transform="matrix(600,0,0,-600,-19.980001,1465.999996)"/>
<path style="fill:none;stroke-width:0.006;stroke-linecap:round;stroke-linejoin:miter;stroke:rgb(0%,0%,0%);stroke-opacity:1;stroke-miterlimit:10;" d="M 0.0469979 1.215098 L 0.0896997 1.215098 " transform="matrix(600,0,0,-600,-19.980001,1465.999996)"/>
<path style="fill:none;stroke-width:0.006;stroke-linecap:round;stroke-linejoin:miter;stroke:rgb(0%,0%,0%);stroke-opacity:1;stroke-miterlimit:10;" d="M 0.0469979 1.215098 L 0.0363013 1.204499 " transform="matrix(600,0,0,-600,-19.980001,1465.999996)"/>
<path style="fill:none;stroke-width:0.006;stroke-linecap:round;stroke-linejoin:miter;stroke:rgb(0%,0%,0%);stroke-opacity:1;stroke-miterlimit:10;" d="M 0.0363013 1.204499 L 0.0363013 1.183099 " transform="matrix(600,0,0,-600,-19.980001,1465.999996)"/>
<path style="fill:none;stroke-width:0.006;stroke-linecap:round;stroke-linejoin:miter;stroke:rgb(0%,0%,0%);stroke-opacity:1;stroke-miterlimit:10;" d="M 0.0363013 1.183099 L 0.0469979 1.172402 " transform="matrix(600,0,0,-600,-19.980001,1465.999996)"/>
<path style="fill:none;stroke-width:0.006;stroke-linecap:round;stroke-linejoin:miter;stroke:rgb(0%,0%,0%);stroke-opacity:1;stroke-miterlimit:10;" d="M 0.0469979 1.172402 L 0.0896997 1.172402 " transform="matrix(600,0,0,-600,-19.980001,1465.999996)"/>
<path style="fill:none;stroke-width:0.006;stroke-linecap:round;stroke-linejoin:miter;stroke:rgb(0%,0%,0%);stroke-opacity:1;stroke-miterlimit:10;" d="M 0.0683 1.150703 L 0.0683 1.108001 " transform="matrix(600,0,0,-600,-19.980001,1465.999996)"/>
<path style="fill:none;stroke-width:0.006;stroke-linecap:round;stroke-linejoin:miter;stroke:rgb(0%,0%,0%);stroke-opacity:1;stroke-miterlimit:10;" d="M 0.0683 1.108001 L 0.0363013 1.14 " transform="matrix(600,0,0,-600,-19.980001,1465.999996)"/>
<path style="fill:none;stroke-width:0.006;stroke-linecap:round;stroke-linejoin:miter;stroke:rgb(0%,0%,0%);stroke-opacity:1;stroke-miterlimit:10;" d="M 0.0363013 1.14 L 0.100299 1.14 " transform="matrix(600,0,0,-600,-19.980001,1465.999996)"/>
<path style="fill:none;stroke-width:0.06;stroke-linecap:round;stroke-linejoin:miter;stroke:rgb(0%,0%,0%);stroke-opacity:1;stroke-miterlimit:10;" d="M 1.976002 1.62 L 1.976002 1.68 " transform="matrix(600,0,0,-600,-19.980001,1465.999996)"/>
<path style="fill:none;stroke-width:0.06;stroke-linecap:round;stroke-linejoin:miter;stroke:rgb(0%,0%,0%);stroke-opacity:1;stroke-miterlimit:10;" d="M 2.076002 1.68 L 2.076002 1.62 " transform="matrix(600,0,0,-600,-19.980001,1465.999996)"/>
<path style="fill:none;stroke-width:0.06;stroke-linecap:round;stroke-linejoin:miter;stroke:rgb(0%,0%,0%);stroke-opacity:1;stroke-miterlimit:10;" d="M 2.176002 1.62 L 2.176002 1.68 " transform="matrix(600,0,0,-600,-19.980001,1465.999996)"/>
<path style="fill:none;stroke-width:0.06;stroke-linecap:round;stroke-linejoin:miter;stroke:rgb(0%,0%,0%);stroke-opacity:1;stroke-miterlimit:10;" d="M 2.276002 1.68 L 2.276002 1.62 " transform="matrix(600,0,0,-600,-19.980001,1465.999996)"/>
<path style="fill:none;stroke-width:0.06;stroke-linecap:round;stroke-linejoin:miter;stroke:rgb(0%,0%,0%);stroke-opacity:1;stroke-miterlimit:10;" d="M 2.376002 1.62 L 2.376002 1.68 " transform="matrix(600,0,0,-600,-19.980001,1465.999996)"/>
<path style="fill:none;stroke-width:0.06;stroke-linecap:round;stroke-linejoin:miter;stroke:rgb(0%,0%,0%);stroke-opacity:1;stroke-miterlimit:10;" d="M 2.476002 1.68 L 2.476002 1.62 " transform="matrix(600,0,0,-600,-19.980001,1465.999996)"/>
<path style="fill:none;stroke-width:0.06;stroke-linecap:round;stroke-linejoin:miter;stroke:rgb(0%,0%,0%);stroke-opacity:1;stroke-miterlimit:10;" d="M 2.476002 1.92 L 2.476002 1.98 " transform="matrix(600,0,0,-600,-19.980001,1465.999996)"/>
<path style="fill:none;stroke-width:0.06;stroke-linecap:round;stroke-linejoin:miter;stroke:rgb(0%,0%,0%);stroke-opacity:1;stroke-miterlimit:10;" d="M 2.376002 1.98 L 2.376002 1.92 " transform="matrix(600,0,0,-600,-19.980001,1465.999996)"/>
<path style="fill:none;stroke-width:0.06;stroke-linecap:round;stroke-linejoin:miter;stroke:rgb(0%,0%,0%);stroke-opacity:1;stroke-miterlimit:10;" d="M 2.276002 1.92 L 2.276002 1.98 " transform="matrix(600,0,0,-600,-19.980001,1465.999996)"/>
<path style="fill:none;stroke-width:0.06;stroke-linecap:round;stroke-linejoin:miter;stroke:rgb(0%,0%,0%);stroke-opacity:1;stroke-miterlimit:10;" d="M 2.176002 1.98 L 2.176002 1.92 " transform="matrix(600,0,0,-600,-19.980001,1465.999996)"/>
<path style="fill:none;stroke-width:0.06;stroke-linecap:round;stroke-linejoin:miter;stroke:rgb(0%,0%,0%);stroke-opacity:1;stroke-miterlimit:10;" d="M 2.076002 1.92 L 2.076002 1.98 " transform="matrix(600,0,0,-600,-19.980001,1465.999996)"/>
<path style="fill:none;stroke-width:0.06;stroke-linecap:round;stroke-linejoin:miter;stroke:rgb(0%,0%,0%);stroke-opacity:1;stroke-miterlimit:10;" d="M 1.976002 1.98 L 1.976002 1.92 " transform="matrix(600,0,0,-600,-19.980001,1465.999996)"/>
<path style="fill:none;stroke-width:0.06;stroke-linecap:round;stroke-linejoin:miter;stroke:rgb(0%,0%,0%);stroke-opacity:1;stroke-miterlimit:10;" d="M 3.376002 1.88 L 3.376002 1.82 " transform="matrix(600,0,0,-600,-19.980001,1465.999996)"/>
<path style="fill:none;stroke-width:0.06;stroke-linecap:round;stroke-linejoin:miter;stroke:rgb(0%,0%,0%);stroke-opacity:1;stroke-miterlimit:10;" d="M 3.476002 1.82 L 3.476002 1.88 " transform="matrix(600,0,0,-600,-19.980001,1465.999996)"/>
<path style="fill:none;stroke-width:0.06;stroke-linecap:round;stroke-linejoin:miter;stroke:rgb(0%,0%,0%);stroke-opacity:1;stroke-miterlimit:10;" d="M 3.576002 1.88 L 3.576002 1.82 " transform="matrix(600,0,0,-600,-19.980001,1465.999996)"/>
<path style="fill:none;stroke-width:0.06;stroke-linecap:round;stroke-linejoin:miter;stroke:rgb(0%,0%,0%);stroke-opacity:1;stroke-miterlimit:10;" d="M 4.296002 1.85 L 4.356002 1.85 " transform="matrix(600,0,0,-600,-19.980001,1465.999996)"/>
<path style="fill:none;stroke-width:0.06;stroke-linecap:round;stroke-linejoin:miter;stroke:rgb(0%,0%,0%);stroke-opacity:1;stroke-miterlimit:10;" d="M 4.356002 1.75 L 4.296002 1.75 " transform="matrix(600,0,0,-600,-19.980001,1465.999996)"/>
<path style="fill:none;stroke-width:0.06;stroke-linecap:round;stroke-linejoin:miter;stroke:rgb(0%,0%,0%);stroke-opacity:1;stroke-miterlimit:10;" d="M 4.296002 1.95 L 4.356002 1.95 " transform="matrix(600,0,0,-600,-19.980001,1465.999996)"/>
<path style=" stroke:none;fill-rule:evenodd;fill:rgb(0%,0%,0%);fill-opacity:1;" d="M 2458.621094 1076 C 2458.621094 1041.207031 2430.414062 1013 2395.621094 1013 C 2360.824219 1013 2332.621094 1041.207031 2332.621094 1076 C 2332.621094 1110.792969 2360.824219 1139 2395.621094 1139 C 2430.414062 1139 2458.621094 1110.792969 2458.621094 1076 "/>
<path style=" stroke:none;fill-rule:evenodd;fill:rgb(0%,0%,0%);fill-opacity:1;" d="M 358.621094 296 C 358.621094 261.207031 330.414062 233 295.621094 233 C 260.824219 233 232.621094 261.207031 232.621094 296 C 232.621094 330.792969 260.824219 359 295.621094 359 C 330.414062 359 358.621094 330.792969 358.621094 296 "/>
<path style=" stroke:none;fill-rule:evenodd;fill:rgb(0%,0%,0%);fill-opacity:1;" d="M 1307.820312 1166 C 1307.820312 1136.398438 1263.421875 1136.398438 1263.421875 1166 C 1263.421875 1195.601562 1307.820312 1195.601562 1307.820312 1166 "/>
<path style=" stroke:none;fill-rule:evenodd;fill:rgb(0%,0%,0%);fill-opacity:1;" d="M 1427.820312 1166 C 1427.820312 1136.398438 1383.421875 1136.398438 1383.421875 1166 C 1383.421875 1195.601562 1427.820312 1195.601562 1427.820312 1166 "/>
<path style=" stroke:none;fill-rule:evenodd;fill:rgb(0%,0%,0%);fill-opacity:1;" d="M 1427.820312 986 C 1427.820312 956.398438 1383.421875 956.398438 1383.421875 986 C 1383.421875 1015.601562 1427.820312 1015.601562 1427.820312 986 "/>
<path style=" stroke:none;fill-rule:evenodd;fill:rgb(0%,0%,0%);fill-opacity:1;" d="M 1307.820312 986 C 1307.820312 956.398438 1263.421875 956.398438 1263.421875 986 C 1263.421875 1015.601562 1307.820312 1015.601562 1307.820312 986 "/>
<path style=" stroke:none;fill-rule:evenodd;fill:rgb(0%,0%,0%);fill-opacity:1;" d="M 1307.820312 896 C 1307.820312 866.398438 1263.421875 866.398438 1263.421875 896 C 1263.421875 925.601562 1307.820312 925.601562 1307.820312 896 "/>
<path style=" stroke:none;fill-rule:evenodd;fill:rgb(0%,0%,0%);fill-opacity:1;" d="M 1367.820312 806 C 1367.820312 776.398438 1323.421875 776.398438 1323.421875 806 C 1323.421875 835.601562 1367.820312 835.601562 1367.820312 806 "/>
<path style=" stroke:none;fill-rule:evenodd;fill:rgb(0%,0%,0%);fill-opacity:1;" d="M 1427.820312 716 C 1427.820312 686.398438 1383.421875 686.398438 1383.421875 716 C 1383.421875 745.601562 1427.820312 745.601562 1427.820312 716 "/>
<path style=" stroke:none;fill-rule:evenodd;fill:rgb(0%,0%,0%);fill-opacity:1;" d="M 1487.820312 626 C 1487.820312 596.398438 1443.421875 596.398438 1443.421875 626 C 1443.421875 655.601562 1487.820312 655.601562 1487.820312 626 "/>
<path style=" stroke:none;fill-rule:evenodd;fill:rgb(0%,0%,0%);fill-opacity:1;" d="M 1607.820312 716 C 1607.820312 686.398438 1563.421875 686.398438 1563.421875 716 C 1563.421875 745.601562 1607.820312 745.601562 1607.820312 716 "/>
<path style=" stroke:none;fill-rule:evenodd;fill:rgb(0%,0%,0%);fill-opacity:1;" d="M 1667.820312 626 C 1667.820312 596.398438 1623.421875 596.398438 1623.421875 626 C 1623.421875 655.601562 1667.820312 655.601562 1667.820312 626 "/>
<path style=" stroke:none;fill-rule:evenodd;fill:rgb(0%,0%,0%);fill-opacity:1;" d="M 1547.820312 806 C 1547.820312 776.398438 1503.421875 776.398438 1503.421875 806 C 1503.421875 835.601562 1547.820312 835.601562 1547.820312 806 "/>
<path style=" stroke:none;fill-rule:evenodd;fill:rgb(0%,0%,0%);fill-opacity:1;" d="M 1487.820312 896 C 1487.820312 866.398438 1443.421875 866.398438 1443.421875 896 C 1443.421875 925.601562 1487.820312 925.601562 1487.820312 896 "/>
<path style=" stroke:none;fill-rule:evenodd;fill:rgb(100%,100%,100%);fill-opacity:1;" d="M 1290.421875 1166 C 1290.421875 1159.601562 1280.820312 1159.601562 1280.820312 1166 C 1280.820312 1172.398438 1290.421875 1172.398438 1290.421875 1166 "/>
<path style=" stroke:none;fill-rule:evenodd;fill:rgb(100%,100%,100%);fill-opacity:1;" d="M 1410.421875 1166 C 1410.421875 1159.601562 1400.820312 1159.601562 1400.820312 1166 C 1400.820312 1172.398438 1410.421875 1172.398438 1410.421875 1166 "/>
<path style=" stroke:none;fill-rule:evenodd;fill:rgb(100%,100%,100%);fill-opacity:1;" d="M 1410.421875 986 C 1410.421875 979.601562 1400.820312 979.601562 1400.820312 986 C 1400.820312 992.398438 1410.421875 992.398438 1410.421875 986 "/>
<path style=" stroke:none;fill-rule:evenodd;fill:rgb(100%,100%,100%);fill-opacity:1;" d="M 1290.421875 986 C 1290.421875 979.601562 1280.820312 979.601562 1280.820312 986 C 1280.820312 992.398438 1290.421875 992.398438 1290.421875 986 "/>
<path style=" stroke:none;fill-rule:evenodd;fill:rgb(100%,100%,100%);fill-opacity:1;" d="M 1290.421875 896 C 1290.421875 889.601562 1280.820312 889.601562 1280.820312 896 C 1280.820312 902.398438 1290.421875 902.398438 1290.421875 896 "/>
<path style=" stroke:none;fill-rule:evenodd;fill:rgb(100%,100%,100%);fill-opacity:1;" d="M 1350.421875 806 C 1350.421875 799.601562 1340.820312 799.601562 1340.820312 806 C 1340.820312 812.398438 1350.421875 812.398438 1350.421875 806 "/>
<path style=" stroke:none;fill-rule:evenodd;fill:rgb(100%,100%,100%);fill-opacity:1;" d="M 1410.421875 716 C 1410.421875 709.601562 1400.820312 709.601562 1400.820312 716 C 1400.820312 722.398438 1410.421875 722.398438 1410.421875 716 "/>
<path style=" stroke:none;fill-rule:evenodd;fill:rgb(100%,100%,100%);fill-opacity:1;" d="M 1470.421875 626 C 1470.421875 619.601562 1460.820312 619.601562 1460.820312 626 C 1460.820312 632.398438 1470.421875 632.398438 1470.421875 626 "/>
<path style=" stroke:none;fill-rule:evenodd;fill:rgb(100%,100%,100%);fill-opacity:1;" d="M 1590.421875 716 C 1590.421875 709.601562 1580.820312 709.601562 1580.820312 716 C 1580.820312 722.398438 1590.421875 722.398438 1590.421875 716 "/>
<path style=" stroke:none;fill-rule:evenodd;fill:rgb(100%,100%,100%);fill-opacity:1;" d="M 1650.421875 626 C 1650.421875 619.601562 1640.820312 619.601562 1640.820312 626 C 1640.820312 632.398438 1650.421875 632.398438 1650.421875 626 "/>
<path style=" stroke:none;fill-rule:evenodd;fill:rgb(100%,100%,100%);fill-opacity:1;" d="M 1530.421875 806 C 1530.421875 799.601562 1520.820312 799.601562 1520.820312 806 C 1520.820312 812.398438 1530.421875 812.398438 1530.421875 806 "/>
<path style=" stroke:none;fill-rule:evenodd;fill:rgb(100%,100%,100%);fill-opacity:1;" d="M 1470.421875 896 C 1470.421875 889.601562 1460.820312 889.601562 1460.820312 896 C 1460.820312 902.398438 1470.421875 902.398438 1470.421875 896 "/>
<path style=" stroke:none;fill-rule:evenodd;fill:rgb(100%,100%,100%);fill-opacity:1;" d="M 1470.421875 476 C 1470.421875 469.601562 1460.820312 469.601562 1460.820312 476 C 1460.820312 482.398438 1470.421875 482.398438 1470.421875 476 "/>
<path style=" stroke:none;fill-rule:evenodd;fill:rgb(100%,100%,100%);fill-opacity:1;" d="M 1410.421875 476 C 1410.421875 469.601562 1400.820312 469.601562 1400.820312 476 C 1400.820312 482.398438 1410.421875 482.398438 1410.421875 476 "/>
<path style=" stroke:none;fill-rule:evenodd;fill:rgb(100%,100%,100%);fill-opacity:1;" d="M 1350.421875 476 C 1350.421875 469.601562 1340.820312 469.601562 1340.820312 476 C 1340.820312 482.398438 1350.421875 482.398438 1350.421875 476 "/>
<path style=" stroke:none;fill-rule:evenodd;fill:rgb(100%,100%,100%);fill-opacity:1;" d="M 1290.421875 476 C 1290.421875 469.601562 1280.820312 469.601562 1280.820312 476 C 1280.820312 482.398438 1290.421875 482.398438 1290.421875 476 "/>
<path style=" stroke:none;fill-rule:evenodd;fill:rgb(100%,100%,100%);fill-opacity:1;" d="M 1230.421875 476 C 1230.421875 469.601562 1220.820312 469.601562 1220.820312 476 C 1220.820312 482.398438 1230.421875 482.398438 1230.421875 476 "/>
<path style=" stroke:none;fill-rule:evenodd;fill:rgb(100%,100%,100%);fill-opacity:1;" d="M 1170.421875 476 C 1170.421875 469.601562 1160.820312 469.601562 1160.820312 476 C 1160.820312 482.398438 1170.421875 482.398438 1170.421875 476 "/>
<path style=" stroke:none;fill-rule:evenodd;fill:rgb(100%,100%,100%);fill-opacity:1;" d="M 1170.421875 296 C 1170.421875 289.601562 1160.820312 289.601562 1160.820312 296 C 1160.820312 302.398438 1170.421875 302.398438 1170.421875 296 "/>
<path style=" stroke:none;fill-rule:evenodd;fill:rgb(100%,100%,100%);fill-opacity:1;" d="M 1230.421875 296 C 1230.421875 289.601562 1220.820312 289.601562 1220.820312 296 C 1220.820312 302.398438 1230.421875 302.398438 1230.421875 296 "/>
<path style=" stroke:none;fill-rule:evenodd;fill:rgb(100%,100%,100%);fill-opacity:1;" d="M 1290.421875 296 C 1290.421875 289.601562 1280.820312 289.601562 1280.820312 296 C 1280.820312 302.398438 1290.421875 302.398438 1290.421875 296 "/>
<path style=" stroke:none;fill-rule:evenodd;fill:rgb(100%,100%,100%);fill-opacity:1;" d="M 1350.421875 296 C 1350.421875 289.601562 1340.820312 289.601562 1340.820312 296 C 1340.820312 302.398438 1350.421875 302.398438 1350.421875 296 "/>
<path style=" stroke:none;fill-rule:evenodd;fill:rgb(100%,100%,100%);fill-opacity:1;" d="M 1410.421875 296 C 1410.421875 289.601562 1400.820312 289.601562 1400.820312 296 C 1400.820312 302.398438 1410.421875 302.398438 1410.421875 296 "/>
<path style=" stroke:none;fill-rule:evenodd;fill:rgb(100%,100%,100%);fill-opacity:1;" d="M 1470.421875 296 C 1470.421875 289.601562 1460.820312 289.601562 1460.820312 296 C 1460.820312 302.398438 1470.421875 302.398438 1470.421875 296 "/>
<path style=" stroke:none;fill-rule:evenodd;fill:rgb(100%,100%,100%);fill-opacity:1;" d="M 2010.421875 356 C 2010.421875 349.601562 2000.820312 349.601562 2000.820312 356 C 2000.820312 362.398438 2010.421875 362.398438 2010.421875 356 "/>
<path style=" stroke:none;fill-rule:evenodd;fill:rgb(100%,100%,100%);fill-opacity:1;" d="M 2070.421875 356 C 2070.421875 349.601562 2060.820312 349.601562 2060.820312 356 C 2060.820312 362.398438 2070.421875 362.398438 2070.421875 356 "/>
<path style=" stroke:none;fill-rule:evenodd;fill:rgb(100%,100%,100%);fill-opacity:1;" d="M 2130.421875 356 C 2130.421875 349.601562 2120.820312 349.601562 2120.820312 356 C 2120.820312 362.398438 2130.421875 362.398438 2130.421875 356 "/>
<path style=" stroke:none;fill-rule:evenodd;fill:rgb(100%,100%,100%);fill-opacity:1;" d="M 2580.421875 356 C 2580.421875 349.601562 2570.820312 349.601562 2570.820312 356 C 2570.820312 362.398438 2580.421875 362.398438 2580.421875 356 "/>
<path style=" stroke:none;fill-rule:evenodd;fill:rgb(100%,100%,100%);fill-opacity:1;" d="M 2580.421875 416 C 2580.421875 409.601562 2570.820312 409.601562 2570.820312 416 C 2570.820312 422.398438 2580.421875 422.398438 2580.421875 416 "/>
<path style=" stroke:none;fill-rule:evenodd;fill:rgb(100%,100%,100%);fill-opacity:1;" d="M 2580.421875 296 C 2580.421875 289.601562 2570.820312 289.601562 2570.820312 296 C 2570.820312 302.398438 2580.421875 302.398438 2580.421875 296 "/>
<path style=" stroke:none;fill-rule:evenodd;fill:rgb(100%,100%,100%);fill-opacity:1;" d="M 1041.421875 375.621094 C 1041.421875 369.21875 1031.820312 369.21875 1031.820312 375.621094 C 1031.820312 382.019531 1041.421875 382.019531 1041.421875 375.621094 "/>
<path style=" stroke:none;fill-rule:evenodd;fill:rgb(100%,100%,100%);fill-opacity:1;" d="M 468.359375 375.621094 C 468.359375 369.21875 458.761719 369.21875 458.761719 375.621094 C 458.761719 382.019531 468.359375 382.019531 468.359375 375.621094 "/>
<path style=" stroke:none;fill-rule:evenodd;fill:rgb(100%,100%,100%);fill-opacity:1;" d="M 300.421875 296 C 300.421875 289.601562 290.820312 289.601562 290.820312 296 C 290.820312 302.398438 300.421875 302.398438 300.421875 296 "/>
<path style=" stroke:none;fill-rule:evenodd;fill:rgb(100%,100%,100%);fill-opacity:1;" d="M 2400.421875 1076 C 2400.421875 1069.601562 2390.820312 1069.601562 2390.820312 1076 C 2390.820312 1082.398438 2400.421875 1082.398438 2400.421875 1076 "/>
</g>
</svg>
