<?xml version="1.0" encoding="UTF-8"?>
<svg xmlns="http://www.w3.org/2000/svg" xmlns:xlink="http://www.w3.org/1999/xlink" width="2637pt" height="1199pt" viewBox="0 0 2637 1199" version="1.1">
<g id="surface1">
<path style="fill:none;stroke-width:0.01;stroke-linecap:round;stroke-linejoin:miter;stroke:rgb(0%,0%,0%);stroke-opacity:1;stroke-miterlimit:10;" d="M 0.426002 0.45 L 0.426002 2.049603 " transform="matrix(600,0,0,-600,-19.980001,1465.999996)"/>
<path style="fill:none;stroke-width:0.01;stroke-linecap:round;stroke-linejoin:miter;stroke:rgb(0%,0%,0%);stroke-opacity:1;stroke-miterlimit:10;" d="M 0.426002 2.049603 L 4.413001 2.049603 " transform="matrix(600,0,0,-600,-19.980001,1465.999996)"/>
<path style="fill:none;stroke-width:0.01;stroke-linecap:round;stroke-linejoin:miter;stroke:rgb(0%,0%,0%);stroke-opacity:1;stroke-miterlimit:10;" d="M 4.413001 2.049603 L 4.413001 0.45 " transform="matrix(600,0,0,-600,-19.980001,1465.999996)"/>
<path style="fill:none;stroke-width:0.01;stroke-linecap:round;stroke-linejoin:miter;stroke:rgb(0%,0%,0%);stroke-opacity:1;stroke-miterlimit:10;" d="M 4.413001 0.45 L 0.426002 0.45 " transform="matrix(600,0,0,-600,-19.980001,1465.999996)"/>
<path style="fill:none;stroke-width:0.0051;stroke-linecap:round;stroke-linejoin:miter;stroke:rgb(0%,0%,0%);stroke-opacity:1;stroke-miterlimit:10;" d="M 0.426002 0.45 L 0.0491984 0.45 " transform="matrix(600,0,0,-600,-19.980001,1465.999996)"/>
<path style="fill:none;stroke-width:0.0051;stroke-linecap:round;stroke-linejoin:miter;stroke:rgb(0%,0%,0%);stroke-opacity:1;stroke-miterlimit:10;" d="M 0.126002 0.452598 L 0.136197 0.552402 " transform="matrix(600,0,0,-600,-19.980001,1465.999996)"/>
<path style="fill:none;stroke-width:0.0051;stroke-linecap:round;stroke-linejoin:miter;stroke:rgb(0%,0%,0%);stroke-opacity:1;stroke-miterlimit:10;" d="M 0.138502 0.552402 L 0.126002 0.452598 " transform="matrix(600,0,0,-600,-19.980001,1465.999996)"/>
<path style="fill:none;stroke-width:0.0051;stroke-linecap:round;stroke-linejoin:miter;stroke:rgb(0%,0%,0%);stroke-opacity:1;stroke-miterlimit:10;" d="M 0.126002 0.452598 L 0.115702 0.552402 " transform="matrix(600,0,0,-600,-19.980001,1465.999996)"/>
<path style="fill:none;stroke-width:0.0051;stroke-linecap:round;stroke-linejoin:miter;stroke:rgb(0%,0%,0%);stroke-opacity:1;stroke-miterlimit:10;" d="M 0.113398 0.552402 L 0.138502 0.552402 " transform="matrix(600,0,0,-600,-19.980001,1465.999996)"/>
<path style="fill:none;stroke-width:0.0051;stroke-linecap:round;stroke-linejoin:miter;stroke:rgb(0%,0%,0%);stroke-opacity:1;stroke-miterlimit:10;" d="M 0.131099 0.552402 L 0.126002 0.452598 " transform="matrix(600,0,0,-600,-19.980001,1465.999996)"/>
<path style="fill:none;stroke-width:0.0051;stroke-linecap:round;stroke-linejoin:miter;stroke:rgb(0%,0%,0%);stroke-opacity:1;stroke-miterlimit:10;" d="M 0.126002 0.452598 L 0.1208 0.552402 " transform="matrix(600,0,0,-600,-19.980001,1465.999996)"/>
<path style="fill:none;stroke-width:0.0051;stroke-linecap:round;stroke-linejoin:miter;stroke:rgb(0%,0%,0%);stroke-opacity:1;stroke-miterlimit:10;" d="M 0.113398 0.552402 L 0.126002 0.452598 " transform="matrix(600,0,0,-600,-19.980001,1465.999996)"/>
<path style="fill:none;stroke-width:0.0051;stroke-linecap:round;stroke-linejoin:miter;stroke:rgb(0%,0%,0%);stroke-opacity:1;stroke-miterlimit:10;" d="M 0.126002 0.452598 L 0.126002 2.047402 " transform="matrix(600,0,0,-600,-19.980001,1465.999996)"/>
<path style="fill:none;stroke-width:0.0051;stroke-linecap:round;stroke-linejoin:miter;stroke:rgb(0%,0%,0%);stroke-opacity:1;stroke-miterlimit:10;" d="M 0.126002 2.047402 L 0.136197 1.947598 " transform="matrix(600,0,0,-600,-19.980001,1465.999996)"/>
<path style="fill:none;stroke-width:0.0051;stroke-linecap:round;stroke-linejoin:miter;stroke:rgb(0%,0%,0%);stroke-opacity:1;stroke-miterlimit:10;" d="M 0.138502 1.947598 L 0.126002 2.047402 " transform="matrix(600,0,0,-600,-19.980001,1465.999996)"/>
<path style="fill:none;stroke-width:0.0051;stroke-linecap:round;stroke-linejoin:miter;stroke:rgb(0%,0%,0%);stroke-opacity:1;stroke-miterlimit:10;" d="M 0.126002 2.047402 L 0.115702 1.947598 " transform="matrix(600,0,0,-600,-19.980001,1465.999996)"/>
<path style="fill:none;stroke-width:0.0051;stroke-linecap:round;stroke-linejoin:miter;stroke:rgb(0%,0%,0%);stroke-opacity:1;stroke-miterlimit:10;" d="M 0.113398 1.947598 L 0.138502 1.947598 " transform="matrix(600,0,0,-600,-19.980001,1465.999996)"/>
<path style="fill:none;stroke-width:0.0051;stroke-linecap:round;stroke-linejoin:miter;stroke:rgb(0%,0%,0%);stroke-opacity:1;stroke-miterlimit:10;" d="M 0.131099 1.947598 L 0.126002 2.047402 " transform="matrix(600,0,0,-600,-19.980001,1465.999996)"/>
<path style="fill:none;stroke-width:0.0051;stroke-linecap:round;stroke-linejoin:miter;stroke:rgb(0%,0%,0%);stroke-opacity:1;stroke-miterlimit:10;" d="M 0.126002 2.047402 L 0.1208 1.947598 " transform="matrix(600,0,0,-600,-19.980001,1465.999996)"/>
<path style="fill:none;stroke-width:0.0051;stroke-linecap:round;stroke-linejoin:miter;stroke:rgb(0%,0%,0%);stroke-opacity:1;stroke-miterlimit:10;" d="M 0.113398 1.947598 L 0.126002 2.047402 " transform="matrix(600,0,0,-600,-19.980001,1465.999996)"/>
<path style="fill:none;stroke-width:0.0051;stroke-linecap:round;stroke-linejoin:miter;stroke:rgb(0%,0%,0%);stroke-opacity:1;stroke-miterlimit:10;" d="M 0.0491984 2.05 L 0.426002 2.05 " transform="matrix(600,0,0,-600,-19.980001,1465.999996)"/>
<path style="fill:none;stroke-width:0.0051;stroke-linecap:round;stroke-linejoin:miter;stroke:rgb(0%,0%,0%);stroke-opacity:1;stroke-miterlimit:10;" d="M 0.426002 2.049603 L 0.425898 2.4264 " transform="matrix(600,0,0,-600,-19.980001,1465.999996)"/>
<path style="fill:none;stroke-width:0.0051;stroke-linecap:round;stroke-linejoin:miter;stroke:rgb(0%,0%,0%);stroke-opacity:1;stroke-miterlimit:10;" d="M 0.428502 2.349603 L 0.5283 2.359902 " transform="matrix(600,0,0,-600,-19.980001,1465.999996)"/>
<path style="fill:none;stroke-width:0.0051;stroke-linecap:round;stroke-linejoin:miter;stroke:rgb(0%,0%,0%);stroke-opacity:1;stroke-miterlimit:10;" d="M 0.5283 2.362201 L 0.5283 2.336999 " transform="matrix(600,0,0,-600,-19.980001,1465.999996)"/>
<path style="fill:none;stroke-width:0.0051;stroke-linecap:round;stroke-linejoin:miter;stroke:rgb(0%,0%,0%);stroke-opacity:1;stroke-miterlimit:10;" d="M 0.5283 2.336999 L 0.428502 2.349603 " transform="matrix(600,0,0,-600,-19.980001,1465.999996)"/>
<path style="fill:none;stroke-width:0.0051;stroke-linecap:round;stroke-linejoin:miter;stroke:rgb(0%,0%,0%);stroke-opacity:1;stroke-miterlimit:10;" d="M 0.428502 2.349603 L 0.5283 2.339401 " transform="matrix(600,0,0,-600,-19.980001,1465.999996)"/>
<path style="fill:none;stroke-width:0.0051;stroke-linecap:round;stroke-linejoin:miter;stroke:rgb(0%,0%,0%);stroke-opacity:1;stroke-miterlimit:10;" d="M 0.5283 2.344499 L 0.428502 2.349603 " transform="matrix(600,0,0,-600,-19.980001,1465.999996)"/>
<path style="fill:none;stroke-width:0.0051;stroke-linecap:round;stroke-linejoin:miter;stroke:rgb(0%,0%,0%);stroke-opacity:1;stroke-miterlimit:10;" d="M 0.428502 2.349603 L 0.5283 2.354701 " transform="matrix(600,0,0,-600,-19.980001,1465.999996)"/>
<path style="fill:none;stroke-width:0.0051;stroke-linecap:round;stroke-linejoin:miter;stroke:rgb(0%,0%,0%);stroke-opacity:1;stroke-miterlimit:10;" d="M 0.5283 2.362201 L 0.428502 2.349603 " transform="matrix(600,0,0,-600,-19.980001,1465.999996)"/>
<path style="fill:none;stroke-width:0.0051;stroke-linecap:round;stroke-linejoin:miter;stroke:rgb(0%,0%,0%);stroke-opacity:1;stroke-miterlimit:10;" d="M 0.428502 2.349603 L 4.423398 2.35 " transform="matrix(600,0,0,-600,-19.980001,1465.999996)"/>
<path style="fill:none;stroke-width:0.0051;stroke-linecap:round;stroke-linejoin:miter;stroke:rgb(0%,0%,0%);stroke-opacity:1;stroke-miterlimit:10;" d="M 4.423398 2.35 L 4.323599 2.339798 " transform="matrix(600,0,0,-600,-19.980001,1465.999996)"/>
<path style="fill:none;stroke-width:0.0051;stroke-linecap:round;stroke-linejoin:miter;stroke:rgb(0%,0%,0%);stroke-opacity:1;stroke-miterlimit:10;" d="M 4.323599 2.337402 L 4.423398 2.35 " transform="matrix(600,0,0,-600,-19.980001,1465.999996)"/>
<path style="fill:none;stroke-width:0.0051;stroke-linecap:round;stroke-linejoin:miter;stroke:rgb(0%,0%,0%);stroke-opacity:1;stroke-miterlimit:10;" d="M 4.423398 2.35 L 4.323599 2.360202 " transform="matrix(600,0,0,-600,-19.980001,1465.999996)"/>
<path style="fill:none;stroke-width:0.0051;stroke-linecap:round;stroke-linejoin:miter;stroke:rgb(0%,0%,0%);stroke-opacity:1;stroke-miterlimit:10;" d="M 4.323599 2.362598 L 4.323599 2.337402 " transform="matrix(600,0,0,-600,-19.980001,1465.999996)"/>
<path style="fill:none;stroke-width:0.0051;stroke-linecap:round;stroke-linejoin:miter;stroke:rgb(0%,0%,0%);stroke-opacity:1;stroke-miterlimit:10;" d="M 4.323599 2.344902 L 4.423398 2.35 " transform="matrix(600,0,0,-600,-19.980001,1465.999996)"/>
<path style="fill:none;stroke-width:0.0051;stroke-linecap:round;stroke-linejoin:miter;stroke:rgb(0%,0%,0%);stroke-opacity:1;stroke-miterlimit:10;" d="M 4.423398 2.35 L 4.323599 2.355098 " transform="matrix(600,0,0,-600,-19.980001,1465.999996)"/>
<path style="fill:none;stroke-width:0.0051;stroke-linecap:round;stroke-linejoin:miter;stroke:rgb(0%,0%,0%);stroke-opacity:1;stroke-miterlimit:10;" d="M 4.323599 2.362598 L 4.423398 2.35 " transform="matrix(600,0,0,-600,-19.980001,1465.999996)"/>
<path style="fill:none;stroke-width:0.0051;stroke-linecap:round;stroke-linejoin:miter;stroke:rgb(0%,0%,0%);stroke-opacity:1;stroke-miterlimit:10;" d="M 4.425898 2.426797 L 4.426002 2.05 " transform="matrix(600,0,0,-600,-19.980001,1465.999996)"/>
<path style="fill:none;stroke-width:0.006;stroke-linecap:round;stroke-linejoin:miter;stroke:rgb(0%,0%,0%);stroke-opacity:1;stroke-miterlimit:10;" d="M 2.5522 2.3861 L 2.541503 2.375397 " transform="matrix(600,0,0,-600,-19.980001,1465.999996)"/>
<path style="fill:none;stroke-width:0.006;stroke-linecap:round;stroke-linejoin:miter;stroke:rgb(0%,0%,0%);stroke-opacity:1;stroke-miterlimit:10;" d="M 2.541503 2.375397 L 2.520201 2.375397 " transform="matrix(600,0,0,-600,-19.980001,1465.999996)"/>
<path style="fill:none;stroke-width:0.006;stroke-linecap:round;stroke-linejoin:miter;stroke:rgb(0%,0%,0%);stroke-opacity:1;stroke-miterlimit:10;" d="M 2.520201 2.375397 L 2.509498 2.3861 " transform="matrix(600,0,0,-600,-19.980001,1465.999996)"/>
<path style="fill:none;stroke-width:0.006;stroke-linecap:round;stroke-linejoin:miter;stroke:rgb(0%,0%,0%);stroke-opacity:1;stroke-miterlimit:10;" d="M 2.509498 2.3861 L 2.509498 2.407402 " transform="matrix(600,0,0,-600,-19.980001,1465.999996)"/>
<path style="fill:none;stroke-width:0.006;stroke-linecap:round;stroke-linejoin:miter;stroke:rgb(0%,0%,0%);stroke-opacity:1;stroke-miterlimit:10;" d="M 2.509498 2.407402 L 2.541503 2.407402 " transform="matrix(600,0,0,-600,-19.980001,1465.999996)"/>
<path style="fill:none;stroke-width:0.006;stroke-linecap:round;stroke-linejoin:miter;stroke:rgb(0%,0%,0%);stroke-opacity:1;stroke-miterlimit:10;" d="M 2.541503 2.407402 L 2.5522 2.396797 " transform="matrix(600,0,0,-600,-19.980001,1465.999996)"/>
<path style="fill:none;stroke-width:0.006;stroke-linecap:round;stroke-linejoin:miter;stroke:rgb(0%,0%,0%);stroke-opacity:1;stroke-miterlimit:10;" d="M 2.5522 2.396797 L 2.5522 2.3861 " transform="matrix(600,0,0,-600,-19.980001,1465.999996)"/>
<path style="fill:none;stroke-width:0.006;stroke-linecap:round;stroke-linejoin:miter;stroke:rgb(0%,0%,0%);stroke-opacity:1;stroke-miterlimit:10;" d="M 2.5308 2.428802 L 2.509498 2.407402 " transform="matrix(600,0,0,-600,-19.980001,1465.999996)"/>
<path style="fill:none;stroke-width:0.006;stroke-linecap:round;stroke-linejoin:miter;stroke:rgb(0%,0%,0%);stroke-opacity:1;stroke-miterlimit:10;" d="M 2.5308 2.428802 L 2.5522 2.439499 " transform="matrix(600,0,0,-600,-19.980001,1465.999996)"/>
<path style="fill:none;stroke-width:0.006;stroke-linecap:round;stroke-linejoin:miter;stroke:rgb(0%,0%,0%);stroke-opacity:1;stroke-miterlimit:10;" d="M 2.487903 2.3861 L 2.477297 2.3861 " transform="matrix(600,0,0,-600,-19.980001,1465.999996)"/>
<path style="fill:none;stroke-width:0.006;stroke-linecap:round;stroke-linejoin:miter;stroke:rgb(0%,0%,0%);stroke-opacity:1;stroke-miterlimit:10;" d="M 2.477297 2.3861 L 2.477297 2.375397 " transform="matrix(600,0,0,-600,-19.980001,1465.999996)"/>
<path style="fill:none;stroke-width:0.006;stroke-linecap:round;stroke-linejoin:miter;stroke:rgb(0%,0%,0%);stroke-opacity:1;stroke-miterlimit:10;" d="M 2.477297 2.375397 L 2.487903 2.375397 " transform="matrix(600,0,0,-600,-19.980001,1465.999996)"/>
<path style="fill:none;stroke-width:0.006;stroke-linecap:round;stroke-linejoin:miter;stroke:rgb(0%,0%,0%);stroke-opacity:1;stroke-miterlimit:10;" d="M 2.487903 2.375397 L 2.487903 2.3861 " transform="matrix(600,0,0,-600,-19.980001,1465.999996)"/>
<path style="fill:none;stroke-width:0.006;stroke-linecap:round;stroke-linejoin:miter;stroke:rgb(0%,0%,0%);stroke-opacity:1;stroke-miterlimit:10;" d="M 2.455501 2.375397 L 2.412799 2.375397 " transform="matrix(600,0,0,-600,-19.980001,1465.999996)"/>
<path style="fill:none;stroke-width:0.006;stroke-linecap:round;stroke-linejoin:miter;stroke:rgb(0%,0%,0%);stroke-opacity:1;stroke-miterlimit:10;" d="M 2.434198 2.375397 L 2.434198 2.439499 " transform="matrix(600,0,0,-600,-19.980001,1465.999996)"/>
<path style="fill:none;stroke-width:0.006;stroke-linecap:round;stroke-linejoin:miter;stroke:rgb(0%,0%,0%);stroke-opacity:1;stroke-miterlimit:10;" d="M 2.434198 2.439499 L 2.412799 2.418099 " transform="matrix(600,0,0,-600,-19.980001,1465.999996)"/>
<path style="fill:none;stroke-width:0.006;stroke-linecap:round;stroke-linejoin:miter;stroke:rgb(0%,0%,0%);stroke-opacity:1;stroke-miterlimit:10;" d="M 2.391099 2.428802 L 2.348398 2.3861 " transform="matrix(600,0,0,-600,-19.980001,1465.999996)"/>
<path style="fill:none;stroke-width:0.006;stroke-linecap:round;stroke-linejoin:miter;stroke:rgb(0%,0%,0%);stroke-opacity:1;stroke-miterlimit:10;" d="M 2.348398 2.3861 L 2.359003 2.375397 " transform="matrix(600,0,0,-600,-19.980001,1465.999996)"/>
<path style="fill:none;stroke-width:0.006;stroke-linecap:round;stroke-linejoin:miter;stroke:rgb(0%,0%,0%);stroke-opacity:1;stroke-miterlimit:10;" d="M 2.359003 2.375397 L 2.380403 2.375397 " transform="matrix(600,0,0,-600,-19.980001,1465.999996)"/>
<path style="fill:none;stroke-width:0.006;stroke-linecap:round;stroke-linejoin:miter;stroke:rgb(0%,0%,0%);stroke-opacity:1;stroke-miterlimit:10;" d="M 2.380403 2.375397 L 2.391099 2.3861 " transform="matrix(600,0,0,-600,-19.980001,1465.999996)"/>
<path style="fill:none;stroke-width:0.006;stroke-linecap:round;stroke-linejoin:miter;stroke:rgb(0%,0%,0%);stroke-opacity:1;stroke-miterlimit:10;" d="M 2.391099 2.3861 L 2.391099 2.428802 " transform="matrix(600,0,0,-600,-19.980001,1465.999996)"/>
<path style="fill:none;stroke-width:0.006;stroke-linecap:round;stroke-linejoin:miter;stroke:rgb(0%,0%,0%);stroke-opacity:1;stroke-miterlimit:10;" d="M 2.391099 2.428802 L 2.380403 2.439499 " transform="matrix(600,0,0,-600,-19.980001,1465.999996)"/>
<path style="fill:none;stroke-width:0.006;stroke-linecap:round;stroke-linejoin:miter;stroke:rgb(0%,0%,0%);stroke-opacity:1;stroke-miterlimit:10;" d="M 2.380403 2.439499 L 2.359003 2.439499 " transform="matrix(600,0,0,-600,-19.980001,1465.999996)"/>
<path style="fill:none;stroke-width:0.006;stroke-linecap:round;stroke-linejoin:miter;stroke:rgb(0%,0%,0%);stroke-opacity:1;stroke-miterlimit:10;" d="M 2.359003 2.439499 L 2.348398 2.428802 " transform="matrix(600,0,0,-600,-19.980001,1465.999996)"/>
<path style="fill:none;stroke-width:0.006;stroke-linecap:round;stroke-linejoin:miter;stroke:rgb(0%,0%,0%);stroke-opacity:1;stroke-miterlimit:10;" d="M 2.348398 2.428802 L 2.348398 2.3861 " transform="matrix(600,0,0,-600,-19.980001,1465.999996)"/>
<path style="fill:none;stroke-width:0.006;stroke-linecap:round;stroke-linejoin:miter;stroke:rgb(0%,0%,0%);stroke-opacity:1;stroke-miterlimit:10;" d="M 2.326601 2.375397 L 2.283899 2.375397 " transform="matrix(600,0,0,-600,-19.980001,1465.999996)"/>
<path style="fill:none;stroke-width:0.006;stroke-linecap:round;stroke-linejoin:miter;stroke:rgb(0%,0%,0%);stroke-opacity:1;stroke-miterlimit:10;" d="M 2.305201 2.375397 L 2.305201 2.439499 " transform="matrix(600,0,0,-600,-19.980001,1465.999996)"/>
<path style="fill:none;stroke-width:0.006;stroke-linecap:round;stroke-linejoin:miter;stroke:rgb(0%,0%,0%);stroke-opacity:1;stroke-miterlimit:10;" d="M 2.305201 2.439499 L 2.283899 2.418099 " transform="matrix(600,0,0,-600,-19.980001,1465.999996)"/>
<path style="fill:none;stroke-width:0.006;stroke-linecap:round;stroke-linejoin:miter;stroke:rgb(0%,0%,0%);stroke-opacity:1;stroke-miterlimit:10;" d="M 0.100299 1.365599 L 0.0363013 1.365599 " transform="matrix(600,0,0,-600,-19.980001,1465.999996)"/>
<path style="fill:none;stroke-width:0.006;stroke-linecap:round;stroke-linejoin:miter;stroke:rgb(0%,0%,0%);stroke-opacity:1;stroke-miterlimit:10;" d="M 0.0363013 1.365599 L 0.0683 1.3336 " transform="matrix(600,0,0,-600,-19.980001,1465.999996)"/>
<path style="fill:none;stroke-width:0.006;stroke-linecap:round;stroke-linejoin:miter;stroke:rgb(0%,0%,0%);stroke-opacity:1;stroke-miterlimit:10;" d="M 0.0683 1.3336 L 0.0683 1.376302 " transform="matrix(600,0,0,-600,-19.980001,1465.999996)"/>
<path style="fill:none;stroke-width:0.006;stroke-linecap:round;stroke-linejoin:miter;stroke:rgb(0%,0%,0%);stroke-opacity:1;stroke-miterlimit:10;" d="M 0.0790031 1.311797 L 0.0683 1.3011 " transform="matrix(600,0,0,-600,-19.980001,1465.999996)"/>
<path style="fill:none;stroke-width:0.006;stroke-linecap:round;stroke-linejoin:miter;stroke:rgb(0%,0%,0%);stroke-opacity:1;stroke-miterlimit:10;" d="M 0.0683 1.3011 L 0.0683 1.269102 " transform="matrix(600,0,0,-600,-19.980001,1465.999996)"/>
<path style="fill:none;stroke-width:0.006;stroke-linecap:round;stroke-linejoin:miter;stroke:rgb(0%,0%,0%);stroke-opacity:1;stroke-miterlimit:10;" d="M 0.0683 1.269102 L 0.0896997 1.269102 " transform="matrix(600,0,0,-600,-19.980001,1465.999996)"/>
<path style="fill:none;stroke-width:0.006;stroke-linecap:round;stroke-linejoin:miter;stroke:rgb(0%,0%,0%);stroke-opacity:1;stroke-miterlimit:10;" d="M 0.0896997 1.269102 L 0.100299 1.279798 " transform="matrix(600,0,0,-600,-19.980001,1465.999996)"/>
<path style="fill:none;stroke-width:0.006;stroke-linecap:round;stroke-linejoin:miter;stroke:rgb(0%,0%,0%);stroke-opacity:1;stroke-miterlimit:10;" d="M 0.100299 1.279798 L 0.100299 1.3011 " transform="matrix(600,0,0,-600,-19.980001,1465.999996)"/>
<path style="fill:none;stroke-width:0.006;stroke-linecap:round;stroke-linejoin:miter;stroke:rgb(0%,0%,0%);stroke-opacity:1;stroke-miterlimit:10;" d="M 0.100299 1.3011 L 0.0896997 1.311797 " transform="matrix(600,0,0,-600,-19.980001,1465.999996)"/>
<path style="fill:none;stroke-width:0.006;stroke-linecap:round;stroke-linejoin:miter;stroke:rgb(0%,0%,0%);stroke-opacity:1;stroke-miterlimit:10;" d="M 0.0896997 1.311797 L 0.0790031 1.311797 " transform="matrix(600,0,0,-600,-19.980001,1465.999996)"/>
<path style="fill:none;stroke-width:0.006;stroke-linecap:round;stroke-linejoin:miter;stroke:rgb(0%,0%,0%);stroke-opacity:1;stroke-miterlimit:10;" d="M 0.0469979 1.290501 L 0.0683 1.269102 " transform="matrix(600,0,0,-600,-19.980001,1465.999996)"/>
<path style="fill:none;stroke-width:0.006;stroke-linecap:round;stroke-linejoin:miter;stroke:rgb(0%,0%,0%);stroke-opacity:1;stroke-miterlimit:10;" d="M 0.0469979 1.290501 L 0.0363013 1.311797 " transform="matrix(600,0,0,-600,-19.980001,1465.999996)"/>
<path style="fill:none;stroke-width:0.006;stroke-linecap:round;stroke-linejoin:miter;stroke:rgb(0%,0%,0%);stroke-opacity:1;stroke-miterlimit:10;" d="M 0.0896997 1.247598 L 0.100299 1.247598 " transform="matrix(600,0,0,-600,-19.980001,1465.999996)"/>
<path style="fill:none;stroke-width:0.006;stroke-linecap:round;stroke-linejoin:miter;stroke:rgb(0%,0%,0%);stroke-opacity:1;stroke-miterlimit:10;" d="M 0.100299 1.247598 L 0.100299 1.236901 " transform="matrix(600,0,0,-600,-19.980001,1465.999996)"/>
<path style="fill:none;stroke-width:0.006;stroke-linecap:round;stroke-linejoin:miter;stroke:rgb(0%,0%,0%);stroke-opacity:1;stroke-miterlimit:10;" d="M 0.100299 1.236901 L 0.0896997 1.236901 " transform="matrix(600,0,0,-600,-19.980001,1465.999996)"/>
<path style="fill:none;stroke-width:0.006;stroke-linecap:round;stroke-linejoin:miter;stroke:rgb(0%,0%,0%);stroke-opacity:1;stroke-miterlimit:10;" d="M 0.0896997 1.236901 L 0.0896997 1.247598 " transform="matrix(600,0,0,-600,-19.980001,1465.999996)"/>
<path style="fill:none;stroke-width:0.006;stroke-linecap:round;stroke-linejoin:miter;stroke:rgb(0%,0%,0%);stroke-opacity:1;stroke-miterlimit:10;" d="M 0.0896997 1.215098 L 0.100299 1.204499 " transform="matrix(600,0,0,-600,-19.980001,1465.999996)"/>
<path style="fill:none;stroke-width:0.006;stroke-linecap:round;stroke-linejoin:miter;stroke:rgb(0%,0%,0%);stroke-opacity:1;stroke-miterlimit:10;" d="M 0.100299 1.204499 L 0.100299 1.183099 " transform="matrix(600,0,0,-600,-19.980001,1465.999996)"/>
<path style="fill:none;stroke-width:0.006;stroke-linecap:round;stroke-linejoin:miter;stroke:rgb(0%,0%,0%);stroke-opacity:1;stroke-miterlimit:10;" d="M 0.100299 1.183099 L 0.0896997 1.172402 " transform="matrix(600,0,0,-600,-19.980001,1465.999996)"/>
<path style="fill:none;stroke-width:0.006;stroke-linecap:round;stroke-linejoin:miter;stroke:rgb(0%,0%,0%);stroke-opacity:1;stroke-miterlimit:10;" d="M 0.0896997 1.172402 L 0.0469979 1.215098 " transform="matrix(600,0,0,-600,-19.980001,1465.999996)"/>
<path style="fill:none;stroke-width:0.006;stroke-linecap:round;stroke-linejoin:miter;stroke:rgb(0%,0%,0%);stroke-opacity:1;stroke-miterlimit:10;" d="M 0.0469979 1.215098 L 0.0896997 1.215098 " transform="matrix(600,0,0,-600,-19.980001,1465.999996)"/>
<path style="fill:none;stroke-width:0.006;stroke-linecap:round;stroke-linejoin:miter;stroke:rgb(0%,0%,0%);stroke-opacity:1;stroke-miterlimit:10;" d="M 0.0469979 1.215098 L 0.0363013 1.204499 " transform="matrix(600,0,0,-600,-19.980001,1465.999996)"/>
<path style="fill:none;stroke-width:0.006;stroke-linecap:round;stroke-linejoin:miter;stroke:rgb(0%,0%,0%);stroke-opacity:1;stroke-miterlimit:10;" d="M 0.0363013 1.204499 L 0.0363013 1.183099 " transform="matrix(600,0,0,-600,-19.980001,1465.999996)"/>
<path style="fill:none;stroke-width:0.006;stroke-linecap:round;stroke-linejoin:miter;stroke:rgb(0%,0%,0%);stroke-opacity:1;stroke-miterlimit:10;" d="M 0.0363013 1.183099 L 0.0469979 1.172402 " transform="matrix(600,0,0,-600,-19.980001,1465.999996)"/>
<path style="fill:none;stroke-width:0.006;stroke-linecap:round;stroke-linejoin:miter;stroke:rgb(0%,0%,0%);stroke-opacity:1;stroke-miterlimit:10;" d="M 0.0469979 1.172402 L 0.0896997 1.172402 " transform="matrix(600,0,0,-600,-19.980001,1465.999996)"/>
<path style="fill:none;stroke-width:0.006;stroke-linecap:round;stroke-linejoin:miter;stroke:rgb(0%,0%,0%);stroke-opacity:1;stroke-miterlimit:10;" d="M 0.0683 1.150703 L 0.0683 1.108001 " transform="matrix(600,0,0,-600,-19.980001,1465.999996)"/>
<path style="fill:none;stroke-width:0.006;stroke-linecap:round;stroke-linejoin:miter;stroke:rgb(0%,0%,0%);stroke-opacity:1;stroke-miterlimit:10;" d="M 0.0683 1.108001 L 0.0363013 1.14 " transform="matrix(600,0,0,-600,-19.980001,1465.999996)"/>
<path style="fill:none;stroke-width:0.006;stroke-linecap:round;stroke-linejoin:miter;stroke:rgb(0%,0%,0%);stroke-opacity:1;stroke-miterlimit:10;" d="M 0.0363013 1.14 L 0.100299 1.14 " transform="matrix(600,0,0,-600,-19.980001,1465.999996)"/>
<path style="fill:none;stroke-width:0.06;stroke-linecap:round;stroke-linejoin:miter;stroke:rgb(0%,0%,0%);stroke-opacity:1;stroke-miterlimit:10;" d="M 1.976002 1.62 L 1.976002 1.68 " transform="matrix(600,0,0,-600,-19.980001,1465.999996)"/>
<path style="fill:none;stroke-width:0.06;stroke-linecap:round;stroke-linejoin:miter;stroke:rgb(0%,0%,0%);stroke-opacity:1;stroke-miterlimit:10;" d="M 2.076002 1.68 L 2.076002 1.62 " transform="matrix(600,0,0,-600,-19.980001,1465.999996)"/>
<path style="fill:none;stroke-width:0.06;stroke-linecap:round;stroke-linejoin:miter;stroke:rgb(0%,0%,0%);stroke-opacity:1;stroke-miterlimit:10;" d="M 2.176002 1.62 L 2.176002 1.68 " transform="matrix(600,0,0,-600,-19.980001,1465.999996)"/>
<path style="fill:none;stroke-width:0.06;stroke-linecap:round;stroke-linejoin:miter;stroke:rgb(0%,0%,0%);stroke-opacity:1;stroke-miterlimit:10;" d="M 2.276002 1.68 L 2.276002 1.62 " transform="matrix(600,0,0,-600,-19.980001,1465.999996)"/>
<path style="fill:none;stroke-width:0.06;stroke-linecap:round;stroke-linejoin:miter;stroke:rgb(0%,0%,0%);stroke-opacity:1;stroke-miterlimit:10;" d="M 2.376002 1.62 L 2.376002 1.68 " transform="matrix(600,0,0,-600,-19.980001,1465.999996)"/>
<path style="fill:none;stroke-width:0.06;stroke-linecap:round;stroke-linejoin:miter;stroke:rgb(0%,0%,0%);stroke-opacity:1;stroke-miterlimit:10;" d="M 2.476002 1.68 L 2.476002 1.62 " transform="matrix(600,0,0,-600,-19.980001,1465.999996)"/>
<path style="fill:none;stroke-width:0.06;stroke-linecap:round;stroke-linejoin:miter;stroke:rgb(0%,0%,0%);stroke-opacity:1;stroke-miterlimit:10;" d="M 2.476002 1.92 L 2.476002 1.98 " transform="matrix(600,0,0,-600,-19.980001,1465.999996)"/>
<path style="fill:none;stroke-width:0.06;stroke-linecap:round;stroke-linejoin:miter;stroke:rgb(0%,0%,0%);stroke-opacity:1;stroke-miterlimit:10;" d="M 2.376002 1.98 L 2.376002 1.92 " transform="matrix(600,0,0,-600,-19.980001,1465.999996)"/>
<path style="fill:none;stroke-width:0.06;stroke-linecap:round;stroke-linejoin:miter;stroke:rgb(0%,0%,0%);stroke-opacity:1;stroke-miterlimit:10;" d="M 2.276002 1.92 L 2.276002 1.98 " transform="matrix(600,0,0,-600,-19.980001,1465.999996)"/>
<path style="fill:none;stroke-width:0.06;stroke-linecap:round;stroke-linejoin:miter;stroke:rgb(0%,0%,0%);stroke-opacity:1;stroke-miterlimit:10;" d="M 2.176002 1.98 L 2.176002 1.92 " transform="matrix(600,0,0,-600,-19.980001,1465.999996)"/>
<path style="fill:none;stroke-width:0.06;stroke-linecap:round;stroke-linejoin:miter;stroke:rgb(0%,0%,0%);stroke-opacity:1;stroke-miterlimit:10;" d="M 2.076002 1.92 L 2.076002 1.98 " transform="matrix(600,0,0,-600,-19.980001,1465.999996)"/>
<path style="fill:none;stroke-width:0.06;stroke-linecap:round;stroke-linejoin:miter;stroke:rgb(0%,0%,0%);stroke-opacity:1;stroke-miterlimit:10;" d="M 1.976002 1.98 L 1.976002 1.92 " transform="matrix(600,0,0,-600,-19.980001,1465.999996)"/>
<path style="fill:none;stroke-width:0.06;stroke-linecap:round;stroke-linejoin:miter;stroke:rgb(0%,0%,0%);stroke-opacity:1;stroke-miterlimit:10;" d="M 3.376002 1.88 L 3.376002 1.82 " transform="matrix(600,0,0,-600,-19.980001,1465.999996)"/>
<path style="fill:none;stroke-width:0.06;stroke-linecap:round;stroke-linejoin:miter;stroke:rgb(0%,0%,0%);stroke-opacity:1;stroke-miterlimit:10;" d="M 3.476002 1.82 L 3.476002 1.88 " transform="matrix(600,0,0,-600,-19.980001,1465.999996)"/>
<path style="fill:none;stroke-width:0.06;stroke-linecap:round;stroke-linejoin:miter;stroke:rgb(0%,0%,0%);stroke-opacity:1;stroke-miterlimit:10;" d="M 3.576002 1.88 L 3.576002 1.82 " transform="matrix(600,0,0,-600,-19.980001,1465.999996)"/>
<path style="fill:none;stroke-width:0.06;stroke-linecap:round;stroke-linejoin:miter;stroke:rgb(0%,0%,0%);stroke-opacity:1;stroke-miterlimit:10;" d="M 4.296002 1.85 L 4.356002 1.85 " transform="matrix(600,0,0,-600,-19.980001,1465.999996)"/>
<path style="fill:none;stroke-width:0.06;stroke-linecap:round;stroke-linejoin:miter;stroke:rgb(0%,0%,0%);stroke-opacity:1;stroke-miterlimit:10;" d="M 4.356002 1.75 L 4.296002 1.75 " transform="matrix(600,0,0,-600,-19.980001,1465.999996)"/>
<path style="fill:none;stroke-width:0.06;stroke-linecap:round;stroke-linejoin:miter;stroke:rgb(0%,0%,0%);stroke-opacity:1;stroke-miterlimit:10;" d="M 4.296002 1.95 L 4.356002 1.95 " transform="matrix(600,0,0,-600,-19.980001,1465.999996)"/>
<path style=" stroke:none;fill-rule:evenodd;fill:rgb(0%,0%,0%);fill-opacity:1;" d="M 2137.621094 1076 C 2137.621094 1020 2053.621094 1020 2053.621094 1076 C 2053.621094 1132 2137.621094 1132 2137.621094 1076 "/>
<path style=" stroke:none;fill-rule:evenodd;fill:rgb(0%,0%,0%);fill-opacity:1;" d="M 337.621094 296 C 337.621094 240 253.621094 240 253.621094 296 C 253.621094 352 337.621094 352 337.621094 296 "/>
<path style=" stroke:none;fill-rule:evenodd;fill:rgb(0%,0%,0%);fill-opacity:1;" d="M 1307.820312 1166 C 1307.820312 1136.398438 1263.421875 1136.398438 1263.421875 1166 C 1263.421875 1195.601562 1307.820312 1195.601562 1307.820312 1166 "/>
<path style=" stroke:none;fill-rule:evenodd;fill:rgb(0%,0%,0%);fill-opacity:1;" d="M 1427.820312 1166 C 1427.820312 1136.398438 1383.421875 1136.398438 1383.421875 1166 C 1383.421875 1195.601562 1427.820312 1195.601562 1427.820312 1166 "/>
<path style=" stroke:none;fill-rule:evenodd;fill:rgb(0%,0%,0%);fill-opacity:1;" d="M 1427.820312 986 C 1427.820312 956.398438 1383.421875 956.398438 1383.421875 986 C 1383.421875 1015.601562 1427.820312 1015.601562 1427.820312 986 "/>
<path style=" stroke:none;fill-rule:evenodd;fill:rgb(0%,0%,0%);fill-opacity:1;" d="M 1487.820312 926 C 1487.820312 896.398438 1443.421875 896.398438 1443.421875 926 C 1443.421875 955.601562 1487.820312 955.601562 1487.820312 926 "/>
<path style=" stroke:none;fill-rule:evenodd;fill:rgb(0%,0%,0%);fill-opacity:1;" d="M 1547.820312 866 C 1547.820312 836.398438 1503.421875 836.398438 1503.421875 866 C 1503.421875 895.601562 1547.820312 895.601562 1547.820312 866 "/>
<path style=" stroke:none;fill-rule:evenodd;fill:rgb(0%,0%,0%);fill-opacity:1;" d="M 1607.820312 806 C 1607.820312 776.398438 1563.421875 776.398438 1563.421875 806 C 1563.421875 835.601562 1607.820312 835.601562 1607.820312 806 "/>
<path style=" stroke:none;fill-rule:evenodd;fill:rgb(0%,0%,0%);fill-opacity:1;" d="M 1667.820312 746 C 1667.820312 716.398438 1623.421875 716.398438 1623.421875 746 C 1623.421875 775.601562 1667.820312 775.601562 1667.820312 746 "/>
<path style=" stroke:none;fill-rule:evenodd;fill:rgb(0%,0%,0%);fill-opacity:1;" d="M 1727.820312 776 C 1727.820312 746.398438 1683.421875 746.398438 1683.421875 776 C 1683.421875 805.601562 1727.820312 805.601562 1727.820312 776 "/>
<path style=" stroke:none;fill-rule:evenodd;fill:rgb(0%,0%,0%);fill-opacity:1;" d="M 1667.820312 686 C 1667.820312 656.398438 1623.421875 656.398438 1623.421875 686 C 1623.421875 715.601562 1667.820312 715.601562 1667.820312 686 "/>
<path style=" stroke:none;fill-rule:evenodd;fill:rgb(0%,0%,0%);fill-opacity:1;" d="M 1487.820312 686 C 1487.820312 656.398438 1443.421875 656.398438 1443.421875 686 C 1443.421875 715.601562 1487.820312 715.601562 1487.820312 686 "/>
<path style=" stroke:none;fill-rule:evenodd;fill:rgb(0%,0%,0%);fill-opacity:1;" d="M 1487.820312 746 C 1487.820312 716.398438 1443.421875 716.398438 1443.421875 746 C 1443.421875 775.601562 1487.820312 775.601562 1487.820312 746 "/>
<path style=" stroke:none;fill-rule:evenodd;fill:rgb(0%,0%,0%);fill-opacity:1;" d="M 1427.820312 806 C 1427.820312 776.398438 1383.421875 776.398438 1383.421875 806 C 1383.421875 835.601562 1427.820312 835.601562 1427.820312 806 "/>
<path style=" stroke:none;fill-rule:evenodd;fill:rgb(0%,0%,0%);fill-opacity:1;" d="M 1367.820312 866 C 1367.820312 836.398438 1323.421875 836.398438 1323.421875 866 C 1323.421875 895.601562 1367.820312 895.601562 1367.820312 866 "/>
<path style=" stroke:none;fill-rule:evenodd;fill:rgb(0%,0%,0%);fill-opacity:1;" d="M 1307.820312 926 C 1307.820312 896.398438 1263.421875 896.398438 1263.421875 926 C 1263.421875 955.601562 1307.820312 955.601562 1307.820312 926 "/>
<path style=" stroke:none;fill-rule:evenodd;fill:rgb(0%,0%,0%);fill-opacity:1;" d="M 1307.820312 986 C 1307.820312 956.398438 1263.421875 956.398438 1263.421875 986 C 1263.421875 1015.601562 1307.820312 1015.601562 1307.820312 986 "/>
<path style=" stroke:none;fill-rule:evenodd;fill:rgb(0%,0%,0%);fill-opacity:1;" d="M 1727.820312 956 C 1727.820312 926.398438 1683.421875 926.398438 1683.421875 956 C 1683.421875 985.601562 1727.820312 985.601562 1727.820312 956 "/>
<path style=" stroke:none;fill-rule:evenodd;fill:rgb(0%,0%,0%);fill-opacity:1;" d="M 1937.820312 956 C 1937.820312 926.398438 1893.421875 926.398438 1893.421875 956 C 1893.421875 985.601562 1937.820312 985.601562 1937.820312 956 "/>
<path style=" stroke:none;fill-rule:evenodd;fill:rgb(0%,0%,0%);fill-opacity:1;" d="M 1937.820312 776 C 1937.820312 746.398438 1893.421875 746.398438 1893.421875 776 C 1893.421875 805.601562 1937.820312 805.601562 1937.820312 776 "/>
<path style=" stroke:none;fill-rule:evenodd;fill:rgb(0%,0%,0%);fill-opacity:1;" d="M 1967.820312 716 C 1967.820312 686.398438 1923.421875 686.398438 1923.421875 716 C 1923.421875 745.601562 1967.820312 745.601562 1967.820312 716 "/>
<path style=" stroke:none;fill-rule:evenodd;fill:rgb(0%,0%,0%);fill-opacity:1;" d="M 1967.820312 536 C 1967.820312 506.398438 1923.421875 506.398438 1923.421875 536 C 1923.421875 565.601562 1967.820312 565.601562 1967.820312 536 "/>
<path style=" stroke:none;fill-rule:evenodd;fill:rgb(0%,0%,0%);fill-opacity:1;" d="M 1756.621094 557.300781 L 1744.320312 545 L 1726.921875 545 L 1714.621094 557.300781 L 1714.621094 574.699219 L 1726.921875 587 L 1744.320312 587 L 1756.621094 574.699219 L 1756.621094 557.300781 "/>
<path style=" stroke:none;fill-rule:evenodd;fill:rgb(0%,0%,0%);fill-opacity:1;" d="M 2206.621094 617.300781 L 2194.320312 605 L 2176.921875 605 L 2164.621094 617.300781 L 2164.621094 634.699219 L 2176.921875 647 L 2194.320312 647 L 2206.621094 634.699219 L 2206.621094 617.300781 "/>
<path style=" stroke:none;fill-rule:evenodd;fill:rgb(0%,0%,0%);fill-opacity:1;" d="M 2446.621094 617.300781 L 2434.320312 605 L 2416.921875 605 L 2404.621094 617.300781 L 2404.621094 634.699219 L 2416.921875 647 L 2434.320312 647 L 2446.621094 634.699219 L 2446.621094 617.300781 "/>
<path style=" stroke:none;fill-rule:evenodd;fill:rgb(0%,0%,0%);fill-opacity:1;" d="M 2266.621094 797.300781 L 2254.320312 785 L 2236.921875 785 L 2224.621094 797.300781 L 2224.621094 814.699219 L 2236.921875 827 L 2254.320312 827 L 2266.621094 814.699219 L 2266.621094 797.300781 "/>
<path style=" stroke:none;fill-rule:evenodd;fill:rgb(0%,0%,0%);fill-opacity:1;" d="M 2266.621094 1007.300781 L 2254.320312 995 L 2236.921875 995 L 2224.621094 1007.300781 L 2224.621094 1024.699219 L 2236.921875 1037 L 2254.320312 1037 L 2266.621094 1024.699219 L 2266.621094 1007.300781 "/>
<path style=" stroke:none;fill-rule:evenodd;fill:rgb(0%,0%,0%);fill-opacity:1;" d="M 2206.621094 1016 C 2206.621094 988 2164.621094 988 2164.621094 1016 C 2164.621094 1044 2206.621094 1044 2206.621094 1016 "/>
<path style=" stroke:none;fill-rule:evenodd;fill:rgb(0%,0%,0%);fill-opacity:1;" d="M 2206.621094 806 C 2206.621094 778 2164.621094 778 2164.621094 806 C 2164.621094 834 2206.621094 834 2206.621094 806 "/>
<path style=" stroke:none;fill-rule:evenodd;fill:rgb(0%,0%,0%);fill-opacity:1;" d="M 2266.621094 626 C 2266.621094 598 2224.621094 598 2224.621094 626 C 2224.621094 654 2266.621094 654 2266.621094 626 "/>
<path style=" stroke:none;fill-rule:evenodd;fill:rgb(0%,0%,0%);fill-opacity:1;" d="M 2506.621094 626 C 2506.621094 598 2464.621094 598 2464.621094 626 C 2464.621094 654 2506.621094 654 2506.621094 626 "/>
<path style=" stroke:none;fill-rule:evenodd;fill:rgb(0%,0%,0%);fill-opacity:1;" d="M 1756.621094 626 C 1756.621094 598 1714.621094 598 1714.621094 626 C 1714.621094 654 1756.621094 654 1756.621094 626 "/>
<path style=" stroke:none;fill-rule:evenodd;fill:rgb(0%,0%,0%);fill-opacity:1;" d="M 1871.21875 679.539062 L 1862.082031 670.398438 L 1849.160156 670.398438 L 1840.019531 679.539062 L 1840.019531 692.460938 L 1849.160156 701.601562 L 1862.082031 701.601562 L 1871.21875 692.460938 L 1871.21875 679.539062 "/>
<path style=" stroke:none;fill-rule:evenodd;fill:rgb(0%,0%,0%);fill-opacity:1;" d="M 1871.21875 559.539062 L 1862.082031 550.398438 L 1849.160156 550.398438 L 1840.019531 559.539062 L 1840.019531 572.460938 L 1849.160156 581.601562 L 1862.082031 581.601562 L 1871.21875 572.460938 L 1871.21875 559.539062 "/>
<path style=" stroke:none;fill-rule:evenodd;fill:rgb(0%,0%,0%);fill-opacity:1;" d="M 1871.21875 829.539062 L 1862.082031 820.398438 L 1849.160156 820.398438 L 1840.019531 829.539062 L 1840.019531 842.460938 L 1849.160156 851.601562 L 1862.082031 851.601562 L 1871.21875 842.460938 L 1871.21875 829.539062 "/>
<path style=" stroke:none;fill-rule:evenodd;fill:rgb(0%,0%,0%);fill-opacity:1;" d="M 1811.21875 829.539062 L 1802.082031 820.398438 L 1789.160156 820.398438 L 1780.019531 829.539062 L 1780.019531 842.460938 L 1789.160156 851.601562 L 1802.082031 851.601562 L 1811.21875 842.460938 L 1811.21875 829.539062 "/>
<path style=" stroke:none;fill-rule:evenodd;fill:rgb(0%,0%,0%);fill-opacity:1;" d="M 1841.21875 874.539062 L 1832.082031 865.398438 L 1819.160156 865.398438 L 1810.019531 874.539062 L 1810.019531 887.460938 L 1819.160156 896.601562 L 1832.082031 896.601562 L 1841.21875 887.460938 L 1841.21875 874.539062 "/>
<path style=" stroke:none;fill-rule:evenodd;fill:rgb(0%,0%,0%);fill-opacity:1;" d="M 1790.371094 465.75 L 1775.871094 451.25 L 1755.367188 451.25 L 1740.871094 465.75 L 1740.871094 486.25 L 1755.367188 500.75 L 1775.871094 500.75 L 1790.371094 486.25 L 1790.371094 465.75 "/>
<path style=" stroke:none;fill-rule:evenodd;fill:rgb(0%,0%,0%);fill-opacity:1;" d="M 1935.71875 460.21875 L 1913.402344 437.898438 L 1881.839844 437.898438 L 1859.519531 460.21875 L 1859.519531 491.78125 L 1881.839844 514.101562 L 1913.402344 514.101562 L 1935.71875 491.78125 L 1935.71875 460.21875 "/>
<path style=" stroke:none;fill-rule:evenodd;fill:rgb(0%,0%,0%);fill-opacity:1;" d="M 1671.71875 460.21875 L 1649.402344 437.898438 L 1617.839844 437.898438 L 1595.519531 460.21875 L 1595.519531 491.78125 L 1617.839844 514.101562 L 1649.402344 514.101562 L 1671.71875 491.78125 L 1671.71875 460.21875 "/>
<path style=" stroke:none;fill-rule:evenodd;fill:rgb(0%,0%,0%);fill-opacity:1;" d="M 1803.71875 280.21875 L 1781.402344 257.898438 L 1749.839844 257.898438 L 1727.519531 280.21875 L 1727.519531 311.78125 L 1749.839844 334.101562 L 1781.402344 334.101562 L 1803.71875 311.78125 L 1803.71875 280.21875 "/>
<path style=" stroke:none;fill-rule:evenodd;fill:rgb(0%,0%,0%);fill-opacity:1;" d="M 2363.21875 299.78125 C 2363.21875 259.78125 2303.21875 259.78125 2303.21875 299.78125 C 2303.21875 339.78125 2363.21875 339.78125 2363.21875 299.78125 "/>
<path style=" stroke:none;fill-rule:evenodd;fill:rgb(0%,0%,0%);fill-opacity:1;" d="M 2571.839844 923.660156 C 2571.839844 883.660156 2511.839844 883.660156 2511.839844 923.660156 C 2511.839844 963.660156 2571.839844 963.660156 2571.839844 923.660156 "/>
<path style=" stroke:none;fill-rule:evenodd;fill:rgb(0%,0%,0%);fill-opacity:1;" d="M 2450.28125 980.359375 C 2450.28125 944.921875 2397.121094 944.921875 2397.121094 980.359375 C 2397.121094 1015.800781 2450.28125 1015.800781 2450.28125 980.359375 "/>
<path style=" stroke:none;fill-rule:evenodd;fill:rgb(0%,0%,0%);fill-opacity:1;" d="M 2450.28125 1044.140625 C 2450.28125 1008.699219 2397.121094 1008.699219 2397.121094 1044.140625 C 2397.121094 1079.578125 2450.28125 1079.578125 2450.28125 1044.140625 "/>
<path style=" stroke:none;fill-rule:evenodd;fill:rgb(0%,0%,0%);fill-opacity:1;" d="M 2450.28125 866.960938 C 2450.28125 831.519531 2397.121094 831.519531 2397.121094 866.960938 C 2397.121094 902.398438 2450.28125 902.398438 2450.28125 866.960938 "/>
<path style=" stroke:none;fill-rule:evenodd;fill:rgb(0%,0%,0%);fill-opacity:1;" d="M 2450.28125 803.179688 C 2450.28125 767.738281 2397.121094 767.738281 2397.121094 803.179688 C 2397.121094 838.621094 2450.28125 838.621094 2450.28125 803.179688 "/>
<path style=" stroke:none;fill-rule:evenodd;fill:rgb(0%,0%,0%);fill-opacity:1;" d="M 2480.28125 417.859375 C 2480.28125 382.421875 2427.121094 382.421875 2427.121094 417.859375 C 2427.121094 453.300781 2480.28125 453.300781 2480.28125 417.859375 "/>
<path style=" stroke:none;fill-rule:evenodd;fill:rgb(0%,0%,0%);fill-opacity:1;" d="M 2416.5 417.859375 C 2416.5 382.421875 2363.339844 382.421875 2363.339844 417.859375 C 2363.339844 453.300781 2416.5 453.300781 2416.5 417.859375 "/>
<path style=" stroke:none;fill-rule:evenodd;fill:rgb(0%,0%,0%);fill-opacity:1;" d="M 2303.101562 417.859375 C 2303.101562 382.421875 2249.941406 382.421875 2249.941406 417.859375 C 2249.941406 453.300781 2303.101562 453.300781 2303.101562 417.859375 "/>
<path style=" stroke:none;fill-rule:evenodd;fill:rgb(0%,0%,0%);fill-opacity:1;" d="M 2239.320312 417.859375 C 2239.320312 382.421875 2186.160156 382.421875 2186.160156 417.859375 C 2186.160156 453.300781 2239.320312 453.300781 2239.320312 417.859375 "/>
<path style=" stroke:none;fill-rule:evenodd;fill:rgb(0%,0%,0%);fill-opacity:1;" d="M 1691.371094 430.25 L 1719.871094 430.25 L 1719.871094 401.75 L 1691.371094 401.75 Z "/>
<path style=" stroke:none;fill-rule:evenodd;fill:rgb(0%,0%,0%);fill-opacity:1;" d="M 1571.371094 310.25 L 1599.871094 310.25 L 1599.871094 281.75 L 1571.371094 281.75 Z "/>
<path style=" stroke:none;fill-rule:evenodd;fill:rgb(0%,0%,0%);fill-opacity:1;" d="M 1151.371094 430.25 L 1179.871094 430.25 L 1179.871094 401.75 L 1151.371094 401.75 Z "/>
<path style=" stroke:none;fill-rule:evenodd;fill:rgb(0%,0%,0%);fill-opacity:1;" d="M 1091.371094 310.25 L 1119.871094 310.25 L 1119.871094 281.75 L 1091.371094 281.75 Z "/>
<path style=" stroke:none;fill-rule:evenodd;fill:rgb(0%,0%,0%);fill-opacity:1;" d="M 1991.371094 820.25 L 2019.871094 820.25 L 2019.871094 791.75 L 1991.371094 791.75 Z "/>
<path style=" stroke:none;fill-rule:evenodd;fill:rgb(0%,0%,0%);fill-opacity:1;" d="M 2111.371094 820.25 L 2139.871094 820.25 L 2139.871094 791.75 L 2111.371094 791.75 Z "/>
<path style=" stroke:none;fill-rule:evenodd;fill:rgb(0%,0%,0%);fill-opacity:1;" d="M 2111.371094 910.25 L 2139.871094 910.25 L 2139.871094 881.75 L 2111.371094 881.75 Z "/>
<path style=" stroke:none;fill-rule:evenodd;fill:rgb(0%,0%,0%);fill-opacity:1;" d="M 1991.371094 910.25 L 2019.871094 910.25 L 2019.871094 881.75 L 1991.371094 881.75 Z "/>
<path style="fill:none;stroke-width:0.024;stroke-linecap:round;stroke-linejoin:miter;stroke:rgb(0%,0%,0%);stroke-opacity:1;stroke-miterlimit:10;" d="M 3.376002 0.95 L 3.576002 0.95 " transform="matrix(600,0,0,-600,-19.980001,1465.999996)"/>
<path style="fill:none;stroke-width:0.024;stroke-linecap:round;stroke-linejoin:miter;stroke:rgb(0%,0%,0%);stroke-opacity:1;stroke-miterlimit:10;" d="M 3.576002 1.1 L 3.376002 1.1 " transform="matrix(600,0,0,-600,-19.980001,1465.999996)"/>
<path style="fill:none;stroke-width:0.024;stroke-linecap:round;stroke-linejoin:miter;stroke:rgb(0%,0%,0%);stroke-opacity:1;stroke-miterlimit:10;" d="M 2.876002 1.75 L 2.676002 1.95 " transform="matrix(600,0,0,-600,-19.980001,1465.999996)"/>
<path style="fill:none;stroke-width:0.024;stroke-linecap:round;stroke-linejoin:miter;stroke:rgb(0%,0%,0%);stroke-opacity:1;stroke-miterlimit:10;" d="M 1.976002 1.75 L 1.876002 1.85 " transform="matrix(600,0,0,-600,-19.980001,1465.999996)"/>
<path style="fill:none;stroke-width:0.024;stroke-linecap:round;stroke-linejoin:miter;stroke:rgb(0%,0%,0%);stroke-opacity:1;stroke-miterlimit:10;" d="M 1.876002 1.85 L 1.876002 1.95 " transform="matrix(600,0,0,-600,-19.980001,1465.999996)"/>
<path style=" stroke:none;fill-rule:evenodd;fill:rgb(100%,100%,100%);fill-opacity:1;" d="M 1170.421875 416 C 1170.421875 409.601562 1160.820312 409.601562 1160.820312 416 C 1160.820312 422.398438 1170.421875 422.398438 1170.421875 416 "/>
<path style=" stroke:none;fill-rule:evenodd;fill:rgb(100%,100%,100%);fill-opacity:1;" d="M 1110.421875 296 C 1110.421875 289.601562 1100.820312 289.601562 1100.820312 296 C 1100.820312 302.398438 1110.421875 302.398438 1110.421875 296 "/>
<path style=" stroke:none;fill-rule:evenodd;fill:rgb(100%,100%,100%);fill-opacity:1;" d="M 1590.421875 296 C 1590.421875 289.601562 1580.820312 289.601562 1580.820312 296 C 1580.820312 302.398438 1590.421875 302.398438 1590.421875 296 "/>
<path style=" stroke:none;fill-rule:evenodd;fill:rgb(100%,100%,100%);fill-opacity:1;" d="M 1710.421875 416 C 1710.421875 409.601562 1700.820312 409.601562 1700.820312 416 C 1700.820312 422.398438 1710.421875 422.398438 1710.421875 416 "/>
<path style=" stroke:none;fill-rule:evenodd;fill:rgb(100%,100%,100%);fill-opacity:1;" d="M 2010.421875 806 C 2010.421875 799.601562 2000.820312 799.601562 2000.820312 806 C 2000.820312 812.398438 2010.421875 812.398438 2010.421875 806 "/>
<path style=" stroke:none;fill-rule:evenodd;fill:rgb(100%,100%,100%);fill-opacity:1;" d="M 2130.421875 806 C 2130.421875 799.601562 2120.820312 799.601562 2120.820312 806 C 2120.820312 812.398438 2130.421875 812.398438 2130.421875 806 "/>
<path style=" stroke:none;fill-rule:evenodd;fill:rgb(100%,100%,100%);fill-opacity:1;" d="M 2130.421875 896 C 2130.421875 889.601562 2120.820312 889.601562 2120.820312 896 C 2120.820312 902.398438 2130.421875 902.398438 2130.421875 896 "/>
<path style=" stroke:none;fill-rule:evenodd;fill:rgb(100%,100%,100%);fill-opacity:1;" d="M 2010.421875 896 C 2010.421875 889.601562 2000.820312 889.601562 2000.820312 896 C 2000.820312 902.398438 2010.421875 902.398438 2010.421875 896 "/>
<path style=" stroke:none;fill-rule:evenodd;fill:rgb(100%,100%,100%);fill-opacity:1;" d="M 1860.421875 836 C 1860.421875 829.601562 1850.820312 829.601562 1850.820312 836 C 1850.820312 842.398438 1860.421875 842.398438 1860.421875 836 "/>
<path style=" stroke:none;fill-rule:evenodd;fill:rgb(100%,100%,100%);fill-opacity:1;" d="M 1800.421875 836 C 1800.421875 829.601562 1790.820312 829.601562 1790.820312 836 C 1790.820312 842.398438 1800.421875 842.398438 1800.421875 836 "/>
<path style=" stroke:none;fill-rule:evenodd;fill:rgb(100%,100%,100%);fill-opacity:1;" d="M 1830.421875 881 C 1830.421875 874.601562 1820.820312 874.601562 1820.820312 881 C 1820.820312 887.398438 1830.421875 887.398438 1830.421875 881 "/>
<path style=" stroke:none;fill-rule:evenodd;fill:rgb(100%,100%,100%);fill-opacity:1;" d="M 1860.421875 686 C 1860.421875 679.601562 1850.820312 679.601562 1850.820312 686 C 1850.820312 692.398438 1860.421875 692.398438 1860.421875 686 "/>
<path style=" stroke:none;fill-rule:evenodd;fill:rgb(100%,100%,100%);fill-opacity:1;" d="M 1740.421875 626 C 1740.421875 619.601562 1730.820312 619.601562 1730.820312 626 C 1730.820312 632.398438 1740.421875 632.398438 1740.421875 626 "/>
<path style=" stroke:none;fill-rule:evenodd;fill:rgb(100%,100%,100%);fill-opacity:1;" d="M 1740.421875 566 C 1740.421875 559.601562 1730.820312 559.601562 1730.820312 566 C 1730.820312 572.398438 1740.421875 572.398438 1740.421875 566 "/>
<path style=" stroke:none;fill-rule:evenodd;fill:rgb(100%,100%,100%);fill-opacity:1;" d="M 1860.421875 566 C 1860.421875 559.601562 1850.820312 559.601562 1850.820312 566 C 1850.820312 572.398438 1860.421875 572.398438 1860.421875 566 "/>
<path style=" stroke:none;fill-rule:evenodd;fill:rgb(100%,100%,100%);fill-opacity:1;" d="M 2190.421875 626 C 2190.421875 619.601562 2180.820312 619.601562 2180.820312 626 C 2180.820312 632.398438 2190.421875 632.398438 2190.421875 626 "/>
<path style=" stroke:none;fill-rule:evenodd;fill:rgb(100%,100%,100%);fill-opacity:1;" d="M 2250.421875 626 C 2250.421875 619.601562 2240.820312 619.601562 2240.820312 626 C 2240.820312 632.398438 2250.421875 632.398438 2250.421875 626 "/>
<path style=" stroke:none;fill-rule:evenodd;fill:rgb(100%,100%,100%);fill-opacity:1;" d="M 2430.421875 626 C 2430.421875 619.601562 2420.820312 619.601562 2420.820312 626 C 2420.820312 632.398438 2430.421875 632.398438 2430.421875 626 "/>
<path style=" stroke:none;fill-rule:evenodd;fill:rgb(100%,100%,100%);fill-opacity:1;" d="M 2490.421875 626 C 2490.421875 619.601562 2480.820312 619.601562 2480.820312 626 C 2480.820312 632.398438 2490.421875 632.398438 2490.421875 626 "/>
<path style=" stroke:none;fill-rule:evenodd;fill:rgb(100%,100%,100%);fill-opacity:1;" d="M 2250.421875 806 C 2250.421875 799.601562 2240.820312 799.601562 2240.820312 806 C 2240.820312 812.398438 2250.421875 812.398438 2250.421875 806 "/>
<path style=" stroke:none;fill-rule:evenodd;fill:rgb(100%,100%,100%);fill-opacity:1;" d="M 2190.421875 806 C 2190.421875 799.601562 2180.820312 799.601562 2180.820312 806 C 2180.820312 812.398438 2190.421875 812.398438 2190.421875 806 "/>
<path style=" stroke:none;fill-rule:evenodd;fill:rgb(100%,100%,100%);fill-opacity:1;" d="M 2190.421875 1016 C 2190.421875 1009.601562 2180.820312 1009.601562 2180.820312 1016 C 2180.820312 1022.398438 2190.421875 1022.398438 2190.421875 1016 "/>
<path style=" stroke:none;fill-rule:evenodd;fill:rgb(100%,100%,100%);fill-opacity:1;" d="M 2250.421875 1016 C 2250.421875 1009.601562 2240.820312 1009.601562 2240.820312 1016 C 2240.820312 1022.398438 2250.421875 1022.398438 2250.421875 1016 "/>
<path style=" stroke:none;fill-rule:evenodd;fill:rgb(100%,100%,100%);fill-opacity:1;" d="M 1290.421875 1166 C 1290.421875 1159.601562 1280.820312 1159.601562 1280.820312 1166 C 1280.820312 1172.398438 1290.421875 1172.398438 1290.421875 1166 "/>
<path style=" stroke:none;fill-rule:evenodd;fill:rgb(100%,100%,100%);fill-opacity:1;" d="M 1410.421875 1166 C 1410.421875 1159.601562 1400.820312 1159.601562 1400.820312 1166 C 1400.820312 1172.398438 1410.421875 1172.398438 1410.421875 1166 "/>
<path style=" stroke:none;fill-rule:evenodd;fill:rgb(100%,100%,100%);fill-opacity:1;" d="M 1410.421875 986 C 1410.421875 979.601562 1400.820312 979.601562 1400.820312 986 C 1400.820312 992.398438 1410.421875 992.398438 1410.421875 986 "/>
<path style=" stroke:none;fill-rule:evenodd;fill:rgb(100%,100%,100%);fill-opacity:1;" d="M 1470.421875 926 C 1470.421875 919.601562 1460.820312 919.601562 1460.820312 926 C 1460.820312 932.398438 1470.421875 932.398438 1470.421875 926 "/>
<path style=" stroke:none;fill-rule:evenodd;fill:rgb(100%,100%,100%);fill-opacity:1;" d="M 1530.421875 866 C 1530.421875 859.601562 1520.820312 859.601562 1520.820312 866 C 1520.820312 872.398438 1530.421875 872.398438 1530.421875 866 "/>
<path style=" stroke:none;fill-rule:evenodd;fill:rgb(100%,100%,100%);fill-opacity:1;" d="M 1590.421875 806 C 1590.421875 799.601562 1580.820312 799.601562 1580.820312 806 C 1580.820312 812.398438 1590.421875 812.398438 1590.421875 806 "/>
<path style=" stroke:none;fill-rule:evenodd;fill:rgb(100%,100%,100%);fill-opacity:1;" d="M 1650.421875 746 C 1650.421875 739.601562 1640.820312 739.601562 1640.820312 746 C 1640.820312 752.398438 1650.421875 752.398438 1650.421875 746 "/>
<path style=" stroke:none;fill-rule:evenodd;fill:rgb(100%,100%,100%);fill-opacity:1;" d="M 1710.421875 776 C 1710.421875 769.601562 1700.820312 769.601562 1700.820312 776 C 1700.820312 782.398438 1710.421875 782.398438 1710.421875 776 "/>
<path style=" stroke:none;fill-rule:evenodd;fill:rgb(100%,100%,100%);fill-opacity:1;" d="M 1650.421875 686 C 1650.421875 679.601562 1640.820312 679.601562 1640.820312 686 C 1640.820312 692.398438 1650.421875 692.398438 1650.421875 686 "/>
<path style=" stroke:none;fill-rule:evenodd;fill:rgb(100%,100%,100%);fill-opacity:1;" d="M 1470.421875 686 C 1470.421875 679.601562 1460.820312 679.601562 1460.820312 686 C 1460.820312 692.398438 1470.421875 692.398438 1470.421875 686 "/>
<path style=" stroke:none;fill-rule:evenodd;fill:rgb(100%,100%,100%);fill-opacity:1;" d="M 1470.421875 746 C 1470.421875 739.601562 1460.820312 739.601562 1460.820312 746 C 1460.820312 752.398438 1470.421875 752.398438 1470.421875 746 "/>
<path style=" stroke:none;fill-rule:evenodd;fill:rgb(100%,100%,100%);fill-opacity:1;" d="M 1410.421875 806 C 1410.421875 799.601562 1400.820312 799.601562 1400.820312 806 C 1400.820312 812.398438 1410.421875 812.398438 1410.421875 806 "/>
<path style=" stroke:none;fill-rule:evenodd;fill:rgb(100%,100%,100%);fill-opacity:1;" d="M 1350.421875 866 C 1350.421875 859.601562 1340.820312 859.601562 1340.820312 866 C 1340.820312 872.398438 1350.421875 872.398438 1350.421875 866 "/>
<path style=" stroke:none;fill-rule:evenodd;fill:rgb(100%,100%,100%);fill-opacity:1;" d="M 1290.421875 926 C 1290.421875 919.601562 1280.820312 919.601562 1280.820312 926 C 1280.820312 932.398438 1290.421875 932.398438 1290.421875 926 "/>
<path style=" stroke:none;fill-rule:evenodd;fill:rgb(100%,100%,100%);fill-opacity:1;" d="M 1290.421875 986 C 1290.421875 979.601562 1280.820312 979.601562 1280.820312 986 C 1280.820312 992.398438 1290.421875 992.398438 1290.421875 986 "/>
<path style=" stroke:none;fill-rule:evenodd;fill:rgb(100%,100%,100%);fill-opacity:1;" d="M 1710.421875 956 C 1710.421875 949.601562 1700.820312 949.601562 1700.820312 956 C 1700.820312 962.398438 1710.421875 962.398438 1710.421875 956 "/>
<path style=" stroke:none;fill-rule:evenodd;fill:rgb(100%,100%,100%);fill-opacity:1;" d="M 1920.421875 956 C 1920.421875 949.601562 1910.820312 949.601562 1910.820312 956 C 1910.820312 962.398438 1920.421875 962.398438 1920.421875 956 "/>
<path style=" stroke:none;fill-rule:evenodd;fill:rgb(100%,100%,100%);fill-opacity:1;" d="M 1920.421875 776 C 1920.421875 769.601562 1910.820312 769.601562 1910.820312 776 C 1910.820312 782.398438 1920.421875 782.398438 1920.421875 776 "/>
<path style=" stroke:none;fill-rule:evenodd;fill:rgb(100%,100%,100%);fill-opacity:1;" d="M 1950.421875 716 C 1950.421875 709.601562 1940.820312 709.601562 1940.820312 716 C 1940.820312 722.398438 1950.421875 722.398438 1950.421875 716 "/>
<path style=" stroke:none;fill-rule:evenodd;fill:rgb(100%,100%,100%);fill-opacity:1;" d="M 1950.421875 536 C 1950.421875 529.601562 1940.820312 529.601562 1940.820312 536 C 1940.820312 542.398438 1950.421875 542.398438 1950.421875 536 "/>
<path style=" stroke:none;fill-rule:evenodd;fill:rgb(100%,100%,100%);fill-opacity:1;" d="M 2010.421875 356 C 2010.421875 349.601562 2000.820312 349.601562 2000.820312 356 C 2000.820312 362.398438 2010.421875 362.398438 2010.421875 356 "/>
<path style=" stroke:none;fill-rule:evenodd;fill:rgb(100%,100%,100%);fill-opacity:1;" d="M 2070.421875 356 C 2070.421875 349.601562 2060.820312 349.601562 2060.820312 356 C 2060.820312 362.398438 2070.421875 362.398438 2070.421875 356 "/>
<path style=" stroke:none;fill-rule:evenodd;fill:rgb(100%,100%,100%);fill-opacity:1;" d="M 2130.421875 356 C 2130.421875 349.601562 2120.820312 349.601562 2120.820312 356 C 2120.820312 362.398438 2130.421875 362.398438 2130.421875 356 "/>
<path style=" stroke:none;fill-rule:evenodd;fill:rgb(100%,100%,100%);fill-opacity:1;" d="M 2580.421875 356 C 2580.421875 349.601562 2570.820312 349.601562 2570.820312 356 C 2570.820312 362.398438 2580.421875 362.398438 2580.421875 356 "/>
<path style=" stroke:none;fill-rule:evenodd;fill:rgb(100%,100%,100%);fill-opacity:1;" d="M 2580.421875 416 C 2580.421875 409.601562 2570.820312 409.601562 2570.820312 416 C 2570.820312 422.398438 2580.421875 422.398438 2580.421875 416 "/>
<path style=" stroke:none;fill-rule:evenodd;fill:rgb(100%,100%,100%);fill-opacity:1;" d="M 2580.421875 296 C 2580.421875 289.601562 2570.820312 289.601562 2570.820312 296 C 2570.820312 302.398438 2580.421875 302.398438 2580.421875 296 "/>
<path style=" stroke:none;fill-rule:evenodd;fill:rgb(100%,100%,100%);fill-opacity:1;" d="M 1470.421875 296 C 1470.421875 289.601562 1460.820312 289.601562 1460.820312 296 C 1460.820312 302.398438 1470.421875 302.398438 1470.421875 296 "/>
<path style=" stroke:none;fill-rule:evenodd;fill:rgb(100%,100%,100%);fill-opacity:1;" d="M 1410.421875 296 C 1410.421875 289.601562 1400.820312 289.601562 1400.820312 296 C 1400.820312 302.398438 1410.421875 302.398438 1410.421875 296 "/>
<path style=" stroke:none;fill-rule:evenodd;fill:rgb(100%,100%,100%);fill-opacity:1;" d="M 1350.421875 296 C 1350.421875 289.601562 1340.820312 289.601562 1340.820312 296 C 1340.820312 302.398438 1350.421875 302.398438 1350.421875 296 "/>
<path style=" stroke:none;fill-rule:evenodd;fill:rgb(100%,100%,100%);fill-opacity:1;" d="M 1290.421875 296 C 1290.421875 289.601562 1280.820312 289.601562 1280.820312 296 C 1280.820312 302.398438 1290.421875 302.398438 1290.421875 296 "/>
<path style=" stroke:none;fill-rule:evenodd;fill:rgb(100%,100%,100%);fill-opacity:1;" d="M 1230.421875 296 C 1230.421875 289.601562 1220.820312 289.601562 1220.820312 296 C 1220.820312 302.398438 1230.421875 302.398438 1230.421875 296 "/>
<path style=" stroke:none;fill-rule:evenodd;fill:rgb(100%,100%,100%);fill-opacity:1;" d="M 1170.421875 296 C 1170.421875 289.601562 1160.820312 289.601562 1160.820312 296 C 1160.820312 302.398438 1170.421875 302.398438 1170.421875 296 "/>
<path style=" stroke:none;fill-rule:evenodd;fill:rgb(100%,100%,100%);fill-opacity:1;" d="M 1170.421875 476 C 1170.421875 469.601562 1160.820312 469.601562 1160.820312 476 C 1160.820312 482.398438 1170.421875 482.398438 1170.421875 476 "/>
<path style=" stroke:none;fill-rule:evenodd;fill:rgb(100%,100%,100%);fill-opacity:1;" d="M 1230.421875 476 C 1230.421875 469.601562 1220.820312 469.601562 1220.820312 476 C 1220.820312 482.398438 1230.421875 482.398438 1230.421875 476 "/>
<path style=" stroke:none;fill-rule:evenodd;fill:rgb(100%,100%,100%);fill-opacity:1;" d="M 1290.421875 476 C 1290.421875 469.601562 1280.820312 469.601562 1280.820312 476 C 1280.820312 482.398438 1290.421875 482.398438 1290.421875 476 "/>
<path style=" stroke:none;fill-rule:evenodd;fill:rgb(100%,100%,100%);fill-opacity:1;" d="M 1350.421875 476 C 1350.421875 469.601562 1340.820312 469.601562 1340.820312 476 C 1340.820312 482.398438 1350.421875 482.398438 1350.421875 476 "/>
<path style=" stroke:none;fill-rule:evenodd;fill:rgb(100%,100%,100%);fill-opacity:1;" d="M 1410.421875 476 C 1410.421875 469.601562 1400.820312 469.601562 1400.820312 476 C 1400.820312 482.398438 1410.421875 482.398438 1410.421875 476 "/>
<path style=" stroke:none;fill-rule:evenodd;fill:rgb(100%,100%,100%);fill-opacity:1;" d="M 1470.421875 476 C 1470.421875 469.601562 1460.820312 469.601562 1460.820312 476 C 1460.820312 482.398438 1470.421875 482.398438 1470.421875 476 "/>
<path style=" stroke:none;fill-rule:evenodd;fill:rgb(100%,100%,100%);fill-opacity:1;" d="M 1770.421875 476 C 1770.421875 469.601562 1760.820312 469.601562 1760.820312 476 C 1760.820312 482.398438 1770.421875 482.398438 1770.421875 476 "/>
<path style=" stroke:none;fill-rule:evenodd;fill:rgb(100%,100%,100%);fill-opacity:1;" d="M 2217.539062 417.859375 C 2217.539062 411.460938 2207.941406 411.460938 2207.941406 417.859375 C 2207.941406 424.261719 2217.539062 424.261719 2217.539062 417.859375 "/>
<path style=" stroke:none;fill-rule:evenodd;fill:rgb(100%,100%,100%);fill-opacity:1;" d="M 2281.320312 417.859375 C 2281.320312 411.460938 2271.71875 411.460938 2271.71875 417.859375 C 2271.71875 424.261719 2281.320312 424.261719 2281.320312 417.859375 "/>
<path style=" stroke:none;fill-rule:evenodd;fill:rgb(100%,100%,100%);fill-opacity:1;" d="M 2338.019531 417.859375 C 2338.019531 411.460938 2328.421875 411.460938 2328.421875 417.859375 C 2328.421875 424.261719 2338.019531 424.261719 2338.019531 417.859375 "/>
<path style=" stroke:none;fill-rule:evenodd;fill:rgb(100%,100%,100%);fill-opacity:1;" d="M 2394.71875 417.859375 C 2394.71875 411.460938 2385.121094 411.460938 2385.121094 417.859375 C 2385.121094 424.261719 2394.71875 424.261719 2394.71875 417.859375 "/>
<path style=" stroke:none;fill-rule:evenodd;fill:rgb(100%,100%,100%);fill-opacity:1;" d="M 2458.5 417.859375 C 2458.5 411.460938 2448.898438 411.460938 2448.898438 417.859375 C 2448.898438 424.261719 2458.5 424.261719 2458.5 417.859375 "/>
<path style=" stroke:none;fill-rule:evenodd;fill:rgb(100%,100%,100%);fill-opacity:1;" d="M 2456.160156 299.78125 C 2456.160156 293.378906 2446.558594 293.378906 2446.558594 299.78125 C 2446.558594 306.179688 2456.160156 306.179688 2456.160156 299.78125 "/>
<path style=" stroke:none;fill-rule:evenodd;fill:rgb(100%,100%,100%);fill-opacity:1;" d="M 2338.019531 299.78125 C 2338.019531 293.378906 2328.421875 293.378906 2328.421875 299.78125 C 2328.421875 306.179688 2338.019531 306.179688 2338.019531 299.78125 "/>
<path style=" stroke:none;fill-rule:evenodd;fill:rgb(100%,100%,100%);fill-opacity:1;" d="M 2219.941406 299.78125 C 2219.941406 293.378906 2210.339844 293.378906 2210.339844 299.78125 C 2210.339844 306.179688 2219.941406 306.179688 2219.941406 299.78125 "/>
<path style=" stroke:none;fill-rule:evenodd;fill:rgb(100%,100%,100%);fill-opacity:1;" d="M 2428.5 803.179688 C 2428.5 796.78125 2418.898438 796.78125 2418.898438 803.179688 C 2418.898438 809.578125 2428.5 809.578125 2428.5 803.179688 "/>
<path style=" stroke:none;fill-rule:evenodd;fill:rgb(100%,100%,100%);fill-opacity:1;" d="M 2428.5 866.960938 C 2428.5 860.558594 2418.898438 860.558594 2418.898438 866.960938 C 2418.898438 873.359375 2428.5 873.359375 2428.5 866.960938 "/>
<path style=" stroke:none;fill-rule:evenodd;fill:rgb(100%,100%,100%);fill-opacity:1;" d="M 2428.5 923.660156 C 2428.5 917.261719 2418.898438 917.261719 2418.898438 923.660156 C 2418.898438 930.058594 2428.5 930.058594 2428.5 923.660156 "/>
<path style=" stroke:none;fill-rule:evenodd;fill:rgb(100%,100%,100%);fill-opacity:1;" d="M 2428.5 980.359375 C 2428.5 973.960938 2418.898438 973.960938 2418.898438 980.359375 C 2418.898438 986.761719 2428.5 986.761719 2428.5 980.359375 "/>
<path style=" stroke:none;fill-rule:evenodd;fill:rgb(100%,100%,100%);fill-opacity:1;" d="M 2428.5 1044.140625 C 2428.5 1037.738281 2418.898438 1037.738281 2418.898438 1044.140625 C 2418.898438 1050.539062 2428.5 1050.539062 2428.5 1044.140625 "/>
<path style=" stroke:none;fill-rule:evenodd;fill:rgb(100%,100%,100%);fill-opacity:1;" d="M 2546.640625 1041.738281 C 2546.640625 1035.339844 2537.039062 1035.339844 2537.039062 1041.738281 C 2537.039062 1048.140625 2546.640625 1048.140625 2546.640625 1041.738281 "/>
<path style=" stroke:none;fill-rule:evenodd;fill:rgb(100%,100%,100%);fill-opacity:1;" d="M 2546.640625 923.660156 C 2546.640625 917.261719 2537.039062 917.261719 2537.039062 923.660156 C 2537.039062 930.058594 2546.640625 930.058594 2546.640625 923.660156 "/>
<path style=" stroke:none;fill-rule:evenodd;fill:rgb(100%,100%,100%);fill-opacity:1;" d="M 2546.640625 805.519531 C 2546.640625 799.121094 2537.039062 799.121094 2537.039062 805.519531 C 2537.039062 811.921875 2546.640625 811.921875 2546.640625 805.519531 "/>
<path style=" stroke:none;fill-rule:evenodd;fill:rgb(100%,100%,100%);fill-opacity:1;" d="M 1041.421875 375.621094 C 1041.421875 369.21875 1031.820312 369.21875 1031.820312 375.621094 C 1031.820312 382.019531 1041.421875 382.019531 1041.421875 375.621094 "/>
<path style=" stroke:none;fill-rule:evenodd;fill:rgb(100%,100%,100%);fill-opacity:1;" d="M 468.359375 375.621094 C 468.359375 369.21875 458.761719 369.21875 458.761719 375.621094 C 458.761719 382.019531 468.359375 382.019531 468.359375 375.621094 "/>
<path style=" stroke:none;fill-rule:evenodd;fill:rgb(100%,100%,100%);fill-opacity:1;" d="M 1638.421875 476 C 1638.421875 469.601562 1628.820312 469.601562 1628.820312 476 C 1628.820312 482.398438 1638.421875 482.398438 1638.421875 476 "/>
<path style=" stroke:none;fill-rule:evenodd;fill:rgb(100%,100%,100%);fill-opacity:1;" d="M 1902.421875 476 C 1902.421875 469.601562 1892.820312 469.601562 1892.820312 476 C 1892.820312 482.398438 1902.421875 482.398438 1902.421875 476 "/>
<path style=" stroke:none;fill-rule:evenodd;fill:rgb(100%,100%,100%);fill-opacity:1;" d="M 1770.421875 296 C 1770.421875 289.601562 1760.820312 289.601562 1760.820312 296 C 1760.820312 302.398438 1770.421875 302.398438 1770.421875 296 "/>
<path style=" stroke:none;fill-rule:evenodd;fill:rgb(100%,100%,100%);fill-opacity:1;" d="M 2100.421875 1076 C 2100.421875 1069.601562 2090.820312 1069.601562 2090.820312 1076 C 2090.820312 1082.398438 2100.421875 1082.398438 2100.421875 1076 "/>
<path style=" stroke:none;fill-rule:evenodd;fill:rgb(100%,100%,100%);fill-opacity:1;" d="M 300.421875 296 C 300.421875 289.601562 290.820312 289.601562 290.820312 296 C 290.820312 302.398438 300.421875 302.398438 300.421875 296 "/>
</g>
</svg>
