<?xml version="1.0" encoding="UTF-8"?>
<svg xmlns="http://www.w3.org/2000/svg" xmlns:xlink="http://www.w3.org/1999/xlink" width="1948pt" height="966pt" viewBox="0 0 1948 966" version="1.1">
<g id="surface1">
<path style="fill:none;stroke-width:0.01;stroke-linecap:round;stroke-linejoin:miter;stroke:rgb(0%,0%,0%);stroke-opacity:1;stroke-miterlimit:10;" d="M 0.0333 0.45 L 0.0333 2.049603 " transform="matrix(600,0,0,-600,-16.98,1232.999996)"/>
<path style="fill:none;stroke-width:0.01;stroke-linecap:round;stroke-linejoin:miter;stroke:rgb(0%,0%,0%);stroke-opacity:1;stroke-miterlimit:10;" d="M 0.0333 2.049603 L 3.270299 2.049603 " transform="matrix(600,0,0,-600,-16.98,1232.999996)"/>
<path style="fill:none;stroke-width:0.01;stroke-linecap:round;stroke-linejoin:miter;stroke:rgb(0%,0%,0%);stroke-opacity:1;stroke-miterlimit:10;" d="M 3.270299 2.049603 L 3.270299 0.45 " transform="matrix(600,0,0,-600,-16.98,1232.999996)"/>
<path style="fill:none;stroke-width:0.01;stroke-linecap:round;stroke-linejoin:miter;stroke:rgb(0%,0%,0%);stroke-opacity:1;stroke-miterlimit:10;" d="M 3.270299 0.45 L 0.0333 0.45 " transform="matrix(600,0,0,-600,-16.98,1232.999996)"/>
<path style="fill:none;stroke-width:0.06;stroke-linecap:round;stroke-linejoin:miter;stroke:rgb(0%,0%,0%);stroke-opacity:1;stroke-miterlimit:10;" d="M 1.5833 1.62 L 1.5833 1.68 " transform="matrix(600,0,0,-600,-16.98,1232.999996)"/>
<path style="fill:none;stroke-width:0.06;stroke-linecap:round;stroke-linejoin:miter;stroke:rgb(0%,0%,0%);stroke-opacity:1;stroke-miterlimit:10;" d="M 1.6833 1.68 L 1.6833 1.62 " transform="matrix(600,0,0,-600,-16.98,1232.999996)"/>
<path style="fill:none;stroke-width:0.06;stroke-linecap:round;stroke-linejoin:miter;stroke:rgb(0%,0%,0%);stroke-opacity:1;stroke-miterlimit:10;" d="M 1.7833 1.62 L 1.7833 1.68 " transform="matrix(600,0,0,-600,-16.98,1232.999996)"/>
<path style="fill:none;stroke-width:0.06;stroke-linecap:round;stroke-linejoin:miter;stroke:rgb(0%,0%,0%);stroke-opacity:1;stroke-miterlimit:10;" d="M 1.8833 1.68 L 1.8833 1.62 " transform="matrix(600,0,0,-600,-16.98,1232.999996)"/>
<path style="fill:none;stroke-width:0.06;stroke-linecap:round;stroke-linejoin:miter;stroke:rgb(0%,0%,0%);stroke-opacity:1;stroke-miterlimit:10;" d="M 1.9833 1.62 L 1.9833 1.68 " transform="matrix(600,0,0,-600,-16.98,1232.999996)"/>
<path style="fill:none;stroke-width:0.06;stroke-linecap:round;stroke-linejoin:miter;stroke:rgb(0%,0%,0%);stroke-opacity:1;stroke-miterlimit:10;" d="M 2.0833 1.68 L 2.0833 1.62 " transform="matrix(600,0,0,-600,-16.98,1232.999996)"/>
<path style="fill:none;stroke-width:0.06;stroke-linecap:round;stroke-linejoin:miter;stroke:rgb(0%,0%,0%);stroke-opacity:1;stroke-miterlimit:10;" d="M 2.9833 1.82 L 2.9833 1.88 " transform="matrix(600,0,0,-600,-16.98,1232.999996)"/>
<path style="fill:none;stroke-width:0.06;stroke-linecap:round;stroke-linejoin:miter;stroke:rgb(0%,0%,0%);stroke-opacity:1;stroke-miterlimit:10;" d="M 3.0833 1.88 L 3.0833 1.82 " transform="matrix(600,0,0,-600,-16.98,1232.999996)"/>
<path style="fill:none;stroke-width:0.06;stroke-linecap:round;stroke-linejoin:miter;stroke:rgb(0%,0%,0%);stroke-opacity:1;stroke-miterlimit:10;" d="M 3.1833 1.82 L 3.1833 1.88 " transform="matrix(600,0,0,-600,-16.98,1232.999996)"/>
<path style=" stroke:none;fill-rule:evenodd;fill:rgb(0%,0%,0%);fill-opacity:1;" d="M 105 63 C 105 7 21 7 21 63 C 21 119 105 119 105 63 "/>
<path style=" stroke:none;fill-rule:evenodd;fill:rgb(0%,0%,0%);fill-opacity:1;" d="M 1075.199219 933 C 1075.199219 903.398438 1030.800781 903.398438 1030.800781 933 C 1030.800781 962.601562 1075.199219 962.601562 1075.199219 933 "/>
<path style=" stroke:none;fill-rule:evenodd;fill:rgb(0%,0%,0%);fill-opacity:1;" d="M 1195.199219 933 C 1195.199219 903.398438 1150.800781 903.398438 1150.800781 933 C 1150.800781 962.601562 1195.199219 962.601562 1195.199219 933 "/>
<path style=" stroke:none;fill-rule:evenodd;fill:rgb(0%,0%,0%);fill-opacity:1;" d="M 1195.199219 753 C 1195.199219 723.398438 1150.800781 723.398438 1150.800781 753 C 1150.800781 782.601562 1195.199219 782.601562 1195.199219 753 "/>
<path style=" stroke:none;fill-rule:evenodd;fill:rgb(0%,0%,0%);fill-opacity:1;" d="M 1255.199219 693 C 1255.199219 663.398438 1210.800781 663.398438 1210.800781 693 C 1210.800781 722.601562 1255.199219 722.601562 1255.199219 693 "/>
<path style=" stroke:none;fill-rule:evenodd;fill:rgb(0%,0%,0%);fill-opacity:1;" d="M 1315.199219 633 C 1315.199219 603.398438 1270.800781 603.398438 1270.800781 633 C 1270.800781 662.601562 1315.199219 662.601562 1315.199219 633 "/>
<path style=" stroke:none;fill-rule:evenodd;fill:rgb(0%,0%,0%);fill-opacity:1;" d="M 1375.199219 573 C 1375.199219 543.398438 1330.800781 543.398438 1330.800781 573 C 1330.800781 602.601562 1375.199219 602.601562 1375.199219 573 "/>
<path style=" stroke:none;fill-rule:evenodd;fill:rgb(0%,0%,0%);fill-opacity:1;" d="M 1435.199219 513 C 1435.199219 483.398438 1390.800781 483.398438 1390.800781 513 C 1390.800781 542.601562 1435.199219 542.601562 1435.199219 513 "/>
<path style=" stroke:none;fill-rule:evenodd;fill:rgb(0%,0%,0%);fill-opacity:1;" d="M 1255.199219 513 C 1255.199219 483.398438 1210.800781 483.398438 1210.800781 513 C 1210.800781 542.601562 1255.199219 542.601562 1255.199219 513 "/>
<path style=" stroke:none;fill-rule:evenodd;fill:rgb(0%,0%,0%);fill-opacity:1;" d="M 1195.199219 573 C 1195.199219 543.398438 1150.800781 543.398438 1150.800781 573 C 1150.800781 602.601562 1195.199219 602.601562 1195.199219 573 "/>
<path style=" stroke:none;fill-rule:evenodd;fill:rgb(0%,0%,0%);fill-opacity:1;" d="M 1135.199219 633 C 1135.199219 603.398438 1090.800781 603.398438 1090.800781 633 C 1090.800781 662.601562 1135.199219 662.601562 1135.199219 633 "/>
<path style=" stroke:none;fill-rule:evenodd;fill:rgb(0%,0%,0%);fill-opacity:1;" d="M 1075.199219 693 C 1075.199219 663.398438 1030.800781 663.398438 1030.800781 693 C 1030.800781 722.601562 1075.199219 722.601562 1075.199219 693 "/>
<path style=" stroke:none;fill-rule:evenodd;fill:rgb(0%,0%,0%);fill-opacity:1;" d="M 1075.199219 753 C 1075.199219 723.398438 1030.800781 723.398438 1030.800781 753 C 1030.800781 782.601562 1075.199219 782.601562 1075.199219 753 "/>
<path style=" stroke:none;fill-rule:evenodd;fill:rgb(0%,0%,0%);fill-opacity:1;" d="M 1255.199219 363 C 1255.199219 333.398438 1210.800781 333.398438 1210.800781 363 C 1210.800781 392.601562 1255.199219 392.601562 1255.199219 363 "/>
<path style=" stroke:none;fill-rule:evenodd;fill:rgb(0%,0%,0%);fill-opacity:1;" d="M 1435.199219 363 C 1435.199219 333.398438 1390.800781 333.398438 1390.800781 363 C 1390.800781 392.601562 1435.199219 392.601562 1435.199219 363 "/>
<path style=" stroke:none;fill-rule:evenodd;fill:rgb(0%,0%,0%);fill-opacity:1;" d="M 1795.199219 333 C 1795.199219 303.398438 1750.800781 303.398438 1750.800781 333 C 1750.800781 362.601562 1795.199219 362.601562 1795.199219 333 "/>
<path style=" stroke:none;fill-rule:evenodd;fill:rgb(0%,0%,0%);fill-opacity:1;" d="M 1795.199219 513 C 1795.199219 483.398438 1750.800781 483.398438 1750.800781 513 C 1750.800781 542.601562 1795.199219 542.601562 1795.199219 513 "/>
<path style=" stroke:none;fill-rule:evenodd;fill:rgb(0%,0%,0%);fill-opacity:1;" d="M 1590.660156 96.78125 C 1590.660156 56.78125 1530.660156 56.78125 1530.660156 96.78125 C 1530.660156 136.78125 1590.660156 136.78125 1590.660156 96.78125 "/>
<path style=" stroke:none;fill-rule:evenodd;fill:rgb(0%,0%,0%);fill-opacity:1;" d="M 1643.941406 214.859375 C 1643.941406 179.421875 1590.78125 179.421875 1590.78125 214.859375 C 1590.78125 250.300781 1643.941406 250.300781 1643.941406 214.859375 "/>
<path style=" stroke:none;fill-rule:evenodd;fill:rgb(0%,0%,0%);fill-opacity:1;" d="M 1707.71875 214.859375 C 1707.71875 179.421875 1654.558594 179.421875 1654.558594 214.859375 C 1654.558594 250.300781 1707.71875 250.300781 1707.71875 214.859375 "/>
<path style=" stroke:none;fill-rule:evenodd;fill:rgb(0%,0%,0%);fill-opacity:1;" d="M 1530.539062 214.859375 C 1530.539062 179.421875 1477.378906 179.421875 1477.378906 214.859375 C 1477.378906 250.300781 1530.539062 250.300781 1530.539062 214.859375 "/>
<path style=" stroke:none;fill-rule:evenodd;fill:rgb(0%,0%,0%);fill-opacity:1;" d="M 1466.761719 214.859375 C 1466.761719 179.421875 1413.601562 179.421875 1413.601562 214.859375 C 1413.601562 250.300781 1466.761719 250.300781 1466.761719 214.859375 "/>
<path style=" stroke:none;fill-rule:evenodd;fill:rgb(0%,0%,0%);fill-opacity:1;" d="M 1554 414.300781 L 1541.699219 402 L 1524.300781 402 L 1512 414.300781 L 1512 431.699219 L 1524.300781 444 L 1541.699219 444 L 1554 431.699219 L 1554 414.300781 "/>
<path style=" stroke:none;fill-rule:evenodd;fill:rgb(0%,0%,0%);fill-opacity:1;" d="M 1704 414.300781 L 1691.699219 402 L 1674.300781 402 L 1662 414.300781 L 1662 431.699219 L 1674.300781 444 L 1691.699219 444 L 1704 431.699219 L 1704 414.300781 "/>
<path style=" stroke:none;fill-rule:evenodd;fill:rgb(0%,0%,0%);fill-opacity:1;" d="M 1644 423 C 1644 395 1602 395 1602 423 C 1602 451 1644 451 1644 423 "/>
<path style=" stroke:none;fill-rule:evenodd;fill:rgb(0%,0%,0%);fill-opacity:1;" d="M 1494 423 C 1494 395 1452 395 1452 423 C 1452 451 1494 451 1494 423 "/>
<path style=" stroke:none;fill-rule:evenodd;fill:rgb(100%,100%,100%);fill-opacity:1;" d="M 1477.800781 423 C 1477.800781 416.601562 1468.199219 416.601562 1468.199219 423 C 1468.199219 429.398438 1477.800781 429.398438 1477.800781 423 "/>
<path style=" stroke:none;fill-rule:evenodd;fill:rgb(100%,100%,100%);fill-opacity:1;" d="M 1537.800781 423 C 1537.800781 416.601562 1528.199219 416.601562 1528.199219 423 C 1528.199219 429.398438 1537.800781 429.398438 1537.800781 423 "/>
<path style=" stroke:none;fill-rule:evenodd;fill:rgb(100%,100%,100%);fill-opacity:1;" d="M 1627.800781 423 C 1627.800781 416.601562 1618.199219 416.601562 1618.199219 423 C 1618.199219 429.398438 1627.800781 429.398438 1627.800781 423 "/>
<path style=" stroke:none;fill-rule:evenodd;fill:rgb(100%,100%,100%);fill-opacity:1;" d="M 1687.800781 423 C 1687.800781 416.601562 1678.199219 416.601562 1678.199219 423 C 1678.199219 429.398438 1687.800781 429.398438 1687.800781 423 "/>
<path style=" stroke:none;fill-rule:evenodd;fill:rgb(100%,100%,100%);fill-opacity:1;" d="M 1057.800781 933 C 1057.800781 926.601562 1048.199219 926.601562 1048.199219 933 C 1048.199219 939.398438 1057.800781 939.398438 1057.800781 933 "/>
<path style=" stroke:none;fill-rule:evenodd;fill:rgb(100%,100%,100%);fill-opacity:1;" d="M 1177.800781 933 C 1177.800781 926.601562 1168.199219 926.601562 1168.199219 933 C 1168.199219 939.398438 1177.800781 939.398438 1177.800781 933 "/>
<path style=" stroke:none;fill-rule:evenodd;fill:rgb(100%,100%,100%);fill-opacity:1;" d="M 1177.800781 753 C 1177.800781 746.601562 1168.199219 746.601562 1168.199219 753 C 1168.199219 759.398438 1177.800781 759.398438 1177.800781 753 "/>
<path style=" stroke:none;fill-rule:evenodd;fill:rgb(100%,100%,100%);fill-opacity:1;" d="M 1237.800781 693 C 1237.800781 686.601562 1228.199219 686.601562 1228.199219 693 C 1228.199219 699.398438 1237.800781 699.398438 1237.800781 693 "/>
<path style=" stroke:none;fill-rule:evenodd;fill:rgb(100%,100%,100%);fill-opacity:1;" d="M 1297.800781 633 C 1297.800781 626.601562 1288.199219 626.601562 1288.199219 633 C 1288.199219 639.398438 1297.800781 639.398438 1297.800781 633 "/>
<path style=" stroke:none;fill-rule:evenodd;fill:rgb(100%,100%,100%);fill-opacity:1;" d="M 1357.800781 573 C 1357.800781 566.601562 1348.199219 566.601562 1348.199219 573 C 1348.199219 579.398438 1357.800781 579.398438 1357.800781 573 "/>
<path style=" stroke:none;fill-rule:evenodd;fill:rgb(100%,100%,100%);fill-opacity:1;" d="M 1417.800781 513 C 1417.800781 506.601562 1408.199219 506.601562 1408.199219 513 C 1408.199219 519.398438 1417.800781 519.398438 1417.800781 513 "/>
<path style=" stroke:none;fill-rule:evenodd;fill:rgb(100%,100%,100%);fill-opacity:1;" d="M 1237.800781 513 C 1237.800781 506.601562 1228.199219 506.601562 1228.199219 513 C 1228.199219 519.398438 1237.800781 519.398438 1237.800781 513 "/>
<path style=" stroke:none;fill-rule:evenodd;fill:rgb(100%,100%,100%);fill-opacity:1;" d="M 1177.800781 573 C 1177.800781 566.601562 1168.199219 566.601562 1168.199219 573 C 1168.199219 579.398438 1177.800781 579.398438 1177.800781 573 "/>
<path style=" stroke:none;fill-rule:evenodd;fill:rgb(100%,100%,100%);fill-opacity:1;" d="M 1117.800781 633 C 1117.800781 626.601562 1108.199219 626.601562 1108.199219 633 C 1108.199219 639.398438 1117.800781 639.398438 1117.800781 633 "/>
<path style=" stroke:none;fill-rule:evenodd;fill:rgb(100%,100%,100%);fill-opacity:1;" d="M 1057.800781 693 C 1057.800781 686.601562 1048.199219 686.601562 1048.199219 693 C 1048.199219 699.398438 1057.800781 699.398438 1057.800781 693 "/>
<path style=" stroke:none;fill-rule:evenodd;fill:rgb(100%,100%,100%);fill-opacity:1;" d="M 1057.800781 753 C 1057.800781 746.601562 1048.199219 746.601562 1048.199219 753 C 1048.199219 759.398438 1057.800781 759.398438 1057.800781 753 "/>
<path style=" stroke:none;fill-rule:evenodd;fill:rgb(100%,100%,100%);fill-opacity:1;" d="M 1237.800781 363 C 1237.800781 356.601562 1228.199219 356.601562 1228.199219 363 C 1228.199219 369.398438 1237.800781 369.398438 1237.800781 363 "/>
<path style=" stroke:none;fill-rule:evenodd;fill:rgb(100%,100%,100%);fill-opacity:1;" d="M 1417.800781 363 C 1417.800781 356.601562 1408.199219 356.601562 1408.199219 363 C 1408.199219 369.398438 1417.800781 369.398438 1417.800781 363 "/>
<path style=" stroke:none;fill-rule:evenodd;fill:rgb(100%,100%,100%);fill-opacity:1;" d="M 1777.800781 333 C 1777.800781 326.601562 1768.199219 326.601562 1768.199219 333 C 1768.199219 339.398438 1777.800781 339.398438 1777.800781 333 "/>
<path style=" stroke:none;fill-rule:evenodd;fill:rgb(100%,100%,100%);fill-opacity:1;" d="M 1777.800781 513 C 1777.800781 506.601562 1768.199219 506.601562 1768.199219 513 C 1768.199219 519.398438 1777.800781 519.398438 1777.800781 513 "/>
<path style=" stroke:none;fill-rule:evenodd;fill:rgb(100%,100%,100%);fill-opacity:1;" d="M 1237.800781 243 C 1237.800781 236.601562 1228.199219 236.601562 1228.199219 243 C 1228.199219 249.398438 1237.800781 249.398438 1237.800781 243 "/>
<path style=" stroke:none;fill-rule:evenodd;fill:rgb(100%,100%,100%);fill-opacity:1;" d="M 1177.800781 243 C 1177.800781 236.601562 1168.199219 236.601562 1168.199219 243 C 1168.199219 249.398438 1177.800781 249.398438 1177.800781 243 "/>
<path style=" stroke:none;fill-rule:evenodd;fill:rgb(100%,100%,100%);fill-opacity:1;" d="M 1117.800781 243 C 1117.800781 236.601562 1108.199219 236.601562 1108.199219 243 C 1108.199219 249.398438 1117.800781 249.398438 1117.800781 243 "/>
<path style=" stroke:none;fill-rule:evenodd;fill:rgb(100%,100%,100%);fill-opacity:1;" d="M 1057.800781 243 C 1057.800781 236.601562 1048.199219 236.601562 1048.199219 243 C 1048.199219 249.398438 1057.800781 249.398438 1057.800781 243 "/>
<path style=" stroke:none;fill-rule:evenodd;fill:rgb(100%,100%,100%);fill-opacity:1;" d="M 997.800781 243 C 997.800781 236.601562 988.199219 236.601562 988.199219 243 C 988.199219 249.398438 997.800781 249.398438 997.800781 243 "/>
<path style=" stroke:none;fill-rule:evenodd;fill:rgb(100%,100%,100%);fill-opacity:1;" d="M 937.800781 243 C 937.800781 236.601562 928.199219 236.601562 928.199219 243 C 928.199219 249.398438 937.800781 249.398438 937.800781 243 "/>
<path style=" stroke:none;fill-rule:evenodd;fill:rgb(100%,100%,100%);fill-opacity:1;" d="M 1777.800781 123 C 1777.800781 116.601562 1768.199219 116.601562 1768.199219 123 C 1768.199219 129.398438 1777.800781 129.398438 1777.800781 123 "/>
<path style=" stroke:none;fill-rule:evenodd;fill:rgb(100%,100%,100%);fill-opacity:1;" d="M 1837.800781 123 C 1837.800781 116.601562 1828.199219 116.601562 1828.199219 123 C 1828.199219 129.398438 1837.800781 129.398438 1837.800781 123 "/>
<path style=" stroke:none;fill-rule:evenodd;fill:rgb(100%,100%,100%);fill-opacity:1;" d="M 1897.800781 123 C 1897.800781 116.601562 1888.199219 116.601562 1888.199219 123 C 1888.199219 129.398438 1897.800781 129.398438 1897.800781 123 "/>
<path style=" stroke:none;fill-rule:evenodd;fill:rgb(100%,100%,100%);fill-opacity:1;" d="M 1683.539062 96.78125 C 1683.539062 90.378906 1673.941406 90.378906 1673.941406 96.78125 C 1673.941406 103.179688 1683.539062 103.179688 1683.539062 96.78125 "/>
<path style=" stroke:none;fill-rule:evenodd;fill:rgb(100%,100%,100%);fill-opacity:1;" d="M 1565.460938 96.78125 C 1565.460938 90.378906 1555.859375 90.378906 1555.859375 96.78125 C 1555.859375 103.179688 1565.460938 103.179688 1565.460938 96.78125 "/>
<path style=" stroke:none;fill-rule:evenodd;fill:rgb(100%,100%,100%);fill-opacity:1;" d="M 1447.320312 96.78125 C 1447.320312 90.378906 1437.71875 90.378906 1437.71875 96.78125 C 1437.71875 103.179688 1447.320312 103.179688 1447.320312 96.78125 "/>
<path style=" stroke:none;fill-rule:evenodd;fill:rgb(100%,100%,100%);fill-opacity:1;" d="M 1444.980469 214.859375 C 1444.980469 208.460938 1435.378906 208.460938 1435.378906 214.859375 C 1435.378906 221.261719 1444.980469 221.261719 1444.980469 214.859375 "/>
<path style=" stroke:none;fill-rule:evenodd;fill:rgb(100%,100%,100%);fill-opacity:1;" d="M 1508.761719 214.859375 C 1508.761719 208.460938 1499.160156 208.460938 1499.160156 214.859375 C 1499.160156 221.261719 1508.761719 221.261719 1508.761719 214.859375 "/>
<path style=" stroke:none;fill-rule:evenodd;fill:rgb(100%,100%,100%);fill-opacity:1;" d="M 1565.460938 214.859375 C 1565.460938 208.460938 1555.859375 208.460938 1555.859375 214.859375 C 1555.859375 221.261719 1565.460938 221.261719 1565.460938 214.859375 "/>
<path style=" stroke:none;fill-rule:evenodd;fill:rgb(100%,100%,100%);fill-opacity:1;" d="M 1622.160156 214.859375 C 1622.160156 208.460938 1612.558594 208.460938 1612.558594 214.859375 C 1612.558594 221.261719 1622.160156 221.261719 1622.160156 214.859375 "/>
<path style=" stroke:none;fill-rule:evenodd;fill:rgb(100%,100%,100%);fill-opacity:1;" d="M 1685.941406 214.859375 C 1685.941406 208.460938 1676.339844 208.460938 1676.339844 214.859375 C 1676.339844 221.261719 1685.941406 221.261719 1685.941406 214.859375 "/>
<path style=" stroke:none;fill-rule:evenodd;fill:rgb(100%,100%,100%);fill-opacity:1;" d="M 808.859375 142.621094 C 808.859375 136.21875 799.261719 136.21875 799.261719 142.621094 C 799.261719 149.019531 808.859375 149.019531 808.859375 142.621094 "/>
<path style=" stroke:none;fill-rule:evenodd;fill:rgb(100%,100%,100%);fill-opacity:1;" d="M 235.800781 142.621094 C 235.800781 136.21875 226.199219 136.21875 226.199219 142.621094 C 226.199219 149.019531 235.800781 149.019531 235.800781 142.621094 "/>
<path style=" stroke:none;fill-rule:evenodd;fill:rgb(100%,100%,100%);fill-opacity:1;" d="M 67.800781 63 C 67.800781 56.601562 58.199219 56.601562 58.199219 63 C 58.199219 69.398438 67.800781 69.398438 67.800781 63 "/>
</g>
</svg>
