<?xml version="1.0" encoding="UTF-8"?>
<svg xmlns="http://www.w3.org/2000/svg" xmlns:xlink="http://www.w3.org/1999/xlink" width="2637pt" height="1199pt" viewBox="0 0 2637 1199" version="1.1">
<g id="surface1">
<path style="fill:none;stroke-width:0.01;stroke-linecap:round;stroke-linejoin:miter;stroke:rgb(0%,0%,0%);stroke-opacity:1;stroke-miterlimit:10;" d="M 0.426002 0.45 L 0.426002 2.049603 " transform="matrix(600,0,0,-600,-19.980001,1465.999996)"/>
<path style="fill:none;stroke-width:0.01;stroke-linecap:round;stroke-linejoin:miter;stroke:rgb(0%,0%,0%);stroke-opacity:1;stroke-miterlimit:10;" d="M 0.426002 2.049603 L 4.413001 2.049603 " transform="matrix(600,0,0,-600,-19.980001,1465.999996)"/>
<path style="fill:none;stroke-width:0.01;stroke-linecap:round;stroke-linejoin:miter;stroke:rgb(0%,0%,0%);stroke-opacity:1;stroke-miterlimit:10;" d="M 4.413001 2.049603 L 4.413001 0.45 " transform="matrix(600,0,0,-600,-19.980001,1465.999996)"/>
<path style="fill:none;stroke-width:0.01;stroke-linecap:round;stroke-linejoin:miter;stroke:rgb(0%,0%,0%);stroke-opacity:1;stroke-miterlimit:10;" d="M 4.413001 0.45 L 0.426002 0.45 " transform="matrix(600,0,0,-600,-19.980001,1465.999996)"/>
<path style="fill:none;stroke-width:0.0051;stroke-linecap:round;stroke-linejoin:miter;stroke:rgb(0%,0%,0%);stroke-opacity:1;stroke-miterlimit:10;" d="M 0.426002 0.45 L 0.0491984 0.45 " transform="matrix(600,0,0,-600,-19.980001,1465.999996)"/>
<path style="fill:none;stroke-width:0.0051;stroke-linecap:round;stroke-linejoin:miter;stroke:rgb(0%,0%,0%);stroke-opacity:1;stroke-miterlimit:10;" d="M 0.126002 0.452598 L 0.136197 0.552402 " transform="matrix(600,0,0,-600,-19.980001,1465.999996)"/>
<path style="fill:none;stroke-width:0.0051;stroke-linecap:round;stroke-linejoin:miter;stroke:rgb(0%,0%,0%);stroke-opacity:1;stroke-miterlimit:10;" d="M 0.138502 0.552402 L 0.126002 0.452598 " transform="matrix(600,0,0,-600,-19.980001,1465.999996)"/>
<path style="fill:none;stroke-width:0.0051;stroke-linecap:round;stroke-linejoin:miter;stroke:rgb(0%,0%,0%);stroke-opacity:1;stroke-miterlimit:10;" d="M 0.126002 0.452598 L 0.115702 0.552402 " transform="matrix(600,0,0,-600,-19.980001,1465.999996)"/>
<path style="fill:none;stroke-width:0.0051;stroke-linecap:round;stroke-linejoin:miter;stroke:rgb(0%,0%,0%);stroke-opacity:1;stroke-miterlimit:10;" d="M 0.113398 0.552402 L 0.138502 0.552402 " transform="matrix(600,0,0,-600,-19.980001,1465.999996)"/>
<path style="fill:none;stroke-width:0.0051;stroke-linecap:round;stroke-linejoin:miter;stroke:rgb(0%,0%,0%);stroke-opacity:1;stroke-miterlimit:10;" d="M 0.131099 0.552402 L 0.126002 0.452598 " transform="matrix(600,0,0,-600,-19.980001,1465.999996)"/>
<path style="fill:none;stroke-width:0.0051;stroke-linecap:round;stroke-linejoin:miter;stroke:rgb(0%,0%,0%);stroke-opacity:1;stroke-miterlimit:10;" d="M 0.126002 0.452598 L 0.1208 0.552402 " transform="matrix(600,0,0,-600,-19.980001,1465.999996)"/>
<path style="fill:none;stroke-width:0.0051;stroke-linecap:round;stroke-linejoin:miter;stroke:rgb(0%,0%,0%);stroke-opacity:1;stroke-miterlimit:10;" d="M 0.113398 0.552402 L 0.126002 0.452598 " transform="matrix(600,0,0,-600,-19.980001,1465.999996)"/>
<path style="fill:none;stroke-width:0.0051;stroke-linecap:round;stroke-linejoin:miter;stroke:rgb(0%,0%,0%);stroke-opacity:1;stroke-miterlimit:10;" d="M 0.126002 0.452598 L 0.126002 2.047402 " transform="matrix(600,0,0,-600,-19.980001,1465.999996)"/>
<path style="fill:none;stroke-width:0.0051;stroke-linecap:round;stroke-linejoin:miter;stroke:rgb(0%,0%,0%);stroke-opacity:1;stroke-miterlimit:10;" d="M 0.126002 2.047402 L 0.136197 1.947598 " transform="matrix(600,0,0,-600,-19.980001,1465.999996)"/>
<path style="fill:none;stroke-width:0.0051;stroke-linecap:round;stroke-linejoin:miter;stroke:rgb(0%,0%,0%);stroke-opacity:1;stroke-miterlimit:10;" d="M 0.138502 1.947598 L 0.126002 2.047402 " transform="matrix(600,0,0,-600,-19.980001,1465.999996)"/>
<path style="fill:none;stroke-width:0.0051;stroke-linecap:round;stroke-linejoin:miter;stroke:rgb(0%,0%,0%);stroke-opacity:1;stroke-miterlimit:10;" d="M 0.126002 2.047402 L 0.115702 1.947598 " transform="matrix(600,0,0,-600,-19.980001,1465.999996)"/>
<path style="fill:none;stroke-width:0.0051;stroke-linecap:round;stroke-linejoin:miter;stroke:rgb(0%,0%,0%);stroke-opacity:1;stroke-miterlimit:10;" d="M 0.113398 1.947598 L 0.138502 1.947598 " transform="matrix(600,0,0,-600,-19.980001,1465.999996)"/>
<path style="fill:none;stroke-width:0.0051;stroke-linecap:round;stroke-linejoin:miter;stroke:rgb(0%,0%,0%);stroke-opacity:1;stroke-miterlimit:10;" d="M 0.131099 1.947598 L 0.126002 2.047402 " transform="matrix(600,0,0,-600,-19.980001,1465.999996)"/>
<path style="fill:none;stroke-width:0.0051;stroke-linecap:round;stroke-linejoin:miter;stroke:rgb(0%,0%,0%);stroke-opacity:1;stroke-miterlimit:10;" d="M 0.126002 2.047402 L 0.1208 1.947598 " transform="matrix(600,0,0,-600,-19.980001,1465.999996)"/>
<path style="fill:none;stroke-width:0.0051;stroke-linecap:round;stroke-linejoin:miter;stroke:rgb(0%,0%,0%);stroke-opacity:1;stroke-miterlimit:10;" d="M 0.113398 1.947598 L 0.126002 2.047402 " transform="matrix(600,0,0,-600,-19.980001,1465.999996)"/>
<path style="fill:none;stroke-width:0.0051;stroke-linecap:round;stroke-linejoin:miter;stroke:rgb(0%,0%,0%);stroke-opacity:1;stroke-miterlimit:10;" d="M 0.0491984 2.05 L 0.426002 2.05 " transform="matrix(600,0,0,-600,-19.980001,1465.999996)"/>
<path style="fill:none;stroke-width:0.0051;stroke-linecap:round;stroke-linejoin:miter;stroke:rgb(0%,0%,0%);stroke-opacity:1;stroke-miterlimit:10;" d="M 0.426002 2.049603 L 0.425898 2.4264 " transform="matrix(600,0,0,-600,-19.980001,1465.999996)"/>
<path style="fill:none;stroke-width:0.0051;stroke-linecap:round;stroke-linejoin:miter;stroke:rgb(0%,0%,0%);stroke-opacity:1;stroke-miterlimit:10;" d="M 0.428502 2.349603 L 0.5283 2.359902 " transform="matrix(600,0,0,-600,-19.980001,1465.999996)"/>
<path style="fill:none;stroke-width:0.0051;stroke-linecap:round;stroke-linejoin:miter;stroke:rgb(0%,0%,0%);stroke-opacity:1;stroke-miterlimit:10;" d="M 0.5283 2.362201 L 0.5283 2.336999 " transform="matrix(600,0,0,-600,-19.980001,1465.999996)"/>
<path style="fill:none;stroke-width:0.0051;stroke-linecap:round;stroke-linejoin:miter;stroke:rgb(0%,0%,0%);stroke-opacity:1;stroke-miterlimit:10;" d="M 0.5283 2.336999 L 0.428502 2.349603 " transform="matrix(600,0,0,-600,-19.980001,1465.999996)"/>
<path style="fill:none;stroke-width:0.0051;stroke-linecap:round;stroke-linejoin:miter;stroke:rgb(0%,0%,0%);stroke-opacity:1;stroke-miterlimit:10;" d="M 0.428502 2.349603 L 0.5283 2.339401 " transform="matrix(600,0,0,-600,-19.980001,1465.999996)"/>
<path style="fill:none;stroke-width:0.0051;stroke-linecap:round;stroke-linejoin:miter;stroke:rgb(0%,0%,0%);stroke-opacity:1;stroke-miterlimit:10;" d="M 0.5283 2.344499 L 0.428502 2.349603 " transform="matrix(600,0,0,-600,-19.980001,1465.999996)"/>
<path style="fill:none;stroke-width:0.0051;stroke-linecap:round;stroke-linejoin:miter;stroke:rgb(0%,0%,0%);stroke-opacity:1;stroke-miterlimit:10;" d="M 0.428502 2.349603 L 0.5283 2.354701 " transform="matrix(600,0,0,-600,-19.980001,1465.999996)"/>
<path style="fill:none;stroke-width:0.0051;stroke-linecap:round;stroke-linejoin:miter;stroke:rgb(0%,0%,0%);stroke-opacity:1;stroke-miterlimit:10;" d="M 0.5283 2.362201 L 0.428502 2.349603 " transform="matrix(600,0,0,-600,-19.980001,1465.999996)"/>
<path style="fill:none;stroke-width:0.0051;stroke-linecap:round;stroke-linejoin:miter;stroke:rgb(0%,0%,0%);stroke-opacity:1;stroke-miterlimit:10;" d="M 0.428502 2.349603 L 4.423398 2.35 " transform="matrix(600,0,0,-600,-19.980001,1465.999996)"/>
<path style="fill:none;stroke-width:0.0051;stroke-linecap:round;stroke-linejoin:miter;stroke:rgb(0%,0%,0%);stroke-opacity:1;stroke-miterlimit:10;" d="M 4.423398 2.35 L 4.323599 2.339798 " transform="matrix(600,0,0,-600,-19.980001,1465.999996)"/>
<path style="fill:none;stroke-width:0.0051;stroke-linecap:round;stroke-linejoin:miter;stroke:rgb(0%,0%,0%);stroke-opacity:1;stroke-miterlimit:10;" d="M 4.323599 2.337402 L 4.423398 2.35 " transform="matrix(600,0,0,-600,-19.980001,1465.999996)"/>
<path style="fill:none;stroke-width:0.0051;stroke-linecap:round;stroke-linejoin:miter;stroke:rgb(0%,0%,0%);stroke-opacity:1;stroke-miterlimit:10;" d="M 4.423398 2.35 L 4.323599 2.360202 " transform="matrix(600,0,0,-600,-19.980001,1465.999996)"/>
<path style="fill:none;stroke-width:0.0051;stroke-linecap:round;stroke-linejoin:miter;stroke:rgb(0%,0%,0%);stroke-opacity:1;stroke-miterlimit:10;" d="M 4.323599 2.362598 L 4.323599 2.337402 " transform="matrix(600,0,0,-600,-19.980001,1465.999996)"/>
<path style="fill:none;stroke-width:0.0051;stroke-linecap:round;stroke-linejoin:miter;stroke:rgb(0%,0%,0%);stroke-opacity:1;stroke-miterlimit:10;" d="M 4.323599 2.344902 L 4.423398 2.35 " transform="matrix(600,0,0,-600,-19.980001,1465.999996)"/>
<path style="fill:none;stroke-width:0.0051;stroke-linecap:round;stroke-linejoin:miter;stroke:rgb(0%,0%,0%);stroke-opacity:1;stroke-miterlimit:10;" d="M 4.423398 2.35 L 4.323599 2.355098 " transform="matrix(600,0,0,-600,-19.980001,1465.999996)"/>
<path style="fill:none;stroke-width:0.0051;stroke-linecap:round;stroke-linejoin:miter;stroke:rgb(0%,0%,0%);stroke-opacity:1;stroke-miterlimit:10;" d="M 4.323599 2.362598 L 4.423398 2.35 " transform="matrix(600,0,0,-600,-19.980001,1465.999996)"/>
<path style="fill:none;stroke-width:0.0051;stroke-linecap:round;stroke-linejoin:miter;stroke:rgb(0%,0%,0%);stroke-opacity:1;stroke-miterlimit:10;" d="M 4.425898 2.426797 L 4.426002 2.05 " transform="matrix(600,0,0,-600,-19.980001,1465.999996)"/>
<path style="fill:none;stroke-width:0.006;stroke-linecap:round;stroke-linejoin:miter;stroke:rgb(0%,0%,0%);stroke-opacity:1;stroke-miterlimit:10;" d="M 2.5522 2.3861 L 2.541503 2.375397 " transform="matrix(600,0,0,-600,-19.980001,1465.999996)"/>
<path style="fill:none;stroke-width:0.006;stroke-linecap:round;stroke-linejoin:miter;stroke:rgb(0%,0%,0%);stroke-opacity:1;stroke-miterlimit:10;" d="M 2.541503 2.375397 L 2.520201 2.375397 " transform="matrix(600,0,0,-600,-19.980001,1465.999996)"/>
<path style="fill:none;stroke-width:0.006;stroke-linecap:round;stroke-linejoin:miter;stroke:rgb(0%,0%,0%);stroke-opacity:1;stroke-miterlimit:10;" d="M 2.520201 2.375397 L 2.509498 2.3861 " transform="matrix(600,0,0,-600,-19.980001,1465.999996)"/>
<path style="fill:none;stroke-width:0.006;stroke-linecap:round;stroke-linejoin:miter;stroke:rgb(0%,0%,0%);stroke-opacity:1;stroke-miterlimit:10;" d="M 2.509498 2.3861 L 2.509498 2.407402 " transform="matrix(600,0,0,-600,-19.980001,1465.999996)"/>
<path style="fill:none;stroke-width:0.006;stroke-linecap:round;stroke-linejoin:miter;stroke:rgb(0%,0%,0%);stroke-opacity:1;stroke-miterlimit:10;" d="M 2.509498 2.407402 L 2.541503 2.407402 " transform="matrix(600,0,0,-600,-19.980001,1465.999996)"/>
<path style="fill:none;stroke-width:0.006;stroke-linecap:round;stroke-linejoin:miter;stroke:rgb(0%,0%,0%);stroke-opacity:1;stroke-miterlimit:10;" d="M 2.541503 2.407402 L 2.5522 2.396797 " transform="matrix(600,0,0,-600,-19.980001,1465.999996)"/>
<path style="fill:none;stroke-width:0.006;stroke-linecap:round;stroke-linejoin:miter;stroke:rgb(0%,0%,0%);stroke-opacity:1;stroke-miterlimit:10;" d="M 2.5522 2.396797 L 2.5522 2.3861 " transform="matrix(600,0,0,-600,-19.980001,1465.999996)"/>
<path style="fill:none;stroke-width:0.006;stroke-linecap:round;stroke-linejoin:miter;stroke:rgb(0%,0%,0%);stroke-opacity:1;stroke-miterlimit:10;" d="M 2.5308 2.428802 L 2.509498 2.407402 " transform="matrix(600,0,0,-600,-19.980001,1465.999996)"/>
<path style="fill:none;stroke-width:0.006;stroke-linecap:round;stroke-linejoin:miter;stroke:rgb(0%,0%,0%);stroke-opacity:1;stroke-miterlimit:10;" d="M 2.5308 2.428802 L 2.5522 2.439499 " transform="matrix(600,0,0,-600,-19.980001,1465.999996)"/>
<path style="fill:none;stroke-width:0.006;stroke-linecap:round;stroke-linejoin:miter;stroke:rgb(0%,0%,0%);stroke-opacity:1;stroke-miterlimit:10;" d="M 2.487903 2.3861 L 2.477297 2.3861 " transform="matrix(600,0,0,-600,-19.980001,1465.999996)"/>
<path style="fill:none;stroke-width:0.006;stroke-linecap:round;stroke-linejoin:miter;stroke:rgb(0%,0%,0%);stroke-opacity:1;stroke-miterlimit:10;" d="M 2.477297 2.3861 L 2.477297 2.375397 " transform="matrix(600,0,0,-600,-19.980001,1465.999996)"/>
<path style="fill:none;stroke-width:0.006;stroke-linecap:round;stroke-linejoin:miter;stroke:rgb(0%,0%,0%);stroke-opacity:1;stroke-miterlimit:10;" d="M 2.477297 2.375397 L 2.487903 2.375397 " transform="matrix(600,0,0,-600,-19.980001,1465.999996)"/>
<path style="fill:none;stroke-width:0.006;stroke-linecap:round;stroke-linejoin:miter;stroke:rgb(0%,0%,0%);stroke-opacity:1;stroke-miterlimit:10;" d="M 2.487903 2.375397 L 2.487903 2.3861 " transform="matrix(600,0,0,-600,-19.980001,1465.999996)"/>
<path style="fill:none;stroke-width:0.006;stroke-linecap:round;stroke-linejoin:miter;stroke:rgb(0%,0%,0%);stroke-opacity:1;stroke-miterlimit:10;" d="M 2.455501 2.375397 L 2.412799 2.375397 " transform="matrix(600,0,0,-600,-19.980001,1465.999996)"/>
<path style="fill:none;stroke-width:0.006;stroke-linecap:round;stroke-linejoin:miter;stroke:rgb(0%,0%,0%);stroke-opacity:1;stroke-miterlimit:10;" d="M 2.434198 2.375397 L 2.434198 2.439499 " transform="matrix(600,0,0,-600,-19.980001,1465.999996)"/>
<path style="fill:none;stroke-width:0.006;stroke-linecap:round;stroke-linejoin:miter;stroke:rgb(0%,0%,0%);stroke-opacity:1;stroke-miterlimit:10;" d="M 2.434198 2.439499 L 2.412799 2.418099 " transform="matrix(600,0,0,-600,-19.980001,1465.999996)"/>
<path style="fill:none;stroke-width:0.006;stroke-linecap:round;stroke-linejoin:miter;stroke:rgb(0%,0%,0%);stroke-opacity:1;stroke-miterlimit:10;" d="M 2.391099 2.428802 L 2.348398 2.3861 " transform="matrix(600,0,0,-600,-19.980001,1465.999996)"/>
<path style="fill:none;stroke-width:0.006;stroke-linecap:round;stroke-linejoin:miter;stroke:rgb(0%,0%,0%);stroke-opacity:1;stroke-miterlimit:10;" d="M 2.348398 2.3861 L 2.359003 2.375397 " transform="matrix(600,0,0,-600,-19.980001,1465.999996)"/>
<path style="fill:none;stroke-width:0.006;stroke-linecap:round;stroke-linejoin:miter;stroke:rgb(0%,0%,0%);stroke-opacity:1;stroke-miterlimit:10;" d="M 2.359003 2.375397 L 2.380403 2.375397 " transform="matrix(600,0,0,-600,-19.980001,1465.999996)"/>
<path style="fill:none;stroke-width:0.006;stroke-linecap:round;stroke-linejoin:miter;stroke:rgb(0%,0%,0%);stroke-opacity:1;stroke-miterlimit:10;" d="M 2.380403 2.375397 L 2.391099 2.3861 " transform="matrix(600,0,0,-600,-19.980001,1465.999996)"/>
<path style="fill:none;stroke-width:0.006;stroke-linecap:round;stroke-linejoin:miter;stroke:rgb(0%,0%,0%);stroke-opacity:1;stroke-miterlimit:10;" d="M 2.391099 2.3861 L 2.391099 2.428802 " transform="matrix(600,0,0,-600,-19.980001,1465.999996)"/>
<path style="fill:none;stroke-width:0.006;stroke-linecap:round;stroke-linejoin:miter;stroke:rgb(0%,0%,0%);stroke-opacity:1;stroke-miterlimit:10;" d="M 2.391099 2.428802 L 2.380403 2.439499 " transform="matrix(600,0,0,-600,-19.980001,1465.999996)"/>
<path style="fill:none;stroke-width:0.006;stroke-linecap:round;stroke-linejoin:miter;stroke:rgb(0%,0%,0%);stroke-opacity:1;stroke-miterlimit:10;" d="M 2.380403 2.439499 L 2.359003 2.439499 " transform="matrix(600,0,0,-600,-19.980001,1465.999996)"/>
<path style="fill:none;stroke-width:0.006;stroke-linecap:round;stroke-linejoin:miter;stroke:rgb(0%,0%,0%);stroke-opacity:1;stroke-miterlimit:10;" d="M 2.359003 2.439499 L 2.348398 2.428802 " transform="matrix(600,0,0,-600,-19.980001,1465.999996)"/>
<path style="fill:none;stroke-width:0.006;stroke-linecap:round;stroke-linejoin:miter;stroke:rgb(0%,0%,0%);stroke-opacity:1;stroke-miterlimit:10;" d="M 2.348398 2.428802 L 2.348398 2.3861 " transform="matrix(600,0,0,-600,-19.980001,1465.999996)"/>
<path style="fill:none;stroke-width:0.006;stroke-linecap:round;stroke-linejoin:miter;stroke:rgb(0%,0%,0%);stroke-opacity:1;stroke-miterlimit:10;" d="M 2.326601 2.375397 L 2.283899 2.375397 " transform="matrix(600,0,0,-600,-19.980001,1465.999996)"/>
<path style="fill:none;stroke-width:0.006;stroke-linecap:round;stroke-linejoin:miter;stroke:rgb(0%,0%,0%);stroke-opacity:1;stroke-miterlimit:10;" d="M 2.305201 2.375397 L 2.305201 2.439499 " transform="matrix(600,0,0,-600,-19.980001,1465.999996)"/>
<path style="fill:none;stroke-width:0.006;stroke-linecap:round;stroke-linejoin:miter;stroke:rgb(0%,0%,0%);stroke-opacity:1;stroke-miterlimit:10;" d="M 2.305201 2.439499 L 2.283899 2.418099 " transform="matrix(600,0,0,-600,-19.980001,1465.999996)"/>
<path style="fill:none;stroke-width:0.006;stroke-linecap:round;stroke-linejoin:miter;stroke:rgb(0%,0%,0%);stroke-opacity:1;stroke-miterlimit:10;" d="M 0.100299 1.365599 L 0.0363013 1.365599 " transform="matrix(600,0,0,-600,-19.980001,1465.999996)"/>
<path style="fill:none;stroke-width:0.006;stroke-linecap:round;stroke-linejoin:miter;stroke:rgb(0%,0%,0%);stroke-opacity:1;stroke-miterlimit:10;" d="M 0.0363013 1.365599 L 0.0683 1.3336 " transform="matrix(600,0,0,-600,-19.980001,1465.999996)"/>
<path style="fill:none;stroke-width:0.006;stroke-linecap:round;stroke-linejoin:miter;stroke:rgb(0%,0%,0%);stroke-opacity:1;stroke-miterlimit:10;" d="M 0.0683 1.3336 L 0.0683 1.376302 " transform="matrix(600,0,0,-600,-19.980001,1465.999996)"/>
<path style="fill:none;stroke-width:0.006;stroke-linecap:round;stroke-linejoin:miter;stroke:rgb(0%,0%,0%);stroke-opacity:1;stroke-miterlimit:10;" d="M 0.0790031 1.311797 L 0.0683 1.3011 " transform="matrix(600,0,0,-600,-19.980001,1465.999996)"/>
<path style="fill:none;stroke-width:0.006;stroke-linecap:round;stroke-linejoin:miter;stroke:rgb(0%,0%,0%);stroke-opacity:1;stroke-miterlimit:10;" d="M 0.0683 1.3011 L 0.0683 1.269102 " transform="matrix(600,0,0,-600,-19.980001,1465.999996)"/>
<path style="fill:none;stroke-width:0.006;stroke-linecap:round;stroke-linejoin:miter;stroke:rgb(0%,0%,0%);stroke-opacity:1;stroke-miterlimit:10;" d="M 0.0683 1.269102 L 0.0896997 1.269102 " transform="matrix(600,0,0,-600,-19.980001,1465.999996)"/>
<path style="fill:none;stroke-width:0.006;stroke-linecap:round;stroke-linejoin:miter;stroke:rgb(0%,0%,0%);stroke-opacity:1;stroke-miterlimit:10;" d="M 0.0896997 1.269102 L 0.100299 1.279798 " transform="matrix(600,0,0,-600,-19.980001,1465.999996)"/>
<path style="fill:none;stroke-width:0.006;stroke-linecap:round;stroke-linejoin:miter;stroke:rgb(0%,0%,0%);stroke-opacity:1;stroke-miterlimit:10;" d="M 0.100299 1.279798 L 0.100299 1.3011 " transform="matrix(600,0,0,-600,-19.980001,1465.999996)"/>
<path style="fill:none;stroke-width:0.006;stroke-linecap:round;stroke-linejoin:miter;stroke:rgb(0%,0%,0%);stroke-opacity:1;stroke-miterlimit:10;" d="M 0.100299 1.3011 L 0.0896997 1.311797 " transform="matrix(600,0,0,-600,-19.980001,1465.999996)"/>
<path style="fill:none;stroke-width:0.006;stroke-linecap:round;stroke-linejoin:miter;stroke:rgb(0%,0%,0%);stroke-opacity:1;stroke-miterlimit:10;" d="M 0.0896997 1.311797 L 0.0790031 1.311797 " transform="matrix(600,0,0,-600,-19.980001,1465.999996)"/>
<path style="fill:none;stroke-width:0.006;stroke-linecap:round;stroke-linejoin:miter;stroke:rgb(0%,0%,0%);stroke-opacity:1;stroke-miterlimit:10;" d="M 0.0469979 1.290501 L 0.0683 1.269102 " transform="matrix(600,0,0,-600,-19.980001,1465.999996)"/>
<path style="fill:none;stroke-width:0.006;stroke-linecap:round;stroke-linejoin:miter;stroke:rgb(0%,0%,0%);stroke-opacity:1;stroke-miterlimit:10;" d="M 0.0469979 1.290501 L 0.0363013 1.311797 " transform="matrix(600,0,0,-600,-19.980001,1465.999996)"/>
<path style="fill:none;stroke-width:0.006;stroke-linecap:round;stroke-linejoin:miter;stroke:rgb(0%,0%,0%);stroke-opacity:1;stroke-miterlimit:10;" d="M 0.0896997 1.247598 L 0.100299 1.247598 " transform="matrix(600,0,0,-600,-19.980001,1465.999996)"/>
<path style="fill:none;stroke-width:0.006;stroke-linecap:round;stroke-linejoin:miter;stroke:rgb(0%,0%,0%);stroke-opacity:1;stroke-miterlimit:10;" d="M 0.100299 1.247598 L 0.100299 1.236901 " transform="matrix(600,0,0,-600,-19.980001,1465.999996)"/>
<path style="fill:none;stroke-width:0.006;stroke-linecap:round;stroke-linejoin:miter;stroke:rgb(0%,0%,0%);stroke-opacity:1;stroke-miterlimit:10;" d="M 0.100299 1.236901 L 0.0896997 1.236901 " transform="matrix(600,0,0,-600,-19.980001,1465.999996)"/>
<path style="fill:none;stroke-width:0.006;stroke-linecap:round;stroke-linejoin:miter;stroke:rgb(0%,0%,0%);stroke-opacity:1;stroke-miterlimit:10;" d="M 0.0896997 1.236901 L 0.0896997 1.247598 " transform="matrix(600,0,0,-600,-19.980001,1465.999996)"/>
<path style="fill:none;stroke-width:0.006;stroke-linecap:round;stroke-linejoin:miter;stroke:rgb(0%,0%,0%);stroke-opacity:1;stroke-miterlimit:10;" d="M 0.0896997 1.215098 L 0.100299 1.204499 " transform="matrix(600,0,0,-600,-19.980001,1465.999996)"/>
<path style="fill:none;stroke-width:0.006;stroke-linecap:round;stroke-linejoin:miter;stroke:rgb(0%,0%,0%);stroke-opacity:1;stroke-miterlimit:10;" d="M 0.100299 1.204499 L 0.100299 1.183099 " transform="matrix(600,0,0,-600,-19.980001,1465.999996)"/>
<path style="fill:none;stroke-width:0.006;stroke-linecap:round;stroke-linejoin:miter;stroke:rgb(0%,0%,0%);stroke-opacity:1;stroke-miterlimit:10;" d="M 0.100299 1.183099 L 0.0896997 1.172402 " transform="matrix(600,0,0,-600,-19.980001,1465.999996)"/>
<path style="fill:none;stroke-width:0.006;stroke-linecap:round;stroke-linejoin:miter;stroke:rgb(0%,0%,0%);stroke-opacity:1;stroke-miterlimit:10;" d="M 0.0896997 1.172402 L 0.0469979 1.215098 " transform="matrix(600,0,0,-600,-19.980001,1465.999996)"/>
<path style="fill:none;stroke-width:0.006;stroke-linecap:round;stroke-linejoin:miter;stroke:rgb(0%,0%,0%);stroke-opacity:1;stroke-miterlimit:10;" d="M 0.0469979 1.215098 L 0.0896997 1.215098 " transform="matrix(600,0,0,-600,-19.980001,1465.999996)"/>
<path style="fill:none;stroke-width:0.006;stroke-linecap:round;stroke-linejoin:miter;stroke:rgb(0%,0%,0%);stroke-opacity:1;stroke-miterlimit:10;" d="M 0.0469979 1.215098 L 0.0363013 1.204499 " transform="matrix(600,0,0,-600,-19.980001,1465.999996)"/>
<path style="fill:none;stroke-width:0.006;stroke-linecap:round;stroke-linejoin:miter;stroke:rgb(0%,0%,0%);stroke-opacity:1;stroke-miterlimit:10;" d="M 0.0363013 1.204499 L 0.0363013 1.183099 " transform="matrix(600,0,0,-600,-19.980001,1465.999996)"/>
<path style="fill:none;stroke-width:0.006;stroke-linecap:round;stroke-linejoin:miter;stroke:rgb(0%,0%,0%);stroke-opacity:1;stroke-miterlimit:10;" d="M 0.0363013 1.183099 L 0.0469979 1.172402 " transform="matrix(600,0,0,-600,-19.980001,1465.999996)"/>
<path style="fill:none;stroke-width:0.006;stroke-linecap:round;stroke-linejoin:miter;stroke:rgb(0%,0%,0%);stroke-opacity:1;stroke-miterlimit:10;" d="M 0.0469979 1.172402 L 0.0896997 1.172402 " transform="matrix(600,0,0,-600,-19.980001,1465.999996)"/>
<path style="fill:none;stroke-width:0.006;stroke-linecap:round;stroke-linejoin:miter;stroke:rgb(0%,0%,0%);stroke-opacity:1;stroke-miterlimit:10;" d="M 0.0683 1.150703 L 0.0683 1.108001 " transform="matrix(600,0,0,-600,-19.980001,1465.999996)"/>
<path style="fill:none;stroke-width:0.006;stroke-linecap:round;stroke-linejoin:miter;stroke:rgb(0%,0%,0%);stroke-opacity:1;stroke-miterlimit:10;" d="M 0.0683 1.108001 L 0.0363013 1.14 " transform="matrix(600,0,0,-600,-19.980001,1465.999996)"/>
<path style="fill:none;stroke-width:0.006;stroke-linecap:round;stroke-linejoin:miter;stroke:rgb(0%,0%,0%);stroke-opacity:1;stroke-miterlimit:10;" d="M 0.0363013 1.14 L 0.100299 1.14 " transform="matrix(600,0,0,-600,-19.980001,1465.999996)"/>
<path style="fill:none;stroke-width:0.006;stroke-linecap:round;stroke-linejoin:miter;stroke:rgb(0%,0%,0%);stroke-opacity:1;stroke-miterlimit:10;" d="M 3.714003 0.626699 L 3.725702 0.615 " transform="matrix(600,0,0,-600,-19.980001,1465.999996)"/>
<path style="fill:none;stroke-width:0.006;stroke-linecap:round;stroke-linejoin:miter;stroke:rgb(0%,0%,0%);stroke-opacity:1;stroke-miterlimit:10;" d="M 3.725702 0.615 L 3.749101 0.615 " transform="matrix(600,0,0,-600,-19.980001,1465.999996)"/>
<path style="fill:none;stroke-width:0.006;stroke-linecap:round;stroke-linejoin:miter;stroke:rgb(0%,0%,0%);stroke-opacity:1;stroke-miterlimit:10;" d="M 3.749101 0.615 L 3.760702 0.626699 " transform="matrix(600,0,0,-600,-19.980001,1465.999996)"/>
<path style="fill:none;stroke-width:0.006;stroke-linecap:round;stroke-linejoin:miter;stroke:rgb(0%,0%,0%);stroke-opacity:1;stroke-miterlimit:10;" d="M 3.760702 0.626699 L 3.760702 0.638398 " transform="matrix(600,0,0,-600,-19.980001,1465.999996)"/>
<path style="fill:none;stroke-width:0.006;stroke-linecap:round;stroke-linejoin:miter;stroke:rgb(0%,0%,0%);stroke-opacity:1;stroke-miterlimit:10;" d="M 3.760702 0.638398 L 3.749101 0.65 " transform="matrix(600,0,0,-600,-19.980001,1465.999996)"/>
<path style="fill:none;stroke-width:0.006;stroke-linecap:round;stroke-linejoin:miter;stroke:rgb(0%,0%,0%);stroke-opacity:1;stroke-miterlimit:10;" d="M 3.749101 0.65 L 3.725702 0.65 " transform="matrix(600,0,0,-600,-19.980001,1465.999996)"/>
<path style="fill:none;stroke-width:0.006;stroke-linecap:round;stroke-linejoin:miter;stroke:rgb(0%,0%,0%);stroke-opacity:1;stroke-miterlimit:10;" d="M 3.725702 0.65 L 3.714003 0.661699 " transform="matrix(600,0,0,-600,-19.980001,1465.999996)"/>
<path style="fill:none;stroke-width:0.006;stroke-linecap:round;stroke-linejoin:miter;stroke:rgb(0%,0%,0%);stroke-opacity:1;stroke-miterlimit:10;" d="M 3.714003 0.661699 L 3.714003 0.673398 " transform="matrix(600,0,0,-600,-19.980001,1465.999996)"/>
<path style="fill:none;stroke-width:0.006;stroke-linecap:round;stroke-linejoin:miter;stroke:rgb(0%,0%,0%);stroke-opacity:1;stroke-miterlimit:10;" d="M 3.714003 0.673398 L 3.725702 0.685098 " transform="matrix(600,0,0,-600,-19.980001,1465.999996)"/>
<path style="fill:none;stroke-width:0.006;stroke-linecap:round;stroke-linejoin:miter;stroke:rgb(0%,0%,0%);stroke-opacity:1;stroke-miterlimit:10;" d="M 3.725702 0.685098 L 3.749101 0.685098 " transform="matrix(600,0,0,-600,-19.980001,1465.999996)"/>
<path style="fill:none;stroke-width:0.006;stroke-linecap:round;stroke-linejoin:miter;stroke:rgb(0%,0%,0%);stroke-opacity:1;stroke-miterlimit:10;" d="M 3.749101 0.685098 L 3.760702 0.673398 " transform="matrix(600,0,0,-600,-19.980001,1465.999996)"/>
<path style="fill:none;stroke-width:0.006;stroke-linecap:round;stroke-linejoin:miter;stroke:rgb(0%,0%,0%);stroke-opacity:1;stroke-miterlimit:10;" d="M 3.784003 0.685098 L 3.819101 0.685098 " transform="matrix(600,0,0,-600,-19.980001,1465.999996)"/>
<path style="fill:none;stroke-width:0.006;stroke-linecap:round;stroke-linejoin:miter;stroke:rgb(0%,0%,0%);stroke-opacity:1;stroke-miterlimit:10;" d="M 3.819101 0.685098 L 3.830702 0.673398 " transform="matrix(600,0,0,-600,-19.980001,1465.999996)"/>
<path style="fill:none;stroke-width:0.006;stroke-linecap:round;stroke-linejoin:miter;stroke:rgb(0%,0%,0%);stroke-opacity:1;stroke-miterlimit:10;" d="M 3.830702 0.673398 L 3.830702 0.626699 " transform="matrix(600,0,0,-600,-19.980001,1465.999996)"/>
<path style="fill:none;stroke-width:0.006;stroke-linecap:round;stroke-linejoin:miter;stroke:rgb(0%,0%,0%);stroke-opacity:1;stroke-miterlimit:10;" d="M 3.830702 0.626699 L 3.819101 0.615 " transform="matrix(600,0,0,-600,-19.980001,1465.999996)"/>
<path style="fill:none;stroke-width:0.006;stroke-linecap:round;stroke-linejoin:miter;stroke:rgb(0%,0%,0%);stroke-opacity:1;stroke-miterlimit:10;" d="M 3.819101 0.615 L 3.784003 0.615 " transform="matrix(600,0,0,-600,-19.980001,1465.999996)"/>
<path style="fill:none;stroke-width:0.006;stroke-linecap:round;stroke-linejoin:miter;stroke:rgb(0%,0%,0%);stroke-opacity:1;stroke-miterlimit:10;" d="M 3.784003 0.615 L 3.784003 0.685098 " transform="matrix(600,0,0,-600,-19.980001,1465.999996)"/>
<path style="fill:none;stroke-width:0.006;stroke-linecap:round;stroke-linejoin:miter;stroke:rgb(0%,0%,0%);stroke-opacity:1;stroke-miterlimit:10;" d="M 3.854003 0.673398 L 3.854003 0.626699 " transform="matrix(600,0,0,-600,-19.980001,1465.999996)"/>
<path style="fill:none;stroke-width:0.006;stroke-linecap:round;stroke-linejoin:miter;stroke:rgb(0%,0%,0%);stroke-opacity:1;stroke-miterlimit:10;" d="M 3.854003 0.626699 L 3.865702 0.615 " transform="matrix(600,0,0,-600,-19.980001,1465.999996)"/>
<path style="fill:none;stroke-width:0.006;stroke-linecap:round;stroke-linejoin:miter;stroke:rgb(0%,0%,0%);stroke-opacity:1;stroke-miterlimit:10;" d="M 3.865702 0.615 L 3.889003 0.615 " transform="matrix(600,0,0,-600,-19.980001,1465.999996)"/>
<path style="fill:none;stroke-width:0.006;stroke-linecap:round;stroke-linejoin:miter;stroke:rgb(0%,0%,0%);stroke-opacity:1;stroke-miterlimit:10;" d="M 3.889003 0.615 L 3.900702 0.626699 " transform="matrix(600,0,0,-600,-19.980001,1465.999996)"/>
<path style="fill:none;stroke-width:0.006;stroke-linecap:round;stroke-linejoin:miter;stroke:rgb(0%,0%,0%);stroke-opacity:1;stroke-miterlimit:10;" d="M 3.924003 0.615 L 3.924003 0.661699 " transform="matrix(600,0,0,-600,-19.980001,1465.999996)"/>
<path style="fill:none;stroke-width:0.006;stroke-linecap:round;stroke-linejoin:miter;stroke:rgb(0%,0%,0%);stroke-opacity:1;stroke-miterlimit:10;" d="M 3.924003 0.661699 L 3.947297 0.685098 " transform="matrix(600,0,0,-600,-19.980001,1465.999996)"/>
<path style="fill:none;stroke-width:0.006;stroke-linecap:round;stroke-linejoin:miter;stroke:rgb(0%,0%,0%);stroke-opacity:1;stroke-miterlimit:10;" d="M 3.947297 0.685098 L 3.970702 0.661699 " transform="matrix(600,0,0,-600,-19.980001,1465.999996)"/>
<path style="fill:none;stroke-width:0.006;stroke-linecap:round;stroke-linejoin:miter;stroke:rgb(0%,0%,0%);stroke-opacity:1;stroke-miterlimit:10;" d="M 3.970702 0.661699 L 3.970702 0.615 " transform="matrix(600,0,0,-600,-19.980001,1465.999996)"/>
<path style="fill:none;stroke-width:0.006;stroke-linecap:round;stroke-linejoin:miter;stroke:rgb(0%,0%,0%);stroke-opacity:1;stroke-miterlimit:10;" d="M 3.994003 0.615 L 3.994003 0.685098 " transform="matrix(600,0,0,-600,-19.980001,1465.999996)"/>
<path style="fill:none;stroke-width:0.006;stroke-linecap:round;stroke-linejoin:miter;stroke:rgb(0%,0%,0%);stroke-opacity:1;stroke-miterlimit:10;" d="M 3.994003 0.685098 L 4.029003 0.685098 " transform="matrix(600,0,0,-600,-19.980001,1465.999996)"/>
<path style="fill:none;stroke-width:0.006;stroke-linecap:round;stroke-linejoin:miter;stroke:rgb(0%,0%,0%);stroke-opacity:1;stroke-miterlimit:10;" d="M 4.029003 0.685098 L 4.040702 0.673398 " transform="matrix(600,0,0,-600,-19.980001,1465.999996)"/>
<path style="fill:none;stroke-width:0.006;stroke-linecap:round;stroke-linejoin:miter;stroke:rgb(0%,0%,0%);stroke-opacity:1;stroke-miterlimit:10;" d="M 4.040702 0.673398 L 4.040702 0.65 " transform="matrix(600,0,0,-600,-19.980001,1465.999996)"/>
<path style="fill:none;stroke-width:0.006;stroke-linecap:round;stroke-linejoin:miter;stroke:rgb(0%,0%,0%);stroke-opacity:1;stroke-miterlimit:10;" d="M 4.040702 0.65 L 4.029003 0.638398 " transform="matrix(600,0,0,-600,-19.980001,1465.999996)"/>
<path style="fill:none;stroke-width:0.006;stroke-linecap:round;stroke-linejoin:miter;stroke:rgb(0%,0%,0%);stroke-opacity:1;stroke-miterlimit:10;" d="M 4.029003 0.638398 L 3.994003 0.638398 " transform="matrix(600,0,0,-600,-19.980001,1465.999996)"/>
<path style="fill:none;stroke-width:0.006;stroke-linecap:round;stroke-linejoin:miter;stroke:rgb(0%,0%,0%);stroke-opacity:1;stroke-miterlimit:10;" d="M 4.017297 0.638398 L 4.040702 0.615 " transform="matrix(600,0,0,-600,-19.980001,1465.999996)"/>
<path style="fill:none;stroke-width:0.006;stroke-linecap:round;stroke-linejoin:miter;stroke:rgb(0%,0%,0%);stroke-opacity:1;stroke-miterlimit:10;" d="M 4.063899 0.615 L 4.099003 0.615 " transform="matrix(600,0,0,-600,-19.980001,1465.999996)"/>
<path style="fill:none;stroke-width:0.006;stroke-linecap:round;stroke-linejoin:miter;stroke:rgb(0%,0%,0%);stroke-opacity:1;stroke-miterlimit:10;" d="M 4.099003 0.615 L 4.110598 0.626699 " transform="matrix(600,0,0,-600,-19.980001,1465.999996)"/>
<path style="fill:none;stroke-width:0.006;stroke-linecap:round;stroke-linejoin:miter;stroke:rgb(0%,0%,0%);stroke-opacity:1;stroke-miterlimit:10;" d="M 4.110598 0.626699 L 4.110598 0.673398 " transform="matrix(600,0,0,-600,-19.980001,1465.999996)"/>
<path style="fill:none;stroke-width:0.006;stroke-linecap:round;stroke-linejoin:miter;stroke:rgb(0%,0%,0%);stroke-opacity:1;stroke-miterlimit:10;" d="M 4.110598 0.673398 L 4.099003 0.685098 " transform="matrix(600,0,0,-600,-19.980001,1465.999996)"/>
<path style="fill:none;stroke-width:0.006;stroke-linecap:round;stroke-linejoin:miter;stroke:rgb(0%,0%,0%);stroke-opacity:1;stroke-miterlimit:10;" d="M 4.099003 0.685098 L 4.063899 0.685098 " transform="matrix(600,0,0,-600,-19.980001,1465.999996)"/>
<path style="fill:none;stroke-width:0.006;stroke-linecap:round;stroke-linejoin:miter;stroke:rgb(0%,0%,0%);stroke-opacity:1;stroke-miterlimit:10;" d="M 4.063899 0.685098 L 4.063899 0.615 " transform="matrix(600,0,0,-600,-19.980001,1465.999996)"/>
<path style="fill:none;stroke-width:0.006;stroke-linecap:round;stroke-linejoin:miter;stroke:rgb(0%,0%,0%);stroke-opacity:1;stroke-miterlimit:10;" d="M 4.133899 0.615 L 4.133899 0.685098 " transform="matrix(600,0,0,-600,-19.980001,1465.999996)"/>
<path style="fill:none;stroke-width:0.006;stroke-linecap:round;stroke-linejoin:miter;stroke:rgb(0%,0%,0%);stroke-opacity:1;stroke-miterlimit:10;" d="M 4.133899 0.685098 L 4.157297 0.661699 " transform="matrix(600,0,0,-600,-19.980001,1465.999996)"/>
<path style="fill:none;stroke-width:0.006;stroke-linecap:round;stroke-linejoin:miter;stroke:rgb(0%,0%,0%);stroke-opacity:1;stroke-miterlimit:10;" d="M 4.157297 0.661699 L 4.180598 0.685098 " transform="matrix(600,0,0,-600,-19.980001,1465.999996)"/>
<path style="fill:none;stroke-width:0.006;stroke-linecap:round;stroke-linejoin:miter;stroke:rgb(0%,0%,0%);stroke-opacity:1;stroke-miterlimit:10;" d="M 4.180598 0.685098 L 4.180598 0.615 " transform="matrix(600,0,0,-600,-19.980001,1465.999996)"/>
<path style="fill:none;stroke-width:0.006;stroke-linecap:round;stroke-linejoin:miter;stroke:rgb(0%,0%,0%);stroke-opacity:1;stroke-miterlimit:10;" d="M 4.203899 0.626699 L 4.215598 0.615 " transform="matrix(600,0,0,-600,-19.980001,1465.999996)"/>
<path style="fill:none;stroke-width:0.006;stroke-linecap:round;stroke-linejoin:miter;stroke:rgb(0%,0%,0%);stroke-opacity:1;stroke-miterlimit:10;" d="M 4.215598 0.615 L 4.238899 0.615 " transform="matrix(600,0,0,-600,-19.980001,1465.999996)"/>
<path style="fill:none;stroke-width:0.006;stroke-linecap:round;stroke-linejoin:miter;stroke:rgb(0%,0%,0%);stroke-opacity:1;stroke-miterlimit:10;" d="M 4.238899 0.615 L 4.250598 0.626699 " transform="matrix(600,0,0,-600,-19.980001,1465.999996)"/>
<path style="fill:none;stroke-width:0.006;stroke-linecap:round;stroke-linejoin:miter;stroke:rgb(0%,0%,0%);stroke-opacity:1;stroke-miterlimit:10;" d="M 4.250598 0.626699 L 4.250598 0.673398 " transform="matrix(600,0,0,-600,-19.980001,1465.999996)"/>
<path style="fill:none;stroke-width:0.006;stroke-linecap:round;stroke-linejoin:miter;stroke:rgb(0%,0%,0%);stroke-opacity:1;stroke-miterlimit:10;" d="M 4.250598 0.673398 L 4.238899 0.685098 " transform="matrix(600,0,0,-600,-19.980001,1465.999996)"/>
<path style="fill:none;stroke-width:0.006;stroke-linecap:round;stroke-linejoin:miter;stroke:rgb(0%,0%,0%);stroke-opacity:1;stroke-miterlimit:10;" d="M 4.238899 0.685098 L 4.215598 0.685098 " transform="matrix(600,0,0,-600,-19.980001,1465.999996)"/>
<path style="fill:none;stroke-width:0.006;stroke-linecap:round;stroke-linejoin:miter;stroke:rgb(0%,0%,0%);stroke-opacity:1;stroke-miterlimit:10;" d="M 4.215598 0.685098 L 4.203899 0.673398 " transform="matrix(600,0,0,-600,-19.980001,1465.999996)"/>
<path style="fill:none;stroke-width:0.006;stroke-linecap:round;stroke-linejoin:miter;stroke:rgb(0%,0%,0%);stroke-opacity:1;stroke-miterlimit:10;" d="M 4.203899 0.673398 L 4.203899 0.626699 " transform="matrix(600,0,0,-600,-19.980001,1465.999996)"/>
<path style="fill:none;stroke-width:0.006;stroke-linecap:round;stroke-linejoin:miter;stroke:rgb(0%,0%,0%);stroke-opacity:1;stroke-miterlimit:10;" d="M 4.273899 0.615 L 4.273899 0.685098 " transform="matrix(600,0,0,-600,-19.980001,1465.999996)"/>
<path style="fill:none;stroke-width:0.006;stroke-linecap:round;stroke-linejoin:miter;stroke:rgb(0%,0%,0%);stroke-opacity:1;stroke-miterlimit:10;" d="M 4.273899 0.685098 L 4.308899 0.685098 " transform="matrix(600,0,0,-600,-19.980001,1465.999996)"/>
<path style="fill:none;stroke-width:0.006;stroke-linecap:round;stroke-linejoin:miter;stroke:rgb(0%,0%,0%);stroke-opacity:1;stroke-miterlimit:10;" d="M 4.308899 0.685098 L 4.320598 0.673398 " transform="matrix(600,0,0,-600,-19.980001,1465.999996)"/>
<path style="fill:none;stroke-width:0.006;stroke-linecap:round;stroke-linejoin:miter;stroke:rgb(0%,0%,0%);stroke-opacity:1;stroke-miterlimit:10;" d="M 4.320598 0.673398 L 4.320598 0.626699 " transform="matrix(600,0,0,-600,-19.980001,1465.999996)"/>
<path style="fill:none;stroke-width:0.006;stroke-linecap:round;stroke-linejoin:miter;stroke:rgb(0%,0%,0%);stroke-opacity:1;stroke-miterlimit:10;" d="M 4.320598 0.626699 L 4.308899 0.615 " transform="matrix(600,0,0,-600,-19.980001,1465.999996)"/>
<path style="fill:none;stroke-width:0.006;stroke-linecap:round;stroke-linejoin:miter;stroke:rgb(0%,0%,0%);stroke-opacity:1;stroke-miterlimit:10;" d="M 4.308899 0.615 L 4.273899 0.615 " transform="matrix(600,0,0,-600,-19.980001,1465.999996)"/>
<path style="fill:none;stroke-width:0.006;stroke-linecap:round;stroke-linejoin:miter;stroke:rgb(0%,0%,0%);stroke-opacity:1;stroke-miterlimit:10;" d="M 3.970702 0.65 L 3.924003 0.65 " transform="matrix(600,0,0,-600,-19.980001,1465.999996)"/>
<path style="fill:none;stroke-width:0.006;stroke-linecap:round;stroke-linejoin:miter;stroke:rgb(0%,0%,0%);stroke-opacity:1;stroke-miterlimit:10;" d="M 3.900702 0.673398 L 3.889003 0.685098 " transform="matrix(600,0,0,-600,-19.980001,1465.999996)"/>
<path style="fill:none;stroke-width:0.006;stroke-linecap:round;stroke-linejoin:miter;stroke:rgb(0%,0%,0%);stroke-opacity:1;stroke-miterlimit:10;" d="M 3.889003 0.685098 L 3.865702 0.685098 " transform="matrix(600,0,0,-600,-19.980001,1465.999996)"/>
<path style="fill:none;stroke-width:0.006;stroke-linecap:round;stroke-linejoin:miter;stroke:rgb(0%,0%,0%);stroke-opacity:1;stroke-miterlimit:10;" d="M 3.865702 0.685098 L 3.854003 0.673398 " transform="matrix(600,0,0,-600,-19.980001,1465.999996)"/>
<path style="fill:none;stroke-width:0.06;stroke-linecap:round;stroke-linejoin:miter;stroke:rgb(0%,0%,0%);stroke-opacity:1;stroke-miterlimit:10;" d="M 2.476002 1.62 L 2.476002 1.68 " transform="matrix(600,0,0,-600,-19.980001,1465.999996)"/>
<path style="fill:none;stroke-width:0.06;stroke-linecap:round;stroke-linejoin:miter;stroke:rgb(0%,0%,0%);stroke-opacity:1;stroke-miterlimit:10;" d="M 2.376002 1.68 L 2.376002 1.62 " transform="matrix(600,0,0,-600,-19.980001,1465.999996)"/>
<path style="fill:none;stroke-width:0.06;stroke-linecap:round;stroke-linejoin:miter;stroke:rgb(0%,0%,0%);stroke-opacity:1;stroke-miterlimit:10;" d="M 2.276002 1.62 L 2.276002 1.68 " transform="matrix(600,0,0,-600,-19.980001,1465.999996)"/>
<path style="fill:none;stroke-width:0.06;stroke-linecap:round;stroke-linejoin:miter;stroke:rgb(0%,0%,0%);stroke-opacity:1;stroke-miterlimit:10;" d="M 2.176002 1.68 L 2.176002 1.62 " transform="matrix(600,0,0,-600,-19.980001,1465.999996)"/>
<path style="fill:none;stroke-width:0.06;stroke-linecap:round;stroke-linejoin:miter;stroke:rgb(0%,0%,0%);stroke-opacity:1;stroke-miterlimit:10;" d="M 2.076002 1.62 L 2.076002 1.68 " transform="matrix(600,0,0,-600,-19.980001,1465.999996)"/>
<path style="fill:none;stroke-width:0.06;stroke-linecap:round;stroke-linejoin:miter;stroke:rgb(0%,0%,0%);stroke-opacity:1;stroke-miterlimit:10;" d="M 1.976002 1.68 L 1.976002 1.62 " transform="matrix(600,0,0,-600,-19.980001,1465.999996)"/>
<path style="fill:none;stroke-width:0.06;stroke-linecap:round;stroke-linejoin:miter;stroke:rgb(0%,0%,0%);stroke-opacity:1;stroke-miterlimit:10;" d="M 1.976002 1.92 L 1.976002 1.98 " transform="matrix(600,0,0,-600,-19.980001,1465.999996)"/>
<path style="fill:none;stroke-width:0.06;stroke-linecap:round;stroke-linejoin:miter;stroke:rgb(0%,0%,0%);stroke-opacity:1;stroke-miterlimit:10;" d="M 2.076002 1.98 L 2.076002 1.92 " transform="matrix(600,0,0,-600,-19.980001,1465.999996)"/>
<path style="fill:none;stroke-width:0.06;stroke-linecap:round;stroke-linejoin:miter;stroke:rgb(0%,0%,0%);stroke-opacity:1;stroke-miterlimit:10;" d="M 2.176002 1.92 L 2.176002 1.98 " transform="matrix(600,0,0,-600,-19.980001,1465.999996)"/>
<path style="fill:none;stroke-width:0.06;stroke-linecap:round;stroke-linejoin:miter;stroke:rgb(0%,0%,0%);stroke-opacity:1;stroke-miterlimit:10;" d="M 2.276002 1.98 L 2.276002 1.92 " transform="matrix(600,0,0,-600,-19.980001,1465.999996)"/>
<path style="fill:none;stroke-width:0.06;stroke-linecap:round;stroke-linejoin:miter;stroke:rgb(0%,0%,0%);stroke-opacity:1;stroke-miterlimit:10;" d="M 2.376002 1.92 L 2.376002 1.98 " transform="matrix(600,0,0,-600,-19.980001,1465.999996)"/>
<path style="fill:none;stroke-width:0.06;stroke-linecap:round;stroke-linejoin:miter;stroke:rgb(0%,0%,0%);stroke-opacity:1;stroke-miterlimit:10;" d="M 2.476002 1.98 L 2.476002 1.92 " transform="matrix(600,0,0,-600,-19.980001,1465.999996)"/>
<path style="fill:none;stroke-width:0.06;stroke-linecap:round;stroke-linejoin:miter;stroke:rgb(0%,0%,0%);stroke-opacity:1;stroke-miterlimit:10;" d="M 3.376002 1.88 L 3.376002 1.82 " transform="matrix(600,0,0,-600,-19.980001,1465.999996)"/>
<path style="fill:none;stroke-width:0.06;stroke-linecap:round;stroke-linejoin:miter;stroke:rgb(0%,0%,0%);stroke-opacity:1;stroke-miterlimit:10;" d="M 3.476002 1.82 L 3.476002 1.88 " transform="matrix(600,0,0,-600,-19.980001,1465.999996)"/>
<path style="fill:none;stroke-width:0.06;stroke-linecap:round;stroke-linejoin:miter;stroke:rgb(0%,0%,0%);stroke-opacity:1;stroke-miterlimit:10;" d="M 3.576002 1.88 L 3.576002 1.82 " transform="matrix(600,0,0,-600,-19.980001,1465.999996)"/>
<path style="fill:none;stroke-width:0.06;stroke-linecap:round;stroke-linejoin:miter;stroke:rgb(0%,0%,0%);stroke-opacity:1;stroke-miterlimit:10;" d="M 4.296002 1.85 L 4.356002 1.85 " transform="matrix(600,0,0,-600,-19.980001,1465.999996)"/>
<path style="fill:none;stroke-width:0.06;stroke-linecap:round;stroke-linejoin:miter;stroke:rgb(0%,0%,0%);stroke-opacity:1;stroke-miterlimit:10;" d="M 4.356002 1.75 L 4.296002 1.75 " transform="matrix(600,0,0,-600,-19.980001,1465.999996)"/>
<path style="fill:none;stroke-width:0.06;stroke-linecap:round;stroke-linejoin:miter;stroke:rgb(0%,0%,0%);stroke-opacity:1;stroke-miterlimit:10;" d="M 4.296002 1.95 L 4.356002 1.95 " transform="matrix(600,0,0,-600,-19.980001,1465.999996)"/>
<path style=" stroke:none;fill-rule:evenodd;fill:rgb(0%,0%,0%);fill-opacity:1;" d="M 967.621094 970.910156 L 988.859375 970.910156 L 988.859375 928.371094 L 967.621094 928.371094 Z "/>
<path style=" stroke:none;fill-rule:evenodd;fill:rgb(0%,0%,0%);fill-opacity:1;" d="M 927.480469 970.910156 L 948.71875 970.910156 L 948.71875 928.371094 L 927.480469 928.371094 Z "/>
<path style=" stroke:none;fill-rule:evenodd;fill:rgb(0%,0%,0%);fill-opacity:1;" d="M 870.300781 970.910156 L 891.539062 970.910156 L 891.539062 928.371094 L 870.300781 928.371094 Z "/>
<path style=" stroke:none;fill-rule:evenodd;fill:rgb(0%,0%,0%);fill-opacity:1;" d="M 811.261719 970.910156 L 832.5 970.910156 L 832.5 928.371094 L 811.261719 928.371094 Z "/>
<path style=" stroke:none;fill-rule:evenodd;fill:rgb(0%,0%,0%);fill-opacity:1;" d="M 752.21875 970.910156 L 773.457031 970.910156 L 773.457031 928.371094 L 752.21875 928.371094 Z "/>
<path style=" stroke:none;fill-rule:evenodd;fill:rgb(0%,0%,0%);fill-opacity:1;" d="M 710.878906 970.910156 L 732.117188 970.910156 L 732.117188 928.371094 L 710.878906 928.371094 Z "/>
<path style=" stroke:none;fill-rule:evenodd;fill:rgb(0%,0%,0%);fill-opacity:1;" d="M 675.421875 970.910156 L 696.660156 970.910156 L 696.660156 928.371094 L 675.421875 928.371094 Z "/>
<path style=" stroke:none;fill-rule:evenodd;fill:rgb(0%,0%,0%);fill-opacity:1;" d="M 634.078125 970.910156 L 655.316406 970.910156 L 655.316406 928.371094 L 634.078125 928.371094 Z "/>
<path style=" stroke:none;fill-rule:evenodd;fill:rgb(0%,0%,0%);fill-opacity:1;" d="M 575.039062 970.910156 L 596.277344 970.910156 L 596.277344 928.371094 L 575.039062 928.371094 Z "/>
<path style=" stroke:none;fill-rule:evenodd;fill:rgb(0%,0%,0%);fill-opacity:1;" d="M 516 970.910156 L 537.238281 970.910156 L 537.238281 928.371094 L 516 928.371094 Z "/>
<path style=" stroke:none;fill-rule:evenodd;fill:rgb(0%,0%,0%);fill-opacity:1;" d="M 380.609375 477.171875 L 413.667969 477.171875 L 413.667969 429.953125 L 380.609375 429.953125 Z "/>
<path style=" stroke:none;fill-rule:evenodd;fill:rgb(0%,0%,0%);fill-opacity:1;" d="M 1077.511719 449.988281 L 1110.570312 449.988281 L 1110.570312 402.769531 L 1077.511719 402.769531 Z "/>
<path style=" stroke:none;fill-rule:evenodd;fill:rgb(0%,0%,0%);fill-opacity:1;" d="M 1039.710938 970.910156 L 1065.691406 970.910156 L 1065.691406 928.371094 L 1039.710938 928.371094 Z "/>
<path style=" stroke:none;fill-rule:evenodd;fill:rgb(0%,0%,0%);fill-opacity:1;" d="M 2137.621094 1076 C 2137.621094 1020 2053.621094 1020 2053.621094 1076 C 2053.621094 1132 2137.621094 1132 2137.621094 1076 "/>
<path style=" stroke:none;fill-rule:evenodd;fill:rgb(0%,0%,0%);fill-opacity:1;" d="M 337.621094 296 C 337.621094 240 253.621094 240 253.621094 296 C 253.621094 352 337.621094 352 337.621094 296 "/>
<path style=" stroke:none;fill-rule:evenodd;fill:rgb(0%,0%,0%);fill-opacity:1;" d="M 1367.820312 866 C 1367.820312 836.398438 1323.421875 836.398438 1323.421875 866 C 1323.421875 895.601562 1367.820312 895.601562 1367.820312 866 "/>
<path style=" stroke:none;fill-rule:evenodd;fill:rgb(0%,0%,0%);fill-opacity:1;" d="M 1427.820312 806 C 1427.820312 776.398438 1383.421875 776.398438 1383.421875 806 C 1383.421875 835.601562 1427.820312 835.601562 1427.820312 806 "/>
<path style=" stroke:none;fill-rule:evenodd;fill:rgb(0%,0%,0%);fill-opacity:1;" d="M 1487.820312 746 C 1487.820312 716.398438 1443.421875 716.398438 1443.421875 746 C 1443.421875 775.601562 1487.820312 775.601562 1487.820312 746 "/>
<path style=" stroke:none;fill-rule:evenodd;fill:rgb(0%,0%,0%);fill-opacity:1;" d="M 1607.820312 806 C 1607.820312 776.398438 1563.421875 776.398438 1563.421875 806 C 1563.421875 835.601562 1607.820312 835.601562 1607.820312 806 "/>
<path style=" stroke:none;fill-rule:evenodd;fill:rgb(0%,0%,0%);fill-opacity:1;" d="M 1667.820312 746 C 1667.820312 716.398438 1623.421875 716.398438 1623.421875 746 C 1623.421875 775.601562 1667.820312 775.601562 1667.820312 746 "/>
<path style=" stroke:none;fill-rule:evenodd;fill:rgb(0%,0%,0%);fill-opacity:1;" d="M 1787.820312 806 C 1787.820312 776.398438 1743.421875 776.398438 1743.421875 806 C 1743.421875 835.601562 1787.820312 835.601562 1787.820312 806 "/>
<path style=" stroke:none;fill-rule:evenodd;fill:rgb(0%,0%,0%);fill-opacity:1;" d="M 1967.820312 806 C 1967.820312 776.398438 1923.421875 776.398438 1923.421875 806 C 1923.421875 835.601562 1967.820312 835.601562 1967.820312 806 "/>
<path style=" stroke:none;fill-rule:evenodd;fill:rgb(0%,0%,0%);fill-opacity:1;" d="M 1547.820312 866 C 1547.820312 836.398438 1503.421875 836.398438 1503.421875 866 C 1503.421875 895.601562 1547.820312 895.601562 1547.820312 866 "/>
<path style=" stroke:none;fill-rule:evenodd;fill:rgb(0%,0%,0%);fill-opacity:1;" d="M 1487.820312 926 C 1487.820312 896.398438 1443.421875 896.398438 1443.421875 926 C 1443.421875 955.601562 1487.820312 955.601562 1487.820312 926 "/>
<path style=" stroke:none;fill-rule:evenodd;fill:rgb(0%,0%,0%);fill-opacity:1;" d="M 1427.820312 986 C 1427.820312 956.398438 1383.421875 956.398438 1383.421875 986 C 1383.421875 1015.601562 1427.820312 1015.601562 1427.820312 986 "/>
<path style=" stroke:none;fill-rule:evenodd;fill:rgb(0%,0%,0%);fill-opacity:1;" d="M 1307.820312 986 C 1307.820312 956.398438 1263.421875 956.398438 1263.421875 986 C 1263.421875 1015.601562 1307.820312 1015.601562 1307.820312 986 "/>
<path style=" stroke:none;fill-rule:evenodd;fill:rgb(0%,0%,0%);fill-opacity:1;" d="M 1307.820312 926 C 1307.820312 896.398438 1263.421875 896.398438 1263.421875 926 C 1263.421875 955.601562 1307.820312 955.601562 1307.820312 926 "/>
<path style=" stroke:none;fill-rule:evenodd;fill:rgb(0%,0%,0%);fill-opacity:1;" d="M 1307.820312 1166 C 1307.820312 1136.398438 1263.421875 1136.398438 1263.421875 1166 C 1263.421875 1195.601562 1307.820312 1195.601562 1307.820312 1166 "/>
<path style=" stroke:none;fill-rule:evenodd;fill:rgb(0%,0%,0%);fill-opacity:1;" d="M 1427.820312 1166 C 1427.820312 1136.398438 1383.421875 1136.398438 1383.421875 1166 C 1383.421875 1195.601562 1427.820312 1195.601562 1427.820312 1166 "/>
<path style=" stroke:none;fill-rule:evenodd;fill:rgb(0%,0%,0%);fill-opacity:1;" d="M 1487.820312 566 C 1487.820312 536.398438 1443.421875 536.398438 1443.421875 566 C 1443.421875 595.601562 1487.820312 595.601562 1487.820312 566 "/>
<path style=" stroke:none;fill-rule:evenodd;fill:rgb(0%,0%,0%);fill-opacity:1;" d="M 1667.820312 566 C 1667.820312 536.398438 1623.421875 536.398438 1623.421875 566 C 1623.421875 595.601562 1667.820312 595.601562 1667.820312 566 "/>
<path style=" stroke:none;fill-rule:evenodd;fill:rgb(0%,0%,0%);fill-opacity:1;" d="M 729.78125 1067.269531 L 767.582031 1067.269531 L 767.582031 1024.730469 L 729.78125 1024.730469 Z "/>
<path style=" stroke:none;fill-rule:evenodd;fill:rgb(0%,0%,0%);fill-opacity:1;" d="M 663.601562 1067.269531 L 701.402344 1067.269531 L 701.402344 1024.730469 L 663.601562 1024.730469 Z "/>
<path style=" stroke:none;fill-rule:evenodd;fill:rgb(0%,0%,0%);fill-opacity:1;" d="M 1806.421875 619.042969 L 1796.578125 609.199219 L 1782.660156 609.199219 L 1772.820312 619.042969 L 1772.820312 632.957031 L 1782.660156 642.800781 L 1796.578125 642.800781 L 1806.421875 632.957031 L 1806.421875 619.042969 "/>
<path style=" stroke:none;fill-rule:evenodd;fill:rgb(0%,0%,0%);fill-opacity:1;" d="M 1986.421875 619.042969 L 1976.578125 609.199219 L 1962.660156 609.199219 L 1952.820312 619.042969 L 1952.820312 632.957031 L 1962.660156 642.800781 L 1976.578125 642.800781 L 1986.421875 632.957031 L 1986.421875 619.042969 "/>
<path style=" stroke:none;fill-rule:evenodd;fill:rgb(0%,0%,0%);fill-opacity:1;" d="M 2238.421875 619.042969 L 2228.578125 609.199219 L 2214.660156 609.199219 L 2204.820312 619.042969 L 2204.820312 632.957031 L 2214.660156 642.800781 L 2228.578125 642.800781 L 2238.421875 632.957031 L 2238.421875 619.042969 "/>
<path style=" stroke:none;fill-rule:evenodd;fill:rgb(0%,0%,0%);fill-opacity:1;" d="M 2418.421875 619.042969 L 2408.578125 609.199219 L 2394.660156 609.199219 L 2384.820312 619.042969 L 2384.820312 632.957031 L 2394.660156 642.800781 L 2408.578125 642.800781 L 2418.421875 632.957031 L 2418.421875 619.042969 "/>
<path style=" stroke:none;fill-rule:evenodd;fill:rgb(0%,0%,0%);fill-opacity:1;" d="M 2466.421875 626 C 2466.421875 603.601562 2432.820312 603.601562 2432.820312 626 C 2432.820312 648.398438 2466.421875 648.398438 2466.421875 626 "/>
<path style=" stroke:none;fill-rule:evenodd;fill:rgb(0%,0%,0%);fill-opacity:1;" d="M 2286.421875 626 C 2286.421875 603.601562 2252.820312 603.601562 2252.820312 626 C 2252.820312 648.398438 2286.421875 648.398438 2286.421875 626 "/>
<path style=" stroke:none;fill-rule:evenodd;fill:rgb(0%,0%,0%);fill-opacity:1;" d="M 1938.421875 626 C 1938.421875 603.601562 1904.820312 603.601562 1904.820312 626 C 1904.820312 648.398438 1938.421875 648.398438 1938.421875 626 "/>
<path style=" stroke:none;fill-rule:evenodd;fill:rgb(0%,0%,0%);fill-opacity:1;" d="M 1758.421875 626 C 1758.421875 603.601562 1724.820312 603.601562 1724.820312 626 C 1724.820312 648.398438 1758.421875 648.398438 1758.421875 626 "/>
<path style=" stroke:none;fill-rule:evenodd;fill:rgb(0%,0%,0%);fill-opacity:1;" d="M 2363.21875 299.78125 C 2363.21875 259.78125 2303.21875 259.78125 2303.21875 299.78125 C 2303.21875 339.78125 2363.21875 339.78125 2363.21875 299.78125 "/>
<path style=" stroke:none;fill-rule:evenodd;fill:rgb(0%,0%,0%);fill-opacity:1;" d="M 2303.101562 417.859375 C 2303.101562 382.421875 2249.941406 382.421875 2249.941406 417.859375 C 2249.941406 453.300781 2303.101562 453.300781 2303.101562 417.859375 "/>
<path style=" stroke:none;fill-rule:evenodd;fill:rgb(0%,0%,0%);fill-opacity:1;" d="M 2239.320312 417.859375 C 2239.320312 382.421875 2186.160156 382.421875 2186.160156 417.859375 C 2186.160156 453.300781 2239.320312 453.300781 2239.320312 417.859375 "/>
<path style=" stroke:none;fill-rule:evenodd;fill:rgb(0%,0%,0%);fill-opacity:1;" d="M 2416.5 417.859375 C 2416.5 382.421875 2363.339844 382.421875 2363.339844 417.859375 C 2363.339844 453.300781 2416.5 453.300781 2416.5 417.859375 "/>
<path style=" stroke:none;fill-rule:evenodd;fill:rgb(0%,0%,0%);fill-opacity:1;" d="M 2480.28125 417.859375 C 2480.28125 382.421875 2427.121094 382.421875 2427.121094 417.859375 C 2427.121094 453.300781 2480.28125 453.300781 2480.28125 417.859375 "/>
<path style=" stroke:none;fill-rule:evenodd;fill:rgb(0%,0%,0%);fill-opacity:1;" d="M 1854.960938 428.480469 L 1844.519531 418.039062 L 1829.757812 418.039062 L 1819.320312 428.480469 L 1819.320312 443.242188 L 1829.757812 453.679688 L 1844.519531 453.679688 L 1854.960938 443.242188 L 1854.960938 428.480469 "/>
<path style=" stroke:none;fill-rule:evenodd;fill:rgb(0%,0%,0%);fill-opacity:1;" d="M 1854.960938 369.378906 L 1844.519531 358.941406 L 1829.757812 358.941406 L 1819.320312 369.378906 L 1819.320312 384.140625 L 1829.757812 394.578125 L 1844.519531 394.578125 L 1854.960938 384.140625 L 1854.960938 369.378906 "/>
<path style=" stroke:none;fill-rule:evenodd;fill:rgb(0%,0%,0%);fill-opacity:1;" d="M 1651.859375 369.378906 L 1641.421875 358.941406 L 1626.660156 358.941406 L 1616.21875 369.378906 L 1616.21875 384.140625 L 1626.660156 394.578125 L 1641.421875 394.578125 L 1651.859375 384.140625 L 1651.859375 369.378906 "/>
<path style=" stroke:none;fill-rule:evenodd;fill:rgb(0%,0%,0%);fill-opacity:1;" d="M 1651.859375 428.480469 L 1641.421875 418.039062 L 1626.660156 418.039062 L 1616.21875 428.480469 L 1616.21875 443.242188 L 1626.660156 453.679688 L 1641.421875 453.679688 L 1651.859375 443.242188 L 1651.859375 428.480469 "/>
<path style=" stroke:none;fill-rule:evenodd;fill:rgb(0%,0%,0%);fill-opacity:1;" d="M 1617.691406 289.1875 L 1594.054688 265.550781 L 1560.625 265.550781 L 1536.988281 289.1875 L 1536.988281 322.613281 L 1560.625 346.25 L 1594.054688 346.25 L 1617.691406 322.613281 L 1617.691406 289.1875 "/>
<path style=" stroke:none;fill-rule:evenodd;fill:rgb(0%,0%,0%);fill-opacity:1;" d="M 1775.96875 270.285156 L 1752.332031 246.648438 L 1718.90625 246.648438 L 1695.269531 270.285156 L 1695.269531 303.714844 L 1718.90625 327.351562 L 1752.332031 327.351562 L 1775.96875 303.714844 L 1775.96875 270.285156 "/>
<path style=" stroke:none;fill-rule:evenodd;fill:rgb(0%,0%,0%);fill-opacity:1;" d="M 1934.191406 289.1875 L 1910.554688 265.550781 L 1877.125 265.550781 L 1853.488281 289.1875 L 1853.488281 322.613281 L 1877.125 346.25 L 1910.554688 346.25 L 1934.191406 322.613281 L 1934.191406 289.1875 "/>
<path style="fill:none;stroke-width:0.024;stroke-linecap:round;stroke-linejoin:miter;stroke:rgb(0%,0%,0%);stroke-opacity:1;stroke-miterlimit:10;" d="M 2.176002 0.5 L 0.976002 0.5 " transform="matrix(600,0,0,-600,-19.980001,1465.999996)"/>
<path style="fill:none;stroke-width:0.024;stroke-linecap:round;stroke-linejoin:miter;stroke:rgb(0%,0%,0%);stroke-opacity:1;stroke-miterlimit:10;" d="M 0.976002 0.5 L 0.976002 0.810599 " transform="matrix(600,0,0,-600,-19.980001,1465.999996)"/>
<path style="fill:none;stroke-width:0.024;stroke-linecap:round;stroke-linejoin:miter;stroke:rgb(0%,0%,0%);stroke-opacity:1;stroke-miterlimit:10;" d="M 0.976002 0.810599 L 1.0094 0.860599 " transform="matrix(600,0,0,-600,-19.980001,1465.999996)"/>
<path style="fill:none;stroke-width:0.024;stroke-linecap:round;stroke-linejoin:miter;stroke:rgb(0%,0%,0%);stroke-opacity:1;stroke-miterlimit:10;" d="M 1.076002 0.810599 L 1.076002 0.6 " transform="matrix(600,0,0,-600,-19.980001,1465.999996)"/>
<path style="fill:none;stroke-width:0.024;stroke-linecap:round;stroke-linejoin:miter;stroke:rgb(0%,0%,0%);stroke-opacity:1;stroke-miterlimit:10;" d="M 1.076002 0.6 L 2.276002 0.6 " transform="matrix(600,0,0,-600,-19.980001,1465.999996)"/>
<path style="fill:none;stroke-width:0.024;stroke-linecap:round;stroke-linejoin:miter;stroke:rgb(0%,0%,0%);stroke-opacity:1;stroke-miterlimit:10;" d="M 2.276002 0.6 L 2.376002 0.5 " transform="matrix(600,0,0,-600,-19.980001,1465.999996)"/>
<path style="fill:none;stroke-width:0.024;stroke-linecap:round;stroke-linejoin:miter;stroke:rgb(0%,0%,0%);stroke-opacity:1;stroke-miterlimit:10;" d="M 2.276002 0.7 L 1.453098 0.7 " transform="matrix(600,0,0,-600,-19.980001,1465.999996)"/>
<path style="fill:none;stroke-width:0.024;stroke-linecap:round;stroke-linejoin:miter;stroke:rgb(0%,0%,0%);stroke-opacity:1;stroke-miterlimit:10;" d="M 1.453098 0.7 L 1.403098 0.860599 " transform="matrix(600,0,0,-600,-19.980001,1465.999996)"/>
<path style="fill:none;stroke-width:0.024;stroke-linecap:round;stroke-linejoin:miter;stroke:rgb(0%,0%,0%);stroke-opacity:1;stroke-miterlimit:10;" d="M 1.476002 0.9 L 1.501503 0.85 " transform="matrix(600,0,0,-600,-19.980001,1465.999996)"/>
<path style="fill:none;stroke-width:0.024;stroke-linecap:round;stroke-linejoin:miter;stroke:rgb(0%,0%,0%);stroke-opacity:1;stroke-miterlimit:10;" d="M 1.501503 0.85 L 1.501503 0.860599 " transform="matrix(600,0,0,-600,-19.980001,1465.999996)"/>
<path style="fill:none;stroke-width:0.024;stroke-linecap:round;stroke-linejoin:miter;stroke:rgb(0%,0%,0%);stroke-opacity:1;stroke-miterlimit:10;" d="M 1.476002 0.9 L 1.476002 1.1 " transform="matrix(600,0,0,-600,-19.980001,1465.999996)"/>
<path style="fill:none;stroke-width:0.024;stroke-linecap:round;stroke-linejoin:miter;stroke:rgb(0%,0%,0%);stroke-opacity:1;stroke-miterlimit:10;" d="M 1.226002 1.1 L 1.226002 0.860599 " transform="matrix(600,0,0,-600,-19.980001,1465.999996)"/>
<path style="fill:none;stroke-width:0.024;stroke-linecap:round;stroke-linejoin:miter;stroke:rgb(0%,0%,0%);stroke-opacity:1;stroke-miterlimit:10;" d="M 1.226002 0.860599 L 1.2358 0.860599 " transform="matrix(600,0,0,-600,-19.980001,1465.999996)"/>
<path style="fill:none;stroke-width:0.024;stroke-linecap:round;stroke-linejoin:miter;stroke:rgb(0%,0%,0%);stroke-opacity:1;stroke-miterlimit:10;" d="M 1.176698 0.860599 L 1.176698 0.7 " transform="matrix(600,0,0,-600,-19.980001,1465.999996)"/>
<path style="fill:none;stroke-width:0.024;stroke-linecap:round;stroke-linejoin:miter;stroke:rgb(0%,0%,0%);stroke-opacity:1;stroke-miterlimit:10;" d="M 1.176698 0.7 L 1.1708 0.7 " transform="matrix(600,0,0,-600,-19.980001,1465.999996)"/>
<path style="fill:none;stroke-width:0.024;stroke-linecap:round;stroke-linejoin:miter;stroke:rgb(0%,0%,0%);stroke-opacity:1;stroke-miterlimit:10;" d="M 1.281099 0.7 L 1.326002 0.7 " transform="matrix(600,0,0,-600,-19.980001,1465.999996)"/>
<path style="fill:none;stroke-width:0.024;stroke-linecap:round;stroke-linejoin:miter;stroke:rgb(0%,0%,0%);stroke-opacity:1;stroke-miterlimit:10;" d="M 1.576002 0.75 L 1.576002 0.810599 " transform="matrix(600,0,0,-600,-19.980001,1465.999996)"/>
<path style="fill:none;stroke-width:0.024;stroke-linecap:round;stroke-linejoin:miter;stroke:rgb(0%,0%,0%);stroke-opacity:1;stroke-miterlimit:10;" d="M 1.576002 0.810599 L 1.596803 0.860599 " transform="matrix(600,0,0,-600,-19.980001,1465.999996)"/>
<path style="fill:none;stroke-width:0.024;stroke-linecap:round;stroke-linejoin:miter;stroke:rgb(0%,0%,0%);stroke-opacity:1;stroke-miterlimit:10;" d="M 1.576002 0.75 L 2.076002 0.75 " transform="matrix(600,0,0,-600,-19.980001,1465.999996)"/>
<path style="fill:none;stroke-width:0.024;stroke-linecap:round;stroke-linejoin:miter;stroke:rgb(0%,0%,0%);stroke-opacity:1;stroke-miterlimit:10;" d="M 2.076002 0.75 L 2.076002 1.65 " transform="matrix(600,0,0,-600,-19.980001,1465.999996)"/>
<path style="fill:none;stroke-width:0.024;stroke-linecap:round;stroke-linejoin:miter;stroke:rgb(0%,0%,0%);stroke-opacity:1;stroke-miterlimit:10;" d="M 2.076002 1.65 L 2.076002 1.75 " transform="matrix(600,0,0,-600,-19.980001,1465.999996)"/>
<path style="fill:none;stroke-width:0.024;stroke-linecap:round;stroke-linejoin:miter;stroke:rgb(0%,0%,0%);stroke-opacity:1;stroke-miterlimit:10;" d="M 2.076002 1.75 L 2.576002 1.75 " transform="matrix(600,0,0,-600,-19.980001,1465.999996)"/>
<path style="fill:none;stroke-width:0.024;stroke-linecap:round;stroke-linejoin:miter;stroke:rgb(0%,0%,0%);stroke-opacity:1;stroke-miterlimit:10;" d="M 2.576002 1.75 L 2.576002 1.2 " transform="matrix(600,0,0,-600,-19.980001,1465.999996)"/>
<path style="fill:none;stroke-width:0.024;stroke-linecap:round;stroke-linejoin:miter;stroke:rgb(0%,0%,0%);stroke-opacity:1;stroke-miterlimit:10;" d="M 2.576002 1.2 L 2.476002 1.2 " transform="matrix(600,0,0,-600,-19.980001,1465.999996)"/>
<path style="fill:none;stroke-width:0.024;stroke-linecap:round;stroke-linejoin:miter;stroke:rgb(0%,0%,0%);stroke-opacity:1;stroke-miterlimit:10;" d="M 2.376002 1.2 L 2.376002 1.1 " transform="matrix(600,0,0,-600,-19.980001,1465.999996)"/>
<path style="fill:none;stroke-width:0.024;stroke-linecap:round;stroke-linejoin:miter;stroke:rgb(0%,0%,0%);stroke-opacity:1;stroke-miterlimit:10;" d="M 2.376002 1.1 L 2.376002 1.65 " transform="matrix(600,0,0,-600,-19.980001,1465.999996)"/>
<path style="fill:none;stroke-width:0.024;stroke-linecap:round;stroke-linejoin:miter;stroke:rgb(0%,0%,0%);stroke-opacity:1;stroke-miterlimit:10;" d="M 2.476002 1.65 L 2.476002 1.5 " transform="matrix(600,0,0,-600,-19.980001,1465.999996)"/>
<path style="fill:none;stroke-width:0.024;stroke-linecap:round;stroke-linejoin:miter;stroke:rgb(0%,0%,0%);stroke-opacity:1;stroke-miterlimit:10;" d="M 2.626002 1.35 L 2.626002 1.8 " transform="matrix(600,0,0,-600,-19.980001,1465.999996)"/>
<path style="fill:none;stroke-width:0.024;stroke-linecap:round;stroke-linejoin:miter;stroke:rgb(0%,0%,0%);stroke-opacity:1;stroke-miterlimit:10;" d="M 2.626002 1.8 L 1.976002 1.8 " transform="matrix(600,0,0,-600,-19.980001,1465.999996)"/>
<path style="fill:none;stroke-width:0.024;stroke-linecap:round;stroke-linejoin:miter;stroke:rgb(0%,0%,0%);stroke-opacity:1;stroke-miterlimit:10;" d="M 1.976002 1.8 L 1.976002 1.65 " transform="matrix(600,0,0,-600,-19.980001,1465.999996)"/>
<path style="fill:none;stroke-width:0.024;stroke-linecap:round;stroke-linejoin:miter;stroke:rgb(0%,0%,0%);stroke-opacity:1;stroke-miterlimit:10;" d="M 2.176002 1.65 L 2.176002 0.9 " transform="matrix(600,0,0,-600,-19.980001,1465.999996)"/>
<path style="fill:none;stroke-width:0.024;stroke-linecap:round;stroke-linejoin:miter;stroke:rgb(0%,0%,0%);stroke-opacity:1;stroke-miterlimit:10;" d="M 2.176002 0.9 L 2.176002 0.8 " transform="matrix(600,0,0,-600,-19.980001,1465.999996)"/>
<path style="fill:none;stroke-width:0.024;stroke-linecap:round;stroke-linejoin:miter;stroke:rgb(0%,0%,0%);stroke-opacity:1;stroke-miterlimit:10;" d="M 2.276002 0.7 L 2.276002 1 " transform="matrix(600,0,0,-600,-19.980001,1465.999996)"/>
<path style="fill:none;stroke-width:0.024;stroke-linecap:round;stroke-linejoin:miter;stroke:rgb(0%,0%,0%);stroke-opacity:1;stroke-miterlimit:10;" d="M 2.276002 1 L 2.276002 1.65 " transform="matrix(600,0,0,-600,-19.980001,1465.999996)"/>
<path style="fill:none;stroke-width:0.024;stroke-linecap:round;stroke-linejoin:miter;stroke:rgb(0%,0%,0%);stroke-opacity:1;stroke-miterlimit:10;" d="M 2.756698 1.716901 L 2.873599 1.6 " transform="matrix(600,0,0,-600,-19.980001,1465.999996)"/>
<path style="fill:none;stroke-width:0.024;stroke-linecap:round;stroke-linejoin:miter;stroke:rgb(0%,0%,0%);stroke-opacity:1;stroke-miterlimit:10;" d="M 2.873599 1.6 L 2.876002 1.55 " transform="matrix(600,0,0,-600,-19.980001,1465.999996)"/>
<path style="fill:none;stroke-width:0.024;stroke-linecap:round;stroke-linejoin:miter;stroke:rgb(0%,0%,0%);stroke-opacity:1;stroke-miterlimit:10;" d="M 2.876002 1.55 L 3.026002 1.4 " transform="matrix(600,0,0,-600,-19.980001,1465.999996)"/>
<path style="fill:none;stroke-width:0.024;stroke-linecap:round;stroke-linejoin:miter;stroke:rgb(0%,0%,0%);stroke-opacity:1;stroke-miterlimit:10;" d="M 3.026002 1.4 L 3.016002 1.4 " transform="matrix(600,0,0,-600,-19.980001,1465.999996)"/>
<path style="fill:none;stroke-width:0.024;stroke-linecap:round;stroke-linejoin:miter;stroke:rgb(0%,0%,0%);stroke-opacity:1;stroke-miterlimit:10;" d="M 2.936002 1.4 L 2.886002 1.44 " transform="matrix(600,0,0,-600,-19.980001,1465.999996)"/>
<path style="fill:none;stroke-width:0.024;stroke-linecap:round;stroke-linejoin:miter;stroke:rgb(0%,0%,0%);stroke-opacity:1;stroke-miterlimit:10;" d="M 2.886002 1.44 L 2.876002 1.45 " transform="matrix(600,0,0,-600,-19.980001,1465.999996)"/>
<path style="fill:none;stroke-width:0.024;stroke-linecap:round;stroke-linejoin:miter;stroke:rgb(0%,0%,0%);stroke-opacity:1;stroke-miterlimit:10;" d="M 2.876002 1.45 L 2.826002 1.45 " transform="matrix(600,0,0,-600,-19.980001,1465.999996)"/>
<path style="fill:none;stroke-width:0.024;stroke-linecap:round;stroke-linejoin:miter;stroke:rgb(0%,0%,0%);stroke-opacity:1;stroke-miterlimit:10;" d="M 2.826002 1.45 L 2.776002 1.5 " transform="matrix(600,0,0,-600,-19.980001,1465.999996)"/>
<path style="fill:none;stroke-width:0.024;stroke-linecap:round;stroke-linejoin:miter;stroke:rgb(0%,0%,0%);stroke-opacity:1;stroke-miterlimit:10;" d="M 2.826002 1.35 L 2.626002 1.35 " transform="matrix(600,0,0,-600,-19.980001,1465.999996)"/>
<path style="fill:none;stroke-width:0.024;stroke-linecap:round;stroke-linejoin:miter;stroke:rgb(0%,0%,0%);stroke-opacity:1;stroke-miterlimit:10;" d="M 2.826002 1.35 L 2.976002 1.1 " transform="matrix(600,0,0,-600,-19.980001,1465.999996)"/>
<path style="fill:none;stroke-width:0.024;stroke-linecap:round;stroke-linejoin:miter;stroke:rgb(0%,0%,0%);stroke-opacity:1;stroke-miterlimit:10;" d="M 3.226002 1.15 L 3.276002 1.1 " transform="matrix(600,0,0,-600,-19.980001,1465.999996)"/>
<path style="fill:none;stroke-width:0.024;stroke-linecap:round;stroke-linejoin:miter;stroke:rgb(0%,0%,0%);stroke-opacity:1;stroke-miterlimit:10;" d="M 3.226002 1.15 L 3.226002 1.39 " transform="matrix(600,0,0,-600,-19.980001,1465.999996)"/>
<path style="fill:none;stroke-width:0.024;stroke-linecap:round;stroke-linejoin:miter;stroke:rgb(0%,0%,0%);stroke-opacity:1;stroke-miterlimit:10;" d="M 3.226002 1.39 L 3.236002 1.4 " transform="matrix(600,0,0,-600,-19.980001,1465.999996)"/>
<path style="fill:none;stroke-width:0.024;stroke-linecap:round;stroke-linejoin:miter;stroke:rgb(0%,0%,0%);stroke-opacity:1;stroke-miterlimit:10;" d="M 3.316002 1.4 L 3.326002 1.4 " transform="matrix(600,0,0,-600,-19.980001,1465.999996)"/>
<path style="fill:none;stroke-width:0.024;stroke-linecap:round;stroke-linejoin:miter;stroke:rgb(0%,0%,0%);stroke-opacity:1;stroke-miterlimit:10;" d="M 3.326002 1.4 L 3.326002 1.5 " transform="matrix(600,0,0,-600,-19.980001,1465.999996)"/>
<path style="fill:none;stroke-width:0.024;stroke-linecap:round;stroke-linejoin:miter;stroke:rgb(0%,0%,0%);stroke-opacity:1;stroke-miterlimit:10;" d="M 3.326002 1.5 L 3.276002 1.55 " transform="matrix(600,0,0,-600,-19.980001,1465.999996)"/>
<path style="fill:none;stroke-width:0.024;stroke-linecap:round;stroke-linejoin:miter;stroke:rgb(0%,0%,0%);stroke-opacity:1;stroke-miterlimit:10;" d="M 3.276002 1.55 L 3.2122 1.55 " transform="matrix(600,0,0,-600,-19.980001,1465.999996)"/>
<path style="fill:none;stroke-width:0.024;stroke-linecap:round;stroke-linejoin:miter;stroke:rgb(0%,0%,0%);stroke-opacity:1;stroke-miterlimit:10;" d="M 3.2122 1.55 L 3.095201 1.716901 " transform="matrix(600,0,0,-600,-19.980001,1465.999996)"/>
<path style="fill:none;stroke-width:0.024;stroke-linecap:round;stroke-linejoin:miter;stroke:rgb(0%,0%,0%);stroke-opacity:1;stroke-miterlimit:10;" d="M 3.721197 1.746901 L 3.726002 1.742103 " transform="matrix(600,0,0,-600,-19.980001,1465.999996)"/>
<path style="fill:none;stroke-width:0.024;stroke-linecap:round;stroke-linejoin:miter;stroke:rgb(0%,0%,0%);stroke-opacity:1;stroke-miterlimit:10;" d="M 3.726002 1.742103 L 3.726002 1.4 " transform="matrix(600,0,0,-600,-19.980001,1465.999996)"/>
<path style="fill:none;stroke-width:0.024;stroke-linecap:round;stroke-linejoin:miter;stroke:rgb(0%,0%,0%);stroke-opacity:1;stroke-miterlimit:10;" d="M 3.726002 1.4 L 3.736002 1.4 " transform="matrix(600,0,0,-600,-19.980001,1465.999996)"/>
<path style="fill:none;stroke-width:0.024;stroke-linecap:round;stroke-linejoin:miter;stroke:rgb(0%,0%,0%);stroke-opacity:1;stroke-miterlimit:10;" d="M 3.816002 1.4 L 3.916002 1.3 " transform="matrix(600,0,0,-600,-19.980001,1465.999996)"/>
<path style="fill:none;stroke-width:0.024;stroke-linecap:round;stroke-linejoin:miter;stroke:rgb(0%,0%,0%);stroke-opacity:1;stroke-miterlimit:10;" d="M 3.916002 1.3 L 4.326002 1.3 " transform="matrix(600,0,0,-600,-19.980001,1465.999996)"/>
<path style="fill:none;stroke-width:0.024;stroke-linecap:round;stroke-linejoin:miter;stroke:rgb(0%,0%,0%);stroke-opacity:1;stroke-miterlimit:10;" d="M 4.326002 1.3 L 4.326002 1.75 " transform="matrix(600,0,0,-600,-19.980001,1465.999996)"/>
<path style="fill:none;stroke-width:0.024;stroke-linecap:round;stroke-linejoin:miter;stroke:rgb(0%,0%,0%);stroke-opacity:1;stroke-miterlimit:10;" d="M 4.226002 1.85 L 4.226002 1.4 " transform="matrix(600,0,0,-600,-19.980001,1465.999996)"/>
<path style="fill:none;stroke-width:0.024;stroke-linecap:round;stroke-linejoin:miter;stroke:rgb(0%,0%,0%);stroke-opacity:1;stroke-miterlimit:10;" d="M 4.226002 1.4 L 4.116002 1.4 " transform="matrix(600,0,0,-600,-19.980001,1465.999996)"/>
<path style="fill:none;stroke-width:0.024;stroke-linecap:round;stroke-linejoin:miter;stroke:rgb(0%,0%,0%);stroke-opacity:1;stroke-miterlimit:10;" d="M 4.036002 1.4 L 4.026002 1.4 " transform="matrix(600,0,0,-600,-19.980001,1465.999996)"/>
<path style="fill:none;stroke-width:0.024;stroke-linecap:round;stroke-linejoin:miter;stroke:rgb(0%,0%,0%);stroke-opacity:1;stroke-miterlimit:10;" d="M 4.026002 1.4 L 4.026002 1.5 " transform="matrix(600,0,0,-600,-19.980001,1465.999996)"/>
<path style="fill:none;stroke-width:0.024;stroke-linecap:round;stroke-linejoin:miter;stroke:rgb(0%,0%,0%);stroke-opacity:1;stroke-miterlimit:10;" d="M 4.026002 1.5 L 4.076002 1.55 " transform="matrix(600,0,0,-600,-19.980001,1465.999996)"/>
<path style="fill:none;stroke-width:0.024;stroke-linecap:round;stroke-linejoin:miter;stroke:rgb(0%,0%,0%);stroke-opacity:1;stroke-miterlimit:10;" d="M 4.076002 1.55 L 4.076002 1.7 " transform="matrix(600,0,0,-600,-19.980001,1465.999996)"/>
<path style="fill:none;stroke-width:0.024;stroke-linecap:round;stroke-linejoin:miter;stroke:rgb(0%,0%,0%);stroke-opacity:1;stroke-miterlimit:10;" d="M 4.076002 1.7 L 4.122799 1.746901 " transform="matrix(600,0,0,-600,-19.980001,1465.999996)"/>
<path style="fill:none;stroke-width:0.024;stroke-linecap:round;stroke-linejoin:miter;stroke:rgb(0%,0%,0%);stroke-opacity:1;stroke-miterlimit:10;" d="M 3.726002 1.746901 L 3.721197 1.746901 " transform="matrix(600,0,0,-600,-19.980001,1465.999996)"/>
<path style="fill:none;stroke-width:0.024;stroke-linecap:round;stroke-linejoin:miter;stroke:rgb(0%,0%,0%);stroke-opacity:1;stroke-miterlimit:10;" d="M 2.376002 1.1 L 2.376002 0.8 " transform="matrix(600,0,0,-600,-19.980001,1465.999996)"/>
<path style="fill:none;stroke-width:0.024;stroke-linecap:round;stroke-linejoin:miter;stroke:rgb(0%,0%,0%);stroke-opacity:1;stroke-miterlimit:10;" d="M 1.176698 0.860599 L 1.176002 0.860599 " transform="matrix(600,0,0,-600,-19.980001,1465.999996)"/>
<path style="fill:none;stroke-width:0.024;stroke-linecap:round;stroke-linejoin:miter;stroke:rgb(0%,0%,0%);stroke-opacity:1;stroke-miterlimit:10;" d="M 1.176002 0.860599 L 1.176002 1.1 " transform="matrix(600,0,0,-600,-19.980001,1465.999996)"/>
<path style="fill:none;stroke-width:0.024;stroke-linecap:round;stroke-linejoin:miter;stroke:rgb(0%,0%,0%);stroke-opacity:1;stroke-miterlimit:10;" d="M 1.107799 0.860599 L 1.076002 0.810599 " transform="matrix(600,0,0,-600,-19.980001,1465.999996)"/>
<path style="fill:none;stroke-width:0.04;stroke-linecap:round;stroke-linejoin:miter;stroke:rgb(0%,0%,0%);stroke-opacity:1;stroke-miterlimit:10;" d="M 1.176002 1.1 L 0.826002 1.1 " transform="matrix(600,0,0,-600,-19.980001,1465.999996)"/>
<path style="fill:none;stroke-width:0.04;stroke-linecap:round;stroke-linejoin:miter;stroke:rgb(0%,0%,0%);stroke-opacity:1;stroke-miterlimit:10;" d="M 0.826002 1.1 L 0.826002 1.687402 " transform="matrix(600,0,0,-600,-19.980001,1465.999996)"/>
<path style="fill:none;stroke-width:0.04;stroke-linecap:round;stroke-linejoin:miter;stroke:rgb(0%,0%,0%);stroke-opacity:1;stroke-miterlimit:10;" d="M 0.826002 1.687402 L 0.695201 1.687402 " transform="matrix(600,0,0,-600,-19.980001,1465.999996)"/>
<path style="fill:none;stroke-width:0.04;stroke-linecap:round;stroke-linejoin:miter;stroke:rgb(0%,0%,0%);stroke-opacity:1;stroke-miterlimit:10;" d="M 1.726002 1.732702 L 1.726002 1.1 " transform="matrix(600,0,0,-600,-19.980001,1465.999996)"/>
<path style="fill:none;stroke-width:0.04;stroke-linecap:round;stroke-linejoin:miter;stroke:rgb(0%,0%,0%);stroke-opacity:1;stroke-miterlimit:10;" d="M 1.726002 1.1 L 1.476002 1.1 " transform="matrix(600,0,0,-600,-19.980001,1465.999996)"/>
<path style="fill:none;stroke-width:0.04;stroke-linecap:round;stroke-linejoin:miter;stroke:rgb(0%,0%,0%);stroke-opacity:1;stroke-miterlimit:10;" d="M 1.476002 1.1 L 1.226002 1.1 " transform="matrix(600,0,0,-600,-19.980001,1465.999996)"/>
<path style="fill:none;stroke-width:0.04;stroke-linecap:round;stroke-linejoin:miter;stroke:rgb(0%,0%,0%);stroke-opacity:1;stroke-miterlimit:10;" d="M 1.226002 1.1 L 1.176002 1.1 " transform="matrix(600,0,0,-600,-19.980001,1465.999996)"/>
<path style="fill:none;stroke-width:0.04;stroke-linecap:round;stroke-linejoin:miter;stroke:rgb(0%,0%,0%);stroke-opacity:1;stroke-miterlimit:10;" d="M 1.726002 1.732702 L 1.826002 1.732702 " transform="matrix(600,0,0,-600,-19.980001,1465.999996)"/>
<path style="fill:none;stroke-width:0.04;stroke-linecap:round;stroke-linejoin:miter;stroke:rgb(0%,0%,0%);stroke-opacity:1;stroke-miterlimit:10;" d="M 1.826002 1.732702 L 1.826002 1.85 " transform="matrix(600,0,0,-600,-19.980001,1465.999996)"/>
<path style="fill:none;stroke-width:0.04;stroke-linecap:round;stroke-linejoin:miter;stroke:rgb(0%,0%,0%);stroke-opacity:1;stroke-miterlimit:10;" d="M 1.826002 1.85 L 2.626002 1.85 " transform="matrix(600,0,0,-600,-19.980001,1465.999996)"/>
<path style="fill:none;stroke-width:0.04;stroke-linecap:round;stroke-linejoin:miter;stroke:rgb(0%,0%,0%);stroke-opacity:1;stroke-miterlimit:10;" d="M 2.626002 1.85 L 2.626002 2 " transform="matrix(600,0,0,-600,-19.980001,1465.999996)"/>
<path style="fill:none;stroke-width:0.04;stroke-linecap:round;stroke-linejoin:miter;stroke:rgb(0%,0%,0%);stroke-opacity:1;stroke-miterlimit:10;" d="M 2.626002 2 L 2.676002 2 " transform="matrix(600,0,0,-600,-19.980001,1465.999996)"/>
<path style="fill:none;stroke-width:0.04;stroke-linecap:round;stroke-linejoin:miter;stroke:rgb(0%,0%,0%);stroke-opacity:1;stroke-miterlimit:10;" d="M 2.676002 2 L 2.676002 1.933503 " transform="matrix(600,0,0,-600,-19.980001,1465.999996)"/>
<path style="fill:none;stroke-width:0.04;stroke-linecap:round;stroke-linejoin:miter;stroke:rgb(0%,0%,0%);stroke-opacity:1;stroke-miterlimit:10;" d="M 2.676002 1.933503 L 2.6622 1.933503 " transform="matrix(600,0,0,-600,-19.980001,1465.999996)"/>
<path style="fill:none;stroke-width:0.04;stroke-linecap:round;stroke-linejoin:miter;stroke:rgb(0%,0%,0%);stroke-opacity:1;stroke-miterlimit:10;" d="M 2.676002 2 L 2.776002 2 " transform="matrix(600,0,0,-600,-19.980001,1465.999996)"/>
<path style="fill:none;stroke-width:0.04;stroke-linecap:round;stroke-linejoin:miter;stroke:rgb(0%,0%,0%);stroke-opacity:1;stroke-miterlimit:10;" d="M 2.776002 2 L 2.776002 1.815397 " transform="matrix(600,0,0,-600,-19.980001,1465.999996)"/>
<path style="fill:none;stroke-width:0.04;stroke-linecap:round;stroke-linejoin:miter;stroke:rgb(0%,0%,0%);stroke-opacity:1;stroke-miterlimit:10;" d="M 2.776002 1.815397 L 2.756698 1.815397 " transform="matrix(600,0,0,-600,-19.980001,1465.999996)"/>
<path style="fill:none;stroke-width:0.04;stroke-linecap:round;stroke-linejoin:miter;stroke:rgb(0%,0%,0%);stroke-opacity:1;stroke-miterlimit:10;" d="M 2.926002 1.965 L 2.926002 2 " transform="matrix(600,0,0,-600,-19.980001,1465.999996)"/>
<path style="fill:none;stroke-width:0.04;stroke-linecap:round;stroke-linejoin:miter;stroke:rgb(0%,0%,0%);stroke-opacity:1;stroke-miterlimit:10;" d="M 2.926002 2 L 2.776002 2 " transform="matrix(600,0,0,-600,-19.980001,1465.999996)"/>
<path style="fill:none;stroke-width:0.04;stroke-linecap:round;stroke-linejoin:miter;stroke:rgb(0%,0%,0%);stroke-opacity:1;stroke-miterlimit:10;" d="M 2.926002 2 L 3.076002 2 " transform="matrix(600,0,0,-600,-19.980001,1465.999996)"/>
<path style="fill:none;stroke-width:0.04;stroke-linecap:round;stroke-linejoin:miter;stroke:rgb(0%,0%,0%);stroke-opacity:1;stroke-miterlimit:10;" d="M 3.076002 2 L 3.076002 1.815397 " transform="matrix(600,0,0,-600,-19.980001,1465.999996)"/>
<path style="fill:none;stroke-width:0.04;stroke-linecap:round;stroke-linejoin:miter;stroke:rgb(0%,0%,0%);stroke-opacity:1;stroke-miterlimit:10;" d="M 3.076002 1.815397 L 3.095201 1.815397 " transform="matrix(600,0,0,-600,-19.980001,1465.999996)"/>
<path style="fill:none;stroke-width:0.04;stroke-linecap:round;stroke-linejoin:miter;stroke:rgb(0%,0%,0%);stroke-opacity:1;stroke-miterlimit:10;" d="M 3.176002 1.933503 L 3.176002 2 " transform="matrix(600,0,0,-600,-19.980001,1465.999996)"/>
<path style="fill:none;stroke-width:0.04;stroke-linecap:round;stroke-linejoin:miter;stroke:rgb(0%,0%,0%);stroke-opacity:1;stroke-miterlimit:10;" d="M 3.176002 2 L 3.076002 2 " transform="matrix(600,0,0,-600,-19.980001,1465.999996)"/>
<path style="fill:none;stroke-width:0.04;stroke-linecap:round;stroke-linejoin:miter;stroke:rgb(0%,0%,0%);stroke-opacity:1;stroke-miterlimit:10;" d="M 3.176002 2 L 3.476002 2 " transform="matrix(600,0,0,-600,-19.980001,1465.999996)"/>
<path style="fill:none;stroke-width:0.04;stroke-linecap:round;stroke-linejoin:miter;stroke:rgb(0%,0%,0%);stroke-opacity:1;stroke-miterlimit:10;" d="M 3.476002 2 L 3.926002 2 " transform="matrix(600,0,0,-600,-19.980001,1465.999996)"/>
<path style="fill:none;stroke-width:0.04;stroke-linecap:round;stroke-linejoin:miter;stroke:rgb(0%,0%,0%);stroke-opacity:1;stroke-miterlimit:10;" d="M 3.926002 2 L 3.926002 1.943698 " transform="matrix(600,0,0,-600,-19.980001,1465.999996)"/>
<path style="fill:none;stroke-width:0.04;stroke-linecap:round;stroke-linejoin:miter;stroke:rgb(0%,0%,0%);stroke-opacity:1;stroke-miterlimit:10;" d="M 3.926002 1.943698 L 3.921998 1.943698 " transform="matrix(600,0,0,-600,-19.980001,1465.999996)"/>
<path style="fill:none;stroke-width:0.04;stroke-linecap:round;stroke-linejoin:miter;stroke:rgb(0%,0%,0%);stroke-opacity:1;stroke-miterlimit:10;" d="M 3.926002 2 L 4.226002 2 " transform="matrix(600,0,0,-600,-19.980001,1465.999996)"/>
<path style="fill:none;stroke-width:0.04;stroke-linecap:round;stroke-linejoin:miter;stroke:rgb(0%,0%,0%);stroke-opacity:1;stroke-miterlimit:10;" d="M 4.226002 2 L 4.276002 1.95 " transform="matrix(600,0,0,-600,-19.980001,1465.999996)"/>
<path style="fill:none;stroke-width:0.04;stroke-linecap:round;stroke-linejoin:miter;stroke:rgb(0%,0%,0%);stroke-opacity:1;stroke-miterlimit:10;" d="M 4.276002 1.95 L 4.326002 1.95 " transform="matrix(600,0,0,-600,-19.980001,1465.999996)"/>
<path style="fill:none;stroke-width:0.04;stroke-linecap:round;stroke-linejoin:miter;stroke:rgb(0%,0%,0%);stroke-opacity:1;stroke-miterlimit:10;" d="M 3.476002 2 L 3.476002 1.85 " transform="matrix(600,0,0,-600,-19.980001,1465.999996)"/>
<path style="fill:none;stroke-width:0.04;stroke-linecap:round;stroke-linejoin:miter;stroke:rgb(0%,0%,0%);stroke-opacity:1;stroke-miterlimit:10;" d="M 3.376002 1.85 L 3.376002 1.75 " transform="matrix(600,0,0,-600,-19.980001,1465.999996)"/>
<path style="fill:none;stroke-width:0.04;stroke-linecap:round;stroke-linejoin:miter;stroke:rgb(0%,0%,0%);stroke-opacity:1;stroke-miterlimit:10;" d="M 3.376002 1.75 L 3.476002 1.65 " transform="matrix(600,0,0,-600,-19.980001,1465.999996)"/>
<path style="fill:none;stroke-width:0.04;stroke-linecap:round;stroke-linejoin:miter;stroke:rgb(0%,0%,0%);stroke-opacity:1;stroke-miterlimit:10;" d="M 3.476002 1.65 L 3.476002 0.9 " transform="matrix(600,0,0,-600,-19.980001,1465.999996)"/>
<path style="fill:none;stroke-width:0.04;stroke-linecap:round;stroke-linejoin:miter;stroke:rgb(0%,0%,0%);stroke-opacity:1;stroke-miterlimit:10;" d="M 3.476002 0.9 L 3.326002 0.75 " transform="matrix(600,0,0,-600,-19.980001,1465.999996)"/>
<path style="fill:none;stroke-width:0.04;stroke-linecap:round;stroke-linejoin:miter;stroke:rgb(0%,0%,0%);stroke-opacity:1;stroke-miterlimit:10;" d="M 3.326002 0.75 L 2.726002 0.75 " transform="matrix(600,0,0,-600,-19.980001,1465.999996)"/>
<path style="fill:none;stroke-width:0.04;stroke-linecap:round;stroke-linejoin:miter;stroke:rgb(0%,0%,0%);stroke-opacity:1;stroke-miterlimit:10;" d="M 2.726002 0.75 L 2.726002 0.9 " transform="matrix(600,0,0,-600,-19.980001,1465.999996)"/>
<path style="fill:none;stroke-width:0.04;stroke-linecap:round;stroke-linejoin:miter;stroke:rgb(0%,0%,0%);stroke-opacity:1;stroke-miterlimit:10;" d="M 2.726002 0.9 L 2.726002 1 " transform="matrix(600,0,0,-600,-19.980001,1465.999996)"/>
<path style="fill:none;stroke-width:0.04;stroke-linecap:round;stroke-linejoin:miter;stroke:rgb(0%,0%,0%);stroke-opacity:1;stroke-miterlimit:10;" d="M 2.726002 1 L 2.726002 1.1 " transform="matrix(600,0,0,-600,-19.980001,1465.999996)"/>
<path style="fill:none;stroke-width:0.04;stroke-linecap:round;stroke-linejoin:miter;stroke:rgb(0%,0%,0%);stroke-opacity:1;stroke-miterlimit:10;" d="M 2.726002 1.1 L 2.726002 1.2 " transform="matrix(600,0,0,-600,-19.980001,1465.999996)"/>
<path style="fill:none;stroke-width:0.04;stroke-linecap:round;stroke-linejoin:miter;stroke:rgb(0%,0%,0%);stroke-opacity:1;stroke-miterlimit:10;" d="M 2.726002 0.75 L 2.626002 0.65 " transform="matrix(600,0,0,-600,-19.980001,1465.999996)"/>
<path style="fill:none;stroke-width:0.04;stroke-linecap:round;stroke-linejoin:miter;stroke:rgb(0%,0%,0%);stroke-opacity:1;stroke-miterlimit:10;" d="M 1.856698 1.732702 L 1.826002 1.732702 " transform="matrix(600,0,0,-600,-19.980001,1465.999996)"/>
<path style="fill:none;stroke-width:0.04;stroke-linecap:round;stroke-linejoin:miter;stroke:rgb(0%,0%,0%);stroke-opacity:1;stroke-miterlimit:10;" d="M 3.176002 1.933503 L 3.1897 1.933503 " transform="matrix(600,0,0,-600,-19.980001,1465.999996)"/>
<path style="fill:none;stroke-width:0.032;stroke-linecap:round;stroke-linejoin:miter;stroke:rgb(0%,0%,0%);stroke-opacity:1;stroke-miterlimit:10;" d="M 4.122799 1.746901 L 4.126002 1.746901 " transform="matrix(600,0,0,-600,-19.980001,1465.999996)"/>
<path style="fill:none;stroke-width:0.032;stroke-linecap:round;stroke-linejoin:miter;stroke:rgb(0%,0%,0%);stroke-opacity:1;stroke-miterlimit:10;" d="M 4.226002 1.85 L 4.326002 1.85 " transform="matrix(600,0,0,-600,-19.980001,1465.999996)"/>
<path style="fill:none;stroke-width:0.032;stroke-linecap:round;stroke-linejoin:miter;stroke:rgb(0%,0%,0%);stroke-opacity:1;stroke-miterlimit:10;" d="M 2.776002 1.2 L 2.726002 1.2 " transform="matrix(600,0,0,-600,-19.980001,1465.999996)"/>
<path style="fill:none;stroke-width:0.032;stroke-linecap:round;stroke-linejoin:miter;stroke:rgb(0%,0%,0%);stroke-opacity:1;stroke-miterlimit:10;" d="M 2.726002 1.1 L 2.676002 1.1 " transform="matrix(600,0,0,-600,-19.980001,1465.999996)"/>
<path style="fill:none;stroke-width:0.032;stroke-linecap:round;stroke-linejoin:miter;stroke:rgb(0%,0%,0%);stroke-opacity:1;stroke-miterlimit:10;" d="M 2.726002 1 L 2.576002 1 " transform="matrix(600,0,0,-600,-19.980001,1465.999996)"/>
<path style="fill:none;stroke-width:0.032;stroke-linecap:round;stroke-linejoin:miter;stroke:rgb(0%,0%,0%);stroke-opacity:1;stroke-miterlimit:10;" d="M 2.476002 0.9 L 2.726002 0.9 " transform="matrix(600,0,0,-600,-19.980001,1465.999996)"/>
<path style="fill:none;stroke-width:0.032;stroke-linecap:round;stroke-linejoin:miter;stroke:rgb(0%,0%,0%);stroke-opacity:1;stroke-miterlimit:10;" d="M 2.626002 0.65 L 1.326002 0.65 " transform="matrix(600,0,0,-600,-19.980001,1465.999996)"/>
<path style="fill:none;stroke-width:0.032;stroke-linecap:round;stroke-linejoin:miter;stroke:rgb(0%,0%,0%);stroke-opacity:1;stroke-miterlimit:10;" d="M 1.326002 0.65 L 1.326002 0.7 " transform="matrix(600,0,0,-600,-19.980001,1465.999996)"/>
<path style="fill:none;stroke-width:0.032;stroke-linecap:round;stroke-linejoin:miter;stroke:rgb(0%,0%,0%);stroke-opacity:1;stroke-miterlimit:10;" d="M 1.326002 0.7 L 1.326002 0.810599 " transform="matrix(600,0,0,-600,-19.980001,1465.999996)"/>
<path style="fill:none;stroke-width:0.032;stroke-linecap:round;stroke-linejoin:miter;stroke:rgb(0%,0%,0%);stroke-opacity:1;stroke-miterlimit:10;" d="M 1.326002 0.810599 L 1.3047 0.860599 " transform="matrix(600,0,0,-600,-19.980001,1465.999996)"/>
<path style=" stroke:none;fill-rule:evenodd;fill:rgb(100%,100%,100%);fill-opacity:1;" d="M 1746.421875 626 C 1746.421875 619.601562 1736.820312 619.601562 1736.820312 626 C 1736.820312 632.398438 1746.421875 632.398438 1746.421875 626 "/>
<path style=" stroke:none;fill-rule:evenodd;fill:rgb(100%,100%,100%);fill-opacity:1;" d="M 1794.421875 626 C 1794.421875 619.601562 1784.820312 619.601562 1784.820312 626 C 1784.820312 632.398438 1794.421875 632.398438 1794.421875 626 "/>
<path style=" stroke:none;fill-rule:evenodd;fill:rgb(100%,100%,100%);fill-opacity:1;" d="M 1926.421875 626 C 1926.421875 619.601562 1916.820312 619.601562 1916.820312 626 C 1916.820312 632.398438 1926.421875 632.398438 1926.421875 626 "/>
<path style=" stroke:none;fill-rule:evenodd;fill:rgb(100%,100%,100%);fill-opacity:1;" d="M 1974.421875 626 C 1974.421875 619.601562 1964.820312 619.601562 1964.820312 626 C 1964.820312 632.398438 1974.421875 632.398438 1974.421875 626 "/>
<path style=" stroke:none;fill-rule:evenodd;fill:rgb(100%,100%,100%);fill-opacity:1;" d="M 2226.421875 626 C 2226.421875 619.601562 2216.820312 619.601562 2216.820312 626 C 2216.820312 632.398438 2226.421875 632.398438 2226.421875 626 "/>
<path style=" stroke:none;fill-rule:evenodd;fill:rgb(100%,100%,100%);fill-opacity:1;" d="M 2274.421875 626 C 2274.421875 619.601562 2264.820312 619.601562 2264.820312 626 C 2264.820312 632.398438 2274.421875 632.398438 2274.421875 626 "/>
<path style=" stroke:none;fill-rule:evenodd;fill:rgb(100%,100%,100%);fill-opacity:1;" d="M 2406.421875 626 C 2406.421875 619.601562 2396.820312 619.601562 2396.820312 626 C 2396.820312 632.398438 2406.421875 632.398438 2406.421875 626 "/>
<path style=" stroke:none;fill-rule:evenodd;fill:rgb(100%,100%,100%);fill-opacity:1;" d="M 2454.421875 626 C 2454.421875 619.601562 2444.820312 619.601562 2444.820312 626 C 2444.820312 632.398438 2454.421875 632.398438 2454.421875 626 "/>
<path style=" stroke:none;fill-rule:evenodd;fill:rgb(100%,100%,100%);fill-opacity:1;" d="M 1290.421875 1166 C 1290.421875 1159.601562 1280.820312 1159.601562 1280.820312 1166 C 1280.820312 1172.398438 1290.421875 1172.398438 1290.421875 1166 "/>
<path style=" stroke:none;fill-rule:evenodd;fill:rgb(100%,100%,100%);fill-opacity:1;" d="M 1410.421875 1166 C 1410.421875 1159.601562 1400.820312 1159.601562 1400.820312 1166 C 1400.820312 1172.398438 1410.421875 1172.398438 1410.421875 1166 "/>
<path style=" stroke:none;fill-rule:evenodd;fill:rgb(100%,100%,100%);fill-opacity:1;" d="M 1410.421875 986 C 1410.421875 979.601562 1400.820312 979.601562 1400.820312 986 C 1400.820312 992.398438 1410.421875 992.398438 1410.421875 986 "/>
<path style=" stroke:none;fill-rule:evenodd;fill:rgb(100%,100%,100%);fill-opacity:1;" d="M 1470.421875 926 C 1470.421875 919.601562 1460.820312 919.601562 1460.820312 926 C 1460.820312 932.398438 1470.421875 932.398438 1470.421875 926 "/>
<path style=" stroke:none;fill-rule:evenodd;fill:rgb(100%,100%,100%);fill-opacity:1;" d="M 1530.421875 866 C 1530.421875 859.601562 1520.820312 859.601562 1520.820312 866 C 1520.820312 872.398438 1530.421875 872.398438 1530.421875 866 "/>
<path style=" stroke:none;fill-rule:evenodd;fill:rgb(100%,100%,100%);fill-opacity:1;" d="M 1590.421875 806 C 1590.421875 799.601562 1580.820312 799.601562 1580.820312 806 C 1580.820312 812.398438 1590.421875 812.398438 1590.421875 806 "/>
<path style=" stroke:none;fill-rule:evenodd;fill:rgb(100%,100%,100%);fill-opacity:1;" d="M 1650.421875 746 C 1650.421875 739.601562 1640.820312 739.601562 1640.820312 746 C 1640.820312 752.398438 1650.421875 752.398438 1650.421875 746 "/>
<path style=" stroke:none;fill-rule:evenodd;fill:rgb(100%,100%,100%);fill-opacity:1;" d="M 1770.421875 806 C 1770.421875 799.601562 1760.820312 799.601562 1760.820312 806 C 1760.820312 812.398438 1770.421875 812.398438 1770.421875 806 "/>
<path style=" stroke:none;fill-rule:evenodd;fill:rgb(100%,100%,100%);fill-opacity:1;" d="M 1950.421875 806 C 1950.421875 799.601562 1940.820312 799.601562 1940.820312 806 C 1940.820312 812.398438 1950.421875 812.398438 1950.421875 806 "/>
<path style=" stroke:none;fill-rule:evenodd;fill:rgb(100%,100%,100%);fill-opacity:1;" d="M 1650.421875 566 C 1650.421875 559.601562 1640.820312 559.601562 1640.820312 566 C 1640.820312 572.398438 1650.421875 572.398438 1650.421875 566 "/>
<path style=" stroke:none;fill-rule:evenodd;fill:rgb(100%,100%,100%);fill-opacity:1;" d="M 1470.421875 566 C 1470.421875 559.601562 1460.820312 559.601562 1460.820312 566 C 1460.820312 572.398438 1470.421875 572.398438 1470.421875 566 "/>
<path style=" stroke:none;fill-rule:evenodd;fill:rgb(100%,100%,100%);fill-opacity:1;" d="M 1470.421875 746 C 1470.421875 739.601562 1460.820312 739.601562 1460.820312 746 C 1460.820312 752.398438 1470.421875 752.398438 1470.421875 746 "/>
<path style=" stroke:none;fill-rule:evenodd;fill:rgb(100%,100%,100%);fill-opacity:1;" d="M 1410.421875 806 C 1410.421875 799.601562 1400.820312 799.601562 1400.820312 806 C 1400.820312 812.398438 1410.421875 812.398438 1410.421875 806 "/>
<path style=" stroke:none;fill-rule:evenodd;fill:rgb(100%,100%,100%);fill-opacity:1;" d="M 1350.421875 866 C 1350.421875 859.601562 1340.820312 859.601562 1340.820312 866 C 1340.820312 872.398438 1350.421875 872.398438 1350.421875 866 "/>
<path style=" stroke:none;fill-rule:evenodd;fill:rgb(100%,100%,100%);fill-opacity:1;" d="M 1290.421875 926 C 1290.421875 919.601562 1280.820312 919.601562 1280.820312 926 C 1280.820312 932.398438 1290.421875 932.398438 1290.421875 926 "/>
<path style=" stroke:none;fill-rule:evenodd;fill:rgb(100%,100%,100%);fill-opacity:1;" d="M 1290.421875 986 C 1290.421875 979.601562 1280.820312 979.601562 1280.820312 986 C 1280.820312 992.398438 1290.421875 992.398438 1290.421875 986 "/>
<path style=" stroke:none;fill-rule:evenodd;fill:rgb(100%,100%,100%);fill-opacity:1;" d="M 1638.839844 435.859375 C 1638.839844 429.460938 1629.238281 429.460938 1629.238281 435.859375 C 1629.238281 442.261719 1638.839844 442.261719 1638.839844 435.859375 "/>
<path style=" stroke:none;fill-rule:evenodd;fill:rgb(100%,100%,100%);fill-opacity:1;" d="M 1638.839844 376.761719 C 1638.839844 370.359375 1629.238281 370.359375 1629.238281 376.761719 C 1629.238281 383.160156 1638.839844 383.160156 1638.839844 376.761719 "/>
<path style=" stroke:none;fill-rule:evenodd;fill:rgb(100%,100%,100%);fill-opacity:1;" d="M 1841.941406 376.761719 C 1841.941406 370.359375 1832.339844 370.359375 1832.339844 376.761719 C 1832.339844 383.160156 1841.941406 383.160156 1841.941406 376.761719 "/>
<path style=" stroke:none;fill-rule:evenodd;fill:rgb(100%,100%,100%);fill-opacity:1;" d="M 1841.941406 435.859375 C 1841.941406 429.460938 1832.339844 429.460938 1832.339844 435.859375 C 1832.339844 442.261719 1841.941406 442.261719 1841.941406 435.859375 "/>
<path style=" stroke:none;fill-rule:evenodd;fill:rgb(100%,100%,100%);fill-opacity:1;" d="M 2010.421875 356 C 2010.421875 349.601562 2000.820312 349.601562 2000.820312 356 C 2000.820312 362.398438 2010.421875 362.398438 2010.421875 356 "/>
<path style=" stroke:none;fill-rule:evenodd;fill:rgb(100%,100%,100%);fill-opacity:1;" d="M 2070.421875 356 C 2070.421875 349.601562 2060.820312 349.601562 2060.820312 356 C 2060.820312 362.398438 2070.421875 362.398438 2070.421875 356 "/>
<path style=" stroke:none;fill-rule:evenodd;fill:rgb(100%,100%,100%);fill-opacity:1;" d="M 2130.421875 356 C 2130.421875 349.601562 2120.820312 349.601562 2120.820312 356 C 2120.820312 362.398438 2130.421875 362.398438 2130.421875 356 "/>
<path style=" stroke:none;fill-rule:evenodd;fill:rgb(100%,100%,100%);fill-opacity:1;" d="M 2580.421875 356 C 2580.421875 349.601562 2570.820312 349.601562 2570.820312 356 C 2570.820312 362.398438 2580.421875 362.398438 2580.421875 356 "/>
<path style=" stroke:none;fill-rule:evenodd;fill:rgb(100%,100%,100%);fill-opacity:1;" d="M 2580.421875 416 C 2580.421875 409.601562 2570.820312 409.601562 2570.820312 416 C 2570.820312 422.398438 2580.421875 422.398438 2580.421875 416 "/>
<path style=" stroke:none;fill-rule:evenodd;fill:rgb(100%,100%,100%);fill-opacity:1;" d="M 2580.421875 296 C 2580.421875 289.601562 2570.820312 289.601562 2570.820312 296 C 2570.820312 302.398438 2580.421875 302.398438 2580.421875 296 "/>
<path style=" stroke:none;fill-rule:evenodd;fill:rgb(100%,100%,100%);fill-opacity:1;" d="M 1470.421875 296 C 1470.421875 289.601562 1460.820312 289.601562 1460.820312 296 C 1460.820312 302.398438 1470.421875 302.398438 1470.421875 296 "/>
<path style=" stroke:none;fill-rule:evenodd;fill:rgb(100%,100%,100%);fill-opacity:1;" d="M 1410.421875 296 C 1410.421875 289.601562 1400.820312 289.601562 1400.820312 296 C 1400.820312 302.398438 1410.421875 302.398438 1410.421875 296 "/>
<path style=" stroke:none;fill-rule:evenodd;fill:rgb(100%,100%,100%);fill-opacity:1;" d="M 1350.421875 296 C 1350.421875 289.601562 1340.820312 289.601562 1340.820312 296 C 1340.820312 302.398438 1350.421875 302.398438 1350.421875 296 "/>
<path style=" stroke:none;fill-rule:evenodd;fill:rgb(100%,100%,100%);fill-opacity:1;" d="M 1290.421875 296 C 1290.421875 289.601562 1280.820312 289.601562 1280.820312 296 C 1280.820312 302.398438 1290.421875 302.398438 1290.421875 296 "/>
<path style=" stroke:none;fill-rule:evenodd;fill:rgb(100%,100%,100%);fill-opacity:1;" d="M 1230.421875 296 C 1230.421875 289.601562 1220.820312 289.601562 1220.820312 296 C 1220.820312 302.398438 1230.421875 302.398438 1230.421875 296 "/>
<path style=" stroke:none;fill-rule:evenodd;fill:rgb(100%,100%,100%);fill-opacity:1;" d="M 1170.421875 296 C 1170.421875 289.601562 1160.820312 289.601562 1160.820312 296 C 1160.820312 302.398438 1170.421875 302.398438 1170.421875 296 "/>
<path style=" stroke:none;fill-rule:evenodd;fill:rgb(100%,100%,100%);fill-opacity:1;" d="M 1170.421875 476 C 1170.421875 469.601562 1160.820312 469.601562 1160.820312 476 C 1160.820312 482.398438 1170.421875 482.398438 1170.421875 476 "/>
<path style=" stroke:none;fill-rule:evenodd;fill:rgb(100%,100%,100%);fill-opacity:1;" d="M 1230.421875 476 C 1230.421875 469.601562 1220.820312 469.601562 1220.820312 476 C 1220.820312 482.398438 1230.421875 482.398438 1230.421875 476 "/>
<path style=" stroke:none;fill-rule:evenodd;fill:rgb(100%,100%,100%);fill-opacity:1;" d="M 1290.421875 476 C 1290.421875 469.601562 1280.820312 469.601562 1280.820312 476 C 1280.820312 482.398438 1290.421875 482.398438 1290.421875 476 "/>
<path style=" stroke:none;fill-rule:evenodd;fill:rgb(100%,100%,100%);fill-opacity:1;" d="M 1350.421875 476 C 1350.421875 469.601562 1340.820312 469.601562 1340.820312 476 C 1340.820312 482.398438 1350.421875 482.398438 1350.421875 476 "/>
<path style=" stroke:none;fill-rule:evenodd;fill:rgb(100%,100%,100%);fill-opacity:1;" d="M 1410.421875 476 C 1410.421875 469.601562 1400.820312 469.601562 1400.820312 476 C 1400.820312 482.398438 1410.421875 482.398438 1410.421875 476 "/>
<path style=" stroke:none;fill-rule:evenodd;fill:rgb(100%,100%,100%);fill-opacity:1;" d="M 1470.421875 476 C 1470.421875 469.601562 1460.820312 469.601562 1460.820312 476 C 1460.820312 482.398438 1470.421875 482.398438 1470.421875 476 "/>
<path style=" stroke:none;fill-rule:evenodd;fill:rgb(100%,100%,100%);fill-opacity:1;" d="M 2217.539062 417.859375 C 2217.539062 411.460938 2207.941406 411.460938 2207.941406 417.859375 C 2207.941406 424.261719 2217.539062 424.261719 2217.539062 417.859375 "/>
<path style=" stroke:none;fill-rule:evenodd;fill:rgb(100%,100%,100%);fill-opacity:1;" d="M 2281.320312 417.859375 C 2281.320312 411.460938 2271.71875 411.460938 2271.71875 417.859375 C 2271.71875 424.261719 2281.320312 424.261719 2281.320312 417.859375 "/>
<path style=" stroke:none;fill-rule:evenodd;fill:rgb(100%,100%,100%);fill-opacity:1;" d="M 2338.019531 417.859375 C 2338.019531 411.460938 2328.421875 411.460938 2328.421875 417.859375 C 2328.421875 424.261719 2338.019531 424.261719 2338.019531 417.859375 "/>
<path style=" stroke:none;fill-rule:evenodd;fill:rgb(100%,100%,100%);fill-opacity:1;" d="M 2394.71875 417.859375 C 2394.71875 411.460938 2385.121094 411.460938 2385.121094 417.859375 C 2385.121094 424.261719 2394.71875 424.261719 2394.71875 417.859375 "/>
<path style=" stroke:none;fill-rule:evenodd;fill:rgb(100%,100%,100%);fill-opacity:1;" d="M 2458.5 417.859375 C 2458.5 411.460938 2448.898438 411.460938 2448.898438 417.859375 C 2448.898438 424.261719 2458.5 424.261719 2458.5 417.859375 "/>
<path style=" stroke:none;fill-rule:evenodd;fill:rgb(100%,100%,100%);fill-opacity:1;" d="M 2456.160156 299.78125 C 2456.160156 293.378906 2446.558594 293.378906 2446.558594 299.78125 C 2446.558594 306.179688 2456.160156 306.179688 2456.160156 299.78125 "/>
<path style=" stroke:none;fill-rule:evenodd;fill:rgb(100%,100%,100%);fill-opacity:1;" d="M 2338.019531 299.78125 C 2338.019531 293.378906 2328.421875 293.378906 2328.421875 299.78125 C 2328.421875 306.179688 2338.019531 306.179688 2338.019531 299.78125 "/>
<path style=" stroke:none;fill-rule:evenodd;fill:rgb(100%,100%,100%);fill-opacity:1;" d="M 2219.941406 299.78125 C 2219.941406 293.378906 2210.339844 293.378906 2210.339844 299.78125 C 2210.339844 306.179688 2219.941406 306.179688 2219.941406 299.78125 "/>
<path style=" stroke:none;fill-rule:evenodd;fill:rgb(100%,100%,100%);fill-opacity:1;" d="M 1041.421875 375.621094 C 1041.421875 369.21875 1031.820312 369.21875 1031.820312 375.621094 C 1031.820312 382.019531 1041.421875 382.019531 1041.421875 375.621094 "/>
<path style=" stroke:none;fill-rule:evenodd;fill:rgb(100%,100%,100%);fill-opacity:1;" d="M 468.359375 375.621094 C 468.359375 369.21875 458.761719 369.21875 458.761719 375.621094 C 458.761719 382.019531 468.359375 382.019531 468.359375 375.621094 "/>
<path style=" stroke:none;fill-rule:evenodd;fill:rgb(100%,100%,100%);fill-opacity:1;" d="M 1582.140625 305.898438 C 1582.140625 299.5 1572.539062 299.5 1572.539062 305.898438 C 1572.539062 312.300781 1582.140625 312.300781 1582.140625 305.898438 "/>
<path style=" stroke:none;fill-rule:evenodd;fill:rgb(100%,100%,100%);fill-opacity:1;" d="M 1740.421875 287 C 1740.421875 280.601562 1730.820312 280.601562 1730.820312 287 C 1730.820312 293.398438 1740.421875 293.398438 1740.421875 287 "/>
<path style=" stroke:none;fill-rule:evenodd;fill:rgb(100%,100%,100%);fill-opacity:1;" d="M 1898.640625 305.898438 C 1898.640625 299.5 1889.039062 299.5 1889.039062 305.898438 C 1889.039062 312.300781 1898.640625 312.300781 1898.640625 305.898438 "/>
<path style=" stroke:none;fill-rule:evenodd;fill:rgb(100%,100%,100%);fill-opacity:1;" d="M 2100.421875 1076 C 2100.421875 1069.601562 2090.820312 1069.601562 2090.820312 1076 C 2090.820312 1082.398438 2100.421875 1082.398438 2100.421875 1076 "/>
<path style=" stroke:none;fill-rule:evenodd;fill:rgb(100%,100%,100%);fill-opacity:1;" d="M 300.421875 296 C 300.421875 289.601562 290.820312 289.601562 290.820312 296 C 290.820312 302.398438 300.421875 302.398438 300.421875 296 "/>
</g>
</svg>
