G75*
%MOIN*%
%OFA0B0*%
%FSLAX24Y24*%
%IPPOS*%
%LPD*%
%AMOC8*
5,1,8,0,0,1.08239X$1,22.5*
%
%ADD10C,0.0100*%
%ADD11C,0.0600*%
%ADD12R,0.0354X0.0709*%
%ADD13R,0.0551X0.0787*%
%ADD14R,0.0433X0.0709*%
%ADD15C,0.0000*%
%ADD16C,0.1400*%
%ADD17C,0.0740*%
%ADD18R,0.0630X0.0709*%
%ADD19OC8,0.0700*%
%ADD20C,0.0700*%
%ADD21OC8,0.0520*%
%ADD22OC8,0.0825*%
%ADD23OC8,0.1270*%
%ADD24C,0.1000*%
%ADD25C,0.0886*%
%ADD26C,0.0240*%
%ADD27C,0.0400*%
%ADD28C,0.0320*%
%ADD29R,0.0472X0.0472*%
D10*
X000833Y004500D02*
X000833Y020996D01*
X040203Y020996D01*
X040203Y004500D01*
X000833Y004500D01*
X001133Y004800D02*
X001133Y019413D01*
X001318Y019229D01*
X001652Y019090D01*
X002014Y019090D01*
X002349Y019229D01*
X002605Y019485D01*
X002743Y019819D01*
X002743Y020181D01*
X002605Y020515D01*
X002424Y020696D01*
X015508Y020696D01*
X015401Y020589D01*
X015323Y020401D01*
X015323Y020330D01*
X015273Y020330D01*
X015157Y020446D01*
X014510Y020446D01*
X014387Y020323D01*
X014387Y019677D01*
X014510Y019554D01*
X015157Y019554D01*
X015273Y019670D01*
X015323Y019670D01*
X015323Y019599D01*
X015401Y019411D01*
X015544Y019268D01*
X015732Y019190D01*
X015935Y019190D01*
X016122Y019268D01*
X016266Y019411D01*
X016333Y019574D01*
X016401Y019411D01*
X016544Y019268D01*
X016732Y019190D01*
X016935Y019190D01*
X017122Y019268D01*
X017266Y019411D01*
X017333Y019574D01*
X017401Y019411D01*
X017544Y019268D01*
X017732Y019190D01*
X017935Y019190D01*
X018122Y019268D01*
X018266Y019411D01*
X018333Y019574D01*
X018401Y019411D01*
X018544Y019268D01*
X018732Y019190D01*
X018935Y019190D01*
X019122Y019268D01*
X019266Y019411D01*
X019333Y019574D01*
X019401Y019411D01*
X019544Y019268D01*
X019732Y019190D01*
X019935Y019190D01*
X020122Y019268D01*
X020266Y019411D01*
X020333Y019574D01*
X020401Y019411D01*
X020544Y019268D01*
X020732Y019190D01*
X020935Y019190D01*
X021122Y019268D01*
X021266Y019411D01*
X021343Y019599D01*
X021343Y019670D01*
X022394Y019670D01*
X022510Y019554D01*
X023157Y019554D01*
X023280Y019677D01*
X023280Y020323D01*
X023157Y020446D01*
X022510Y020446D01*
X022394Y020330D01*
X021343Y020330D01*
X021343Y020401D01*
X021266Y020589D01*
X021159Y020696D01*
X025419Y020696D01*
X025048Y020325D01*
X025048Y020050D01*
X025783Y020050D01*
X025783Y019950D01*
X025048Y019950D01*
X025048Y019675D01*
X025508Y019215D01*
X025783Y019215D01*
X025783Y019950D01*
X025883Y019950D01*
X025883Y019215D01*
X026158Y019215D01*
X026618Y019675D01*
X026618Y019950D01*
X025883Y019950D01*
X025883Y020050D01*
X026618Y020050D01*
X026618Y020325D01*
X026247Y020696D01*
X039903Y020696D01*
X039903Y020360D01*
X039869Y020385D01*
X039806Y020417D01*
X039739Y020439D01*
X039669Y020450D01*
X039383Y020450D01*
X039383Y020050D01*
X039283Y020050D01*
X039283Y019950D01*
X038586Y019950D01*
X038594Y019895D01*
X038616Y019827D01*
X038648Y019764D01*
X038690Y019707D01*
X038740Y019657D01*
X038797Y019615D01*
X038861Y019583D01*
X038928Y019561D01*
X038998Y019550D01*
X039283Y019550D01*
X039283Y019950D01*
X039383Y019950D01*
X039383Y019550D01*
X039669Y019550D01*
X039739Y019561D01*
X039806Y019583D01*
X039869Y019615D01*
X039903Y019640D01*
X039903Y019440D01*
X039735Y019510D01*
X038932Y019510D01*
X038744Y019432D01*
X038682Y019370D01*
X036112Y019370D01*
X036156Y019395D01*
X036223Y019447D01*
X036284Y019508D01*
X036336Y019575D01*
X036378Y019649D01*
X036411Y019728D01*
X036433Y019810D01*
X036443Y019887D01*
X035844Y019887D01*
X035844Y019987D01*
X036443Y019987D01*
X036433Y020064D01*
X036411Y020146D01*
X036378Y020225D01*
X036336Y020299D01*
X036284Y020367D01*
X036223Y020427D01*
X036156Y020479D01*
X036082Y020521D01*
X036003Y020554D01*
X035921Y020576D01*
X035844Y020586D01*
X035844Y019987D01*
X035744Y019987D01*
X035744Y020586D01*
X035667Y020576D01*
X035585Y020554D01*
X035506Y020521D01*
X035432Y020479D01*
X035364Y020427D01*
X035304Y020367D01*
X035252Y020299D01*
X035210Y020225D01*
X035177Y020146D01*
X035155Y020064D01*
X035145Y019987D01*
X035744Y019987D01*
X035744Y019887D01*
X035145Y019887D01*
X035155Y019810D01*
X035177Y019728D01*
X035210Y019649D01*
X035252Y019575D01*
X035304Y019508D01*
X035364Y019447D01*
X035432Y019395D01*
X035476Y019370D01*
X032760Y019370D01*
X032624Y019314D01*
X032520Y019210D01*
X032463Y019074D01*
X032463Y016653D01*
X032124Y016314D01*
X032124Y016314D01*
X032020Y016210D01*
X031963Y016074D01*
X031963Y008426D01*
X032020Y008290D01*
X033020Y007290D01*
X033124Y007186D01*
X033260Y007130D01*
X033411Y007130D01*
X033516Y007025D01*
X033722Y006940D01*
X033945Y006940D01*
X034151Y007025D01*
X034308Y007183D01*
X034323Y007219D01*
X034601Y006940D01*
X035065Y006940D01*
X035255Y007130D01*
X036219Y007130D01*
X036649Y006929D01*
X036649Y006902D01*
X036748Y006662D01*
X036932Y006478D01*
X037172Y006379D01*
X037432Y006379D01*
X037672Y006478D01*
X037855Y006662D01*
X037955Y006902D01*
X037955Y007161D01*
X037855Y007401D01*
X037694Y007563D01*
X037855Y007725D01*
X037955Y007965D01*
X037955Y008224D01*
X037855Y008464D01*
X037677Y008643D01*
X037764Y008730D01*
X037847Y008931D01*
X037847Y009148D01*
X037764Y009348D01*
X037677Y009436D01*
X037855Y009614D01*
X037955Y009854D01*
X037955Y010114D01*
X037855Y010354D01*
X037694Y010516D01*
X037855Y010677D01*
X037955Y010917D01*
X037955Y011177D01*
X037912Y011281D01*
X038619Y012310D01*
X038647Y012338D01*
X038660Y012370D01*
X038680Y012398D01*
X038688Y012437D01*
X038703Y012474D01*
X038703Y012508D01*
X038711Y012542D01*
X038703Y012581D01*
X038703Y013578D01*
X038893Y013768D01*
X038893Y014232D01*
X038615Y014510D01*
X038651Y014525D01*
X038808Y014683D01*
X038893Y014889D01*
X038893Y015037D01*
X039543Y015686D01*
X039647Y015790D01*
X039703Y015926D01*
X039903Y015926D01*
X039903Y015828D02*
X039662Y015828D01*
X039703Y015926D02*
X039703Y017490D01*
X039735Y017490D01*
X039903Y017560D01*
X039903Y009188D01*
X039887Y009249D01*
X039855Y009327D01*
X039903Y009327D01*
X039855Y009327D02*
X039812Y009401D01*
X039760Y009469D01*
X039700Y009529D01*
X039632Y009581D01*
X039558Y009624D01*
X039480Y009656D01*
X039397Y009678D01*
X039320Y009688D01*
X039320Y009089D01*
X039220Y009089D01*
X039220Y008989D01*
X039320Y008989D01*
X039320Y008390D01*
X039397Y008400D01*
X039480Y008423D01*
X039558Y008455D01*
X039632Y008498D01*
X039700Y008550D01*
X039760Y008610D01*
X039812Y008677D01*
X039855Y008751D01*
X039887Y008830D01*
X039903Y008891D01*
X039903Y004800D01*
X001133Y004800D01*
X001133Y004894D02*
X039903Y004894D01*
X039903Y004993D02*
X020124Y004993D01*
X020162Y005008D02*
X020325Y005171D01*
X020413Y005385D01*
X020413Y005615D01*
X020325Y005829D01*
X020162Y005992D01*
X019949Y006080D01*
X019720Y006080D01*
X019170Y006630D01*
X022155Y006630D01*
X022252Y006590D01*
X022415Y006590D01*
X022566Y006652D01*
X023503Y007590D01*
X029293Y007590D01*
X029334Y007582D01*
X029374Y007590D01*
X029415Y007590D01*
X029453Y007606D01*
X029494Y007614D01*
X029528Y007637D01*
X029566Y007652D01*
X029595Y007682D01*
X029629Y007705D01*
X029652Y007739D01*
X029681Y007768D01*
X029697Y007806D01*
X030652Y009239D01*
X030681Y009268D01*
X030697Y009306D01*
X030720Y009340D01*
X030728Y009381D01*
X030743Y009418D01*
X030743Y009460D01*
X030751Y009500D01*
X030743Y009541D01*
X030743Y016933D01*
X030748Y016948D01*
X030743Y017015D01*
X030743Y017082D01*
X030738Y017095D01*
X030737Y017110D01*
X030707Y017170D01*
X030681Y017232D01*
X030670Y017243D01*
X030243Y018097D01*
X030243Y018389D01*
X030266Y018411D01*
X030343Y018599D01*
X030343Y019401D01*
X030266Y019589D01*
X030122Y019732D01*
X029935Y019810D01*
X029732Y019810D01*
X029544Y019732D01*
X029401Y019589D01*
X029323Y019401D01*
X029323Y018599D01*
X029401Y018411D01*
X029423Y018389D01*
X029423Y018067D01*
X029419Y018052D01*
X029423Y017985D01*
X029423Y017918D01*
X029429Y017905D01*
X029430Y017890D01*
X029460Y017830D01*
X029486Y017768D01*
X029496Y017757D01*
X029923Y016903D01*
X029923Y009624D01*
X029114Y008410D01*
X023743Y008410D01*
X023743Y010630D01*
X024463Y010630D01*
X024463Y009450D01*
X024342Y009329D01*
X024253Y009115D01*
X024253Y008885D01*
X024342Y008671D01*
X024505Y008508D01*
X024718Y008420D01*
X024949Y008420D01*
X025162Y008508D01*
X025325Y008671D01*
X025413Y008885D01*
X025413Y009115D01*
X025325Y009329D01*
X025203Y009450D01*
X025203Y010630D01*
X025539Y010630D01*
X025639Y010530D01*
X025949Y010530D01*
X025863Y010445D01*
X025863Y010055D01*
X026139Y009780D01*
X026528Y009780D01*
X026801Y010053D01*
X027003Y009446D01*
X027003Y009434D01*
X027024Y009385D01*
X027041Y009333D01*
X027049Y009324D01*
X027054Y009313D01*
X027092Y009275D01*
X027127Y009234D01*
X027138Y009229D01*
X027253Y009113D01*
X027253Y008885D01*
X027342Y008671D01*
X027505Y008508D01*
X027718Y008420D01*
X027949Y008420D01*
X028162Y008508D01*
X028325Y008671D01*
X028413Y008885D01*
X028413Y009115D01*
X028325Y009329D01*
X028162Y009492D01*
X027949Y009580D01*
X027720Y009580D01*
X027622Y009678D01*
X027260Y010762D01*
X027303Y010805D01*
X027303Y011063D01*
X028003Y010363D01*
X028003Y009934D01*
X028054Y009813D01*
X028146Y009720D01*
X028268Y009670D01*
X028894Y009670D01*
X029010Y009554D01*
X029657Y009554D01*
X029780Y009677D01*
X029780Y010323D01*
X029657Y010446D01*
X029010Y010446D01*
X028894Y010330D01*
X028663Y010330D01*
X028663Y010566D01*
X028613Y010687D01*
X028520Y010780D01*
X027880Y011420D01*
X027949Y011420D01*
X028162Y011508D01*
X028325Y011671D01*
X028413Y011885D01*
X028413Y012115D01*
X028344Y012283D01*
X028412Y012420D01*
X028449Y012420D01*
X028662Y012508D01*
X028825Y012671D01*
X028913Y012885D01*
X028913Y013115D01*
X028825Y013329D01*
X028662Y013492D01*
X028449Y013580D01*
X028218Y013580D01*
X028005Y013492D01*
X027842Y013329D01*
X027753Y013115D01*
X027753Y012885D01*
X027823Y012717D01*
X027792Y012656D01*
X027303Y013390D01*
X027303Y013695D01*
X027028Y013970D01*
X026723Y013970D01*
X025893Y014523D01*
X025893Y014611D01*
X025808Y014817D01*
X025651Y014975D01*
X025615Y014990D01*
X025795Y015170D01*
X026499Y015170D01*
X026639Y015030D01*
X027028Y015030D01*
X027261Y015263D01*
X027541Y014844D01*
X027554Y014813D01*
X027577Y014790D01*
X027595Y014762D01*
X027623Y014744D01*
X029003Y013363D01*
X029003Y011439D01*
X028887Y011323D01*
X028887Y010677D01*
X029010Y010554D01*
X029657Y010554D01*
X029780Y010677D01*
X029780Y011323D01*
X029663Y011439D01*
X029663Y013566D01*
X029613Y013687D01*
X029520Y013780D01*
X028090Y015210D01*
X027163Y016600D01*
X027163Y018066D01*
X027113Y018187D01*
X027020Y018280D01*
X026899Y018330D01*
X025273Y018330D01*
X025157Y018446D01*
X024510Y018446D01*
X024387Y018323D01*
X024387Y017677D01*
X024510Y017554D01*
X025157Y017554D01*
X025273Y017670D01*
X026503Y017670D01*
X026503Y016533D01*
X026497Y016500D01*
X026503Y016468D01*
X026503Y016434D01*
X026516Y016404D01*
X026522Y016372D01*
X026541Y016344D01*
X026554Y016313D01*
X026577Y016290D01*
X026790Y015970D01*
X026639Y015970D01*
X026499Y015830D01*
X026163Y015830D01*
X026163Y016450D01*
X026456Y016742D01*
X026456Y017258D01*
X026091Y017622D01*
X025575Y017622D01*
X025211Y017258D01*
X025211Y016742D01*
X025503Y016450D01*
X025503Y016060D01*
X025101Y016060D01*
X024773Y015732D01*
X024773Y015268D01*
X025052Y014990D01*
X025016Y014975D01*
X024859Y014817D01*
X024773Y014611D01*
X024773Y014527D01*
X022663Y016637D01*
X022663Y018566D01*
X022613Y018687D01*
X022520Y018780D01*
X022399Y018830D01*
X015768Y018830D01*
X015646Y018780D01*
X015554Y018687D01*
X015503Y018566D01*
X015503Y018439D01*
X015387Y018323D01*
X015387Y017677D01*
X015438Y017626D01*
X015401Y017589D01*
X015323Y017401D01*
X015323Y016599D01*
X015401Y016411D01*
X015544Y016268D01*
X015732Y016190D01*
X015935Y016190D01*
X016122Y016268D01*
X016266Y016411D01*
X016333Y016574D01*
X016401Y016411D01*
X016503Y016309D01*
X016503Y008330D01*
X012163Y008330D01*
X012163Y008540D01*
X012164Y008542D01*
X012306Y008542D01*
X012377Y008612D01*
X012447Y008542D01*
X012975Y008542D01*
X013098Y008665D01*
X013098Y009548D01*
X012975Y009671D01*
X012447Y009671D01*
X012377Y009600D01*
X012306Y009671D01*
X011778Y009671D01*
X011655Y009548D01*
X011655Y009035D01*
X011554Y008794D01*
X011554Y008793D01*
X011529Y008733D01*
X011504Y008673D01*
X011504Y008672D01*
X011503Y008672D01*
X011503Y008607D01*
X011503Y008542D01*
X011503Y008541D01*
X011503Y007934D01*
X011547Y007830D01*
X010848Y007830D01*
X010492Y008973D01*
X010492Y009548D01*
X010369Y009671D01*
X009841Y009671D01*
X009718Y009548D01*
X009718Y008665D01*
X009841Y008542D01*
X009935Y008542D01*
X010275Y007450D01*
X010275Y007434D01*
X010294Y007388D01*
X010300Y007370D01*
X009703Y007370D01*
X009703Y008534D01*
X009704Y008536D01*
X009703Y008608D01*
X009703Y008680D01*
X009703Y008682D01*
X009703Y008683D01*
X009675Y008749D01*
X009647Y008816D01*
X009646Y008817D01*
X009508Y009141D01*
X009508Y009548D01*
X009385Y009671D01*
X008857Y009671D01*
X008734Y009548D01*
X008734Y009545D01*
X008729Y009553D01*
X008701Y009581D01*
X008667Y009600D01*
X008629Y009611D01*
X008470Y009611D01*
X008470Y009145D01*
X008393Y009145D01*
X008393Y009068D01*
X008105Y009068D01*
X007880Y009068D01*
X007880Y009145D01*
X008393Y009145D01*
X008393Y009611D01*
X008235Y009611D01*
X008197Y009600D01*
X008162Y009581D01*
X008136Y009555D01*
X008110Y009581D01*
X008076Y009600D01*
X008038Y009611D01*
X007880Y009611D01*
X007880Y009145D01*
X007803Y009145D01*
X007803Y009611D01*
X007644Y009611D01*
X007606Y009600D01*
X007572Y009581D01*
X007544Y009553D01*
X007539Y009545D01*
X007539Y009548D01*
X007416Y009671D01*
X006888Y009671D01*
X006765Y009548D01*
X006765Y009113D01*
X006574Y008814D01*
X006555Y008795D01*
X006555Y009548D01*
X006432Y009671D01*
X005904Y009671D01*
X005781Y009548D01*
X005781Y009121D01*
X005577Y008817D01*
X005571Y008811D01*
X005571Y009548D01*
X005448Y009671D01*
X004920Y009671D01*
X004797Y009548D01*
X004797Y008665D01*
X004920Y008542D01*
X005448Y008542D01*
X005499Y008594D01*
X005503Y008574D01*
X005503Y005434D01*
X005554Y005313D01*
X005646Y005220D01*
X005768Y005170D01*
X017343Y005170D01*
X017505Y005008D01*
X017718Y004920D01*
X017949Y004920D01*
X018162Y005008D01*
X018325Y005171D01*
X018413Y005385D01*
X018413Y005615D01*
X018325Y005829D01*
X018162Y005992D01*
X017949Y006080D01*
X017718Y006080D01*
X017505Y005992D01*
X017343Y005830D01*
X006163Y005830D01*
X006163Y008506D01*
X006187Y008542D01*
X006432Y008542D01*
X006499Y008608D01*
X006497Y008599D01*
X006503Y008570D01*
X006503Y006434D01*
X006554Y006313D01*
X006646Y006220D01*
X006768Y006170D01*
X018697Y006170D01*
X019253Y005613D01*
X019253Y005385D01*
X019342Y005171D01*
X019505Y005008D01*
X019718Y004920D01*
X019949Y004920D01*
X020162Y005008D01*
X020245Y005091D02*
X039903Y005091D01*
X039903Y005190D02*
X020333Y005190D01*
X020373Y005288D02*
X039903Y005288D01*
X039903Y005387D02*
X020413Y005387D01*
X020413Y005485D02*
X039903Y005485D01*
X039903Y005584D02*
X020413Y005584D01*
X020386Y005682D02*
X031430Y005682D01*
X031318Y005729D02*
X031062Y005985D01*
X030923Y006319D01*
X030923Y006681D01*
X031062Y007015D01*
X031318Y007271D01*
X031652Y007410D01*
X032014Y007410D01*
X032349Y007271D01*
X032605Y007015D01*
X032743Y006681D01*
X032743Y006319D01*
X032605Y005985D01*
X032349Y005729D01*
X032014Y005590D01*
X031652Y005590D01*
X031318Y005729D01*
X031266Y005781D02*
X020345Y005781D01*
X020275Y005879D02*
X031167Y005879D01*
X031069Y005978D02*
X020176Y005978D01*
X019958Y006076D02*
X031024Y006076D01*
X030983Y006175D02*
X019626Y006175D01*
X019527Y006273D02*
X030942Y006273D01*
X030923Y006372D02*
X019429Y006372D01*
X019330Y006470D02*
X030923Y006470D01*
X030923Y006569D02*
X019232Y006569D01*
X018791Y006076D02*
X017958Y006076D01*
X018176Y005978D02*
X018889Y005978D01*
X018988Y005879D02*
X018275Y005879D01*
X018345Y005781D02*
X019086Y005781D01*
X019185Y005682D02*
X018386Y005682D01*
X018413Y005584D02*
X019253Y005584D01*
X019253Y005485D02*
X018413Y005485D01*
X018413Y005387D02*
X019253Y005387D01*
X019293Y005288D02*
X018373Y005288D01*
X018333Y005190D02*
X019334Y005190D01*
X019422Y005091D02*
X018245Y005091D01*
X018124Y004993D02*
X019543Y004993D01*
X017708Y006076D02*
X006163Y006076D01*
X006163Y005978D02*
X017491Y005978D01*
X017392Y005879D02*
X006163Y005879D01*
X006163Y006175D02*
X006757Y006175D01*
X006594Y006273D02*
X006163Y006273D01*
X006163Y006372D02*
X006529Y006372D01*
X006503Y006470D02*
X006163Y006470D01*
X006163Y006569D02*
X006503Y006569D01*
X006503Y006667D02*
X006163Y006667D01*
X006163Y006766D02*
X006503Y006766D01*
X006503Y006864D02*
X006163Y006864D01*
X006163Y006963D02*
X006503Y006963D01*
X006503Y007061D02*
X006163Y007061D01*
X006163Y007160D02*
X006503Y007160D01*
X006503Y007258D02*
X006163Y007258D01*
X006163Y007357D02*
X006503Y007357D01*
X006503Y007455D02*
X006163Y007455D01*
X006163Y007554D02*
X006503Y007554D01*
X006503Y007652D02*
X006163Y007652D01*
X006163Y007751D02*
X006503Y007751D01*
X006503Y007849D02*
X006163Y007849D01*
X006163Y007948D02*
X006503Y007948D01*
X006503Y008046D02*
X006163Y008046D01*
X006163Y008145D02*
X006503Y008145D01*
X006503Y008243D02*
X006163Y008243D01*
X006163Y008342D02*
X006503Y008342D01*
X006503Y008440D02*
X006163Y008440D01*
X006185Y008539D02*
X006503Y008539D01*
X006555Y008834D02*
X006587Y008834D01*
X006555Y008933D02*
X006650Y008933D01*
X006713Y009031D02*
X006555Y009031D01*
X006555Y009130D02*
X006765Y009130D01*
X006765Y009228D02*
X006555Y009228D01*
X006555Y009327D02*
X006765Y009327D01*
X006765Y009425D02*
X006555Y009425D01*
X006555Y009524D02*
X006765Y009524D01*
X006839Y009622D02*
X006481Y009622D01*
X005855Y009622D02*
X005496Y009622D01*
X005571Y009524D02*
X005781Y009524D01*
X005781Y009425D02*
X005571Y009425D01*
X005571Y009327D02*
X005781Y009327D01*
X005781Y009228D02*
X005571Y009228D01*
X005571Y009130D02*
X005781Y009130D01*
X005720Y009031D02*
X005571Y009031D01*
X005571Y008933D02*
X005655Y008933D01*
X005589Y008834D02*
X005571Y008834D01*
X005503Y008539D02*
X001133Y008539D01*
X001133Y008637D02*
X004825Y008637D01*
X004797Y008736D02*
X001133Y008736D01*
X001133Y008834D02*
X004797Y008834D01*
X004797Y008933D02*
X001133Y008933D01*
X001133Y009031D02*
X004797Y009031D01*
X004797Y009130D02*
X001133Y009130D01*
X001133Y009228D02*
X004797Y009228D01*
X004797Y009327D02*
X001133Y009327D01*
X001133Y009425D02*
X004797Y009425D01*
X004797Y009524D02*
X001133Y009524D01*
X001133Y009622D02*
X004871Y009622D01*
X005503Y008440D02*
X001133Y008440D01*
X001133Y008342D02*
X005503Y008342D01*
X005503Y008243D02*
X001133Y008243D01*
X001133Y008145D02*
X005503Y008145D01*
X005503Y008046D02*
X001133Y008046D01*
X001133Y007948D02*
X005503Y007948D01*
X005503Y007849D02*
X001133Y007849D01*
X001133Y007751D02*
X005503Y007751D01*
X005503Y007652D02*
X001133Y007652D01*
X001133Y007554D02*
X005503Y007554D01*
X005503Y007455D02*
X001133Y007455D01*
X001133Y007357D02*
X005503Y007357D01*
X005503Y007258D02*
X001133Y007258D01*
X001133Y007160D02*
X005503Y007160D01*
X005503Y007061D02*
X001133Y007061D01*
X001133Y006963D02*
X005503Y006963D01*
X005503Y006864D02*
X001133Y006864D01*
X001133Y006766D02*
X005503Y006766D01*
X005503Y006667D02*
X001133Y006667D01*
X001133Y006569D02*
X005503Y006569D01*
X005503Y006470D02*
X001133Y006470D01*
X001133Y006372D02*
X005503Y006372D01*
X005503Y006273D02*
X001133Y006273D01*
X001133Y006175D02*
X005503Y006175D01*
X005503Y006076D02*
X001133Y006076D01*
X001133Y005978D02*
X005503Y005978D01*
X005503Y005879D02*
X001133Y005879D01*
X001133Y005781D02*
X005503Y005781D01*
X005503Y005682D02*
X001133Y005682D01*
X001133Y005584D02*
X005503Y005584D01*
X005503Y005485D02*
X001133Y005485D01*
X001133Y005387D02*
X005523Y005387D01*
X005579Y005288D02*
X001133Y005288D01*
X001133Y005190D02*
X005721Y005190D01*
X007163Y006830D02*
X007163Y008510D01*
X007184Y008542D01*
X007416Y008542D01*
X007539Y008665D01*
X007539Y008668D01*
X007544Y008660D01*
X007572Y008632D01*
X007606Y008612D01*
X007644Y008602D01*
X007803Y008602D01*
X007803Y009068D01*
X007880Y009068D01*
X007880Y008602D01*
X008038Y008602D01*
X008076Y008612D01*
X008110Y008632D01*
X008136Y008658D01*
X008162Y008632D01*
X008197Y008612D01*
X008235Y008602D01*
X008393Y008602D01*
X008393Y009068D01*
X008470Y009068D01*
X008470Y008602D01*
X008629Y008602D01*
X008667Y008612D01*
X008701Y008632D01*
X008729Y008660D01*
X008734Y008668D01*
X008734Y008665D01*
X008857Y008542D01*
X008959Y008542D01*
X008963Y008531D01*
X008963Y008064D01*
X008483Y008064D01*
X008360Y007941D01*
X008360Y007059D01*
X008483Y006936D01*
X008963Y006936D01*
X008963Y006926D01*
X009003Y006830D01*
X007163Y006830D01*
X007163Y006864D02*
X008989Y006864D01*
X008456Y006963D02*
X007163Y006963D01*
X007163Y007061D02*
X007343Y007061D01*
X007347Y007054D02*
X007375Y007026D01*
X007409Y007006D01*
X007447Y006996D01*
X007732Y006996D01*
X007732Y007450D01*
X007317Y007450D01*
X007317Y007126D01*
X007327Y007088D01*
X007347Y007054D01*
X007317Y007160D02*
X007163Y007160D01*
X007163Y007258D02*
X007317Y007258D01*
X007317Y007357D02*
X007163Y007357D01*
X007163Y007455D02*
X007732Y007455D01*
X007732Y007450D02*
X007732Y007550D01*
X007317Y007550D01*
X007317Y007874D01*
X007327Y007912D01*
X007347Y007946D01*
X007375Y007974D01*
X007409Y007994D01*
X007447Y008004D01*
X007732Y008004D01*
X007732Y007550D01*
X007832Y007550D01*
X007832Y008004D01*
X008117Y008004D01*
X008155Y007994D01*
X008189Y007974D01*
X008217Y007946D01*
X008237Y007912D01*
X008247Y007874D01*
X008247Y007550D01*
X007832Y007550D01*
X007832Y007450D01*
X007832Y006996D01*
X008117Y006996D01*
X008155Y007006D01*
X008189Y007026D01*
X008217Y007054D01*
X008237Y007088D01*
X008247Y007126D01*
X008247Y007450D01*
X007832Y007450D01*
X007732Y007450D01*
X007732Y007357D02*
X007832Y007357D01*
X007832Y007455D02*
X008360Y007455D01*
X008360Y007357D02*
X008247Y007357D01*
X008247Y007258D02*
X008360Y007258D01*
X008360Y007160D02*
X008247Y007160D01*
X008221Y007061D02*
X008360Y007061D01*
X007832Y007061D02*
X007732Y007061D01*
X007732Y007160D02*
X007832Y007160D01*
X007832Y007258D02*
X007732Y007258D01*
X007732Y007554D02*
X007832Y007554D01*
X007832Y007652D02*
X007732Y007652D01*
X007732Y007751D02*
X007832Y007751D01*
X007832Y007849D02*
X007732Y007849D01*
X007732Y007948D02*
X007832Y007948D01*
X008216Y007948D02*
X008366Y007948D01*
X008360Y007849D02*
X008247Y007849D01*
X008247Y007751D02*
X008360Y007751D01*
X008360Y007652D02*
X008247Y007652D01*
X008247Y007554D02*
X008360Y007554D01*
X007317Y007554D02*
X007163Y007554D01*
X007163Y007652D02*
X007317Y007652D01*
X007317Y007751D02*
X007163Y007751D01*
X007163Y007849D02*
X007317Y007849D01*
X007348Y007948D02*
X007163Y007948D01*
X007163Y008046D02*
X008464Y008046D01*
X008963Y008145D02*
X007163Y008145D01*
X007163Y008243D02*
X008963Y008243D01*
X008963Y008342D02*
X007163Y008342D01*
X007163Y008440D02*
X008963Y008440D01*
X008960Y008539D02*
X007182Y008539D01*
X007511Y008637D02*
X007567Y008637D01*
X007803Y008637D02*
X007880Y008637D01*
X007880Y008736D02*
X007803Y008736D01*
X007803Y008834D02*
X007880Y008834D01*
X007880Y008933D02*
X007803Y008933D01*
X007803Y009031D02*
X007880Y009031D01*
X007880Y009130D02*
X008393Y009130D01*
X008393Y009228D02*
X008470Y009228D01*
X008470Y009327D02*
X008393Y009327D01*
X008393Y009425D02*
X008470Y009425D01*
X008470Y009524D02*
X008393Y009524D01*
X008808Y009622D02*
X007465Y009622D01*
X007803Y009524D02*
X007880Y009524D01*
X007880Y009425D02*
X007803Y009425D01*
X007803Y009327D02*
X007880Y009327D01*
X007880Y009228D02*
X007803Y009228D01*
X008393Y009031D02*
X008470Y009031D01*
X008470Y008933D02*
X008393Y008933D01*
X008393Y008834D02*
X008470Y008834D01*
X008470Y008736D02*
X008393Y008736D01*
X008393Y008637D02*
X008470Y008637D01*
X008706Y008637D02*
X008762Y008637D01*
X008157Y008637D02*
X008116Y008637D01*
X009513Y009130D02*
X009718Y009130D01*
X009718Y009228D02*
X009508Y009228D01*
X009508Y009327D02*
X009718Y009327D01*
X009718Y009425D02*
X009508Y009425D01*
X009508Y009524D02*
X009718Y009524D01*
X009792Y009622D02*
X009434Y009622D01*
X009555Y009031D02*
X009718Y009031D01*
X009718Y008933D02*
X009597Y008933D01*
X009639Y008834D02*
X009718Y008834D01*
X009718Y008736D02*
X009680Y008736D01*
X009703Y008637D02*
X009746Y008637D01*
X009704Y008539D02*
X009936Y008539D01*
X009967Y008440D02*
X009703Y008440D01*
X009703Y008342D02*
X009997Y008342D01*
X010028Y008243D02*
X009703Y008243D01*
X009703Y008145D02*
X010059Y008145D01*
X010089Y008046D02*
X009703Y008046D01*
X009703Y007948D02*
X010120Y007948D01*
X010151Y007849D02*
X009703Y007849D01*
X009703Y007751D02*
X010181Y007751D01*
X010212Y007652D02*
X009703Y007652D01*
X009703Y007554D02*
X010243Y007554D01*
X010273Y007455D02*
X009703Y007455D01*
X010842Y007849D02*
X011539Y007849D01*
X011503Y007948D02*
X010811Y007948D01*
X010781Y008046D02*
X011503Y008046D01*
X011503Y008145D02*
X010750Y008145D01*
X010719Y008243D02*
X011503Y008243D01*
X011503Y008342D02*
X010689Y008342D01*
X010658Y008440D02*
X011503Y008440D01*
X011503Y008539D02*
X010627Y008539D01*
X010597Y008637D02*
X010815Y008637D01*
X010820Y008632D02*
X010854Y008612D01*
X010892Y008602D01*
X011051Y008602D01*
X011051Y009068D01*
X011128Y009068D01*
X011128Y009145D01*
X011416Y009145D01*
X011416Y009480D01*
X011406Y009519D01*
X011386Y009553D01*
X011359Y009581D01*
X011324Y009600D01*
X011286Y009611D01*
X011128Y009611D01*
X011128Y009145D01*
X011051Y009145D01*
X011051Y009611D01*
X010892Y009611D01*
X010854Y009600D01*
X010820Y009581D01*
X010792Y009553D01*
X010772Y009519D01*
X010762Y009480D01*
X010762Y009145D01*
X011051Y009145D01*
X011051Y009068D01*
X010762Y009068D01*
X010762Y008732D01*
X010772Y008694D01*
X010792Y008660D01*
X010820Y008632D01*
X010762Y008736D02*
X010566Y008736D01*
X010535Y008834D02*
X010762Y008834D01*
X010762Y008933D02*
X010505Y008933D01*
X010492Y009031D02*
X010762Y009031D01*
X010762Y009228D02*
X010492Y009228D01*
X010492Y009130D02*
X011051Y009130D01*
X011128Y009130D02*
X011655Y009130D01*
X011655Y009228D02*
X011416Y009228D01*
X011416Y009327D02*
X011655Y009327D01*
X011655Y009425D02*
X011416Y009425D01*
X011403Y009524D02*
X011655Y009524D01*
X011729Y009622D02*
X010418Y009622D01*
X010492Y009524D02*
X010775Y009524D01*
X010762Y009425D02*
X010492Y009425D01*
X010492Y009327D02*
X010762Y009327D01*
X011051Y009327D02*
X011128Y009327D01*
X011128Y009425D02*
X011051Y009425D01*
X011051Y009524D02*
X011128Y009524D01*
X011128Y009228D02*
X011051Y009228D01*
X011128Y009068D02*
X011416Y009068D01*
X011416Y008732D01*
X011406Y008694D01*
X011386Y008660D01*
X011359Y008632D01*
X011324Y008612D01*
X011286Y008602D01*
X011128Y008602D01*
X011128Y009068D01*
X011128Y009031D02*
X011051Y009031D01*
X011051Y008933D02*
X011128Y008933D01*
X011128Y008834D02*
X011051Y008834D01*
X011051Y008736D02*
X011128Y008736D01*
X011128Y008637D02*
X011051Y008637D01*
X011364Y008637D02*
X011503Y008637D01*
X011530Y008736D02*
X011416Y008736D01*
X011416Y008834D02*
X011571Y008834D01*
X011612Y008933D02*
X011416Y008933D01*
X011416Y009031D02*
X011653Y009031D01*
X012163Y008539D02*
X016503Y008539D01*
X016503Y008637D02*
X014350Y008637D01*
X014378Y008665D02*
X014378Y009548D01*
X014255Y009671D01*
X013648Y009671D01*
X013525Y009548D01*
X013525Y008665D01*
X013648Y008542D01*
X014255Y008542D01*
X014378Y008665D01*
X014378Y008736D02*
X016503Y008736D01*
X016503Y008834D02*
X014378Y008834D01*
X014378Y008933D02*
X016503Y008933D01*
X016503Y009031D02*
X014378Y009031D01*
X014378Y009130D02*
X016503Y009130D01*
X016503Y009228D02*
X014378Y009228D01*
X014378Y009327D02*
X016503Y009327D01*
X016503Y009425D02*
X014378Y009425D01*
X014378Y009524D02*
X016503Y009524D01*
X016503Y009622D02*
X014304Y009622D01*
X013599Y009622D02*
X013024Y009622D01*
X013098Y009524D02*
X013525Y009524D01*
X013525Y009425D02*
X013098Y009425D01*
X013098Y009327D02*
X013525Y009327D01*
X013525Y009228D02*
X013098Y009228D01*
X013098Y009130D02*
X013525Y009130D01*
X013525Y009031D02*
X013098Y009031D01*
X013098Y008933D02*
X013525Y008933D01*
X013525Y008834D02*
X013098Y008834D01*
X013098Y008736D02*
X013525Y008736D01*
X013553Y008637D02*
X013070Y008637D01*
X012163Y008440D02*
X016503Y008440D01*
X016503Y008342D02*
X012163Y008342D01*
X012355Y009622D02*
X012399Y009622D01*
X016503Y009721D02*
X001133Y009721D01*
X001133Y009819D02*
X016503Y009819D01*
X016503Y009918D02*
X001133Y009918D01*
X001133Y010016D02*
X016503Y010016D01*
X016503Y010115D02*
X001133Y010115D01*
X001133Y010213D02*
X016503Y010213D01*
X016503Y010312D02*
X001133Y010312D01*
X001133Y010410D02*
X016503Y010410D01*
X016503Y010509D02*
X001133Y010509D01*
X001133Y010607D02*
X016503Y010607D01*
X016503Y010706D02*
X001133Y010706D01*
X001133Y010804D02*
X016503Y010804D01*
X016503Y010903D02*
X001133Y010903D01*
X001133Y011001D02*
X016503Y011001D01*
X016503Y011100D02*
X001133Y011100D01*
X001133Y011198D02*
X016503Y011198D01*
X016503Y011297D02*
X001133Y011297D01*
X001133Y011395D02*
X016503Y011395D01*
X016503Y011494D02*
X001133Y011494D01*
X001133Y011592D02*
X016503Y011592D01*
X016503Y011691D02*
X001133Y011691D01*
X001133Y011789D02*
X016503Y011789D01*
X016503Y011888D02*
X001133Y011888D01*
X001133Y011986D02*
X016503Y011986D01*
X016503Y012085D02*
X001133Y012085D01*
X001133Y012183D02*
X016503Y012183D01*
X016503Y012282D02*
X001133Y012282D01*
X001133Y012380D02*
X016503Y012380D01*
X016503Y012479D02*
X001133Y012479D01*
X001133Y012577D02*
X016503Y012577D01*
X016503Y012676D02*
X001133Y012676D01*
X001133Y012774D02*
X016503Y012774D01*
X016503Y012873D02*
X001133Y012873D01*
X001133Y012971D02*
X016503Y012971D01*
X016503Y013070D02*
X001133Y013070D01*
X001133Y013168D02*
X016503Y013168D01*
X016503Y013267D02*
X001133Y013267D01*
X001133Y013365D02*
X016503Y013365D01*
X016503Y013464D02*
X001133Y013464D01*
X001133Y013562D02*
X016503Y013562D01*
X016503Y013661D02*
X001133Y013661D01*
X001133Y013759D02*
X016503Y013759D01*
X016503Y013858D02*
X001133Y013858D01*
X001133Y013956D02*
X016503Y013956D01*
X016503Y014055D02*
X001133Y014055D01*
X001133Y014153D02*
X016503Y014153D01*
X016503Y014252D02*
X001133Y014252D01*
X001133Y014350D02*
X016503Y014350D01*
X016503Y014449D02*
X001133Y014449D01*
X001133Y014547D02*
X016503Y014547D01*
X016503Y014646D02*
X001133Y014646D01*
X001133Y014744D02*
X016503Y014744D01*
X016503Y014843D02*
X001133Y014843D01*
X001133Y014941D02*
X016503Y014941D01*
X016503Y015040D02*
X001133Y015040D01*
X001133Y015138D02*
X016503Y015138D01*
X016503Y015237D02*
X001133Y015237D01*
X001133Y015335D02*
X016503Y015335D01*
X016503Y015434D02*
X001133Y015434D01*
X001133Y015532D02*
X016503Y015532D01*
X016503Y015631D02*
X001133Y015631D01*
X001133Y015729D02*
X016503Y015729D01*
X016503Y015828D02*
X001133Y015828D01*
X001133Y015926D02*
X016503Y015926D01*
X016503Y016025D02*
X001133Y016025D01*
X001133Y016123D02*
X016503Y016123D01*
X016503Y016222D02*
X016011Y016222D01*
X016175Y016320D02*
X016492Y016320D01*
X016398Y016419D02*
X016269Y016419D01*
X016310Y016517D02*
X016357Y016517D01*
X015656Y016222D02*
X001133Y016222D01*
X001133Y016320D02*
X015492Y016320D01*
X015398Y016419D02*
X001133Y016419D01*
X001133Y016517D02*
X015357Y016517D01*
X015323Y016616D02*
X001133Y016616D01*
X001133Y016714D02*
X015323Y016714D01*
X015323Y016813D02*
X001133Y016813D01*
X001133Y016911D02*
X002617Y016911D01*
X002611Y016922D02*
X002631Y016888D01*
X002659Y016860D01*
X002693Y016841D01*
X002731Y016830D01*
X002976Y016830D01*
X002976Y017324D01*
X002601Y017324D01*
X002601Y016961D01*
X002611Y016922D01*
X002601Y017010D02*
X001133Y017010D01*
X001133Y017108D02*
X002601Y017108D01*
X002601Y017207D02*
X001133Y017207D01*
X001133Y017305D02*
X002601Y017305D01*
X002601Y017424D02*
X002601Y017787D01*
X002611Y017826D01*
X002631Y017860D01*
X002659Y017888D01*
X002693Y017907D01*
X002731Y017918D01*
X002976Y017918D01*
X002976Y017424D01*
X002976Y017324D01*
X003076Y017324D01*
X003076Y016830D01*
X003322Y016830D01*
X003360Y016841D01*
X003394Y016860D01*
X003422Y016888D01*
X003442Y016922D01*
X003452Y016961D01*
X003452Y017324D01*
X003076Y017324D01*
X003076Y017424D01*
X002976Y017424D01*
X002601Y017424D01*
X002601Y017502D02*
X001133Y017502D01*
X001133Y017404D02*
X002976Y017404D01*
X002976Y017502D02*
X003076Y017502D01*
X003076Y017424D02*
X003076Y017918D01*
X003322Y017918D01*
X003360Y017907D01*
X003394Y017888D01*
X003422Y017860D01*
X003442Y017826D01*
X003452Y017787D01*
X003452Y017424D01*
X003076Y017424D01*
X003076Y017404D02*
X014217Y017404D01*
X014215Y017413D02*
X014225Y017375D01*
X014245Y017341D01*
X014273Y017313D01*
X014307Y017293D01*
X014345Y017283D01*
X014590Y017283D01*
X014590Y017777D01*
X014215Y017777D01*
X014215Y017413D01*
X014215Y017502D02*
X003452Y017502D01*
X003452Y017601D02*
X014215Y017601D01*
X014215Y017699D02*
X003452Y017699D01*
X003449Y017798D02*
X014590Y017798D01*
X014590Y017777D02*
X014590Y017877D01*
X014215Y017877D01*
X014215Y018240D01*
X014225Y018278D01*
X014245Y018313D01*
X014273Y018341D01*
X014307Y018360D01*
X014345Y018370D01*
X014590Y018370D01*
X014590Y017877D01*
X014690Y017877D01*
X014690Y018370D01*
X014936Y018370D01*
X014974Y018360D01*
X015008Y018341D01*
X015036Y018313D01*
X015056Y018278D01*
X015066Y018240D01*
X015066Y017877D01*
X014690Y017877D01*
X014690Y017777D01*
X014690Y017283D01*
X014936Y017283D01*
X014974Y017293D01*
X015008Y017313D01*
X015036Y017341D01*
X015056Y017375D01*
X015066Y017413D01*
X015066Y017777D01*
X014690Y017777D01*
X014590Y017777D01*
X014590Y017699D02*
X014690Y017699D01*
X014690Y017601D02*
X014590Y017601D01*
X014590Y017502D02*
X014690Y017502D01*
X014690Y017404D02*
X014590Y017404D01*
X014590Y017305D02*
X014690Y017305D01*
X014994Y017305D02*
X015323Y017305D01*
X015323Y017207D02*
X003452Y017207D01*
X003452Y017305D02*
X014287Y017305D01*
X014215Y017896D02*
X003380Y017896D01*
X003076Y017896D02*
X002976Y017896D01*
X002976Y017798D02*
X003076Y017798D01*
X003076Y017699D02*
X002976Y017699D01*
X002976Y017601D02*
X003076Y017601D01*
X003076Y017305D02*
X002976Y017305D01*
X002976Y017207D02*
X003076Y017207D01*
X003076Y017108D02*
X002976Y017108D01*
X002976Y017010D02*
X003076Y017010D01*
X003076Y016911D02*
X002976Y016911D01*
X003435Y016911D02*
X015323Y016911D01*
X015323Y017010D02*
X003452Y017010D01*
X003452Y017108D02*
X015323Y017108D01*
X015324Y017404D02*
X015063Y017404D01*
X015066Y017502D02*
X015365Y017502D01*
X015413Y017601D02*
X015066Y017601D01*
X015066Y017699D02*
X015387Y017699D01*
X015387Y017798D02*
X014690Y017798D01*
X014690Y017896D02*
X014590Y017896D01*
X014590Y017995D02*
X014690Y017995D01*
X014690Y018093D02*
X014590Y018093D01*
X014590Y018192D02*
X014690Y018192D01*
X014690Y018290D02*
X014590Y018290D01*
X014232Y018290D02*
X014086Y018290D01*
X014154Y018359D02*
X014239Y018563D01*
X014239Y018784D01*
X014154Y018988D01*
X013998Y019144D01*
X013794Y019228D01*
X013573Y019228D01*
X013369Y019144D01*
X013213Y018988D01*
X013129Y018784D01*
X013129Y018563D01*
X013213Y018359D01*
X013369Y018203D01*
X013573Y018118D01*
X013794Y018118D01*
X013998Y018203D01*
X014154Y018359D01*
X014167Y018389D02*
X015452Y018389D01*
X015503Y018487D02*
X014207Y018487D01*
X014239Y018586D02*
X015512Y018586D01*
X015552Y018684D02*
X014239Y018684D01*
X014239Y018783D02*
X015653Y018783D01*
X015537Y019275D02*
X002395Y019275D01*
X002494Y019374D02*
X015439Y019374D01*
X015376Y019472D02*
X002592Y019472D01*
X002640Y019571D02*
X014493Y019571D01*
X014395Y019669D02*
X002681Y019669D01*
X002722Y019768D02*
X014387Y019768D01*
X014387Y019866D02*
X002743Y019866D01*
X002743Y019965D02*
X014387Y019965D01*
X014387Y020063D02*
X002743Y020063D01*
X002743Y020162D02*
X014387Y020162D01*
X014387Y020260D02*
X002711Y020260D01*
X002670Y020359D02*
X014422Y020359D01*
X015244Y020359D02*
X015323Y020359D01*
X015346Y020457D02*
X002629Y020457D01*
X002565Y020556D02*
X015387Y020556D01*
X015466Y020654D02*
X002466Y020654D01*
X002223Y019177D02*
X003897Y019177D01*
X003818Y019144D02*
X004022Y019228D01*
X004243Y019228D01*
X004447Y019144D01*
X004603Y018988D01*
X004688Y018784D01*
X004688Y018563D01*
X004603Y018359D01*
X004447Y018203D01*
X004243Y018118D01*
X004022Y018118D01*
X003818Y018203D01*
X003662Y018359D01*
X003577Y018563D01*
X003577Y018784D01*
X003662Y018988D01*
X003818Y019144D01*
X003752Y019078D02*
X001133Y019078D01*
X001133Y018980D02*
X003659Y018980D01*
X003618Y018881D02*
X001133Y018881D01*
X001133Y018783D02*
X003577Y018783D01*
X003577Y018684D02*
X001133Y018684D01*
X001133Y018586D02*
X003577Y018586D01*
X003609Y018487D02*
X001133Y018487D01*
X001133Y018389D02*
X003650Y018389D01*
X003731Y018290D02*
X001133Y018290D01*
X001133Y018192D02*
X003845Y018192D01*
X004420Y018192D02*
X013396Y018192D01*
X013282Y018290D02*
X004534Y018290D01*
X004615Y018389D02*
X013201Y018389D01*
X013160Y018487D02*
X004656Y018487D01*
X004688Y018586D02*
X013129Y018586D01*
X013129Y018684D02*
X004688Y018684D01*
X004688Y018783D02*
X013129Y018783D01*
X013169Y018881D02*
X004647Y018881D01*
X004607Y018980D02*
X013210Y018980D01*
X013303Y019078D02*
X004513Y019078D01*
X004368Y019177D02*
X013448Y019177D01*
X013919Y019177D02*
X029323Y019177D01*
X029323Y019275D02*
X026219Y019275D01*
X026317Y019374D02*
X029323Y019374D01*
X029353Y019472D02*
X026416Y019472D01*
X026514Y019571D02*
X029393Y019571D01*
X029481Y019669D02*
X026613Y019669D01*
X026618Y019768D02*
X029629Y019768D01*
X030037Y019768D02*
X031629Y019768D01*
X031544Y019732D02*
X031401Y019589D01*
X031323Y019401D01*
X031323Y018599D01*
X031401Y018411D01*
X031544Y018268D01*
X031732Y018190D01*
X031935Y018190D01*
X032122Y018268D01*
X032266Y018411D01*
X032343Y018599D01*
X032343Y019401D01*
X032266Y019589D01*
X032122Y019732D01*
X031935Y019810D01*
X031732Y019810D01*
X031544Y019732D01*
X031481Y019669D02*
X031091Y019669D01*
X031069Y019685D02*
X031006Y019717D01*
X030939Y019739D01*
X030883Y019748D01*
X030883Y019050D01*
X030783Y019050D01*
X030783Y018950D01*
X030383Y018950D01*
X030383Y018665D01*
X030394Y018595D01*
X030416Y018527D01*
X030448Y018464D01*
X030490Y018407D01*
X030540Y018357D01*
X030597Y018315D01*
X030661Y018283D01*
X030728Y018261D01*
X030783Y018252D01*
X030783Y018950D01*
X030883Y018950D01*
X030883Y018252D01*
X030939Y018261D01*
X031006Y018283D01*
X031069Y018315D01*
X031126Y018357D01*
X031177Y018407D01*
X031218Y018464D01*
X031250Y018527D01*
X031272Y018595D01*
X031283Y018665D01*
X031283Y018950D01*
X030883Y018950D01*
X030883Y019050D01*
X031283Y019050D01*
X031283Y019335D01*
X031272Y019405D01*
X031250Y019473D01*
X031218Y019536D01*
X031177Y019593D01*
X031126Y019643D01*
X031069Y019685D01*
X031193Y019571D02*
X031393Y019571D01*
X031353Y019472D02*
X031251Y019472D01*
X031277Y019374D02*
X031323Y019374D01*
X031323Y019275D02*
X031283Y019275D01*
X031283Y019177D02*
X031323Y019177D01*
X031323Y019078D02*
X031283Y019078D01*
X031323Y018980D02*
X030883Y018980D01*
X030883Y019078D02*
X030783Y019078D01*
X030783Y019050D02*
X030783Y019748D01*
X030728Y019739D01*
X030661Y019717D01*
X030597Y019685D01*
X030540Y019643D01*
X030490Y019593D01*
X030448Y019536D01*
X030416Y019473D01*
X030394Y019405D01*
X030383Y019335D01*
X030383Y019050D01*
X030783Y019050D01*
X030783Y018980D02*
X030343Y018980D01*
X030343Y019078D02*
X030383Y019078D01*
X030383Y019177D02*
X030343Y019177D01*
X030343Y019275D02*
X030383Y019275D01*
X030389Y019374D02*
X030343Y019374D01*
X030314Y019472D02*
X030416Y019472D01*
X030474Y019571D02*
X030273Y019571D01*
X030186Y019669D02*
X030576Y019669D01*
X030783Y019669D02*
X030883Y019669D01*
X030883Y019571D02*
X030783Y019571D01*
X030783Y019472D02*
X030883Y019472D01*
X030883Y019374D02*
X030783Y019374D01*
X030783Y019275D02*
X030883Y019275D01*
X030883Y019177D02*
X030783Y019177D01*
X030783Y018881D02*
X030883Y018881D01*
X030883Y018783D02*
X030783Y018783D01*
X030783Y018684D02*
X030883Y018684D01*
X030883Y018586D02*
X030783Y018586D01*
X030783Y018487D02*
X030883Y018487D01*
X030883Y018389D02*
X030783Y018389D01*
X030783Y018290D02*
X030883Y018290D01*
X031020Y018290D02*
X031522Y018290D01*
X031424Y018389D02*
X031158Y018389D01*
X031230Y018487D02*
X031370Y018487D01*
X031329Y018586D02*
X031269Y018586D01*
X031283Y018684D02*
X031323Y018684D01*
X031323Y018783D02*
X031283Y018783D01*
X031283Y018881D02*
X031323Y018881D01*
X030647Y018290D02*
X030243Y018290D01*
X030243Y018192D02*
X031728Y018192D01*
X031938Y018192D02*
X032463Y018192D01*
X032463Y018290D02*
X032145Y018290D01*
X032243Y018389D02*
X032463Y018389D01*
X032463Y018487D02*
X032297Y018487D01*
X032338Y018586D02*
X032463Y018586D01*
X032463Y018684D02*
X032343Y018684D01*
X032343Y018783D02*
X032463Y018783D01*
X032463Y018881D02*
X032343Y018881D01*
X032343Y018980D02*
X032463Y018980D01*
X032465Y019078D02*
X032343Y019078D01*
X032343Y019177D02*
X032506Y019177D01*
X032585Y019275D02*
X032343Y019275D01*
X032343Y019374D02*
X035470Y019374D01*
X035340Y019472D02*
X034128Y019472D01*
X034134Y019475D02*
X034288Y019628D01*
X034371Y019829D01*
X034371Y020045D01*
X034288Y020246D01*
X034134Y020399D01*
X033934Y020482D01*
X033717Y020482D01*
X033517Y020399D01*
X033363Y020246D01*
X033280Y020045D01*
X033280Y019829D01*
X033363Y019628D01*
X033517Y019475D01*
X033717Y019392D01*
X033934Y019392D01*
X034134Y019475D01*
X034230Y019571D02*
X035256Y019571D01*
X035201Y019669D02*
X034305Y019669D01*
X034345Y019768D02*
X035166Y019768D01*
X035148Y019866D02*
X034371Y019866D01*
X034371Y019965D02*
X035744Y019965D01*
X035744Y020063D02*
X035844Y020063D01*
X035844Y019965D02*
X037217Y019965D01*
X037217Y020045D02*
X037217Y019829D01*
X037300Y019628D01*
X037454Y019475D01*
X037654Y019392D01*
X037871Y019392D01*
X038071Y019475D01*
X038225Y019628D01*
X038308Y019829D01*
X038308Y020045D01*
X038225Y020246D01*
X038071Y020399D01*
X037871Y020482D01*
X037654Y020482D01*
X037454Y020399D01*
X037300Y020246D01*
X037217Y020045D01*
X037224Y020063D02*
X036433Y020063D01*
X036405Y020162D02*
X037265Y020162D01*
X037314Y020260D02*
X036358Y020260D01*
X036290Y020359D02*
X037413Y020359D01*
X037593Y020457D02*
X036184Y020457D01*
X035997Y020556D02*
X039903Y020556D01*
X039903Y020654D02*
X026289Y020654D01*
X026388Y020556D02*
X035591Y020556D01*
X035744Y020556D02*
X035844Y020556D01*
X035833Y020500D02*
X038833Y020500D01*
X038861Y020417D02*
X038797Y020385D01*
X038740Y020343D01*
X038690Y020293D01*
X038648Y020236D01*
X038616Y020173D01*
X038594Y020105D01*
X038586Y020050D01*
X039283Y020050D01*
X039283Y020450D01*
X038998Y020450D01*
X038928Y020439D01*
X038861Y020417D01*
X038761Y020359D02*
X038112Y020359D01*
X038211Y020260D02*
X038666Y020260D01*
X038613Y020162D02*
X038260Y020162D01*
X038300Y020063D02*
X038588Y020063D01*
X038604Y019866D02*
X038308Y019866D01*
X038308Y019965D02*
X039283Y019965D01*
X039283Y020063D02*
X039383Y020063D01*
X039383Y020162D02*
X039283Y020162D01*
X039283Y020260D02*
X039383Y020260D01*
X039383Y020359D02*
X039283Y020359D01*
X039903Y020457D02*
X037932Y020457D01*
X037217Y019866D02*
X036440Y019866D01*
X036421Y019768D02*
X037242Y019768D01*
X037283Y019669D02*
X036387Y019669D01*
X036332Y019571D02*
X037358Y019571D01*
X037460Y019472D02*
X036248Y019472D01*
X036118Y019374D02*
X038686Y019374D01*
X038840Y019472D02*
X038065Y019472D01*
X038167Y019571D02*
X038899Y019571D01*
X038728Y019669D02*
X038242Y019669D01*
X038282Y019768D02*
X038647Y019768D01*
X039283Y019768D02*
X039383Y019768D01*
X039383Y019866D02*
X039283Y019866D01*
X039283Y019669D02*
X039383Y019669D01*
X039383Y019571D02*
X039283Y019571D01*
X039768Y019571D02*
X039903Y019571D01*
X039903Y019472D02*
X039826Y019472D01*
X039764Y017502D02*
X039903Y017502D01*
X039903Y017404D02*
X039703Y017404D01*
X039703Y017305D02*
X039903Y017305D01*
X039903Y017207D02*
X039703Y017207D01*
X039703Y017108D02*
X039903Y017108D01*
X039903Y017010D02*
X039703Y017010D01*
X039703Y016911D02*
X039903Y016911D01*
X039903Y016813D02*
X039703Y016813D01*
X039703Y016714D02*
X039903Y016714D01*
X039903Y016616D02*
X039703Y016616D01*
X039703Y016517D02*
X039903Y016517D01*
X039903Y016419D02*
X039703Y016419D01*
X039703Y016320D02*
X039903Y016320D01*
X039903Y016222D02*
X039703Y016222D01*
X039703Y016123D02*
X039903Y016123D01*
X039903Y016025D02*
X039703Y016025D01*
X039586Y015729D02*
X039903Y015729D01*
X039903Y015631D02*
X039487Y015631D01*
X039389Y015532D02*
X039903Y015532D01*
X039903Y015434D02*
X039290Y015434D01*
X039192Y015335D02*
X039903Y015335D01*
X039903Y015237D02*
X039093Y015237D01*
X038995Y015138D02*
X039903Y015138D01*
X039903Y015040D02*
X038896Y015040D01*
X038893Y014941D02*
X039903Y014941D01*
X039903Y014843D02*
X038874Y014843D01*
X038833Y014744D02*
X039903Y014744D01*
X039903Y014646D02*
X038771Y014646D01*
X038672Y014547D02*
X039903Y014547D01*
X039903Y014449D02*
X038677Y014449D01*
X038775Y014350D02*
X039903Y014350D01*
X039903Y014252D02*
X038874Y014252D01*
X038893Y014153D02*
X039903Y014153D01*
X039903Y014055D02*
X038893Y014055D01*
X038893Y013956D02*
X039903Y013956D01*
X039903Y013858D02*
X038893Y013858D01*
X038884Y013759D02*
X039903Y013759D01*
X039903Y013661D02*
X038786Y013661D01*
X038703Y013562D02*
X039903Y013562D01*
X039903Y013464D02*
X038703Y013464D01*
X038703Y013365D02*
X039903Y013365D01*
X039903Y013267D02*
X038703Y013267D01*
X038703Y013168D02*
X039903Y013168D01*
X039903Y013070D02*
X038703Y013070D01*
X038703Y012971D02*
X039903Y012971D01*
X039903Y012873D02*
X038703Y012873D01*
X038703Y012774D02*
X039903Y012774D01*
X039903Y012676D02*
X038703Y012676D01*
X038704Y012577D02*
X039903Y012577D01*
X039903Y012479D02*
X038703Y012479D01*
X038667Y012380D02*
X039903Y012380D01*
X039903Y012282D02*
X038600Y012282D01*
X038532Y012183D02*
X039903Y012183D01*
X039903Y012085D02*
X038464Y012085D01*
X038396Y011986D02*
X039903Y011986D01*
X039903Y011888D02*
X038329Y011888D01*
X038261Y011789D02*
X039903Y011789D01*
X039903Y011691D02*
X038193Y011691D01*
X038125Y011592D02*
X039903Y011592D01*
X039903Y011494D02*
X039523Y011494D01*
X039579Y011470D02*
X039379Y011553D01*
X039162Y011553D01*
X038961Y011470D01*
X038808Y011317D01*
X038725Y011116D01*
X038725Y010899D01*
X038808Y010699D01*
X038961Y010546D01*
X039162Y010463D01*
X039379Y010463D01*
X039579Y010546D01*
X039733Y010699D01*
X039816Y010899D01*
X039816Y011116D01*
X039733Y011317D01*
X039579Y011470D01*
X039654Y011395D02*
X039903Y011395D01*
X039903Y011297D02*
X039741Y011297D01*
X039782Y011198D02*
X039903Y011198D01*
X039903Y011100D02*
X039816Y011100D01*
X039816Y011001D02*
X039903Y011001D01*
X039903Y010903D02*
X039816Y010903D01*
X039776Y010804D02*
X039903Y010804D01*
X039903Y010706D02*
X039735Y010706D01*
X039641Y010607D02*
X039903Y010607D01*
X039903Y010509D02*
X039490Y010509D01*
X039903Y010410D02*
X037799Y010410D01*
X037873Y010312D02*
X039903Y010312D01*
X039903Y010213D02*
X037914Y010213D01*
X037955Y010115D02*
X039903Y010115D01*
X039903Y010016D02*
X037955Y010016D01*
X037955Y009918D02*
X039903Y009918D01*
X039903Y009819D02*
X037940Y009819D01*
X037899Y009721D02*
X039903Y009721D01*
X039903Y009622D02*
X039561Y009622D01*
X039705Y009524D02*
X039903Y009524D01*
X039903Y009425D02*
X039794Y009425D01*
X039893Y009228D02*
X039903Y009228D01*
X039320Y009228D02*
X039220Y009228D01*
X039220Y009130D02*
X039320Y009130D01*
X039220Y009089D02*
X039220Y009688D01*
X039143Y009678D01*
X039061Y009656D01*
X038982Y009624D01*
X038908Y009581D01*
X038841Y009529D01*
X038781Y009469D01*
X038729Y009401D01*
X038686Y009327D01*
X038654Y009249D01*
X038631Y009166D01*
X038621Y009089D01*
X039220Y009089D01*
X039220Y009031D02*
X037847Y009031D01*
X037847Y008933D02*
X038629Y008933D01*
X038631Y008912D02*
X038654Y008830D01*
X038686Y008751D01*
X038729Y008677D01*
X038781Y008610D01*
X038841Y008550D01*
X038908Y008498D01*
X038982Y008455D01*
X039061Y008423D01*
X039143Y008400D01*
X039220Y008390D01*
X039220Y008989D01*
X038621Y008989D01*
X038631Y008912D01*
X038652Y008834D02*
X037807Y008834D01*
X037766Y008736D02*
X038695Y008736D01*
X038760Y008637D02*
X037683Y008637D01*
X037781Y008539D02*
X038855Y008539D01*
X039019Y008440D02*
X037865Y008440D01*
X037906Y008342D02*
X039903Y008342D01*
X039903Y008440D02*
X039522Y008440D01*
X039685Y008539D02*
X039903Y008539D01*
X039903Y008637D02*
X039781Y008637D01*
X039845Y008736D02*
X039903Y008736D01*
X039903Y008834D02*
X039888Y008834D01*
X039320Y008834D02*
X039220Y008834D01*
X039220Y008736D02*
X039320Y008736D01*
X039320Y008637D02*
X039220Y008637D01*
X039220Y008539D02*
X039320Y008539D01*
X039320Y008440D02*
X039220Y008440D01*
X039903Y008243D02*
X037947Y008243D01*
X037955Y008145D02*
X039903Y008145D01*
X039903Y008046D02*
X037955Y008046D01*
X037948Y007948D02*
X039903Y007948D01*
X039903Y007849D02*
X037907Y007849D01*
X037866Y007751D02*
X039903Y007751D01*
X039903Y007652D02*
X037783Y007652D01*
X037703Y007554D02*
X039011Y007554D01*
X038961Y007533D02*
X038808Y007380D01*
X038725Y007179D01*
X038725Y006962D01*
X038808Y006762D01*
X038961Y006609D01*
X039162Y006526D01*
X039379Y006526D01*
X039579Y006609D01*
X039733Y006762D01*
X039816Y006962D01*
X039816Y007179D01*
X039733Y007380D01*
X039579Y007533D01*
X039379Y007616D01*
X039162Y007616D01*
X038961Y007533D01*
X038883Y007455D02*
X037802Y007455D01*
X037874Y007357D02*
X038798Y007357D01*
X038758Y007258D02*
X037915Y007258D01*
X037955Y007160D02*
X038725Y007160D01*
X038725Y007061D02*
X037955Y007061D01*
X037955Y006963D02*
X038725Y006963D01*
X038766Y006864D02*
X037939Y006864D01*
X037898Y006766D02*
X038807Y006766D01*
X038903Y006667D02*
X037858Y006667D01*
X037762Y006569D02*
X039058Y006569D01*
X039482Y006569D02*
X039903Y006569D01*
X039903Y006667D02*
X039638Y006667D01*
X039734Y006766D02*
X039903Y006766D01*
X039903Y006864D02*
X039775Y006864D01*
X039816Y006963D02*
X039903Y006963D01*
X039903Y007061D02*
X039816Y007061D01*
X039816Y007160D02*
X039903Y007160D01*
X039903Y007258D02*
X039783Y007258D01*
X039742Y007357D02*
X039903Y007357D01*
X039903Y007455D02*
X039657Y007455D01*
X039530Y007554D02*
X039903Y007554D01*
X039903Y006470D02*
X037652Y006470D01*
X036951Y006470D02*
X032743Y006470D01*
X032743Y006372D02*
X039903Y006372D01*
X039903Y006273D02*
X032724Y006273D01*
X032683Y006175D02*
X039903Y006175D01*
X039903Y006076D02*
X032643Y006076D01*
X032598Y005978D02*
X039903Y005978D01*
X039903Y005879D02*
X032499Y005879D01*
X032401Y005781D02*
X039903Y005781D01*
X039903Y005682D02*
X032236Y005682D01*
X032743Y006569D02*
X036841Y006569D01*
X036746Y006667D02*
X032743Y006667D01*
X032708Y006766D02*
X036705Y006766D01*
X036665Y006864D02*
X032668Y006864D01*
X032627Y006963D02*
X033668Y006963D01*
X033480Y007061D02*
X032559Y007061D01*
X032461Y007160D02*
X033188Y007160D01*
X033052Y007258D02*
X032362Y007258D01*
X032143Y007357D02*
X032954Y007357D01*
X032855Y007455D02*
X023368Y007455D01*
X023270Y007357D02*
X031523Y007357D01*
X031304Y007258D02*
X023171Y007258D01*
X023073Y007160D02*
X031206Y007160D01*
X031107Y007061D02*
X022974Y007061D01*
X022876Y006963D02*
X031040Y006963D01*
X030999Y006864D02*
X022777Y006864D01*
X022679Y006766D02*
X030958Y006766D01*
X030923Y006667D02*
X022580Y006667D01*
X023467Y007554D02*
X032757Y007554D01*
X032658Y007652D02*
X029565Y007652D01*
X029664Y007751D02*
X032560Y007751D01*
X032461Y007849D02*
X029725Y007849D01*
X029791Y007948D02*
X032363Y007948D01*
X032264Y008046D02*
X029857Y008046D01*
X029922Y008145D02*
X032166Y008145D01*
X032067Y008243D02*
X029988Y008243D01*
X030054Y008342D02*
X031998Y008342D01*
X031963Y008440D02*
X030119Y008440D01*
X030185Y008539D02*
X031963Y008539D01*
X031963Y008637D02*
X030251Y008637D01*
X030316Y008736D02*
X031963Y008736D01*
X031963Y008834D02*
X030382Y008834D01*
X030448Y008933D02*
X031963Y008933D01*
X031963Y009031D02*
X030513Y009031D01*
X030579Y009130D02*
X031963Y009130D01*
X031963Y009228D02*
X030645Y009228D01*
X030710Y009327D02*
X031963Y009327D01*
X031963Y009425D02*
X030743Y009425D01*
X030747Y009524D02*
X031963Y009524D01*
X031963Y009622D02*
X030743Y009622D01*
X030743Y009721D02*
X031963Y009721D01*
X031963Y009819D02*
X030743Y009819D01*
X030743Y009918D02*
X031963Y009918D01*
X031963Y010016D02*
X030743Y010016D01*
X030743Y010115D02*
X031963Y010115D01*
X031963Y010213D02*
X030743Y010213D01*
X030743Y010312D02*
X031963Y010312D01*
X031963Y010410D02*
X030743Y010410D01*
X030743Y010509D02*
X031963Y010509D01*
X031963Y010607D02*
X030743Y010607D01*
X030743Y010706D02*
X031963Y010706D01*
X031963Y010804D02*
X030743Y010804D01*
X030743Y010903D02*
X031963Y010903D01*
X031963Y011001D02*
X030743Y011001D01*
X030743Y011100D02*
X031963Y011100D01*
X031963Y011198D02*
X030743Y011198D01*
X030743Y011297D02*
X031963Y011297D01*
X031963Y011395D02*
X030743Y011395D01*
X030743Y011494D02*
X031963Y011494D01*
X031963Y011592D02*
X030743Y011592D01*
X030743Y011691D02*
X031963Y011691D01*
X031963Y011789D02*
X030743Y011789D01*
X030743Y011888D02*
X031963Y011888D01*
X031963Y011986D02*
X030743Y011986D01*
X030743Y012085D02*
X031963Y012085D01*
X031963Y012183D02*
X030743Y012183D01*
X030743Y012282D02*
X031963Y012282D01*
X031963Y012380D02*
X030743Y012380D01*
X030743Y012479D02*
X031963Y012479D01*
X031963Y012577D02*
X030743Y012577D01*
X030743Y012676D02*
X031963Y012676D01*
X031963Y012774D02*
X030743Y012774D01*
X030743Y012873D02*
X031963Y012873D01*
X031963Y012971D02*
X030743Y012971D01*
X030743Y013070D02*
X031963Y013070D01*
X031963Y013168D02*
X030743Y013168D01*
X030743Y013267D02*
X031963Y013267D01*
X031963Y013365D02*
X030743Y013365D01*
X030743Y013464D02*
X031963Y013464D01*
X031963Y013562D02*
X030743Y013562D01*
X030743Y013661D02*
X031963Y013661D01*
X031963Y013759D02*
X030743Y013759D01*
X030743Y013858D02*
X031963Y013858D01*
X031963Y013956D02*
X030743Y013956D01*
X030743Y014055D02*
X031963Y014055D01*
X031963Y014153D02*
X030743Y014153D01*
X030743Y014252D02*
X031963Y014252D01*
X031963Y014350D02*
X030743Y014350D01*
X030743Y014449D02*
X031963Y014449D01*
X031963Y014547D02*
X030743Y014547D01*
X030743Y014646D02*
X031963Y014646D01*
X031963Y014744D02*
X030743Y014744D01*
X030743Y014843D02*
X031963Y014843D01*
X031963Y014941D02*
X030743Y014941D01*
X030743Y015040D02*
X031963Y015040D01*
X031963Y015138D02*
X030743Y015138D01*
X030743Y015237D02*
X031963Y015237D01*
X031963Y015335D02*
X030743Y015335D01*
X030743Y015434D02*
X031963Y015434D01*
X031963Y015532D02*
X030743Y015532D01*
X030743Y015631D02*
X031963Y015631D01*
X031963Y015729D02*
X030743Y015729D01*
X030743Y015828D02*
X031963Y015828D01*
X031963Y015926D02*
X030743Y015926D01*
X030743Y016025D02*
X031963Y016025D01*
X031984Y016123D02*
X030743Y016123D01*
X030743Y016222D02*
X032032Y016222D01*
X032130Y016320D02*
X030743Y016320D01*
X030743Y016419D02*
X032229Y016419D01*
X032327Y016517D02*
X030743Y016517D01*
X030743Y016616D02*
X032426Y016616D01*
X032463Y016714D02*
X030743Y016714D01*
X030743Y016813D02*
X032463Y016813D01*
X032463Y016911D02*
X030743Y016911D01*
X030744Y017010D02*
X032463Y017010D01*
X032463Y017108D02*
X030737Y017108D01*
X030692Y017207D02*
X032463Y017207D01*
X032463Y017305D02*
X030639Y017305D01*
X030590Y017404D02*
X032463Y017404D01*
X032463Y017502D02*
X030541Y017502D01*
X030491Y017601D02*
X032463Y017601D01*
X032463Y017699D02*
X030442Y017699D01*
X030393Y017798D02*
X032463Y017798D01*
X032463Y017896D02*
X030344Y017896D01*
X030294Y017995D02*
X032463Y017995D01*
X032463Y018093D02*
X030245Y018093D01*
X030243Y018389D02*
X030508Y018389D01*
X030437Y018487D02*
X030297Y018487D01*
X030338Y018586D02*
X030397Y018586D01*
X030383Y018684D02*
X030343Y018684D01*
X030343Y018783D02*
X030383Y018783D01*
X030383Y018881D02*
X030343Y018881D01*
X029323Y018881D02*
X014199Y018881D01*
X014158Y018980D02*
X029323Y018980D01*
X029323Y019078D02*
X014064Y019078D01*
X015173Y019571D02*
X015335Y019571D01*
X015323Y019669D02*
X015272Y019669D01*
X016130Y019275D02*
X016537Y019275D01*
X016439Y019374D02*
X016228Y019374D01*
X016291Y019472D02*
X016376Y019472D01*
X016335Y019571D02*
X016332Y019571D01*
X017130Y019275D02*
X017537Y019275D01*
X017439Y019374D02*
X017228Y019374D01*
X017291Y019472D02*
X017376Y019472D01*
X017335Y019571D02*
X017332Y019571D01*
X018130Y019275D02*
X018537Y019275D01*
X018439Y019374D02*
X018228Y019374D01*
X018291Y019472D02*
X018376Y019472D01*
X018335Y019571D02*
X018332Y019571D01*
X019130Y019275D02*
X019537Y019275D01*
X019439Y019374D02*
X019228Y019374D01*
X019291Y019472D02*
X019376Y019472D01*
X019335Y019571D02*
X019332Y019571D01*
X020130Y019275D02*
X020537Y019275D01*
X020439Y019374D02*
X020228Y019374D01*
X020291Y019472D02*
X020376Y019472D01*
X020335Y019571D02*
X020332Y019571D01*
X021130Y019275D02*
X025448Y019275D01*
X025350Y019374D02*
X021228Y019374D01*
X021291Y019472D02*
X025251Y019472D01*
X025153Y019571D02*
X023173Y019571D01*
X023272Y019669D02*
X025054Y019669D01*
X025048Y019768D02*
X023280Y019768D01*
X023280Y019866D02*
X025048Y019866D01*
X025048Y020063D02*
X023280Y020063D01*
X023280Y019965D02*
X025783Y019965D01*
X025783Y019866D02*
X025883Y019866D01*
X025883Y019768D02*
X025783Y019768D01*
X025783Y019669D02*
X025883Y019669D01*
X025883Y019571D02*
X025783Y019571D01*
X025783Y019472D02*
X025883Y019472D01*
X025883Y019374D02*
X025783Y019374D01*
X025783Y019275D02*
X025883Y019275D01*
X025883Y019965D02*
X033280Y019965D01*
X033287Y020063D02*
X026618Y020063D01*
X026618Y020162D02*
X033328Y020162D01*
X033377Y020260D02*
X026618Y020260D01*
X026585Y020359D02*
X033476Y020359D01*
X033656Y020457D02*
X026486Y020457D01*
X026618Y019866D02*
X033280Y019866D01*
X033305Y019768D02*
X032037Y019768D01*
X032186Y019669D02*
X033346Y019669D01*
X033421Y019571D02*
X032273Y019571D01*
X032314Y019472D02*
X033523Y019472D01*
X034363Y020063D02*
X035155Y020063D01*
X035183Y020162D02*
X034323Y020162D01*
X034274Y020260D02*
X035230Y020260D01*
X035298Y020359D02*
X034175Y020359D01*
X033995Y020457D02*
X035404Y020457D01*
X035744Y020457D02*
X035844Y020457D01*
X035833Y020500D02*
X030833Y020500D01*
X029323Y018783D02*
X022514Y018783D01*
X022614Y018684D02*
X029323Y018684D01*
X029329Y018586D02*
X022655Y018586D01*
X022663Y018487D02*
X029370Y018487D01*
X029423Y018389D02*
X025214Y018389D01*
X024452Y018389D02*
X022663Y018389D01*
X022663Y018290D02*
X024387Y018290D01*
X024387Y018192D02*
X022663Y018192D01*
X022663Y018093D02*
X024387Y018093D01*
X024387Y017995D02*
X022663Y017995D01*
X022663Y017896D02*
X024387Y017896D01*
X024387Y017798D02*
X022663Y017798D01*
X022663Y017699D02*
X023222Y017699D01*
X023308Y017785D02*
X022848Y017325D01*
X022848Y017050D01*
X023583Y017050D01*
X023583Y016950D01*
X022848Y016950D01*
X022848Y016675D01*
X023308Y016215D01*
X023583Y016215D01*
X023583Y016950D01*
X023683Y016950D01*
X023683Y016215D01*
X023958Y016215D01*
X024418Y016675D01*
X024418Y016950D01*
X023683Y016950D01*
X023683Y017050D01*
X023583Y017050D01*
X023583Y017785D01*
X023308Y017785D01*
X023124Y017601D02*
X022663Y017601D01*
X022663Y017502D02*
X023025Y017502D01*
X022927Y017404D02*
X022663Y017404D01*
X022663Y017305D02*
X022848Y017305D01*
X022848Y017207D02*
X022663Y017207D01*
X022663Y017108D02*
X022848Y017108D01*
X022848Y016911D02*
X022663Y016911D01*
X022663Y016813D02*
X022848Y016813D01*
X022848Y016714D02*
X022663Y016714D01*
X022684Y016616D02*
X022908Y016616D01*
X023006Y016517D02*
X022783Y016517D01*
X022881Y016419D02*
X023105Y016419D01*
X023203Y016320D02*
X022980Y016320D01*
X023078Y016222D02*
X023302Y016222D01*
X023177Y016123D02*
X025503Y016123D01*
X025503Y016222D02*
X023965Y016222D01*
X024064Y016320D02*
X025503Y016320D01*
X025503Y016419D02*
X024162Y016419D01*
X024261Y016517D02*
X025436Y016517D01*
X025337Y016616D02*
X024359Y016616D01*
X024418Y016714D02*
X025239Y016714D01*
X025211Y016813D02*
X024418Y016813D01*
X024418Y016911D02*
X025211Y016911D01*
X025211Y017010D02*
X023683Y017010D01*
X023683Y017050D02*
X024418Y017050D01*
X024418Y017325D01*
X023958Y017785D01*
X023683Y017785D01*
X023683Y017050D01*
X023683Y017108D02*
X023583Y017108D01*
X023583Y017010D02*
X022663Y017010D01*
X023583Y016911D02*
X023683Y016911D01*
X023683Y016813D02*
X023583Y016813D01*
X023583Y016714D02*
X023683Y016714D01*
X023683Y016616D02*
X023583Y016616D01*
X023583Y016517D02*
X023683Y016517D01*
X023683Y016419D02*
X023583Y016419D01*
X023583Y016320D02*
X023683Y016320D01*
X023683Y016222D02*
X023583Y016222D01*
X023374Y015926D02*
X024967Y015926D01*
X024869Y015828D02*
X023472Y015828D01*
X023571Y015729D02*
X024773Y015729D01*
X024773Y015631D02*
X023669Y015631D01*
X023768Y015532D02*
X024773Y015532D01*
X024773Y015434D02*
X023866Y015434D01*
X023965Y015335D02*
X024773Y015335D01*
X024805Y015237D02*
X024063Y015237D01*
X024162Y015138D02*
X024903Y015138D01*
X025002Y015040D02*
X024260Y015040D01*
X024359Y014941D02*
X024982Y014941D01*
X024884Y014843D02*
X024457Y014843D01*
X024556Y014744D02*
X024828Y014744D01*
X024787Y014646D02*
X024654Y014646D01*
X024753Y014547D02*
X024773Y014547D01*
X025684Y014941D02*
X027476Y014941D01*
X027541Y014843D02*
X025783Y014843D01*
X025838Y014744D02*
X027623Y014744D01*
X027721Y014646D02*
X025879Y014646D01*
X025893Y014547D02*
X027820Y014547D01*
X027918Y014449D02*
X026005Y014449D01*
X026153Y014350D02*
X028017Y014350D01*
X028115Y014252D02*
X026301Y014252D01*
X026449Y014153D02*
X028214Y014153D01*
X028312Y014055D02*
X026596Y014055D01*
X027042Y013956D02*
X028411Y013956D01*
X028509Y013858D02*
X027140Y013858D01*
X027239Y013759D02*
X028608Y013759D01*
X028706Y013661D02*
X027303Y013661D01*
X027303Y013562D02*
X028175Y013562D01*
X027977Y013464D02*
X027303Y013464D01*
X027320Y013365D02*
X027878Y013365D01*
X027816Y013267D02*
X027386Y013267D01*
X027451Y013168D02*
X027775Y013168D01*
X027753Y013070D02*
X027517Y013070D01*
X027583Y012971D02*
X027753Y012971D01*
X027758Y012873D02*
X027648Y012873D01*
X027714Y012774D02*
X027799Y012774D01*
X027802Y012676D02*
X027780Y012676D01*
X028392Y012380D02*
X029003Y012380D01*
X029003Y012282D02*
X028345Y012282D01*
X028385Y012183D02*
X029003Y012183D01*
X029003Y012085D02*
X028413Y012085D01*
X028413Y011986D02*
X029003Y011986D01*
X029003Y011888D02*
X028413Y011888D01*
X028374Y011789D02*
X029003Y011789D01*
X029003Y011691D02*
X028333Y011691D01*
X028246Y011592D02*
X029003Y011592D01*
X029003Y011494D02*
X028126Y011494D01*
X028004Y011297D02*
X028887Y011297D01*
X028887Y011198D02*
X028102Y011198D01*
X028201Y011100D02*
X028887Y011100D01*
X028887Y011001D02*
X028299Y011001D01*
X028398Y010903D02*
X028887Y010903D01*
X028887Y010804D02*
X028496Y010804D01*
X028595Y010706D02*
X028887Y010706D01*
X028957Y010607D02*
X028646Y010607D01*
X028663Y010509D02*
X029923Y010509D01*
X029923Y010607D02*
X029710Y010607D01*
X029780Y010706D02*
X029923Y010706D01*
X029923Y010804D02*
X029780Y010804D01*
X029780Y010903D02*
X029923Y010903D01*
X029923Y011001D02*
X029780Y011001D01*
X029780Y011100D02*
X029923Y011100D01*
X029923Y011198D02*
X029780Y011198D01*
X029780Y011297D02*
X029923Y011297D01*
X029923Y011395D02*
X029708Y011395D01*
X029663Y011494D02*
X029923Y011494D01*
X029923Y011592D02*
X029663Y011592D01*
X029663Y011691D02*
X029923Y011691D01*
X029923Y011789D02*
X029663Y011789D01*
X029663Y011888D02*
X029923Y011888D01*
X029923Y011986D02*
X029663Y011986D01*
X029663Y012085D02*
X029923Y012085D01*
X029923Y012183D02*
X029663Y012183D01*
X029663Y012282D02*
X029923Y012282D01*
X029923Y012380D02*
X029663Y012380D01*
X029663Y012479D02*
X029923Y012479D01*
X029923Y012577D02*
X029663Y012577D01*
X029663Y012676D02*
X029923Y012676D01*
X029923Y012774D02*
X029663Y012774D01*
X029663Y012873D02*
X029923Y012873D01*
X029923Y012971D02*
X029663Y012971D01*
X029663Y013070D02*
X029923Y013070D01*
X029923Y013168D02*
X029663Y013168D01*
X029663Y013267D02*
X029923Y013267D01*
X029923Y013365D02*
X029663Y013365D01*
X029663Y013464D02*
X029923Y013464D01*
X029923Y013562D02*
X029663Y013562D01*
X029624Y013661D02*
X029923Y013661D01*
X029923Y013759D02*
X029541Y013759D01*
X029442Y013858D02*
X029923Y013858D01*
X029923Y013956D02*
X029344Y013956D01*
X029245Y014055D02*
X029923Y014055D01*
X029923Y014153D02*
X029147Y014153D01*
X029048Y014252D02*
X029923Y014252D01*
X029923Y014350D02*
X028950Y014350D01*
X028851Y014449D02*
X029923Y014449D01*
X029923Y014547D02*
X028753Y014547D01*
X028654Y014646D02*
X029923Y014646D01*
X029923Y014744D02*
X028556Y014744D01*
X028457Y014843D02*
X029923Y014843D01*
X029923Y014941D02*
X028359Y014941D01*
X028260Y015040D02*
X029923Y015040D01*
X029923Y015138D02*
X028162Y015138D01*
X028072Y015237D02*
X029923Y015237D01*
X029923Y015335D02*
X028007Y015335D01*
X027941Y015434D02*
X029923Y015434D01*
X029923Y015532D02*
X028560Y015532D01*
X028533Y015518D02*
X028606Y015555D01*
X028672Y015603D01*
X028730Y015661D01*
X028778Y015727D01*
X028815Y015800D01*
X028841Y015878D01*
X028853Y015959D01*
X028853Y015961D01*
X028372Y015961D01*
X028372Y015480D01*
X028374Y015480D01*
X028455Y015493D01*
X028533Y015518D01*
X028372Y015532D02*
X028295Y015532D01*
X028295Y015480D02*
X028295Y015961D01*
X028372Y015961D01*
X028372Y016039D01*
X028853Y016039D01*
X028853Y016041D01*
X028841Y016122D01*
X028815Y016200D01*
X028778Y016273D01*
X028730Y016339D01*
X028672Y016397D01*
X028606Y016445D01*
X028594Y016451D01*
X028818Y016675D01*
X028818Y016950D01*
X028083Y016950D01*
X028083Y017050D01*
X027983Y017050D01*
X027983Y016950D01*
X027248Y016950D01*
X027248Y016675D01*
X027708Y016215D01*
X027859Y016215D01*
X027851Y016200D01*
X027826Y016122D01*
X027813Y016041D01*
X027813Y016039D01*
X028295Y016039D01*
X028295Y015961D01*
X027813Y015961D01*
X027813Y015959D01*
X027826Y015878D01*
X027851Y015800D01*
X027889Y015727D01*
X027937Y015661D01*
X027995Y015603D01*
X028061Y015555D01*
X028134Y015518D01*
X028212Y015493D01*
X028292Y015480D01*
X028295Y015480D01*
X028295Y015631D02*
X028372Y015631D01*
X028372Y015729D02*
X028295Y015729D01*
X028295Y015828D02*
X028372Y015828D01*
X028372Y015926D02*
X028295Y015926D01*
X028295Y016025D02*
X027547Y016025D01*
X027481Y016123D02*
X027827Y016123D01*
X027702Y016222D02*
X027416Y016222D01*
X027350Y016320D02*
X027603Y016320D01*
X027505Y016419D02*
X027284Y016419D01*
X027219Y016517D02*
X027406Y016517D01*
X027308Y016616D02*
X027163Y016616D01*
X027163Y016714D02*
X027248Y016714D01*
X027248Y016813D02*
X027163Y016813D01*
X027163Y016911D02*
X027248Y016911D01*
X027163Y017010D02*
X027983Y017010D01*
X027983Y017050D02*
X027248Y017050D01*
X027248Y017325D01*
X027708Y017785D01*
X027983Y017785D01*
X027983Y017050D01*
X027983Y017108D02*
X028083Y017108D01*
X028083Y017050D02*
X028083Y017785D01*
X028358Y017785D01*
X028818Y017325D01*
X028818Y017050D01*
X028083Y017050D01*
X028083Y017010D02*
X029870Y017010D01*
X029821Y017108D02*
X028818Y017108D01*
X028818Y017207D02*
X029772Y017207D01*
X029722Y017305D02*
X028818Y017305D01*
X028740Y017404D02*
X029673Y017404D01*
X029624Y017502D02*
X028641Y017502D01*
X028543Y017601D02*
X029575Y017601D01*
X029525Y017699D02*
X028444Y017699D01*
X028083Y017699D02*
X027983Y017699D01*
X027983Y017601D02*
X028083Y017601D01*
X028083Y017502D02*
X027983Y017502D01*
X027983Y017404D02*
X028083Y017404D01*
X028083Y017305D02*
X027983Y017305D01*
X027983Y017207D02*
X028083Y017207D01*
X027622Y017699D02*
X027163Y017699D01*
X027163Y017601D02*
X027524Y017601D01*
X027425Y017502D02*
X027163Y017502D01*
X027163Y017404D02*
X027327Y017404D01*
X027248Y017305D02*
X027163Y017305D01*
X027163Y017207D02*
X027248Y017207D01*
X027248Y017108D02*
X027163Y017108D01*
X026503Y017108D02*
X026456Y017108D01*
X026456Y017010D02*
X026503Y017010D01*
X026503Y016911D02*
X026456Y016911D01*
X026456Y016813D02*
X026503Y016813D01*
X026503Y016714D02*
X026428Y016714D01*
X026503Y016616D02*
X026329Y016616D01*
X026231Y016517D02*
X026500Y016517D01*
X026510Y016419D02*
X026163Y016419D01*
X026163Y016320D02*
X026551Y016320D01*
X026622Y016222D02*
X026163Y016222D01*
X026163Y016123D02*
X026688Y016123D01*
X026754Y016025D02*
X026163Y016025D01*
X026163Y015926D02*
X026595Y015926D01*
X026531Y015138D02*
X025763Y015138D01*
X025665Y015040D02*
X026629Y015040D01*
X027038Y015040D02*
X027410Y015040D01*
X027345Y015138D02*
X027136Y015138D01*
X027235Y015237D02*
X027279Y015237D01*
X027875Y015532D02*
X028106Y015532D01*
X027967Y015631D02*
X027810Y015631D01*
X027744Y015729D02*
X027888Y015729D01*
X027843Y015828D02*
X027678Y015828D01*
X027613Y015926D02*
X027819Y015926D01*
X028372Y016025D02*
X029923Y016025D01*
X029923Y016123D02*
X028840Y016123D01*
X028804Y016222D02*
X029923Y016222D01*
X029923Y016320D02*
X028744Y016320D01*
X028642Y016419D02*
X029923Y016419D01*
X029923Y016517D02*
X028661Y016517D01*
X028759Y016616D02*
X029923Y016616D01*
X029923Y016714D02*
X028818Y016714D01*
X028818Y016813D02*
X029923Y016813D01*
X029919Y016911D02*
X028818Y016911D01*
X028848Y015926D02*
X029923Y015926D01*
X029923Y015828D02*
X028824Y015828D01*
X028779Y015729D02*
X029923Y015729D01*
X029923Y015631D02*
X028699Y015631D01*
X026503Y017207D02*
X026456Y017207D01*
X026409Y017305D02*
X026503Y017305D01*
X026503Y017404D02*
X026310Y017404D01*
X026212Y017502D02*
X026503Y017502D01*
X026503Y017601D02*
X026113Y017601D01*
X025554Y017601D02*
X025203Y017601D01*
X025357Y017404D02*
X024340Y017404D01*
X024418Y017305D02*
X025258Y017305D01*
X025211Y017207D02*
X024418Y017207D01*
X024418Y017108D02*
X025211Y017108D01*
X025455Y017502D02*
X024241Y017502D01*
X024143Y017601D02*
X024463Y017601D01*
X024387Y017699D02*
X024044Y017699D01*
X023683Y017699D02*
X023583Y017699D01*
X023583Y017601D02*
X023683Y017601D01*
X023683Y017502D02*
X023583Y017502D01*
X023583Y017404D02*
X023683Y017404D01*
X023683Y017305D02*
X023583Y017305D01*
X023583Y017207D02*
X023683Y017207D01*
X023275Y016025D02*
X025066Y016025D01*
X027163Y017798D02*
X029473Y017798D01*
X029430Y017896D02*
X027163Y017896D01*
X027163Y017995D02*
X029423Y017995D01*
X029423Y018093D02*
X027152Y018093D01*
X027108Y018192D02*
X029423Y018192D01*
X029423Y018290D02*
X026995Y018290D01*
X025048Y020162D02*
X023280Y020162D01*
X023280Y020260D02*
X025048Y020260D01*
X025082Y020359D02*
X023244Y020359D01*
X022422Y020359D02*
X021343Y020359D01*
X021320Y020457D02*
X025180Y020457D01*
X025279Y020556D02*
X021280Y020556D01*
X021201Y020654D02*
X025377Y020654D01*
X022493Y019571D02*
X021332Y019571D01*
X021343Y019669D02*
X022395Y019669D01*
X015387Y018290D02*
X015049Y018290D01*
X015066Y018192D02*
X015387Y018192D01*
X015387Y018093D02*
X015066Y018093D01*
X015066Y017995D02*
X015387Y017995D01*
X015387Y017896D02*
X015066Y017896D01*
X014215Y017995D02*
X001133Y017995D01*
X001133Y018093D02*
X014215Y018093D01*
X014215Y018192D02*
X013971Y018192D01*
X002673Y017896D02*
X001133Y017896D01*
X001133Y017798D02*
X002603Y017798D01*
X002601Y017699D02*
X001133Y017699D01*
X001133Y017601D02*
X002601Y017601D01*
X001443Y019177D02*
X001133Y019177D01*
X001133Y019275D02*
X001271Y019275D01*
X001173Y019374D02*
X001133Y019374D01*
X023743Y010607D02*
X024463Y010607D01*
X024463Y010509D02*
X023743Y010509D01*
X023743Y010410D02*
X024463Y010410D01*
X024463Y010312D02*
X023743Y010312D01*
X023743Y010213D02*
X024463Y010213D01*
X024463Y010115D02*
X023743Y010115D01*
X023743Y010016D02*
X024463Y010016D01*
X024463Y009918D02*
X023743Y009918D01*
X023743Y009819D02*
X024463Y009819D01*
X024463Y009721D02*
X023743Y009721D01*
X023743Y009622D02*
X024463Y009622D01*
X024463Y009524D02*
X023743Y009524D01*
X023743Y009425D02*
X024438Y009425D01*
X024341Y009327D02*
X023743Y009327D01*
X023743Y009228D02*
X024300Y009228D01*
X024259Y009130D02*
X023743Y009130D01*
X023743Y009031D02*
X024253Y009031D01*
X024253Y008933D02*
X023743Y008933D01*
X023743Y008834D02*
X024274Y008834D01*
X024315Y008736D02*
X023743Y008736D01*
X023743Y008637D02*
X024376Y008637D01*
X024475Y008539D02*
X023743Y008539D01*
X023743Y008440D02*
X024670Y008440D01*
X024997Y008440D02*
X027670Y008440D01*
X027475Y008539D02*
X025192Y008539D01*
X025291Y008637D02*
X027376Y008637D01*
X027315Y008736D02*
X025352Y008736D01*
X025392Y008834D02*
X027274Y008834D01*
X027253Y008933D02*
X025413Y008933D01*
X025413Y009031D02*
X027253Y009031D01*
X027237Y009130D02*
X025407Y009130D01*
X025367Y009228D02*
X027139Y009228D01*
X027047Y009327D02*
X025326Y009327D01*
X025229Y009425D02*
X027007Y009425D01*
X026978Y009524D02*
X025203Y009524D01*
X025203Y009622D02*
X026945Y009622D01*
X026912Y009721D02*
X025203Y009721D01*
X025203Y009819D02*
X026100Y009819D01*
X026001Y009918D02*
X025203Y009918D01*
X025203Y010016D02*
X025903Y010016D01*
X025863Y010115D02*
X025203Y010115D01*
X025203Y010213D02*
X025863Y010213D01*
X025863Y010312D02*
X025203Y010312D01*
X025203Y010410D02*
X025863Y010410D01*
X025927Y010509D02*
X025203Y010509D01*
X025203Y010607D02*
X025562Y010607D01*
X026567Y009819D02*
X026879Y009819D01*
X026846Y009918D02*
X026666Y009918D01*
X026764Y010016D02*
X026813Y010016D01*
X027444Y010213D02*
X028003Y010213D01*
X028003Y010115D02*
X027476Y010115D01*
X027509Y010016D02*
X028003Y010016D01*
X028010Y009918D02*
X027542Y009918D01*
X027575Y009819D02*
X028051Y009819D01*
X028146Y009721D02*
X027608Y009721D01*
X027678Y009622D02*
X028942Y009622D01*
X028367Y009228D02*
X029659Y009228D01*
X029594Y009130D02*
X028407Y009130D01*
X028413Y009031D02*
X029528Y009031D01*
X029462Y008933D02*
X028413Y008933D01*
X028392Y008834D02*
X029397Y008834D01*
X029331Y008736D02*
X028352Y008736D01*
X028291Y008637D02*
X029265Y008637D01*
X029200Y008539D02*
X028192Y008539D01*
X027997Y008440D02*
X029134Y008440D01*
X029725Y009327D02*
X028326Y009327D01*
X028229Y009425D02*
X029791Y009425D01*
X029856Y009524D02*
X028085Y009524D01*
X028003Y010312D02*
X027411Y010312D01*
X027378Y010410D02*
X027957Y010410D01*
X027858Y010509D02*
X027345Y010509D01*
X027312Y010607D02*
X027760Y010607D01*
X027661Y010706D02*
X027279Y010706D01*
X027302Y010804D02*
X027563Y010804D01*
X027464Y010903D02*
X027303Y010903D01*
X027303Y011001D02*
X027366Y011001D01*
X027905Y011395D02*
X028959Y011395D01*
X028974Y010410D02*
X028663Y010410D01*
X029693Y010410D02*
X029923Y010410D01*
X029923Y010312D02*
X029780Y010312D01*
X029780Y010213D02*
X029923Y010213D01*
X029923Y010115D02*
X029780Y010115D01*
X029780Y010016D02*
X029923Y010016D01*
X029923Y009918D02*
X029780Y009918D01*
X029780Y009819D02*
X029923Y009819D01*
X029923Y009721D02*
X029780Y009721D01*
X029725Y009622D02*
X029922Y009622D01*
X034285Y007160D02*
X034382Y007160D01*
X034480Y007061D02*
X034186Y007061D01*
X033999Y006963D02*
X034579Y006963D01*
X035088Y006963D02*
X036577Y006963D01*
X036367Y007061D02*
X035186Y007061D01*
X037847Y009130D02*
X038627Y009130D01*
X038648Y009228D02*
X037814Y009228D01*
X037773Y009327D02*
X038686Y009327D01*
X038747Y009425D02*
X037687Y009425D01*
X037764Y009524D02*
X038835Y009524D01*
X038980Y009622D02*
X037859Y009622D01*
X039220Y009622D02*
X039320Y009622D01*
X039320Y009524D02*
X039220Y009524D01*
X039220Y009425D02*
X039320Y009425D01*
X039320Y009327D02*
X039220Y009327D01*
X039220Y008933D02*
X039320Y008933D01*
X039051Y010509D02*
X037701Y010509D01*
X037785Y010607D02*
X038900Y010607D01*
X038805Y010706D02*
X037867Y010706D01*
X037908Y010804D02*
X038765Y010804D01*
X038725Y010903D02*
X037949Y010903D01*
X037955Y011001D02*
X038725Y011001D01*
X038725Y011100D02*
X037955Y011100D01*
X037946Y011198D02*
X038759Y011198D01*
X038800Y011297D02*
X037922Y011297D01*
X037990Y011395D02*
X038886Y011395D01*
X039018Y011494D02*
X038058Y011494D01*
X029003Y012479D02*
X028590Y012479D01*
X028731Y012577D02*
X029003Y012577D01*
X029003Y012676D02*
X028827Y012676D01*
X028868Y012774D02*
X029003Y012774D01*
X029003Y012873D02*
X028908Y012873D01*
X028913Y012971D02*
X029003Y012971D01*
X029003Y013070D02*
X028913Y013070D01*
X028892Y013168D02*
X029003Y013168D01*
X029003Y013267D02*
X028851Y013267D01*
X028789Y013365D02*
X029002Y013365D01*
X028903Y013464D02*
X028690Y013464D01*
X028805Y013562D02*
X028492Y013562D01*
X035744Y020162D02*
X035844Y020162D01*
X035844Y020260D02*
X035744Y020260D01*
X035744Y020359D02*
X035844Y020359D01*
X017543Y004993D02*
X001133Y004993D01*
X001133Y005091D02*
X017422Y005091D01*
D11*
X017833Y016700D02*
X017833Y017300D01*
X016833Y017300D02*
X016833Y016700D01*
X015833Y016700D02*
X015833Y017300D01*
X018833Y017300D02*
X018833Y016700D01*
X019833Y016700D02*
X019833Y017300D01*
X020833Y017300D02*
X020833Y016700D01*
X020833Y019700D02*
X020833Y020300D01*
X019833Y020300D02*
X019833Y019700D01*
X018833Y019700D02*
X018833Y020300D01*
X017833Y020300D02*
X017833Y019700D01*
X016833Y019700D02*
X016833Y020300D01*
X015833Y020300D02*
X015833Y019700D01*
X029833Y019300D02*
X029833Y018700D01*
X030833Y018700D02*
X030833Y019300D01*
X031833Y019300D02*
X031833Y018700D01*
X039033Y019000D02*
X039633Y019000D01*
X039633Y018000D02*
X039033Y018000D01*
X039033Y020000D02*
X039633Y020000D01*
D12*
X012711Y009106D03*
X012042Y009106D03*
X011089Y009106D03*
X010105Y009106D03*
X009121Y009106D03*
X008432Y009106D03*
X007841Y009106D03*
X007152Y009106D03*
X006168Y009106D03*
X005184Y009106D03*
D13*
X003026Y017374D03*
X014640Y017827D03*
D14*
X013951Y009106D03*
D15*
X013379Y018673D02*
X013381Y018708D01*
X013387Y018742D01*
X013397Y018775D01*
X013410Y018808D01*
X013427Y018838D01*
X013448Y018866D01*
X013471Y018892D01*
X013498Y018915D01*
X013526Y018934D01*
X013557Y018950D01*
X013590Y018963D01*
X013623Y018972D01*
X013658Y018977D01*
X013693Y018978D01*
X013727Y018975D01*
X013762Y018968D01*
X013795Y018957D01*
X013826Y018943D01*
X013856Y018925D01*
X013884Y018904D01*
X013909Y018879D01*
X013931Y018852D01*
X013950Y018823D01*
X013965Y018792D01*
X013977Y018759D01*
X013985Y018725D01*
X013989Y018690D01*
X013989Y018656D01*
X013985Y018621D01*
X013977Y018587D01*
X013965Y018554D01*
X013950Y018523D01*
X013931Y018494D01*
X013909Y018467D01*
X013884Y018442D01*
X013856Y018421D01*
X013826Y018403D01*
X013795Y018389D01*
X013762Y018378D01*
X013727Y018371D01*
X013693Y018368D01*
X013658Y018369D01*
X013623Y018374D01*
X013590Y018383D01*
X013557Y018396D01*
X013526Y018412D01*
X013498Y018431D01*
X013471Y018454D01*
X013448Y018480D01*
X013427Y018508D01*
X013410Y018538D01*
X013397Y018571D01*
X013387Y018604D01*
X013381Y018638D01*
X013379Y018673D01*
X003828Y018673D02*
X003830Y018708D01*
X003836Y018742D01*
X003846Y018775D01*
X003859Y018808D01*
X003876Y018838D01*
X003897Y018866D01*
X003920Y018892D01*
X003947Y018915D01*
X003975Y018934D01*
X004006Y018950D01*
X004039Y018963D01*
X004072Y018972D01*
X004107Y018977D01*
X004142Y018978D01*
X004176Y018975D01*
X004211Y018968D01*
X004244Y018957D01*
X004275Y018943D01*
X004305Y018925D01*
X004333Y018904D01*
X004358Y018879D01*
X004380Y018852D01*
X004399Y018823D01*
X004414Y018792D01*
X004426Y018759D01*
X004434Y018725D01*
X004438Y018690D01*
X004438Y018656D01*
X004434Y018621D01*
X004426Y018587D01*
X004414Y018554D01*
X004399Y018523D01*
X004380Y018494D01*
X004358Y018467D01*
X004333Y018442D01*
X004305Y018421D01*
X004275Y018403D01*
X004244Y018389D01*
X004211Y018378D01*
X004176Y018371D01*
X004142Y018368D01*
X004107Y018369D01*
X004072Y018374D01*
X004039Y018383D01*
X004006Y018396D01*
X003975Y018412D01*
X003947Y018431D01*
X003920Y018454D01*
X003897Y018480D01*
X003876Y018508D01*
X003859Y018538D01*
X003846Y018571D01*
X003836Y018604D01*
X003830Y018638D01*
X003828Y018673D01*
X033530Y019937D02*
X033532Y019971D01*
X033538Y020005D01*
X033548Y020038D01*
X033561Y020069D01*
X033579Y020099D01*
X033599Y020127D01*
X033623Y020152D01*
X033649Y020174D01*
X033677Y020192D01*
X033708Y020208D01*
X033740Y020220D01*
X033774Y020228D01*
X033808Y020232D01*
X033842Y020232D01*
X033876Y020228D01*
X033910Y020220D01*
X033942Y020208D01*
X033972Y020192D01*
X034001Y020174D01*
X034027Y020152D01*
X034051Y020127D01*
X034071Y020099D01*
X034089Y020069D01*
X034102Y020038D01*
X034112Y020005D01*
X034118Y019971D01*
X034120Y019937D01*
X034118Y019903D01*
X034112Y019869D01*
X034102Y019836D01*
X034089Y019805D01*
X034071Y019775D01*
X034051Y019747D01*
X034027Y019722D01*
X034001Y019700D01*
X033973Y019682D01*
X033942Y019666D01*
X033910Y019654D01*
X033876Y019646D01*
X033842Y019642D01*
X033808Y019642D01*
X033774Y019646D01*
X033740Y019654D01*
X033708Y019666D01*
X033677Y019682D01*
X033649Y019700D01*
X033623Y019722D01*
X033599Y019747D01*
X033579Y019775D01*
X033561Y019805D01*
X033548Y019836D01*
X033538Y019869D01*
X033532Y019903D01*
X033530Y019937D01*
X035499Y017969D02*
X035501Y018003D01*
X035507Y018037D01*
X035517Y018070D01*
X035530Y018101D01*
X035548Y018131D01*
X035568Y018159D01*
X035592Y018184D01*
X035618Y018206D01*
X035646Y018224D01*
X035677Y018240D01*
X035709Y018252D01*
X035743Y018260D01*
X035777Y018264D01*
X035811Y018264D01*
X035845Y018260D01*
X035879Y018252D01*
X035911Y018240D01*
X035941Y018224D01*
X035970Y018206D01*
X035996Y018184D01*
X036020Y018159D01*
X036040Y018131D01*
X036058Y018101D01*
X036071Y018070D01*
X036081Y018037D01*
X036087Y018003D01*
X036089Y017969D01*
X036087Y017935D01*
X036081Y017901D01*
X036071Y017868D01*
X036058Y017837D01*
X036040Y017807D01*
X036020Y017779D01*
X035996Y017754D01*
X035970Y017732D01*
X035942Y017714D01*
X035911Y017698D01*
X035879Y017686D01*
X035845Y017678D01*
X035811Y017674D01*
X035777Y017674D01*
X035743Y017678D01*
X035709Y017686D01*
X035677Y017698D01*
X035646Y017714D01*
X035618Y017732D01*
X035592Y017754D01*
X035568Y017779D01*
X035548Y017807D01*
X035530Y017837D01*
X035517Y017868D01*
X035507Y017901D01*
X035501Y017935D01*
X035499Y017969D01*
X037467Y019937D02*
X037469Y019971D01*
X037475Y020005D01*
X037485Y020038D01*
X037498Y020069D01*
X037516Y020099D01*
X037536Y020127D01*
X037560Y020152D01*
X037586Y020174D01*
X037614Y020192D01*
X037645Y020208D01*
X037677Y020220D01*
X037711Y020228D01*
X037745Y020232D01*
X037779Y020232D01*
X037813Y020228D01*
X037847Y020220D01*
X037879Y020208D01*
X037909Y020192D01*
X037938Y020174D01*
X037964Y020152D01*
X037988Y020127D01*
X038008Y020099D01*
X038026Y020069D01*
X038039Y020038D01*
X038049Y020005D01*
X038055Y019971D01*
X038057Y019937D01*
X038055Y019903D01*
X038049Y019869D01*
X038039Y019836D01*
X038026Y019805D01*
X038008Y019775D01*
X037988Y019747D01*
X037964Y019722D01*
X037938Y019700D01*
X037910Y019682D01*
X037879Y019666D01*
X037847Y019654D01*
X037813Y019646D01*
X037779Y019642D01*
X037745Y019642D01*
X037711Y019646D01*
X037677Y019654D01*
X037645Y019666D01*
X037614Y019682D01*
X037586Y019700D01*
X037560Y019722D01*
X037536Y019747D01*
X037516Y019775D01*
X037498Y019805D01*
X037485Y019836D01*
X037475Y019869D01*
X037469Y019903D01*
X037467Y019937D01*
X038975Y011008D02*
X038977Y011042D01*
X038983Y011076D01*
X038993Y011109D01*
X039006Y011140D01*
X039024Y011170D01*
X039044Y011198D01*
X039068Y011223D01*
X039094Y011245D01*
X039122Y011263D01*
X039153Y011279D01*
X039185Y011291D01*
X039219Y011299D01*
X039253Y011303D01*
X039287Y011303D01*
X039321Y011299D01*
X039355Y011291D01*
X039387Y011279D01*
X039417Y011263D01*
X039446Y011245D01*
X039472Y011223D01*
X039496Y011198D01*
X039516Y011170D01*
X039534Y011140D01*
X039547Y011109D01*
X039557Y011076D01*
X039563Y011042D01*
X039565Y011008D01*
X039563Y010974D01*
X039557Y010940D01*
X039547Y010907D01*
X039534Y010876D01*
X039516Y010846D01*
X039496Y010818D01*
X039472Y010793D01*
X039446Y010771D01*
X039418Y010753D01*
X039387Y010737D01*
X039355Y010725D01*
X039321Y010717D01*
X039287Y010713D01*
X039253Y010713D01*
X039219Y010717D01*
X039185Y010725D01*
X039153Y010737D01*
X039122Y010753D01*
X039094Y010771D01*
X039068Y010793D01*
X039044Y010818D01*
X039024Y010846D01*
X039006Y010876D01*
X038993Y010907D01*
X038983Y010940D01*
X038977Y010974D01*
X038975Y011008D01*
X037007Y009039D02*
X037009Y009073D01*
X037015Y009107D01*
X037025Y009140D01*
X037038Y009171D01*
X037056Y009201D01*
X037076Y009229D01*
X037100Y009254D01*
X037126Y009276D01*
X037154Y009294D01*
X037185Y009310D01*
X037217Y009322D01*
X037251Y009330D01*
X037285Y009334D01*
X037319Y009334D01*
X037353Y009330D01*
X037387Y009322D01*
X037419Y009310D01*
X037449Y009294D01*
X037478Y009276D01*
X037504Y009254D01*
X037528Y009229D01*
X037548Y009201D01*
X037566Y009171D01*
X037579Y009140D01*
X037589Y009107D01*
X037595Y009073D01*
X037597Y009039D01*
X037595Y009005D01*
X037589Y008971D01*
X037579Y008938D01*
X037566Y008907D01*
X037548Y008877D01*
X037528Y008849D01*
X037504Y008824D01*
X037478Y008802D01*
X037450Y008784D01*
X037419Y008768D01*
X037387Y008756D01*
X037353Y008748D01*
X037319Y008744D01*
X037285Y008744D01*
X037251Y008748D01*
X037217Y008756D01*
X037185Y008768D01*
X037154Y008784D01*
X037126Y008802D01*
X037100Y008824D01*
X037076Y008849D01*
X037056Y008877D01*
X037038Y008907D01*
X037025Y008938D01*
X037015Y008971D01*
X037009Y009005D01*
X037007Y009039D01*
X038975Y007071D02*
X038977Y007105D01*
X038983Y007139D01*
X038993Y007172D01*
X039006Y007203D01*
X039024Y007233D01*
X039044Y007261D01*
X039068Y007286D01*
X039094Y007308D01*
X039122Y007326D01*
X039153Y007342D01*
X039185Y007354D01*
X039219Y007362D01*
X039253Y007366D01*
X039287Y007366D01*
X039321Y007362D01*
X039355Y007354D01*
X039387Y007342D01*
X039417Y007326D01*
X039446Y007308D01*
X039472Y007286D01*
X039496Y007261D01*
X039516Y007233D01*
X039534Y007203D01*
X039547Y007172D01*
X039557Y007139D01*
X039563Y007105D01*
X039565Y007071D01*
X039563Y007037D01*
X039557Y007003D01*
X039547Y006970D01*
X039534Y006939D01*
X039516Y006909D01*
X039496Y006881D01*
X039472Y006856D01*
X039446Y006834D01*
X039418Y006816D01*
X039387Y006800D01*
X039355Y006788D01*
X039321Y006780D01*
X039287Y006776D01*
X039253Y006776D01*
X039219Y006780D01*
X039185Y006788D01*
X039153Y006800D01*
X039122Y006816D01*
X039094Y006834D01*
X039068Y006856D01*
X039044Y006881D01*
X039024Y006909D01*
X039006Y006939D01*
X038993Y006970D01*
X038983Y007003D01*
X038977Y007037D01*
X038975Y007071D01*
D16*
X031833Y006500D03*
X001833Y020000D03*
D17*
X018833Y010500D03*
X017833Y009500D03*
X017833Y008500D03*
X019833Y008500D03*
X020833Y009500D03*
X021833Y010500D03*
X022833Y011500D03*
X023833Y012500D03*
X024833Y012000D03*
X023833Y013500D03*
X020833Y013500D03*
X020833Y012500D03*
X019833Y011500D03*
X024833Y009000D03*
X027833Y009000D03*
X027833Y012000D03*
X028333Y013000D03*
X028333Y016000D03*
X019833Y005500D03*
X017833Y005500D03*
D18*
X008885Y007500D03*
X007782Y007500D03*
D19*
X025333Y015500D03*
X033333Y015000D03*
X035833Y015000D03*
X038333Y014000D03*
X034833Y007500D03*
D20*
X033833Y007500D03*
X033333Y014000D03*
X035833Y014000D03*
X038333Y015000D03*
X025333Y014500D03*
D21*
X026833Y013500D03*
X026833Y015500D03*
X026833Y011000D03*
X025833Y011000D03*
X026333Y010250D03*
D22*
X025833Y017000D03*
D23*
X028033Y017000D03*
X023633Y017000D03*
X025833Y020000D03*
D24*
X035794Y019937D03*
X039270Y009039D03*
D25*
X037302Y008094D03*
X037302Y007031D03*
X037302Y009984D03*
X037302Y011047D03*
X037802Y017969D03*
X036739Y017969D03*
X034849Y017969D03*
X033786Y017969D03*
D26*
X029333Y013500D02*
X027833Y015000D01*
X026833Y016500D01*
X026833Y018000D01*
X024833Y018000D01*
X025833Y017000D02*
X025833Y015500D01*
X026833Y015500D01*
X025833Y015500D02*
X025333Y015500D01*
X025333Y014500D02*
X026833Y013500D01*
X027833Y012000D01*
X028333Y013000D01*
X029333Y013500D02*
X029333Y011000D01*
X028333Y010500D02*
X028333Y010000D01*
X029333Y010000D01*
X028333Y010500D02*
X022333Y016500D01*
X022333Y018500D01*
X015833Y018500D01*
X015833Y018000D01*
X014833Y017827D02*
X014640Y017827D01*
X016833Y018000D02*
X016833Y017000D01*
X016833Y008000D01*
X011833Y008000D01*
X011833Y008606D01*
X012042Y009106D01*
X011089Y009106D02*
X011089Y009000D01*
X010833Y009500D01*
X010833Y011500D01*
X008333Y011500D02*
X008333Y009106D01*
X008432Y009106D01*
X007841Y009106D02*
X007841Y007500D01*
X007782Y007500D01*
X008885Y007500D02*
X009333Y007500D01*
X010605Y007500D02*
X010105Y009106D01*
X007841Y009106D02*
X007833Y009106D01*
X007833Y011500D01*
X007152Y009106D02*
X006833Y008606D01*
X006833Y006500D01*
X018833Y006500D01*
X019833Y005500D01*
X017833Y005500D02*
X005833Y005500D01*
X005833Y008606D01*
X006168Y009106D01*
X010605Y007500D02*
X018833Y007500D01*
X018833Y010500D01*
X018833Y017000D01*
X017833Y017000D02*
X017833Y009500D01*
X017833Y008500D01*
X019833Y008500D02*
X019833Y011500D01*
X019833Y012500D01*
X020833Y012500D02*
X021833Y012500D01*
X021833Y018000D01*
X016833Y018000D01*
X019833Y017000D02*
X019833Y011500D01*
X020833Y013500D02*
X020833Y017000D01*
X020833Y020000D02*
X022833Y020000D01*
X015833Y020000D02*
X014833Y020000D01*
X023833Y013500D02*
X024833Y013000D01*
X024833Y012000D01*
X026333Y011500D01*
X026333Y010250D01*
X026833Y011000D02*
X027333Y009500D01*
X027833Y009000D01*
D27*
X029333Y008000D02*
X023333Y008000D01*
X023333Y009500D01*
X023333Y010500D01*
X023333Y011000D01*
X023333Y011500D01*
X023333Y012500D01*
X028333Y016000D02*
X028833Y017000D01*
X028833Y019000D01*
X025833Y019000D01*
X025833Y020000D01*
X025833Y019000D02*
X023333Y019000D01*
X023333Y017000D01*
X023633Y017000D01*
X023333Y019000D02*
X014833Y019000D01*
X014833Y017827D01*
X014640Y017827D02*
X013333Y017827D01*
X013333Y011500D01*
X010833Y011500D01*
X008333Y011500D01*
X007833Y011500D01*
X004333Y011500D01*
X004333Y017374D01*
X003026Y017374D01*
X022333Y007000D02*
X023333Y008000D01*
X029333Y008000D02*
X030333Y009500D01*
X030333Y017000D01*
X029833Y018000D01*
X029833Y019000D01*
X028833Y019000D02*
X028833Y020500D01*
X030833Y020500D01*
X030833Y019000D02*
X030833Y018000D01*
X031333Y017000D01*
X031333Y008500D01*
X030333Y007500D01*
X030333Y005500D01*
X037833Y005500D01*
X038333Y006000D01*
X038333Y008602D01*
X039270Y009039D01*
X028833Y017000D02*
X028033Y017000D01*
X038833Y020000D02*
X039333Y020000D01*
D28*
X038833Y020000D02*
X038833Y020500D01*
X039333Y019000D02*
X032833Y019000D01*
X032833Y016500D01*
X032333Y016000D01*
X032333Y008500D01*
X033333Y007500D01*
X033833Y007500D01*
X034833Y007500D02*
X036302Y007500D01*
X037302Y007031D01*
X033333Y010000D02*
X035833Y012000D01*
X035833Y014000D01*
X035833Y015000D02*
X037833Y017000D01*
X037833Y017969D01*
X037802Y017969D01*
X039333Y018000D02*
X039333Y016000D01*
X038333Y015000D01*
X038333Y014000D02*
X038333Y012547D01*
X037302Y011047D01*
X033333Y011000D02*
X033333Y014000D01*
X033333Y015000D02*
X033833Y015469D01*
X033786Y017969D01*
X030833Y019000D02*
X030833Y020500D01*
X035794Y019937D02*
X035833Y019937D01*
X035833Y020500D01*
X023833Y012500D02*
X023333Y012500D01*
X023333Y011500D02*
X022833Y011500D01*
X023333Y011000D02*
X024833Y011000D01*
X024833Y009000D01*
X023333Y009500D02*
X020833Y009500D01*
X021833Y010500D02*
X023333Y010500D01*
X024833Y011000D02*
X025833Y011000D01*
X022333Y007000D02*
X009333Y007000D01*
X009333Y007500D01*
X009333Y008606D01*
X009121Y009106D01*
D29*
X015833Y018000D03*
X014833Y020000D03*
X022833Y020000D03*
X024833Y018000D03*
X029333Y011000D03*
X029333Y010000D03*
X033333Y010000D03*
X033333Y011000D03*
M02*
