G75*
%MOIN*%
%OFA0B0*%
%FSLAX24Y24*%
%IPPOS*%
%LPD*%
%AMOC8*
5,1,8,0,0,1.08239X$1,22.5*
%
%ADD10C,0.0100*%
%ADD11C,0.0000*%
D10*
X000833Y004500D02*
X000833Y020996D01*
X040203Y020996D01*
X040203Y004500D01*
X000833Y004500D01*
D11*
X003828Y018673D02*
X003830Y018708D01*
X003836Y018742D01*
X003846Y018775D01*
X003859Y018808D01*
X003876Y018838D01*
X003897Y018866D01*
X003920Y018892D01*
X003947Y018915D01*
X003975Y018934D01*
X004006Y018950D01*
X004039Y018963D01*
X004072Y018972D01*
X004107Y018977D01*
X004142Y018978D01*
X004176Y018975D01*
X004211Y018968D01*
X004244Y018957D01*
X004275Y018943D01*
X004305Y018925D01*
X004333Y018904D01*
X004358Y018879D01*
X004380Y018852D01*
X004399Y018823D01*
X004414Y018792D01*
X004426Y018759D01*
X004434Y018725D01*
X004438Y018690D01*
X004438Y018656D01*
X004434Y018621D01*
X004426Y018587D01*
X004414Y018554D01*
X004399Y018523D01*
X004380Y018494D01*
X004358Y018467D01*
X004333Y018442D01*
X004305Y018421D01*
X004275Y018403D01*
X004244Y018389D01*
X004211Y018378D01*
X004176Y018371D01*
X004142Y018368D01*
X004107Y018369D01*
X004072Y018374D01*
X004039Y018383D01*
X004006Y018396D01*
X003975Y018412D01*
X003947Y018431D01*
X003920Y018454D01*
X003897Y018480D01*
X003876Y018508D01*
X003859Y018538D01*
X003846Y018571D01*
X003836Y018604D01*
X003830Y018638D01*
X003828Y018673D01*
X013379Y018673D02*
X013381Y018708D01*
X013387Y018742D01*
X013397Y018775D01*
X013410Y018808D01*
X013427Y018838D01*
X013448Y018866D01*
X013471Y018892D01*
X013498Y018915D01*
X013526Y018934D01*
X013557Y018950D01*
X013590Y018963D01*
X013623Y018972D01*
X013658Y018977D01*
X013693Y018978D01*
X013727Y018975D01*
X013762Y018968D01*
X013795Y018957D01*
X013826Y018943D01*
X013856Y018925D01*
X013884Y018904D01*
X013909Y018879D01*
X013931Y018852D01*
X013950Y018823D01*
X013965Y018792D01*
X013977Y018759D01*
X013985Y018725D01*
X013989Y018690D01*
X013989Y018656D01*
X013985Y018621D01*
X013977Y018587D01*
X013965Y018554D01*
X013950Y018523D01*
X013931Y018494D01*
X013909Y018467D01*
X013884Y018442D01*
X013856Y018421D01*
X013826Y018403D01*
X013795Y018389D01*
X013762Y018378D01*
X013727Y018371D01*
X013693Y018368D01*
X013658Y018369D01*
X013623Y018374D01*
X013590Y018383D01*
X013557Y018396D01*
X013526Y018412D01*
X013498Y018431D01*
X013471Y018454D01*
X013448Y018480D01*
X013427Y018508D01*
X013410Y018538D01*
X013397Y018571D01*
X013387Y018604D01*
X013381Y018638D01*
X013379Y018673D01*
X033530Y019937D02*
X033532Y019971D01*
X033538Y020005D01*
X033548Y020038D01*
X033561Y020069D01*
X033579Y020099D01*
X033599Y020127D01*
X033623Y020152D01*
X033649Y020174D01*
X033677Y020192D01*
X033708Y020208D01*
X033740Y020220D01*
X033774Y020228D01*
X033808Y020232D01*
X033842Y020232D01*
X033876Y020228D01*
X033910Y020220D01*
X033942Y020208D01*
X033972Y020192D01*
X034001Y020174D01*
X034027Y020152D01*
X034051Y020127D01*
X034071Y020099D01*
X034089Y020069D01*
X034102Y020038D01*
X034112Y020005D01*
X034118Y019971D01*
X034120Y019937D01*
X034118Y019903D01*
X034112Y019869D01*
X034102Y019836D01*
X034089Y019805D01*
X034071Y019775D01*
X034051Y019747D01*
X034027Y019722D01*
X034001Y019700D01*
X033973Y019682D01*
X033942Y019666D01*
X033910Y019654D01*
X033876Y019646D01*
X033842Y019642D01*
X033808Y019642D01*
X033774Y019646D01*
X033740Y019654D01*
X033708Y019666D01*
X033677Y019682D01*
X033649Y019700D01*
X033623Y019722D01*
X033599Y019747D01*
X033579Y019775D01*
X033561Y019805D01*
X033548Y019836D01*
X033538Y019869D01*
X033532Y019903D01*
X033530Y019937D01*
X035499Y017969D02*
X035501Y018003D01*
X035507Y018037D01*
X035517Y018070D01*
X035530Y018101D01*
X035548Y018131D01*
X035568Y018159D01*
X035592Y018184D01*
X035618Y018206D01*
X035646Y018224D01*
X035677Y018240D01*
X035709Y018252D01*
X035743Y018260D01*
X035777Y018264D01*
X035811Y018264D01*
X035845Y018260D01*
X035879Y018252D01*
X035911Y018240D01*
X035941Y018224D01*
X035970Y018206D01*
X035996Y018184D01*
X036020Y018159D01*
X036040Y018131D01*
X036058Y018101D01*
X036071Y018070D01*
X036081Y018037D01*
X036087Y018003D01*
X036089Y017969D01*
X036087Y017935D01*
X036081Y017901D01*
X036071Y017868D01*
X036058Y017837D01*
X036040Y017807D01*
X036020Y017779D01*
X035996Y017754D01*
X035970Y017732D01*
X035942Y017714D01*
X035911Y017698D01*
X035879Y017686D01*
X035845Y017678D01*
X035811Y017674D01*
X035777Y017674D01*
X035743Y017678D01*
X035709Y017686D01*
X035677Y017698D01*
X035646Y017714D01*
X035618Y017732D01*
X035592Y017754D01*
X035568Y017779D01*
X035548Y017807D01*
X035530Y017837D01*
X035517Y017868D01*
X035507Y017901D01*
X035501Y017935D01*
X035499Y017969D01*
X037467Y019937D02*
X037469Y019971D01*
X037475Y020005D01*
X037485Y020038D01*
X037498Y020069D01*
X037516Y020099D01*
X037536Y020127D01*
X037560Y020152D01*
X037586Y020174D01*
X037614Y020192D01*
X037645Y020208D01*
X037677Y020220D01*
X037711Y020228D01*
X037745Y020232D01*
X037779Y020232D01*
X037813Y020228D01*
X037847Y020220D01*
X037879Y020208D01*
X037909Y020192D01*
X037938Y020174D01*
X037964Y020152D01*
X037988Y020127D01*
X038008Y020099D01*
X038026Y020069D01*
X038039Y020038D01*
X038049Y020005D01*
X038055Y019971D01*
X038057Y019937D01*
X038055Y019903D01*
X038049Y019869D01*
X038039Y019836D01*
X038026Y019805D01*
X038008Y019775D01*
X037988Y019747D01*
X037964Y019722D01*
X037938Y019700D01*
X037910Y019682D01*
X037879Y019666D01*
X037847Y019654D01*
X037813Y019646D01*
X037779Y019642D01*
X037745Y019642D01*
X037711Y019646D01*
X037677Y019654D01*
X037645Y019666D01*
X037614Y019682D01*
X037586Y019700D01*
X037560Y019722D01*
X037536Y019747D01*
X037516Y019775D01*
X037498Y019805D01*
X037485Y019836D01*
X037475Y019869D01*
X037469Y019903D01*
X037467Y019937D01*
X038975Y011008D02*
X038977Y011042D01*
X038983Y011076D01*
X038993Y011109D01*
X039006Y011140D01*
X039024Y011170D01*
X039044Y011198D01*
X039068Y011223D01*
X039094Y011245D01*
X039122Y011263D01*
X039153Y011279D01*
X039185Y011291D01*
X039219Y011299D01*
X039253Y011303D01*
X039287Y011303D01*
X039321Y011299D01*
X039355Y011291D01*
X039387Y011279D01*
X039417Y011263D01*
X039446Y011245D01*
X039472Y011223D01*
X039496Y011198D01*
X039516Y011170D01*
X039534Y011140D01*
X039547Y011109D01*
X039557Y011076D01*
X039563Y011042D01*
X039565Y011008D01*
X039563Y010974D01*
X039557Y010940D01*
X039547Y010907D01*
X039534Y010876D01*
X039516Y010846D01*
X039496Y010818D01*
X039472Y010793D01*
X039446Y010771D01*
X039418Y010753D01*
X039387Y010737D01*
X039355Y010725D01*
X039321Y010717D01*
X039287Y010713D01*
X039253Y010713D01*
X039219Y010717D01*
X039185Y010725D01*
X039153Y010737D01*
X039122Y010753D01*
X039094Y010771D01*
X039068Y010793D01*
X039044Y010818D01*
X039024Y010846D01*
X039006Y010876D01*
X038993Y010907D01*
X038983Y010940D01*
X038977Y010974D01*
X038975Y011008D01*
X037007Y009039D02*
X037009Y009073D01*
X037015Y009107D01*
X037025Y009140D01*
X037038Y009171D01*
X037056Y009201D01*
X037076Y009229D01*
X037100Y009254D01*
X037126Y009276D01*
X037154Y009294D01*
X037185Y009310D01*
X037217Y009322D01*
X037251Y009330D01*
X037285Y009334D01*
X037319Y009334D01*
X037353Y009330D01*
X037387Y009322D01*
X037419Y009310D01*
X037449Y009294D01*
X037478Y009276D01*
X037504Y009254D01*
X037528Y009229D01*
X037548Y009201D01*
X037566Y009171D01*
X037579Y009140D01*
X037589Y009107D01*
X037595Y009073D01*
X037597Y009039D01*
X037595Y009005D01*
X037589Y008971D01*
X037579Y008938D01*
X037566Y008907D01*
X037548Y008877D01*
X037528Y008849D01*
X037504Y008824D01*
X037478Y008802D01*
X037450Y008784D01*
X037419Y008768D01*
X037387Y008756D01*
X037353Y008748D01*
X037319Y008744D01*
X037285Y008744D01*
X037251Y008748D01*
X037217Y008756D01*
X037185Y008768D01*
X037154Y008784D01*
X037126Y008802D01*
X037100Y008824D01*
X037076Y008849D01*
X037056Y008877D01*
X037038Y008907D01*
X037025Y008938D01*
X037015Y008971D01*
X037009Y009005D01*
X037007Y009039D01*
X038975Y007071D02*
X038977Y007105D01*
X038983Y007139D01*
X038993Y007172D01*
X039006Y007203D01*
X039024Y007233D01*
X039044Y007261D01*
X039068Y007286D01*
X039094Y007308D01*
X039122Y007326D01*
X039153Y007342D01*
X039185Y007354D01*
X039219Y007362D01*
X039253Y007366D01*
X039287Y007366D01*
X039321Y007362D01*
X039355Y007354D01*
X039387Y007342D01*
X039417Y007326D01*
X039446Y007308D01*
X039472Y007286D01*
X039496Y007261D01*
X039516Y007233D01*
X039534Y007203D01*
X039547Y007172D01*
X039557Y007139D01*
X039563Y007105D01*
X039565Y007071D01*
X039563Y007037D01*
X039557Y007003D01*
X039547Y006970D01*
X039534Y006939D01*
X039516Y006909D01*
X039496Y006881D01*
X039472Y006856D01*
X039446Y006834D01*
X039418Y006816D01*
X039387Y006800D01*
X039355Y006788D01*
X039321Y006780D01*
X039287Y006776D01*
X039253Y006776D01*
X039219Y006780D01*
X039185Y006788D01*
X039153Y006800D01*
X039122Y006816D01*
X039094Y006834D01*
X039068Y006856D01*
X039044Y006881D01*
X039024Y006909D01*
X039006Y006939D01*
X038993Y006970D01*
X038983Y007003D01*
X038977Y007037D01*
X038975Y007071D01*
M02*
