G75*
%MOIN*%
%OFA0B0*%
%FSLAX24Y24*%
%IPPOS*%
%LPD*%
%AMOC8*
5,1,8,0,0,1.08239X$1,22.5*
%
%ADD10C,0.0100*%
%ADD11C,0.0060*%
%ADD12C,0.0040*%
%ADD13C,0.0030*%
%ADD14C,0.0050*%
%ADD15C,0.0000*%
%ADD16C,0.0010*%
%ADD17C,0.0080*%
%ADD18C,0.0020*%
%ADD19C,0.0120*%
%ADD20C,0.0240*%
D10*
X000833Y004500D02*
X000833Y020996D01*
X040203Y020996D01*
X040203Y004500D01*
X000833Y004500D01*
X003157Y009463D02*
X003157Y011563D01*
X003157Y009463D02*
X004889Y009463D01*
X014439Y009463D02*
X014474Y009463D01*
X014474Y011563D01*
X003196Y018102D02*
X003196Y020873D01*
X003755Y020878D01*
X014089Y020873D02*
X014474Y020873D01*
X014474Y018559D01*
D11*
X015583Y019500D02*
X016083Y019500D01*
X016333Y019750D01*
X016583Y019500D01*
X017083Y019500D01*
X017333Y019750D01*
X017333Y020250D01*
X017083Y020500D01*
X016583Y020500D01*
X016333Y020250D01*
X016333Y019750D01*
X015583Y019500D02*
X015333Y019750D01*
X015333Y020250D01*
X015583Y020500D01*
X016083Y020500D01*
X016333Y020250D01*
X017333Y020250D02*
X017583Y020500D01*
X018083Y020500D01*
X018333Y020250D01*
X018583Y020500D01*
X019083Y020500D01*
X019333Y020250D01*
X019583Y020500D01*
X020083Y020500D01*
X020333Y020250D01*
X020583Y020500D01*
X021083Y020500D01*
X021333Y020250D01*
X021333Y019750D01*
X021083Y019500D01*
X020583Y019500D01*
X020333Y019750D01*
X020083Y019500D01*
X019583Y019500D01*
X019333Y019750D01*
X019083Y019500D01*
X018583Y019500D01*
X018333Y019750D01*
X018083Y019500D01*
X017583Y019500D01*
X017333Y019750D01*
X018333Y019750D02*
X018333Y020250D01*
X019333Y020250D02*
X019333Y019750D01*
X020333Y019750D02*
X020333Y020250D01*
X023933Y020000D02*
X024933Y020000D01*
X024983Y020300D02*
X024183Y020300D01*
X024183Y022450D01*
X024333Y022450D02*
X027333Y022450D01*
X027483Y022450D02*
X027481Y022476D01*
X027476Y022502D01*
X027468Y022527D01*
X027456Y022550D01*
X027442Y022572D01*
X027424Y022591D01*
X027405Y022609D01*
X027383Y022623D01*
X027360Y022635D01*
X027335Y022643D01*
X027309Y022648D01*
X027283Y022650D01*
X027033Y022650D01*
X027033Y022700D01*
X024633Y022700D01*
X024633Y022650D01*
X027033Y022650D01*
X027483Y022450D02*
X027483Y020300D01*
X026683Y020300D01*
X026833Y020550D02*
X026833Y021100D01*
X027033Y021550D02*
X027033Y020550D01*
X027233Y020550D02*
X027233Y022200D01*
X024633Y022650D02*
X024383Y022650D01*
X024357Y022648D01*
X024331Y022643D01*
X024306Y022635D01*
X024283Y022623D01*
X024261Y022609D01*
X024242Y022591D01*
X024224Y022572D01*
X024210Y022550D01*
X024198Y022527D01*
X024190Y022502D01*
X024185Y022476D01*
X024183Y022450D01*
X024433Y022200D02*
X024433Y020550D01*
X024633Y020550D02*
X024633Y021550D01*
X024833Y021100D02*
X024833Y020550D01*
X024183Y020300D02*
X024181Y020274D01*
X024176Y020248D01*
X024168Y020223D01*
X024156Y020200D01*
X024142Y020178D01*
X024124Y020159D01*
X024105Y020141D01*
X024083Y020127D01*
X024060Y020115D01*
X024035Y020107D01*
X024009Y020102D01*
X023983Y020100D01*
X025283Y019350D02*
X025283Y017000D01*
X026383Y017000D02*
X026383Y019350D01*
X026733Y020000D02*
X027733Y020000D01*
X027683Y020100D02*
X027657Y020102D01*
X027631Y020107D01*
X027606Y020115D01*
X027583Y020127D01*
X027561Y020141D01*
X027542Y020159D01*
X027524Y020178D01*
X027510Y020200D01*
X027498Y020223D01*
X027490Y020248D01*
X027485Y020274D01*
X027483Y020300D01*
X029333Y019250D02*
X029583Y019500D01*
X030083Y019500D01*
X030333Y019250D01*
X030583Y019500D01*
X031083Y019500D01*
X031333Y019250D01*
X031583Y019500D01*
X032083Y019500D01*
X032333Y019250D01*
X032333Y018750D01*
X032083Y018500D01*
X031583Y018500D01*
X031333Y018750D01*
X031083Y018500D01*
X030583Y018500D01*
X030333Y018750D01*
X030083Y018500D01*
X029583Y018500D01*
X029333Y018750D01*
X029333Y019250D01*
X030333Y019250D02*
X030333Y018750D01*
X031333Y018750D02*
X031333Y019250D01*
X033415Y019069D02*
X033415Y021083D01*
X034594Y021083D01*
X036994Y021083D01*
X038173Y021083D01*
X038173Y017219D01*
X038833Y017750D02*
X039083Y017500D01*
X039583Y017500D01*
X039833Y017750D01*
X039833Y018250D01*
X039583Y018500D01*
X039083Y018500D01*
X038833Y018250D01*
X038833Y017750D01*
X039083Y018500D02*
X038833Y018750D01*
X038833Y019250D01*
X039083Y019500D01*
X038833Y019750D01*
X038833Y020250D01*
X039083Y020500D01*
X039583Y020500D01*
X039833Y020250D01*
X039833Y019750D01*
X039583Y019500D01*
X039833Y019250D01*
X039833Y018750D01*
X039583Y018500D01*
X039583Y019500D02*
X039083Y019500D01*
X036994Y021083D02*
X036994Y022165D01*
X034594Y022165D01*
X034794Y022365D01*
X036794Y022365D01*
X036994Y022165D01*
X034594Y022165D02*
X034594Y021083D01*
X033415Y018219D02*
X033415Y016468D01*
X038173Y016468D01*
X038173Y016469D01*
X038333Y015550D02*
X038333Y015350D01*
X038233Y015450D02*
X038433Y015450D01*
X037233Y014500D02*
X037235Y014566D01*
X037241Y014631D01*
X037251Y014696D01*
X037264Y014761D01*
X037282Y014824D01*
X037303Y014887D01*
X037328Y014947D01*
X037357Y015007D01*
X037389Y015064D01*
X037424Y015120D01*
X037463Y015173D01*
X037505Y015224D01*
X037549Y015272D01*
X037597Y015317D01*
X037647Y015360D01*
X037700Y015399D01*
X037755Y015436D01*
X037812Y015469D01*
X037871Y015498D01*
X037931Y015524D01*
X037993Y015546D01*
X038056Y015565D01*
X038120Y015579D01*
X038185Y015590D01*
X038251Y015597D01*
X038317Y015600D01*
X038382Y015599D01*
X038448Y015594D01*
X038513Y015585D01*
X038578Y015572D01*
X038641Y015556D01*
X038704Y015536D01*
X038765Y015511D01*
X038825Y015484D01*
X038883Y015453D01*
X038939Y015418D01*
X038993Y015380D01*
X039044Y015339D01*
X039093Y015295D01*
X039139Y015248D01*
X039183Y015199D01*
X039223Y015147D01*
X039260Y015092D01*
X039294Y015036D01*
X039324Y014977D01*
X039351Y014917D01*
X039374Y014856D01*
X039393Y014793D01*
X039409Y014729D01*
X039421Y014664D01*
X039429Y014599D01*
X039433Y014533D01*
X039433Y014467D01*
X039429Y014401D01*
X039421Y014336D01*
X039409Y014271D01*
X039393Y014207D01*
X039374Y014144D01*
X039351Y014083D01*
X039324Y014023D01*
X039294Y013964D01*
X039260Y013908D01*
X039223Y013853D01*
X039183Y013801D01*
X039139Y013752D01*
X039093Y013705D01*
X039044Y013661D01*
X038993Y013620D01*
X038939Y013582D01*
X038883Y013547D01*
X038825Y013516D01*
X038765Y013489D01*
X038704Y013464D01*
X038641Y013444D01*
X038578Y013428D01*
X038513Y013415D01*
X038448Y013406D01*
X038382Y013401D01*
X038317Y013400D01*
X038251Y013403D01*
X038185Y013410D01*
X038120Y013421D01*
X038056Y013435D01*
X037993Y013454D01*
X037931Y013476D01*
X037871Y013502D01*
X037812Y013531D01*
X037755Y013564D01*
X037700Y013601D01*
X037647Y013640D01*
X037597Y013683D01*
X037549Y013728D01*
X037505Y013776D01*
X037463Y013827D01*
X037424Y013880D01*
X037389Y013936D01*
X037357Y013993D01*
X037328Y014053D01*
X037303Y014113D01*
X037282Y014176D01*
X037264Y014239D01*
X037251Y014304D01*
X037241Y014369D01*
X037235Y014434D01*
X037233Y014500D01*
X034733Y014500D02*
X034735Y014566D01*
X034741Y014631D01*
X034751Y014696D01*
X034764Y014761D01*
X034782Y014824D01*
X034803Y014887D01*
X034828Y014947D01*
X034857Y015007D01*
X034889Y015064D01*
X034924Y015120D01*
X034963Y015173D01*
X035005Y015224D01*
X035049Y015272D01*
X035097Y015317D01*
X035147Y015360D01*
X035200Y015399D01*
X035255Y015436D01*
X035312Y015469D01*
X035371Y015498D01*
X035431Y015524D01*
X035493Y015546D01*
X035556Y015565D01*
X035620Y015579D01*
X035685Y015590D01*
X035751Y015597D01*
X035817Y015600D01*
X035882Y015599D01*
X035948Y015594D01*
X036013Y015585D01*
X036078Y015572D01*
X036141Y015556D01*
X036204Y015536D01*
X036265Y015511D01*
X036325Y015484D01*
X036383Y015453D01*
X036439Y015418D01*
X036493Y015380D01*
X036544Y015339D01*
X036593Y015295D01*
X036639Y015248D01*
X036683Y015199D01*
X036723Y015147D01*
X036760Y015092D01*
X036794Y015036D01*
X036824Y014977D01*
X036851Y014917D01*
X036874Y014856D01*
X036893Y014793D01*
X036909Y014729D01*
X036921Y014664D01*
X036929Y014599D01*
X036933Y014533D01*
X036933Y014467D01*
X036929Y014401D01*
X036921Y014336D01*
X036909Y014271D01*
X036893Y014207D01*
X036874Y014144D01*
X036851Y014083D01*
X036824Y014023D01*
X036794Y013964D01*
X036760Y013908D01*
X036723Y013853D01*
X036683Y013801D01*
X036639Y013752D01*
X036593Y013705D01*
X036544Y013661D01*
X036493Y013620D01*
X036439Y013582D01*
X036383Y013547D01*
X036325Y013516D01*
X036265Y013489D01*
X036204Y013464D01*
X036141Y013444D01*
X036078Y013428D01*
X036013Y013415D01*
X035948Y013406D01*
X035882Y013401D01*
X035817Y013400D01*
X035751Y013403D01*
X035685Y013410D01*
X035620Y013421D01*
X035556Y013435D01*
X035493Y013454D01*
X035431Y013476D01*
X035371Y013502D01*
X035312Y013531D01*
X035255Y013564D01*
X035200Y013601D01*
X035147Y013640D01*
X035097Y013683D01*
X035049Y013728D01*
X035005Y013776D01*
X034963Y013827D01*
X034924Y013880D01*
X034889Y013936D01*
X034857Y013993D01*
X034828Y014053D01*
X034803Y014113D01*
X034782Y014176D01*
X034764Y014239D01*
X034751Y014304D01*
X034741Y014369D01*
X034735Y014434D01*
X034733Y014500D01*
X032233Y014500D02*
X032235Y014566D01*
X032241Y014631D01*
X032251Y014696D01*
X032264Y014761D01*
X032282Y014824D01*
X032303Y014887D01*
X032328Y014947D01*
X032357Y015007D01*
X032389Y015064D01*
X032424Y015120D01*
X032463Y015173D01*
X032505Y015224D01*
X032549Y015272D01*
X032597Y015317D01*
X032647Y015360D01*
X032700Y015399D01*
X032755Y015436D01*
X032812Y015469D01*
X032871Y015498D01*
X032931Y015524D01*
X032993Y015546D01*
X033056Y015565D01*
X033120Y015579D01*
X033185Y015590D01*
X033251Y015597D01*
X033317Y015600D01*
X033382Y015599D01*
X033448Y015594D01*
X033513Y015585D01*
X033578Y015572D01*
X033641Y015556D01*
X033704Y015536D01*
X033765Y015511D01*
X033825Y015484D01*
X033883Y015453D01*
X033939Y015418D01*
X033993Y015380D01*
X034044Y015339D01*
X034093Y015295D01*
X034139Y015248D01*
X034183Y015199D01*
X034223Y015147D01*
X034260Y015092D01*
X034294Y015036D01*
X034324Y014977D01*
X034351Y014917D01*
X034374Y014856D01*
X034393Y014793D01*
X034409Y014729D01*
X034421Y014664D01*
X034429Y014599D01*
X034433Y014533D01*
X034433Y014467D01*
X034429Y014401D01*
X034421Y014336D01*
X034409Y014271D01*
X034393Y014207D01*
X034374Y014144D01*
X034351Y014083D01*
X034324Y014023D01*
X034294Y013964D01*
X034260Y013908D01*
X034223Y013853D01*
X034183Y013801D01*
X034139Y013752D01*
X034093Y013705D01*
X034044Y013661D01*
X033993Y013620D01*
X033939Y013582D01*
X033883Y013547D01*
X033825Y013516D01*
X033765Y013489D01*
X033704Y013464D01*
X033641Y013444D01*
X033578Y013428D01*
X033513Y013415D01*
X033448Y013406D01*
X033382Y013401D01*
X033317Y013400D01*
X033251Y013403D01*
X033185Y013410D01*
X033120Y013421D01*
X033056Y013435D01*
X032993Y013454D01*
X032931Y013476D01*
X032871Y013502D01*
X032812Y013531D01*
X032755Y013564D01*
X032700Y013601D01*
X032647Y013640D01*
X032597Y013683D01*
X032549Y013728D01*
X032505Y013776D01*
X032463Y013827D01*
X032424Y013880D01*
X032389Y013936D01*
X032357Y013993D01*
X032328Y014053D01*
X032303Y014113D01*
X032282Y014176D01*
X032264Y014239D01*
X032251Y014304D01*
X032241Y014369D01*
X032235Y014434D01*
X032233Y014500D01*
X033233Y013550D02*
X033433Y013550D01*
X033333Y013650D02*
X033333Y013450D01*
X035733Y013550D02*
X035933Y013550D01*
X035833Y013650D02*
X035833Y013450D01*
X035801Y011418D02*
X037552Y011418D01*
X038402Y011418D02*
X040417Y011418D01*
X040417Y010239D01*
X040417Y007839D01*
X040417Y006661D01*
X036552Y006661D01*
X035802Y006661D02*
X035801Y006661D01*
X035801Y011418D01*
X040417Y010239D02*
X041499Y010239D01*
X041499Y007839D01*
X041699Y008039D01*
X041699Y010039D01*
X041499Y010239D01*
X041499Y007839D02*
X040417Y007839D01*
X033233Y007500D02*
X033235Y007566D01*
X033241Y007631D01*
X033251Y007696D01*
X033264Y007761D01*
X033282Y007824D01*
X033303Y007887D01*
X033328Y007947D01*
X033357Y008007D01*
X033389Y008064D01*
X033424Y008120D01*
X033463Y008173D01*
X033505Y008224D01*
X033549Y008272D01*
X033597Y008317D01*
X033647Y008360D01*
X033700Y008399D01*
X033755Y008436D01*
X033812Y008469D01*
X033871Y008498D01*
X033931Y008524D01*
X033993Y008546D01*
X034056Y008565D01*
X034120Y008579D01*
X034185Y008590D01*
X034251Y008597D01*
X034317Y008600D01*
X034382Y008599D01*
X034448Y008594D01*
X034513Y008585D01*
X034578Y008572D01*
X034641Y008556D01*
X034704Y008536D01*
X034765Y008511D01*
X034825Y008484D01*
X034883Y008453D01*
X034939Y008418D01*
X034993Y008380D01*
X035044Y008339D01*
X035093Y008295D01*
X035139Y008248D01*
X035183Y008199D01*
X035223Y008147D01*
X035260Y008092D01*
X035294Y008036D01*
X035324Y007977D01*
X035351Y007917D01*
X035374Y007856D01*
X035393Y007793D01*
X035409Y007729D01*
X035421Y007664D01*
X035429Y007599D01*
X035433Y007533D01*
X035433Y007467D01*
X035429Y007401D01*
X035421Y007336D01*
X035409Y007271D01*
X035393Y007207D01*
X035374Y007144D01*
X035351Y007083D01*
X035324Y007023D01*
X035294Y006964D01*
X035260Y006908D01*
X035223Y006853D01*
X035183Y006801D01*
X035139Y006752D01*
X035093Y006705D01*
X035044Y006661D01*
X034993Y006620D01*
X034939Y006582D01*
X034883Y006547D01*
X034825Y006516D01*
X034765Y006489D01*
X034704Y006464D01*
X034641Y006444D01*
X034578Y006428D01*
X034513Y006415D01*
X034448Y006406D01*
X034382Y006401D01*
X034317Y006400D01*
X034251Y006403D01*
X034185Y006410D01*
X034120Y006421D01*
X034056Y006435D01*
X033993Y006454D01*
X033931Y006476D01*
X033871Y006502D01*
X033812Y006531D01*
X033755Y006564D01*
X033700Y006601D01*
X033647Y006640D01*
X033597Y006683D01*
X033549Y006728D01*
X033505Y006776D01*
X033463Y006827D01*
X033424Y006880D01*
X033389Y006936D01*
X033357Y006993D01*
X033328Y007053D01*
X033303Y007113D01*
X033282Y007176D01*
X033264Y007239D01*
X033251Y007304D01*
X033241Y007369D01*
X033235Y007434D01*
X033233Y007500D01*
X033283Y007500D02*
X033483Y007500D01*
X033383Y007400D02*
X033383Y007600D01*
X029780Y007234D02*
X029780Y006767D01*
X029663Y006650D01*
X029313Y006650D01*
X029313Y007351D01*
X029663Y007351D01*
X029780Y007234D01*
X029080Y007234D02*
X029080Y006767D01*
X028963Y006650D01*
X028730Y006650D01*
X028613Y006767D01*
X028613Y007234D01*
X028730Y007351D01*
X028963Y007351D01*
X029080Y007234D01*
X028380Y007351D02*
X028380Y006650D01*
X028288Y006467D02*
X028288Y006351D01*
X028288Y006117D02*
X028288Y005650D01*
X028171Y005650D02*
X028405Y005650D01*
X028638Y005767D02*
X028754Y005650D01*
X028988Y005650D01*
X029105Y005767D01*
X029105Y006000D01*
X028988Y006117D01*
X028754Y006117D01*
X028638Y006000D01*
X028638Y005767D01*
X028288Y006117D02*
X028171Y006117D01*
X027938Y006117D02*
X027588Y006117D01*
X027471Y006000D01*
X027588Y005884D01*
X027822Y005884D01*
X027938Y005767D01*
X027822Y005650D01*
X027471Y005650D01*
X026888Y005650D02*
X026888Y006117D01*
X026888Y005884D02*
X027122Y006117D01*
X027238Y006117D01*
X026655Y006000D02*
X026655Y005884D01*
X026188Y005884D01*
X026188Y006000D02*
X026188Y005767D01*
X026305Y005650D01*
X026539Y005650D01*
X026655Y006000D02*
X026539Y006117D01*
X026305Y006117D01*
X026188Y006000D01*
X025956Y006117D02*
X025722Y005650D01*
X025489Y006117D01*
X024556Y006117D02*
X024556Y005650D01*
X024089Y005650D02*
X024089Y006117D01*
X024323Y006351D01*
X024556Y006117D01*
X024556Y006000D02*
X024089Y006000D01*
X023856Y005767D02*
X023739Y005650D01*
X023506Y005650D01*
X023389Y005767D01*
X023389Y006234D01*
X023506Y006351D01*
X023739Y006351D01*
X023856Y006234D01*
X023831Y006650D02*
X023714Y006767D01*
X023831Y006650D02*
X024065Y006650D01*
X024181Y006767D01*
X024181Y006884D01*
X024065Y007000D01*
X023831Y007000D01*
X023714Y007117D01*
X023714Y007234D01*
X023831Y007351D01*
X024065Y007351D01*
X024181Y007234D01*
X024414Y007351D02*
X024764Y007351D01*
X024881Y007234D01*
X024881Y006767D01*
X024764Y006650D01*
X024414Y006650D01*
X024414Y007351D01*
X025114Y007234D02*
X025114Y006767D01*
X025231Y006650D01*
X025464Y006650D01*
X025581Y006767D01*
X025814Y006650D02*
X025814Y007117D01*
X026047Y007351D01*
X026281Y007117D01*
X026281Y006650D01*
X026513Y006650D02*
X026513Y007351D01*
X026864Y007351D01*
X026980Y007234D01*
X026980Y007000D01*
X026864Y006884D01*
X026513Y006884D01*
X026747Y006884D02*
X026980Y006650D01*
X027213Y006650D02*
X027564Y006650D01*
X027680Y006767D01*
X027680Y007234D01*
X027564Y007351D01*
X027213Y007351D01*
X027213Y006650D01*
X027913Y006650D02*
X027913Y007351D01*
X028147Y007117D01*
X028380Y007351D01*
X026281Y007000D02*
X025814Y007000D01*
X025581Y007234D02*
X025464Y007351D01*
X025231Y007351D01*
X025114Y007234D01*
X023156Y006234D02*
X023156Y006000D01*
X023040Y005884D01*
X022689Y005884D01*
X022923Y005884D02*
X023156Y005650D01*
X022689Y005650D02*
X022689Y006351D01*
X023040Y006351D01*
X023156Y006234D01*
X029337Y006117D02*
X029337Y005650D01*
X029805Y005650D02*
X029805Y006000D01*
X029688Y006117D01*
X029337Y006117D01*
X027233Y013050D02*
X026433Y013050D01*
X026416Y013052D01*
X026399Y013056D01*
X026383Y013063D01*
X026369Y013073D01*
X026356Y013086D01*
X026346Y013100D01*
X026339Y013116D01*
X026335Y013133D01*
X026333Y013150D01*
X026333Y015850D01*
X026335Y015867D01*
X026339Y015884D01*
X026346Y015900D01*
X026356Y015914D01*
X026369Y015927D01*
X026383Y015937D01*
X026399Y015944D01*
X026416Y015948D01*
X026433Y015950D01*
X027233Y015950D01*
X027250Y015948D01*
X027267Y015944D01*
X027283Y015937D01*
X027297Y015927D01*
X027310Y015914D01*
X027320Y015900D01*
X027327Y015884D01*
X027331Y015867D01*
X027333Y015850D01*
X027333Y013150D01*
X027331Y013133D01*
X027327Y013116D01*
X027320Y013100D01*
X027310Y013086D01*
X027297Y013073D01*
X027283Y013063D01*
X027267Y013056D01*
X027250Y013052D01*
X027233Y013050D01*
X026833Y013900D02*
X026833Y014380D01*
X026833Y014630D02*
X026833Y015100D01*
X024233Y015000D02*
X024235Y015066D01*
X024241Y015131D01*
X024251Y015196D01*
X024264Y015261D01*
X024282Y015324D01*
X024303Y015387D01*
X024328Y015447D01*
X024357Y015507D01*
X024389Y015564D01*
X024424Y015620D01*
X024463Y015673D01*
X024505Y015724D01*
X024549Y015772D01*
X024597Y015817D01*
X024647Y015860D01*
X024700Y015899D01*
X024755Y015936D01*
X024812Y015969D01*
X024871Y015998D01*
X024931Y016024D01*
X024993Y016046D01*
X025056Y016065D01*
X025120Y016079D01*
X025185Y016090D01*
X025251Y016097D01*
X025317Y016100D01*
X025382Y016099D01*
X025448Y016094D01*
X025513Y016085D01*
X025578Y016072D01*
X025641Y016056D01*
X025704Y016036D01*
X025765Y016011D01*
X025825Y015984D01*
X025883Y015953D01*
X025939Y015918D01*
X025993Y015880D01*
X026044Y015839D01*
X026093Y015795D01*
X026139Y015748D01*
X026183Y015699D01*
X026223Y015647D01*
X026260Y015592D01*
X026294Y015536D01*
X026324Y015477D01*
X026351Y015417D01*
X026374Y015356D01*
X026393Y015293D01*
X026409Y015229D01*
X026421Y015164D01*
X026429Y015099D01*
X026433Y015033D01*
X026433Y014967D01*
X026429Y014901D01*
X026421Y014836D01*
X026409Y014771D01*
X026393Y014707D01*
X026374Y014644D01*
X026351Y014583D01*
X026324Y014523D01*
X026294Y014464D01*
X026260Y014408D01*
X026223Y014353D01*
X026183Y014301D01*
X026139Y014252D01*
X026093Y014205D01*
X026044Y014161D01*
X025993Y014120D01*
X025939Y014082D01*
X025883Y014047D01*
X025825Y014016D01*
X025765Y013989D01*
X025704Y013964D01*
X025641Y013944D01*
X025578Y013928D01*
X025513Y013915D01*
X025448Y013906D01*
X025382Y013901D01*
X025317Y013900D01*
X025251Y013903D01*
X025185Y013910D01*
X025120Y013921D01*
X025056Y013935D01*
X024993Y013954D01*
X024931Y013976D01*
X024871Y014002D01*
X024812Y014031D01*
X024755Y014064D01*
X024700Y014101D01*
X024647Y014140D01*
X024597Y014183D01*
X024549Y014228D01*
X024505Y014276D01*
X024463Y014327D01*
X024424Y014380D01*
X024389Y014436D01*
X024357Y014493D01*
X024328Y014553D01*
X024303Y014613D01*
X024282Y014676D01*
X024264Y014739D01*
X024251Y014804D01*
X024241Y014869D01*
X024235Y014934D01*
X024233Y015000D01*
X025233Y014050D02*
X025433Y014050D01*
X025333Y014150D02*
X025333Y013950D01*
X021333Y016750D02*
X021083Y016500D01*
X020583Y016500D01*
X020333Y016750D01*
X020083Y016500D01*
X019583Y016500D01*
X019333Y016750D01*
X019083Y016500D01*
X018583Y016500D01*
X018333Y016750D01*
X018083Y016500D01*
X017583Y016500D01*
X017333Y016750D01*
X017083Y016500D01*
X016583Y016500D01*
X016333Y016750D01*
X016083Y016500D01*
X015583Y016500D01*
X015333Y016750D01*
X015333Y017250D01*
X015583Y017500D01*
X016083Y017500D01*
X016333Y017250D01*
X016583Y017500D01*
X017083Y017500D01*
X017333Y017250D01*
X017333Y016750D01*
X017333Y017250D02*
X017583Y017500D01*
X018083Y017500D01*
X018333Y017250D01*
X018583Y017500D01*
X019083Y017500D01*
X019333Y017250D01*
X019583Y017500D01*
X020083Y017500D01*
X020333Y017250D01*
X020583Y017500D01*
X021083Y017500D01*
X021333Y017250D01*
X021333Y016750D01*
X020333Y016750D02*
X020333Y017250D01*
X019333Y017250D02*
X019333Y016750D01*
X018333Y016750D02*
X018333Y017250D01*
X016333Y017250D02*
X016333Y016750D01*
D12*
X022353Y016827D02*
X022660Y016827D01*
X022813Y016673D01*
X022660Y016520D01*
X022353Y016520D01*
X022353Y016980D02*
X022353Y017134D01*
X022353Y017057D02*
X022813Y017057D01*
X022813Y016980D02*
X022813Y017134D01*
X022813Y017287D02*
X022813Y017518D01*
X022737Y017594D01*
X022430Y017594D01*
X022353Y017518D01*
X022353Y017287D01*
X022813Y017287D01*
X022813Y017748D02*
X022353Y017748D01*
X022353Y018055D01*
X022430Y018208D02*
X022353Y018285D01*
X022353Y018438D01*
X022430Y018515D01*
X022737Y018515D01*
X022813Y018438D01*
X022813Y018285D01*
X022737Y018208D01*
X022430Y018208D01*
X022813Y018055D02*
X022813Y017748D01*
X022583Y017748D02*
X022583Y017901D01*
X022430Y019129D02*
X022737Y019129D01*
X022813Y019206D01*
X022813Y019359D01*
X022737Y019436D01*
X022430Y019436D01*
X022353Y019359D01*
X022353Y019206D01*
X022430Y019129D01*
X022353Y019589D02*
X022737Y019589D01*
X022813Y019666D01*
X022813Y019819D01*
X022737Y019896D01*
X022353Y019896D01*
X022353Y020050D02*
X022353Y020357D01*
X022353Y020203D02*
X022813Y020203D01*
X032853Y020164D02*
X032853Y020470D01*
X032853Y020317D02*
X033313Y020317D01*
X033237Y020010D02*
X032853Y020010D01*
X032853Y019703D02*
X033237Y019703D01*
X033313Y019780D01*
X033313Y019933D01*
X033237Y020010D01*
X033237Y019550D02*
X032930Y019550D01*
X032853Y019473D01*
X032853Y019319D01*
X032930Y019243D01*
X033237Y019243D01*
X033313Y019319D01*
X033313Y019473D01*
X033237Y019550D01*
X033237Y018629D02*
X032930Y018629D01*
X032853Y018552D01*
X032853Y018399D01*
X032930Y018322D01*
X033237Y018322D01*
X033313Y018399D01*
X033313Y018552D01*
X033237Y018629D01*
X033313Y018168D02*
X033313Y017862D01*
X032853Y017862D01*
X032853Y018168D01*
X033083Y018015D02*
X033083Y017862D01*
X033083Y017708D02*
X033160Y017631D01*
X033160Y017401D01*
X033313Y017401D02*
X032853Y017401D01*
X032853Y017631D01*
X032930Y017708D01*
X033083Y017708D01*
X033160Y017555D02*
X033313Y017708D01*
X033313Y017248D02*
X033313Y016941D01*
X032853Y016941D01*
X032853Y017248D01*
X033083Y017094D02*
X033083Y016941D01*
X032853Y016787D02*
X032853Y016480D01*
X032853Y016634D02*
X033313Y016634D01*
X033237Y016327D02*
X033313Y016250D01*
X033313Y016097D01*
X033237Y016020D01*
X033083Y016097D02*
X033083Y016250D01*
X033160Y016327D01*
X033237Y016327D01*
X033083Y016097D02*
X033006Y016020D01*
X032930Y016020D01*
X032853Y016097D01*
X032853Y016250D01*
X032930Y016327D01*
X035353Y006480D02*
X035660Y006480D01*
X035507Y006480D02*
X035507Y006020D01*
X035814Y006020D02*
X035814Y006327D01*
X035967Y006480D01*
X036121Y006327D01*
X036121Y006020D01*
X036274Y006020D02*
X036274Y006480D01*
X036504Y006480D01*
X036581Y006404D01*
X036581Y006250D01*
X036504Y006173D01*
X036274Y006173D01*
X036121Y006250D02*
X035814Y006250D01*
X036735Y006250D02*
X036888Y006250D01*
X036735Y006020D02*
X037041Y006020D01*
X036735Y006020D02*
X036735Y006480D01*
X037041Y006480D01*
X037655Y006480D02*
X037809Y006480D01*
X037732Y006480D02*
X037732Y006020D01*
X037655Y006020D02*
X037809Y006020D01*
X037962Y006020D02*
X037962Y006480D01*
X038269Y006020D01*
X038269Y006480D01*
X038730Y006480D02*
X038423Y006020D01*
X038883Y006097D02*
X038960Y006020D01*
X039113Y006020D01*
X039190Y006097D01*
X039190Y006404D01*
X039113Y006480D01*
X038960Y006480D01*
X038883Y006404D01*
X038883Y006097D01*
X039343Y006097D02*
X039420Y006020D01*
X039574Y006020D01*
X039650Y006097D01*
X039650Y006480D01*
X039804Y006480D02*
X040111Y006480D01*
X039957Y006480D02*
X039957Y006020D01*
X039343Y006097D02*
X039343Y006480D01*
D13*
X028826Y009563D02*
X028826Y009757D01*
X028778Y009805D01*
X028681Y009805D01*
X028633Y009757D01*
X028633Y009708D01*
X028681Y009660D01*
X028826Y009660D01*
X028826Y009563D02*
X028778Y009515D01*
X028681Y009515D01*
X028633Y009563D01*
X028532Y009515D02*
X028435Y009612D01*
X028483Y009612D02*
X028338Y009612D01*
X028338Y009515D02*
X028338Y009805D01*
X028483Y009805D01*
X028532Y009757D01*
X028532Y009660D01*
X028483Y009612D01*
X024346Y009612D02*
X024346Y009563D01*
X024298Y009515D01*
X024201Y009515D01*
X024153Y009563D01*
X024153Y009612D01*
X024201Y009660D01*
X024298Y009660D01*
X024346Y009612D01*
X024298Y009660D02*
X024346Y009708D01*
X024346Y009757D01*
X024298Y009805D01*
X024201Y009805D01*
X024153Y009757D01*
X024153Y009708D01*
X024201Y009660D01*
X024052Y009660D02*
X024052Y009757D01*
X024003Y009805D01*
X023858Y009805D01*
X023858Y009515D01*
X023858Y009612D02*
X024003Y009612D01*
X024052Y009660D01*
X023955Y009612D02*
X024052Y009515D01*
X020638Y007914D02*
X020638Y007720D01*
X020445Y007914D01*
X020396Y007914D01*
X020348Y007865D01*
X020348Y007769D01*
X020396Y007720D01*
X020396Y007619D02*
X020493Y007619D01*
X020542Y007571D01*
X020542Y007426D01*
X020638Y007426D02*
X020348Y007426D01*
X020348Y007571D01*
X020396Y007619D01*
X020542Y007522D02*
X020638Y007619D01*
X018638Y007619D02*
X018542Y007522D01*
X018542Y007571D02*
X018542Y007426D01*
X018638Y007426D02*
X018348Y007426D01*
X018348Y007571D01*
X018396Y007619D01*
X018493Y007619D01*
X018542Y007571D01*
X018638Y007720D02*
X018638Y007914D01*
X018638Y007817D02*
X018348Y007817D01*
X018445Y007720D01*
X017199Y009195D02*
X017102Y009195D01*
X017054Y009243D01*
X017054Y009340D01*
X017199Y009340D01*
X017247Y009292D01*
X017247Y009243D01*
X017199Y009195D01*
X017054Y009340D02*
X017150Y009437D01*
X017247Y009485D01*
X016953Y009437D02*
X016953Y009340D01*
X016904Y009292D01*
X016759Y009292D01*
X016856Y009292D02*
X016953Y009195D01*
X016759Y009195D02*
X016759Y009485D01*
X016904Y009485D01*
X016953Y009437D01*
X017759Y010195D02*
X017759Y010485D01*
X017904Y010485D01*
X017953Y010437D01*
X017953Y010340D01*
X017904Y010292D01*
X017759Y010292D01*
X017856Y010292D02*
X017953Y010195D01*
X018054Y010340D02*
X018247Y010340D01*
X018199Y010195D02*
X018199Y010485D01*
X018054Y010340D01*
X018759Y011195D02*
X018759Y011485D01*
X018904Y011485D01*
X018953Y011437D01*
X018953Y011340D01*
X018904Y011292D01*
X018759Y011292D01*
X018856Y011292D02*
X018953Y011195D01*
X019054Y011243D02*
X019102Y011195D01*
X019199Y011195D01*
X019247Y011243D01*
X019247Y011340D01*
X019199Y011388D01*
X019150Y011388D01*
X019054Y011340D01*
X019054Y011485D01*
X019247Y011485D01*
X019759Y012195D02*
X019759Y012485D01*
X019904Y012485D01*
X019953Y012437D01*
X019953Y012340D01*
X019904Y012292D01*
X019759Y012292D01*
X019856Y012292D02*
X019953Y012195D01*
X020054Y012243D02*
X020102Y012195D01*
X020199Y012195D01*
X020247Y012243D01*
X020247Y012292D01*
X020199Y012340D01*
X020150Y012340D01*
X020199Y012340D02*
X020247Y012388D01*
X020247Y012437D01*
X020199Y012485D01*
X020102Y012485D01*
X020054Y012437D01*
X020054Y013195D02*
X020054Y013243D01*
X020247Y013437D01*
X020247Y013485D01*
X020054Y013485D01*
X019953Y013437D02*
X019904Y013485D01*
X019759Y013485D01*
X019759Y013195D01*
X019759Y013292D02*
X019904Y013292D01*
X019953Y013340D01*
X019953Y013437D01*
X019856Y013292D02*
X019953Y013195D01*
X028848Y014631D02*
X028848Y014776D01*
X028896Y014825D01*
X028993Y014825D01*
X029042Y014776D01*
X029042Y014631D01*
X029138Y014631D02*
X028848Y014631D01*
X029042Y014728D02*
X029138Y014825D01*
X029138Y014926D02*
X029138Y015119D01*
X029138Y015022D02*
X028848Y015022D01*
X028945Y014926D01*
X028896Y015220D02*
X028848Y015269D01*
X028848Y015365D01*
X028896Y015414D01*
X029090Y015220D01*
X029138Y015269D01*
X029138Y015365D01*
X029090Y015414D01*
X028896Y015414D01*
X028896Y015220D02*
X029090Y015220D01*
X015154Y005805D02*
X015154Y005515D01*
X015009Y005515D01*
X014960Y005563D01*
X014960Y005660D01*
X015009Y005708D01*
X015154Y005708D01*
X014861Y005515D02*
X014764Y005515D01*
X014812Y005515D02*
X014812Y005805D01*
X014764Y005805D01*
X014663Y005660D02*
X014663Y005612D01*
X014469Y005612D01*
X014469Y005660D02*
X014518Y005708D01*
X014614Y005708D01*
X014663Y005660D01*
X014614Y005515D02*
X014518Y005515D01*
X014469Y005563D01*
X014469Y005660D01*
X014321Y005708D02*
X014321Y005515D01*
X014273Y005515D02*
X014370Y005515D01*
X014172Y005515D02*
X014172Y005660D01*
X014123Y005708D01*
X014027Y005708D01*
X013978Y005660D01*
X013877Y005708D02*
X013732Y005708D01*
X013684Y005660D01*
X013732Y005612D01*
X013829Y005612D01*
X013877Y005563D01*
X013829Y005515D01*
X013684Y005515D01*
X013582Y005660D02*
X013389Y005660D01*
X013288Y005708D02*
X013143Y005708D01*
X013094Y005660D01*
X013094Y005563D01*
X013143Y005515D01*
X013288Y005515D01*
X013288Y005805D01*
X012994Y005708D02*
X012945Y005708D01*
X012849Y005612D01*
X012849Y005708D02*
X012849Y005515D01*
X012748Y005515D02*
X012602Y005515D01*
X012554Y005563D01*
X012602Y005612D01*
X012748Y005612D01*
X012748Y005660D02*
X012748Y005515D01*
X012748Y005660D02*
X012699Y005708D01*
X012602Y005708D01*
X012453Y005708D02*
X012308Y005708D01*
X012259Y005660D01*
X012259Y005563D01*
X012308Y005515D01*
X012453Y005515D01*
X012158Y005515D02*
X012013Y005515D01*
X011965Y005563D01*
X011965Y005660D01*
X012013Y005708D01*
X012158Y005708D01*
X012158Y005805D02*
X012158Y005515D01*
X011864Y005563D02*
X011815Y005612D01*
X011718Y005612D01*
X011670Y005660D01*
X011718Y005708D01*
X011864Y005708D01*
X011864Y005563D02*
X011815Y005515D01*
X011670Y005515D01*
X011569Y005660D02*
X011375Y005660D01*
X011274Y005660D02*
X011274Y005515D01*
X011129Y005515D01*
X011081Y005563D01*
X011129Y005612D01*
X011274Y005612D01*
X011274Y005660D02*
X011226Y005708D01*
X011129Y005708D01*
X010980Y005708D02*
X010834Y005708D01*
X010786Y005660D01*
X010786Y005563D01*
X010834Y005515D01*
X010980Y005515D01*
X010980Y005805D01*
X010685Y005660D02*
X010685Y005612D01*
X010491Y005612D01*
X010491Y005660D02*
X010540Y005708D01*
X010637Y005708D01*
X010685Y005660D01*
X010637Y005515D02*
X010540Y005515D01*
X010491Y005563D01*
X010491Y005660D01*
X010390Y005708D02*
X010197Y005515D01*
X010096Y005563D02*
X010096Y005708D01*
X010197Y005708D02*
X010390Y005515D01*
X010096Y005563D02*
X010047Y005515D01*
X009999Y005563D01*
X009951Y005515D01*
X009902Y005563D01*
X009902Y005708D01*
X009801Y005805D02*
X009607Y005515D01*
X009410Y005515D02*
X009313Y005708D01*
X009212Y005660D02*
X009163Y005708D01*
X009067Y005708D01*
X009018Y005660D01*
X009018Y005563D01*
X009067Y005515D01*
X009163Y005515D01*
X009212Y005563D01*
X009212Y005660D01*
X009410Y005515D02*
X009506Y005708D01*
X008917Y005660D02*
X008917Y005563D01*
X008869Y005515D01*
X008724Y005515D01*
X008724Y005418D02*
X008724Y005708D01*
X008869Y005708D01*
X008917Y005660D01*
X008623Y005708D02*
X008575Y005708D01*
X008478Y005612D01*
X008478Y005708D02*
X008478Y005515D01*
X008377Y005515D02*
X008232Y005515D01*
X008183Y005563D01*
X008232Y005612D01*
X008377Y005612D01*
X008377Y005660D02*
X008377Y005515D01*
X008377Y005660D02*
X008328Y005708D01*
X008232Y005708D01*
X008083Y005708D02*
X007938Y005612D01*
X008083Y005515D01*
X007938Y005515D02*
X007938Y005805D01*
X007837Y005708D02*
X007837Y005467D01*
X007788Y005418D01*
X007740Y005418D01*
X007692Y005515D02*
X007837Y005515D01*
X007692Y005515D02*
X007643Y005563D01*
X007643Y005708D01*
X007542Y005708D02*
X007397Y005708D01*
X007348Y005660D01*
X007348Y005563D01*
X007397Y005515D01*
X007542Y005515D01*
X007542Y005805D01*
X007247Y005660D02*
X007247Y005515D01*
X007247Y005660D02*
X007199Y005708D01*
X007054Y005708D01*
X007054Y005515D01*
X006953Y005515D02*
X006808Y005515D01*
X006759Y005563D01*
X006808Y005612D01*
X006953Y005612D01*
X006953Y005660D02*
X006953Y005515D01*
X006953Y005660D02*
X006904Y005708D01*
X006808Y005708D01*
X006658Y005805D02*
X006465Y005515D01*
X006363Y005515D02*
X006363Y005660D01*
X006315Y005708D01*
X006267Y005660D01*
X006267Y005515D01*
X006170Y005515D02*
X006170Y005708D01*
X006218Y005708D01*
X006267Y005660D01*
X006069Y005660D02*
X006020Y005708D01*
X005924Y005708D01*
X005875Y005660D01*
X005875Y005563D01*
X005924Y005515D01*
X006020Y005515D01*
X006069Y005563D01*
X006069Y005660D01*
X005774Y005708D02*
X005629Y005708D01*
X005581Y005660D01*
X005581Y005563D01*
X005629Y005515D01*
X005774Y005515D01*
X005482Y005515D02*
X005433Y005515D01*
X005433Y005563D01*
X005482Y005563D01*
X005482Y005515D01*
X005332Y005563D02*
X005332Y005660D01*
X005284Y005708D01*
X005139Y005708D01*
X005139Y005805D02*
X005139Y005515D01*
X005284Y005515D01*
X005332Y005563D01*
X005037Y005515D02*
X005037Y005708D01*
X005037Y005515D02*
X004892Y005515D01*
X004844Y005563D01*
X004844Y005708D01*
X004743Y005660D02*
X004743Y005515D01*
X004743Y005660D02*
X004694Y005708D01*
X004598Y005708D01*
X004549Y005660D01*
X004450Y005708D02*
X004353Y005708D01*
X004401Y005757D02*
X004401Y005563D01*
X004450Y005515D01*
X004549Y005515D02*
X004549Y005805D01*
X004205Y005805D02*
X004205Y005854D01*
X004205Y005708D02*
X004205Y005515D01*
X004253Y005515D02*
X004156Y005515D01*
X004055Y005515D02*
X003910Y005515D01*
X003862Y005563D01*
X003862Y005660D01*
X003910Y005708D01*
X004055Y005708D01*
X004055Y005467D01*
X004007Y005418D01*
X003959Y005418D01*
X003567Y005515D02*
X003761Y005805D01*
X003466Y005805D02*
X003272Y005515D01*
X003174Y005515D02*
X003125Y005515D01*
X003125Y005563D01*
X003174Y005563D01*
X003174Y005515D01*
X003174Y005660D02*
X003125Y005660D01*
X003125Y005708D01*
X003174Y005708D01*
X003174Y005660D01*
X003024Y005708D02*
X002879Y005708D01*
X002831Y005660D01*
X002879Y005612D01*
X002976Y005612D01*
X003024Y005563D01*
X002976Y005515D01*
X002831Y005515D01*
X002729Y005563D02*
X002681Y005515D01*
X002536Y005515D01*
X002536Y005418D02*
X002536Y005708D01*
X002681Y005708D01*
X002729Y005660D01*
X002729Y005563D01*
X002436Y005515D02*
X002388Y005563D01*
X002388Y005757D01*
X002436Y005708D02*
X002339Y005708D01*
X002240Y005708D02*
X002143Y005708D01*
X002191Y005757D02*
X002191Y005563D01*
X002240Y005515D01*
X002042Y005515D02*
X002042Y005660D01*
X001993Y005708D01*
X001897Y005708D01*
X001848Y005660D01*
X001848Y005805D02*
X001848Y005515D01*
X004156Y005708D02*
X004205Y005708D01*
X013978Y005805D02*
X013978Y005515D01*
X014273Y005708D02*
X014321Y005708D01*
X014321Y005805D02*
X014321Y005854D01*
D14*
X025288Y011100D02*
X025446Y011100D01*
X026221Y011100D02*
X026446Y011100D01*
X027158Y011650D02*
X027193Y011602D01*
X027226Y011552D01*
X027257Y011500D01*
X027284Y011446D01*
X027308Y011391D01*
X027328Y011334D01*
X027346Y011277D01*
X027360Y011219D01*
X027371Y011160D01*
X027378Y011100D01*
X027379Y011100D02*
X027221Y011100D01*
X027378Y011100D02*
X027382Y011038D01*
X027383Y010975D01*
X027379Y010913D01*
X027372Y010851D01*
X027362Y010790D01*
X027347Y010729D01*
X027329Y010669D01*
X027308Y010610D01*
X027283Y010553D01*
X027255Y010498D01*
X027224Y010444D01*
X027189Y010392D01*
X027151Y010342D01*
X027111Y010295D01*
X027067Y010250D01*
X027022Y010207D01*
X026973Y010168D01*
X026923Y010131D01*
X026870Y010098D01*
X026816Y010067D01*
X026759Y010040D01*
X026702Y010017D01*
X026643Y009997D01*
X026298Y009225D02*
X026298Y008775D01*
X026148Y008775D02*
X026448Y008775D01*
X026148Y009075D02*
X026298Y009225D01*
X025988Y009225D02*
X025688Y009225D01*
X025838Y009225D02*
X025838Y008775D01*
X026023Y009997D02*
X025963Y010017D01*
X025904Y010041D01*
X025847Y010069D01*
X025792Y010100D01*
X025738Y010135D01*
X025687Y010172D01*
X025638Y010213D01*
X025592Y010257D01*
X025548Y010303D01*
X025507Y010352D01*
X025469Y010403D01*
X025435Y010456D01*
X025403Y010512D01*
X025376Y010569D01*
X025351Y010628D01*
X025331Y010688D01*
X025313Y010749D01*
X025300Y010811D01*
X025291Y010874D01*
X025285Y010937D01*
X025283Y011001D01*
X025285Y011065D01*
X025291Y011128D01*
X025300Y011191D01*
X025314Y011253D01*
X025331Y011314D01*
X025352Y011374D01*
X025376Y011433D01*
X025404Y011490D01*
X025436Y011546D01*
X025471Y011599D01*
X025508Y011650D01*
X025509Y011650D02*
X027158Y011650D01*
X026083Y013175D02*
X025783Y013175D01*
X025708Y013250D01*
X025708Y013400D01*
X025783Y013475D01*
X025783Y013635D02*
X025708Y013710D01*
X025708Y013861D01*
X025783Y013936D01*
X025858Y013936D01*
X025933Y013861D01*
X026008Y013936D01*
X026083Y013936D01*
X026158Y013861D01*
X026158Y013710D01*
X026083Y013635D01*
X026083Y013475D02*
X026158Y013400D01*
X026158Y013250D01*
X026083Y013175D01*
X025933Y013786D02*
X025933Y013861D01*
X023908Y015230D02*
X023908Y015380D01*
X023833Y015455D01*
X023683Y015615D02*
X023683Y015916D01*
X023908Y015841D02*
X023458Y015841D01*
X023683Y015615D01*
X023533Y015455D02*
X023458Y015380D01*
X023458Y015230D01*
X023533Y015155D01*
X023833Y015155D01*
X023908Y015230D01*
X026608Y017275D02*
X026909Y017275D01*
X026758Y017275D02*
X026758Y017725D01*
X026608Y017575D01*
X028358Y018025D02*
X028659Y018325D01*
X028659Y018400D01*
X028584Y018475D01*
X028433Y018475D01*
X028358Y018400D01*
X028358Y018025D02*
X028659Y018025D01*
X024259Y018025D02*
X023958Y018025D01*
X024259Y018325D01*
X024259Y018400D01*
X024184Y018475D01*
X024033Y018475D01*
X023958Y018400D01*
X016549Y015745D02*
X016249Y015745D01*
X016399Y015745D02*
X016399Y016195D01*
X016249Y016045D01*
X016089Y015970D02*
X016014Y015895D01*
X015789Y015895D01*
X015789Y015745D02*
X015789Y016195D01*
X016014Y016195D01*
X016089Y016120D01*
X016089Y015970D01*
X015629Y016195D02*
X015478Y016195D01*
X015554Y016195D02*
X015554Y015820D01*
X015478Y015745D01*
X015403Y015745D01*
X015328Y015820D01*
X032988Y008800D02*
X032988Y008500D01*
X033063Y008425D01*
X033214Y008425D01*
X033289Y008500D01*
X033449Y008500D02*
X033524Y008425D01*
X033674Y008425D01*
X033749Y008500D01*
X033749Y008650D01*
X033674Y008725D01*
X033599Y008725D01*
X033449Y008650D01*
X033449Y008875D01*
X033749Y008875D01*
X033289Y008800D02*
X033214Y008875D01*
X033063Y008875D01*
X032988Y008800D01*
X036110Y008758D02*
X036335Y008758D01*
X036260Y008909D01*
X036260Y008984D01*
X036335Y009059D01*
X036485Y009059D01*
X036560Y008984D01*
X036560Y008833D01*
X036485Y008758D01*
X036485Y008602D02*
X036485Y008527D01*
X036560Y008527D01*
X036560Y008602D01*
X036485Y008602D01*
X036560Y008602D02*
X036710Y008451D01*
X036485Y008291D02*
X036560Y008216D01*
X036560Y008066D01*
X036485Y007991D01*
X036335Y008141D02*
X036335Y008216D01*
X036410Y008291D01*
X036485Y008291D01*
X036335Y008216D02*
X036260Y008291D01*
X036185Y008291D01*
X036110Y008216D01*
X036110Y008066D01*
X036185Y007991D01*
X036110Y008758D02*
X036110Y009059D01*
X036260Y009219D02*
X036260Y009294D01*
X036335Y009369D01*
X036260Y009444D01*
X036335Y009519D01*
X036560Y009519D01*
X036560Y009369D02*
X036335Y009369D01*
X036260Y009219D02*
X036560Y009219D01*
X036560Y009679D02*
X036260Y009679D01*
X036260Y009754D01*
X036335Y009829D01*
X036260Y009904D01*
X036335Y009979D01*
X036560Y009979D01*
X036560Y009829D02*
X036335Y009829D01*
X036833Y015075D02*
X037133Y015075D01*
X037208Y015150D01*
X037208Y015300D01*
X037133Y015375D01*
X037133Y015535D02*
X037208Y015610D01*
X037208Y015761D01*
X037133Y015836D01*
X037058Y015836D01*
X036983Y015761D01*
X036983Y015535D01*
X037133Y015535D01*
X036983Y015535D02*
X036833Y015686D01*
X036758Y015836D01*
X036833Y015375D02*
X036758Y015300D01*
X036758Y015150D01*
X036833Y015075D01*
X034708Y015150D02*
X034633Y015075D01*
X034333Y015075D01*
X034258Y015150D01*
X034258Y015300D01*
X034333Y015375D01*
X034258Y015535D02*
X034258Y015836D01*
X034333Y015836D01*
X034633Y015535D01*
X034708Y015535D01*
X034633Y015375D02*
X034708Y015300D01*
X034708Y015150D01*
X035204Y016627D02*
X035354Y016777D01*
X035279Y016777D01*
X035279Y016852D01*
X035354Y016852D01*
X035354Y016777D01*
X035511Y016852D02*
X035586Y016777D01*
X035736Y016777D01*
X035811Y016852D01*
X035811Y017002D01*
X035736Y017077D01*
X035661Y017077D01*
X035511Y017002D01*
X035511Y017227D01*
X035811Y017227D01*
X035971Y017077D02*
X036047Y017077D01*
X036122Y017002D01*
X036197Y017077D01*
X036272Y017002D01*
X036272Y016777D01*
X036122Y016777D02*
X036122Y017002D01*
X035971Y017077D02*
X035971Y016777D01*
X036432Y016777D02*
X036432Y017077D01*
X036507Y017077D01*
X036582Y017002D01*
X036657Y017077D01*
X036732Y017002D01*
X036732Y016777D01*
X036582Y016777D02*
X036582Y017002D01*
X035044Y016927D02*
X035044Y016852D01*
X034969Y016777D01*
X034819Y016777D01*
X034744Y016852D01*
X034894Y017002D02*
X034969Y017002D01*
X035044Y016927D01*
X034969Y017002D02*
X035044Y017077D01*
X035044Y017152D01*
X034969Y017227D01*
X034819Y017227D01*
X034744Y017152D01*
X039258Y015660D02*
X039258Y015510D01*
X039333Y015435D01*
X039333Y015274D02*
X039258Y015199D01*
X039258Y015049D01*
X039333Y014974D01*
X039633Y014974D01*
X039708Y015049D01*
X039708Y015199D01*
X039633Y015274D01*
X039708Y015435D02*
X039408Y015735D01*
X039333Y015735D01*
X039258Y015660D01*
X039708Y015735D02*
X039708Y015435D01*
D15*
X035499Y017969D02*
X035501Y018003D01*
X035507Y018037D01*
X035517Y018070D01*
X035530Y018101D01*
X035548Y018131D01*
X035568Y018159D01*
X035592Y018184D01*
X035618Y018206D01*
X035646Y018224D01*
X035677Y018240D01*
X035709Y018252D01*
X035743Y018260D01*
X035777Y018264D01*
X035811Y018264D01*
X035845Y018260D01*
X035879Y018252D01*
X035911Y018240D01*
X035941Y018224D01*
X035970Y018206D01*
X035996Y018184D01*
X036020Y018159D01*
X036040Y018131D01*
X036058Y018101D01*
X036071Y018070D01*
X036081Y018037D01*
X036087Y018003D01*
X036089Y017969D01*
X036087Y017935D01*
X036081Y017901D01*
X036071Y017868D01*
X036058Y017837D01*
X036040Y017807D01*
X036020Y017779D01*
X035996Y017754D01*
X035970Y017732D01*
X035942Y017714D01*
X035911Y017698D01*
X035879Y017686D01*
X035845Y017678D01*
X035811Y017674D01*
X035777Y017674D01*
X035743Y017678D01*
X035709Y017686D01*
X035677Y017698D01*
X035646Y017714D01*
X035618Y017732D01*
X035592Y017754D01*
X035568Y017779D01*
X035548Y017807D01*
X035530Y017837D01*
X035517Y017868D01*
X035507Y017901D01*
X035501Y017935D01*
X035499Y017969D01*
X033530Y019937D02*
X033532Y019971D01*
X033538Y020005D01*
X033548Y020038D01*
X033561Y020069D01*
X033579Y020099D01*
X033599Y020127D01*
X033623Y020152D01*
X033649Y020174D01*
X033677Y020192D01*
X033708Y020208D01*
X033740Y020220D01*
X033774Y020228D01*
X033808Y020232D01*
X033842Y020232D01*
X033876Y020228D01*
X033910Y020220D01*
X033942Y020208D01*
X033972Y020192D01*
X034001Y020174D01*
X034027Y020152D01*
X034051Y020127D01*
X034071Y020099D01*
X034089Y020069D01*
X034102Y020038D01*
X034112Y020005D01*
X034118Y019971D01*
X034120Y019937D01*
X034118Y019903D01*
X034112Y019869D01*
X034102Y019836D01*
X034089Y019805D01*
X034071Y019775D01*
X034051Y019747D01*
X034027Y019722D01*
X034001Y019700D01*
X033973Y019682D01*
X033942Y019666D01*
X033910Y019654D01*
X033876Y019646D01*
X033842Y019642D01*
X033808Y019642D01*
X033774Y019646D01*
X033740Y019654D01*
X033708Y019666D01*
X033677Y019682D01*
X033649Y019700D01*
X033623Y019722D01*
X033599Y019747D01*
X033579Y019775D01*
X033561Y019805D01*
X033548Y019836D01*
X033538Y019869D01*
X033532Y019903D01*
X033530Y019937D01*
X037467Y019937D02*
X037469Y019971D01*
X037475Y020005D01*
X037485Y020038D01*
X037498Y020069D01*
X037516Y020099D01*
X037536Y020127D01*
X037560Y020152D01*
X037586Y020174D01*
X037614Y020192D01*
X037645Y020208D01*
X037677Y020220D01*
X037711Y020228D01*
X037745Y020232D01*
X037779Y020232D01*
X037813Y020228D01*
X037847Y020220D01*
X037879Y020208D01*
X037909Y020192D01*
X037938Y020174D01*
X037964Y020152D01*
X037988Y020127D01*
X038008Y020099D01*
X038026Y020069D01*
X038039Y020038D01*
X038049Y020005D01*
X038055Y019971D01*
X038057Y019937D01*
X038055Y019903D01*
X038049Y019869D01*
X038039Y019836D01*
X038026Y019805D01*
X038008Y019775D01*
X037988Y019747D01*
X037964Y019722D01*
X037938Y019700D01*
X037910Y019682D01*
X037879Y019666D01*
X037847Y019654D01*
X037813Y019646D01*
X037779Y019642D01*
X037745Y019642D01*
X037711Y019646D01*
X037677Y019654D01*
X037645Y019666D01*
X037614Y019682D01*
X037586Y019700D01*
X037560Y019722D01*
X037536Y019747D01*
X037516Y019775D01*
X037498Y019805D01*
X037485Y019836D01*
X037475Y019869D01*
X037469Y019903D01*
X037467Y019937D01*
X038975Y011008D02*
X038977Y011042D01*
X038983Y011076D01*
X038993Y011109D01*
X039006Y011140D01*
X039024Y011170D01*
X039044Y011198D01*
X039068Y011223D01*
X039094Y011245D01*
X039122Y011263D01*
X039153Y011279D01*
X039185Y011291D01*
X039219Y011299D01*
X039253Y011303D01*
X039287Y011303D01*
X039321Y011299D01*
X039355Y011291D01*
X039387Y011279D01*
X039417Y011263D01*
X039446Y011245D01*
X039472Y011223D01*
X039496Y011198D01*
X039516Y011170D01*
X039534Y011140D01*
X039547Y011109D01*
X039557Y011076D01*
X039563Y011042D01*
X039565Y011008D01*
X039563Y010974D01*
X039557Y010940D01*
X039547Y010907D01*
X039534Y010876D01*
X039516Y010846D01*
X039496Y010818D01*
X039472Y010793D01*
X039446Y010771D01*
X039418Y010753D01*
X039387Y010737D01*
X039355Y010725D01*
X039321Y010717D01*
X039287Y010713D01*
X039253Y010713D01*
X039219Y010717D01*
X039185Y010725D01*
X039153Y010737D01*
X039122Y010753D01*
X039094Y010771D01*
X039068Y010793D01*
X039044Y010818D01*
X039024Y010846D01*
X039006Y010876D01*
X038993Y010907D01*
X038983Y010940D01*
X038977Y010974D01*
X038975Y011008D01*
X037007Y009039D02*
X037009Y009073D01*
X037015Y009107D01*
X037025Y009140D01*
X037038Y009171D01*
X037056Y009201D01*
X037076Y009229D01*
X037100Y009254D01*
X037126Y009276D01*
X037154Y009294D01*
X037185Y009310D01*
X037217Y009322D01*
X037251Y009330D01*
X037285Y009334D01*
X037319Y009334D01*
X037353Y009330D01*
X037387Y009322D01*
X037419Y009310D01*
X037449Y009294D01*
X037478Y009276D01*
X037504Y009254D01*
X037528Y009229D01*
X037548Y009201D01*
X037566Y009171D01*
X037579Y009140D01*
X037589Y009107D01*
X037595Y009073D01*
X037597Y009039D01*
X037595Y009005D01*
X037589Y008971D01*
X037579Y008938D01*
X037566Y008907D01*
X037548Y008877D01*
X037528Y008849D01*
X037504Y008824D01*
X037478Y008802D01*
X037450Y008784D01*
X037419Y008768D01*
X037387Y008756D01*
X037353Y008748D01*
X037319Y008744D01*
X037285Y008744D01*
X037251Y008748D01*
X037217Y008756D01*
X037185Y008768D01*
X037154Y008784D01*
X037126Y008802D01*
X037100Y008824D01*
X037076Y008849D01*
X037056Y008877D01*
X037038Y008907D01*
X037025Y008938D01*
X037015Y008971D01*
X037009Y009005D01*
X037007Y009039D01*
X038975Y007071D02*
X038977Y007105D01*
X038983Y007139D01*
X038993Y007172D01*
X039006Y007203D01*
X039024Y007233D01*
X039044Y007261D01*
X039068Y007286D01*
X039094Y007308D01*
X039122Y007326D01*
X039153Y007342D01*
X039185Y007354D01*
X039219Y007362D01*
X039253Y007366D01*
X039287Y007366D01*
X039321Y007362D01*
X039355Y007354D01*
X039387Y007342D01*
X039417Y007326D01*
X039446Y007308D01*
X039472Y007286D01*
X039496Y007261D01*
X039516Y007233D01*
X039534Y007203D01*
X039547Y007172D01*
X039557Y007139D01*
X039563Y007105D01*
X039565Y007071D01*
X039563Y007037D01*
X039557Y007003D01*
X039547Y006970D01*
X039534Y006939D01*
X039516Y006909D01*
X039496Y006881D01*
X039472Y006856D01*
X039446Y006834D01*
X039418Y006816D01*
X039387Y006800D01*
X039355Y006788D01*
X039321Y006780D01*
X039287Y006776D01*
X039253Y006776D01*
X039219Y006780D01*
X039185Y006788D01*
X039153Y006800D01*
X039122Y006816D01*
X039094Y006834D01*
X039068Y006856D01*
X039044Y006881D01*
X039024Y006909D01*
X039006Y006939D01*
X038993Y006970D01*
X038983Y007003D01*
X038977Y007037D01*
X038975Y007071D01*
X013379Y018673D02*
X013381Y018708D01*
X013387Y018742D01*
X013397Y018775D01*
X013410Y018808D01*
X013427Y018838D01*
X013448Y018866D01*
X013471Y018892D01*
X013498Y018915D01*
X013526Y018934D01*
X013557Y018950D01*
X013590Y018963D01*
X013623Y018972D01*
X013658Y018977D01*
X013693Y018978D01*
X013727Y018975D01*
X013762Y018968D01*
X013795Y018957D01*
X013826Y018943D01*
X013856Y018925D01*
X013884Y018904D01*
X013909Y018879D01*
X013931Y018852D01*
X013950Y018823D01*
X013965Y018792D01*
X013977Y018759D01*
X013985Y018725D01*
X013989Y018690D01*
X013989Y018656D01*
X013985Y018621D01*
X013977Y018587D01*
X013965Y018554D01*
X013950Y018523D01*
X013931Y018494D01*
X013909Y018467D01*
X013884Y018442D01*
X013856Y018421D01*
X013826Y018403D01*
X013795Y018389D01*
X013762Y018378D01*
X013727Y018371D01*
X013693Y018368D01*
X013658Y018369D01*
X013623Y018374D01*
X013590Y018383D01*
X013557Y018396D01*
X013526Y018412D01*
X013498Y018431D01*
X013471Y018454D01*
X013448Y018480D01*
X013427Y018508D01*
X013410Y018538D01*
X013397Y018571D01*
X013387Y018604D01*
X013381Y018638D01*
X013379Y018673D01*
X003828Y018673D02*
X003830Y018708D01*
X003836Y018742D01*
X003846Y018775D01*
X003859Y018808D01*
X003876Y018838D01*
X003897Y018866D01*
X003920Y018892D01*
X003947Y018915D01*
X003975Y018934D01*
X004006Y018950D01*
X004039Y018963D01*
X004072Y018972D01*
X004107Y018977D01*
X004142Y018978D01*
X004176Y018975D01*
X004211Y018968D01*
X004244Y018957D01*
X004275Y018943D01*
X004305Y018925D01*
X004333Y018904D01*
X004358Y018879D01*
X004380Y018852D01*
X004399Y018823D01*
X004414Y018792D01*
X004426Y018759D01*
X004434Y018725D01*
X004438Y018690D01*
X004438Y018656D01*
X004434Y018621D01*
X004426Y018587D01*
X004414Y018554D01*
X004399Y018523D01*
X004380Y018494D01*
X004358Y018467D01*
X004333Y018442D01*
X004305Y018421D01*
X004275Y018403D01*
X004244Y018389D01*
X004211Y018378D01*
X004176Y018371D01*
X004142Y018368D01*
X004107Y018369D01*
X004072Y018374D01*
X004039Y018383D01*
X004006Y018396D01*
X003975Y018412D01*
X003947Y018431D01*
X003920Y018454D01*
X003897Y018480D01*
X003876Y018508D01*
X003859Y018538D01*
X003846Y018571D01*
X003836Y018604D01*
X003830Y018638D01*
X003828Y018673D01*
D16*
X002836Y019955D02*
X002736Y019955D01*
X002688Y019955D02*
X002688Y020105D01*
X002736Y020055D02*
X002786Y020105D01*
X002786Y019955D01*
X002688Y020030D02*
X002588Y020030D01*
X002588Y019955D02*
X002588Y020105D01*
X032588Y006605D02*
X032588Y006455D01*
X032588Y006530D02*
X032688Y006530D01*
X032736Y006480D02*
X032761Y006455D01*
X032811Y006455D01*
X032836Y006480D01*
X032836Y006505D01*
X032811Y006530D01*
X032786Y006530D01*
X032811Y006530D02*
X032836Y006555D01*
X032836Y006580D01*
X032811Y006605D01*
X032761Y006605D01*
X032736Y006580D01*
X032688Y006605D02*
X032688Y006455D01*
D17*
X027833Y009400D02*
X027833Y009500D01*
X027533Y009500D01*
X027533Y011500D01*
X027833Y011500D01*
X027833Y011600D01*
X027833Y011500D02*
X028133Y011500D01*
X028133Y009500D01*
X027833Y009500D01*
X025133Y009500D02*
X024833Y009500D01*
X024833Y009400D01*
X024833Y009500D02*
X024533Y009500D01*
X024533Y011500D01*
X024833Y011500D01*
X024833Y011600D01*
X024833Y011500D02*
X025133Y011500D01*
X025133Y009500D01*
X022333Y011200D02*
X022333Y011500D01*
X022433Y011500D01*
X022333Y011500D02*
X022333Y011800D01*
X020333Y011800D01*
X020333Y011500D01*
X020233Y011500D01*
X020333Y011500D02*
X020333Y011200D01*
X022333Y011200D01*
X021333Y010800D02*
X021333Y010500D01*
X021433Y010500D01*
X021333Y010500D02*
X021333Y010200D01*
X019333Y010200D01*
X019333Y010500D01*
X019233Y010500D01*
X019333Y010500D02*
X019333Y010800D01*
X021333Y010800D01*
X020333Y009800D02*
X020333Y009500D01*
X020433Y009500D01*
X020333Y009500D02*
X020333Y009200D01*
X018333Y009200D01*
X018333Y009500D01*
X018233Y009500D01*
X018333Y009500D02*
X018333Y009800D01*
X020333Y009800D01*
X019833Y008100D02*
X019833Y008000D01*
X020133Y008000D01*
X020133Y006000D01*
X019833Y006000D01*
X019833Y005900D01*
X019833Y006000D02*
X019533Y006000D01*
X019533Y008000D01*
X019833Y008000D01*
X018133Y008000D02*
X017833Y008000D01*
X017833Y008100D01*
X017833Y008000D02*
X017533Y008000D01*
X017533Y006000D01*
X017833Y006000D01*
X017833Y005900D01*
X017833Y006000D02*
X018133Y006000D01*
X018133Y008000D01*
X021333Y012200D02*
X021333Y012500D01*
X021233Y012500D01*
X021333Y012500D02*
X021333Y012800D01*
X023333Y012800D01*
X023333Y012500D01*
X023433Y012500D01*
X023333Y012500D02*
X023333Y012200D01*
X021333Y012200D01*
X021333Y013200D02*
X021333Y013500D01*
X021233Y013500D01*
X021333Y013500D02*
X021333Y013800D01*
X023333Y013800D01*
X023333Y013500D01*
X023433Y013500D01*
X023333Y013500D02*
X023333Y013200D01*
X021333Y013200D01*
X028033Y013500D02*
X028033Y015500D01*
X028333Y015500D01*
X028333Y015600D01*
X028333Y015500D02*
X028633Y015500D01*
X028633Y013500D01*
X028333Y013500D01*
X028333Y013400D01*
X028333Y013500D02*
X028033Y013500D01*
D18*
X007211Y007560D02*
X007064Y007560D01*
X007138Y007560D02*
X007138Y007780D01*
X007064Y007707D01*
X006990Y007743D02*
X006953Y007780D01*
X006880Y007780D01*
X006843Y007743D01*
X006843Y007597D01*
X006880Y007560D01*
X006953Y007560D01*
X006990Y007597D01*
D19*
X026583Y014380D02*
X026833Y014380D01*
X027083Y014380D01*
X027083Y014630D02*
X026833Y014630D01*
X026583Y014630D01*
D20*
X028033Y017950D02*
X028033Y019700D01*
X028031Y019734D01*
X028025Y019767D01*
X028016Y019799D01*
X028003Y019830D01*
X027987Y019860D01*
X027968Y019887D01*
X027945Y019912D01*
X027920Y019935D01*
X027893Y019954D01*
X027863Y019970D01*
X027832Y019983D01*
X027800Y019992D01*
X027767Y019998D01*
X027733Y020000D01*
X023933Y020000D02*
X023899Y019998D01*
X023866Y019992D01*
X023834Y019983D01*
X023803Y019970D01*
X023773Y019954D01*
X023746Y019935D01*
X023721Y019912D01*
X023698Y019887D01*
X023679Y019860D01*
X023663Y019830D01*
X023650Y019799D01*
X023641Y019767D01*
X023635Y019734D01*
X023633Y019700D01*
X023633Y017950D01*
M02*
