G75*
%MOIN*%
%OFA0B0*%
%FSLAX24Y24*%
%IPPOS*%
%LPD*%
%AMOC8*
5,1,8,0,0,1.08239X$1,22.5*
%
%ADD10C,0.0100*%
%ADD11C,0.0600*%
%ADD12C,0.0000*%
%ADD13C,0.1400*%
%ADD14C,0.0740*%
%ADD15OC8,0.0700*%
%ADD16C,0.0700*%
%ADD17OC8,0.0520*%
%ADD18OC8,0.0825*%
%ADD19OC8,0.1270*%
%ADD20C,0.1000*%
%ADD21C,0.0886*%
%ADD22C,0.0160*%
%ADD23R,0.0472X0.0472*%
%ADD24C,0.0240*%
D10*
X000833Y004500D02*
X000833Y020996D01*
X040203Y020996D01*
X040203Y004500D01*
X000833Y004500D01*
D11*
X015833Y016700D02*
X015833Y017300D01*
X016833Y017300D02*
X016833Y016700D01*
X017833Y016700D02*
X017833Y017300D01*
X018833Y017300D02*
X018833Y016700D01*
X019833Y016700D02*
X019833Y017300D01*
X020833Y017300D02*
X020833Y016700D01*
X020833Y019700D02*
X020833Y020300D01*
X019833Y020300D02*
X019833Y019700D01*
X018833Y019700D02*
X018833Y020300D01*
X017833Y020300D02*
X017833Y019700D01*
X016833Y019700D02*
X016833Y020300D01*
X015833Y020300D02*
X015833Y019700D01*
X029833Y019300D02*
X029833Y018700D01*
X030833Y018700D02*
X030833Y019300D01*
X031833Y019300D02*
X031833Y018700D01*
X039033Y019000D02*
X039633Y019000D01*
X039633Y018000D02*
X039033Y018000D01*
X039033Y020000D02*
X039633Y020000D01*
D12*
X037467Y019937D02*
X037469Y019971D01*
X037475Y020005D01*
X037485Y020038D01*
X037498Y020069D01*
X037516Y020099D01*
X037536Y020127D01*
X037560Y020152D01*
X037586Y020174D01*
X037614Y020192D01*
X037645Y020208D01*
X037677Y020220D01*
X037711Y020228D01*
X037745Y020232D01*
X037779Y020232D01*
X037813Y020228D01*
X037847Y020220D01*
X037879Y020208D01*
X037909Y020192D01*
X037938Y020174D01*
X037964Y020152D01*
X037988Y020127D01*
X038008Y020099D01*
X038026Y020069D01*
X038039Y020038D01*
X038049Y020005D01*
X038055Y019971D01*
X038057Y019937D01*
X038055Y019903D01*
X038049Y019869D01*
X038039Y019836D01*
X038026Y019805D01*
X038008Y019775D01*
X037988Y019747D01*
X037964Y019722D01*
X037938Y019700D01*
X037910Y019682D01*
X037879Y019666D01*
X037847Y019654D01*
X037813Y019646D01*
X037779Y019642D01*
X037745Y019642D01*
X037711Y019646D01*
X037677Y019654D01*
X037645Y019666D01*
X037614Y019682D01*
X037586Y019700D01*
X037560Y019722D01*
X037536Y019747D01*
X037516Y019775D01*
X037498Y019805D01*
X037485Y019836D01*
X037475Y019869D01*
X037469Y019903D01*
X037467Y019937D01*
X035499Y017969D02*
X035501Y018003D01*
X035507Y018037D01*
X035517Y018070D01*
X035530Y018101D01*
X035548Y018131D01*
X035568Y018159D01*
X035592Y018184D01*
X035618Y018206D01*
X035646Y018224D01*
X035677Y018240D01*
X035709Y018252D01*
X035743Y018260D01*
X035777Y018264D01*
X035811Y018264D01*
X035845Y018260D01*
X035879Y018252D01*
X035911Y018240D01*
X035941Y018224D01*
X035970Y018206D01*
X035996Y018184D01*
X036020Y018159D01*
X036040Y018131D01*
X036058Y018101D01*
X036071Y018070D01*
X036081Y018037D01*
X036087Y018003D01*
X036089Y017969D01*
X036087Y017935D01*
X036081Y017901D01*
X036071Y017868D01*
X036058Y017837D01*
X036040Y017807D01*
X036020Y017779D01*
X035996Y017754D01*
X035970Y017732D01*
X035942Y017714D01*
X035911Y017698D01*
X035879Y017686D01*
X035845Y017678D01*
X035811Y017674D01*
X035777Y017674D01*
X035743Y017678D01*
X035709Y017686D01*
X035677Y017698D01*
X035646Y017714D01*
X035618Y017732D01*
X035592Y017754D01*
X035568Y017779D01*
X035548Y017807D01*
X035530Y017837D01*
X035517Y017868D01*
X035507Y017901D01*
X035501Y017935D01*
X035499Y017969D01*
X033530Y019937D02*
X033532Y019971D01*
X033538Y020005D01*
X033548Y020038D01*
X033561Y020069D01*
X033579Y020099D01*
X033599Y020127D01*
X033623Y020152D01*
X033649Y020174D01*
X033677Y020192D01*
X033708Y020208D01*
X033740Y020220D01*
X033774Y020228D01*
X033808Y020232D01*
X033842Y020232D01*
X033876Y020228D01*
X033910Y020220D01*
X033942Y020208D01*
X033972Y020192D01*
X034001Y020174D01*
X034027Y020152D01*
X034051Y020127D01*
X034071Y020099D01*
X034089Y020069D01*
X034102Y020038D01*
X034112Y020005D01*
X034118Y019971D01*
X034120Y019937D01*
X034118Y019903D01*
X034112Y019869D01*
X034102Y019836D01*
X034089Y019805D01*
X034071Y019775D01*
X034051Y019747D01*
X034027Y019722D01*
X034001Y019700D01*
X033973Y019682D01*
X033942Y019666D01*
X033910Y019654D01*
X033876Y019646D01*
X033842Y019642D01*
X033808Y019642D01*
X033774Y019646D01*
X033740Y019654D01*
X033708Y019666D01*
X033677Y019682D01*
X033649Y019700D01*
X033623Y019722D01*
X033599Y019747D01*
X033579Y019775D01*
X033561Y019805D01*
X033548Y019836D01*
X033538Y019869D01*
X033532Y019903D01*
X033530Y019937D01*
X038975Y011008D02*
X038977Y011042D01*
X038983Y011076D01*
X038993Y011109D01*
X039006Y011140D01*
X039024Y011170D01*
X039044Y011198D01*
X039068Y011223D01*
X039094Y011245D01*
X039122Y011263D01*
X039153Y011279D01*
X039185Y011291D01*
X039219Y011299D01*
X039253Y011303D01*
X039287Y011303D01*
X039321Y011299D01*
X039355Y011291D01*
X039387Y011279D01*
X039417Y011263D01*
X039446Y011245D01*
X039472Y011223D01*
X039496Y011198D01*
X039516Y011170D01*
X039534Y011140D01*
X039547Y011109D01*
X039557Y011076D01*
X039563Y011042D01*
X039565Y011008D01*
X039563Y010974D01*
X039557Y010940D01*
X039547Y010907D01*
X039534Y010876D01*
X039516Y010846D01*
X039496Y010818D01*
X039472Y010793D01*
X039446Y010771D01*
X039418Y010753D01*
X039387Y010737D01*
X039355Y010725D01*
X039321Y010717D01*
X039287Y010713D01*
X039253Y010713D01*
X039219Y010717D01*
X039185Y010725D01*
X039153Y010737D01*
X039122Y010753D01*
X039094Y010771D01*
X039068Y010793D01*
X039044Y010818D01*
X039024Y010846D01*
X039006Y010876D01*
X038993Y010907D01*
X038983Y010940D01*
X038977Y010974D01*
X038975Y011008D01*
X037007Y009039D02*
X037009Y009073D01*
X037015Y009107D01*
X037025Y009140D01*
X037038Y009171D01*
X037056Y009201D01*
X037076Y009229D01*
X037100Y009254D01*
X037126Y009276D01*
X037154Y009294D01*
X037185Y009310D01*
X037217Y009322D01*
X037251Y009330D01*
X037285Y009334D01*
X037319Y009334D01*
X037353Y009330D01*
X037387Y009322D01*
X037419Y009310D01*
X037449Y009294D01*
X037478Y009276D01*
X037504Y009254D01*
X037528Y009229D01*
X037548Y009201D01*
X037566Y009171D01*
X037579Y009140D01*
X037589Y009107D01*
X037595Y009073D01*
X037597Y009039D01*
X037595Y009005D01*
X037589Y008971D01*
X037579Y008938D01*
X037566Y008907D01*
X037548Y008877D01*
X037528Y008849D01*
X037504Y008824D01*
X037478Y008802D01*
X037450Y008784D01*
X037419Y008768D01*
X037387Y008756D01*
X037353Y008748D01*
X037319Y008744D01*
X037285Y008744D01*
X037251Y008748D01*
X037217Y008756D01*
X037185Y008768D01*
X037154Y008784D01*
X037126Y008802D01*
X037100Y008824D01*
X037076Y008849D01*
X037056Y008877D01*
X037038Y008907D01*
X037025Y008938D01*
X037015Y008971D01*
X037009Y009005D01*
X037007Y009039D01*
X038975Y007071D02*
X038977Y007105D01*
X038983Y007139D01*
X038993Y007172D01*
X039006Y007203D01*
X039024Y007233D01*
X039044Y007261D01*
X039068Y007286D01*
X039094Y007308D01*
X039122Y007326D01*
X039153Y007342D01*
X039185Y007354D01*
X039219Y007362D01*
X039253Y007366D01*
X039287Y007366D01*
X039321Y007362D01*
X039355Y007354D01*
X039387Y007342D01*
X039417Y007326D01*
X039446Y007308D01*
X039472Y007286D01*
X039496Y007261D01*
X039516Y007233D01*
X039534Y007203D01*
X039547Y007172D01*
X039557Y007139D01*
X039563Y007105D01*
X039565Y007071D01*
X039563Y007037D01*
X039557Y007003D01*
X039547Y006970D01*
X039534Y006939D01*
X039516Y006909D01*
X039496Y006881D01*
X039472Y006856D01*
X039446Y006834D01*
X039418Y006816D01*
X039387Y006800D01*
X039355Y006788D01*
X039321Y006780D01*
X039287Y006776D01*
X039253Y006776D01*
X039219Y006780D01*
X039185Y006788D01*
X039153Y006800D01*
X039122Y006816D01*
X039094Y006834D01*
X039068Y006856D01*
X039044Y006881D01*
X039024Y006909D01*
X039006Y006939D01*
X038993Y006970D01*
X038983Y007003D01*
X038977Y007037D01*
X038975Y007071D01*
X013379Y018673D02*
X013381Y018708D01*
X013387Y018742D01*
X013397Y018775D01*
X013410Y018808D01*
X013427Y018838D01*
X013448Y018866D01*
X013471Y018892D01*
X013498Y018915D01*
X013526Y018934D01*
X013557Y018950D01*
X013590Y018963D01*
X013623Y018972D01*
X013658Y018977D01*
X013693Y018978D01*
X013727Y018975D01*
X013762Y018968D01*
X013795Y018957D01*
X013826Y018943D01*
X013856Y018925D01*
X013884Y018904D01*
X013909Y018879D01*
X013931Y018852D01*
X013950Y018823D01*
X013965Y018792D01*
X013977Y018759D01*
X013985Y018725D01*
X013989Y018690D01*
X013989Y018656D01*
X013985Y018621D01*
X013977Y018587D01*
X013965Y018554D01*
X013950Y018523D01*
X013931Y018494D01*
X013909Y018467D01*
X013884Y018442D01*
X013856Y018421D01*
X013826Y018403D01*
X013795Y018389D01*
X013762Y018378D01*
X013727Y018371D01*
X013693Y018368D01*
X013658Y018369D01*
X013623Y018374D01*
X013590Y018383D01*
X013557Y018396D01*
X013526Y018412D01*
X013498Y018431D01*
X013471Y018454D01*
X013448Y018480D01*
X013427Y018508D01*
X013410Y018538D01*
X013397Y018571D01*
X013387Y018604D01*
X013381Y018638D01*
X013379Y018673D01*
X003828Y018673D02*
X003830Y018708D01*
X003836Y018742D01*
X003846Y018775D01*
X003859Y018808D01*
X003876Y018838D01*
X003897Y018866D01*
X003920Y018892D01*
X003947Y018915D01*
X003975Y018934D01*
X004006Y018950D01*
X004039Y018963D01*
X004072Y018972D01*
X004107Y018977D01*
X004142Y018978D01*
X004176Y018975D01*
X004211Y018968D01*
X004244Y018957D01*
X004275Y018943D01*
X004305Y018925D01*
X004333Y018904D01*
X004358Y018879D01*
X004380Y018852D01*
X004399Y018823D01*
X004414Y018792D01*
X004426Y018759D01*
X004434Y018725D01*
X004438Y018690D01*
X004438Y018656D01*
X004434Y018621D01*
X004426Y018587D01*
X004414Y018554D01*
X004399Y018523D01*
X004380Y018494D01*
X004358Y018467D01*
X004333Y018442D01*
X004305Y018421D01*
X004275Y018403D01*
X004244Y018389D01*
X004211Y018378D01*
X004176Y018371D01*
X004142Y018368D01*
X004107Y018369D01*
X004072Y018374D01*
X004039Y018383D01*
X004006Y018396D01*
X003975Y018412D01*
X003947Y018431D01*
X003920Y018454D01*
X003897Y018480D01*
X003876Y018508D01*
X003859Y018538D01*
X003846Y018571D01*
X003836Y018604D01*
X003830Y018638D01*
X003828Y018673D01*
D13*
X001833Y020000D03*
X031833Y006500D03*
D14*
X027833Y009000D03*
X024833Y009000D03*
X021833Y010500D03*
X020833Y009500D03*
X019833Y008500D03*
X017833Y008500D03*
X017833Y009500D03*
X018833Y010500D03*
X019833Y011500D03*
X020833Y012500D03*
X020833Y013500D03*
X023833Y013500D03*
X023833Y012500D03*
X024833Y012000D03*
X022833Y011500D03*
X027833Y012000D03*
X028333Y013000D03*
X028333Y016000D03*
X019833Y005500D03*
X017833Y005500D03*
D15*
X034833Y007500D03*
X038333Y014000D03*
X035833Y015000D03*
X033333Y015000D03*
X025333Y015500D03*
D16*
X025333Y014500D03*
X033333Y014000D03*
X035833Y014000D03*
X038333Y015000D03*
X033833Y007500D03*
D17*
X026833Y011000D03*
X025833Y011000D03*
X026333Y010250D03*
X026833Y013500D03*
X026833Y015500D03*
D18*
X025833Y017000D03*
D19*
X028033Y017000D03*
X023633Y017000D03*
X025833Y020000D03*
D20*
X035794Y019937D03*
X039270Y009039D03*
D21*
X037302Y008094D03*
X037302Y007031D03*
X037302Y009984D03*
X037302Y011047D03*
X037802Y017969D03*
X036739Y017969D03*
X034849Y017969D03*
X033786Y017969D03*
D22*
X033180Y018290D02*
X032187Y018290D01*
X032139Y018242D02*
X032291Y018394D01*
X032373Y018593D01*
X032373Y019407D01*
X032291Y019606D01*
X032139Y019758D01*
X031941Y019840D01*
X031726Y019840D01*
X031527Y019758D01*
X031376Y019606D01*
X031299Y019421D01*
X031278Y019484D01*
X031244Y019552D01*
X031199Y019613D01*
X031146Y019666D01*
X031085Y019711D01*
X031018Y019745D01*
X030946Y019768D01*
X030871Y019780D01*
X030853Y019780D01*
X030853Y019020D01*
X030813Y019020D01*
X030813Y019780D01*
X030796Y019780D01*
X030721Y019768D01*
X030649Y019745D01*
X030582Y019711D01*
X030521Y019666D01*
X030467Y019613D01*
X030423Y019552D01*
X030388Y019484D01*
X030368Y019421D01*
X030291Y019606D01*
X030139Y019758D01*
X029941Y019840D01*
X029726Y019840D01*
X029527Y019758D01*
X029376Y019606D01*
X029293Y019407D01*
X029293Y018593D01*
X029376Y018394D01*
X029527Y018242D01*
X029726Y018160D01*
X029941Y018160D01*
X030139Y018242D01*
X030291Y018394D01*
X030368Y018579D01*
X030388Y018516D01*
X030423Y018448D01*
X030313Y018448D01*
X030423Y018448D02*
X030467Y018387D01*
X030521Y018334D01*
X030582Y018289D01*
X030649Y018255D01*
X030721Y018232D01*
X030796Y018220D01*
X030813Y018220D01*
X030813Y018980D01*
X030853Y018980D01*
X030853Y018220D01*
X030871Y018220D01*
X030946Y018232D01*
X031018Y018255D01*
X031085Y018289D01*
X031146Y018334D01*
X031199Y018387D01*
X031244Y018448D01*
X031353Y018448D01*
X031376Y018394D02*
X031299Y018579D01*
X031278Y018516D01*
X031244Y018448D01*
X031376Y018394D02*
X031527Y018242D01*
X031726Y018160D01*
X031941Y018160D01*
X032139Y018242D01*
X032313Y018448D02*
X033300Y018448D01*
X033207Y018355D02*
X033399Y018547D01*
X033650Y018651D01*
X033922Y018651D01*
X034173Y018547D01*
X034318Y018403D01*
X034462Y018547D01*
X034713Y018651D01*
X034985Y018651D01*
X035236Y018547D01*
X035398Y018386D01*
X035468Y018456D01*
X035680Y018544D01*
X035908Y018544D01*
X036120Y018456D01*
X036190Y018386D01*
X036352Y018547D01*
X036603Y018651D01*
X036875Y018651D01*
X037126Y018547D01*
X037270Y018403D01*
X037415Y018547D01*
X037666Y018651D01*
X037938Y018651D01*
X038189Y018547D01*
X038381Y018355D01*
X038485Y018104D01*
X038485Y017833D01*
X038381Y017582D01*
X038189Y017390D01*
X037938Y017286D01*
X037666Y017286D01*
X037415Y017390D01*
X037270Y017534D01*
X037126Y017390D01*
X036875Y017286D01*
X036603Y017286D01*
X036352Y017390D01*
X036190Y017551D01*
X036120Y017481D01*
X035908Y017393D01*
X035680Y017393D01*
X035468Y017481D01*
X035398Y017551D01*
X035236Y017390D01*
X034985Y017286D01*
X034713Y017286D01*
X034462Y017390D01*
X034318Y017534D01*
X034173Y017390D01*
X033922Y017286D01*
X033650Y017286D01*
X033399Y017390D01*
X033207Y017582D01*
X033103Y017833D01*
X033103Y018104D01*
X033207Y018355D01*
X033114Y018131D02*
X025310Y018131D01*
X025310Y018284D02*
X025273Y018372D01*
X025206Y018440D01*
X025117Y018476D01*
X024866Y018476D01*
X023310Y020033D01*
X025753Y020033D01*
X025753Y020080D02*
X025753Y019920D01*
X025018Y019920D01*
X025018Y019662D01*
X025496Y019185D01*
X025753Y019185D01*
X025753Y019920D01*
X025913Y019920D01*
X025913Y019185D01*
X026171Y019185D01*
X026648Y019662D01*
X026648Y019920D01*
X025913Y019920D01*
X025913Y020080D01*
X026648Y020080D01*
X026648Y020338D01*
X026320Y020666D01*
X039873Y020666D01*
X039873Y020416D01*
X039818Y020445D01*
X039746Y020468D01*
X039671Y020480D01*
X039353Y020480D01*
X039353Y020020D01*
X039313Y020020D01*
X039313Y019980D01*
X038553Y019980D01*
X038553Y019962D01*
X038565Y019888D01*
X038588Y019816D01*
X038623Y019748D01*
X038667Y019687D01*
X038721Y019634D01*
X038782Y019589D01*
X038849Y019555D01*
X038913Y019535D01*
X038727Y019458D01*
X038576Y019306D01*
X038493Y019107D01*
X038493Y018893D01*
X038576Y018694D01*
X038727Y018542D01*
X038829Y018500D01*
X038727Y018458D01*
X038576Y018306D01*
X038493Y018107D01*
X038493Y017893D01*
X038576Y017694D01*
X038727Y017542D01*
X038926Y017460D01*
X039741Y017460D01*
X039873Y017515D01*
X039873Y009355D01*
X039837Y009418D01*
X039783Y009489D01*
X039720Y009552D01*
X039649Y009606D01*
X039572Y009651D01*
X039489Y009685D01*
X039403Y009708D01*
X039338Y009716D01*
X039338Y009107D01*
X039203Y009107D01*
X039203Y009716D01*
X039137Y009708D01*
X039051Y009685D01*
X038969Y009651D01*
X038892Y009606D01*
X038821Y009552D01*
X038758Y009489D01*
X038704Y009418D01*
X038659Y009341D01*
X038625Y009258D01*
X038602Y009172D01*
X038593Y009107D01*
X039203Y009107D01*
X039203Y008972D01*
X039338Y008972D01*
X039338Y008362D01*
X039403Y008371D01*
X039489Y008394D01*
X039572Y008428D01*
X039649Y008473D01*
X039720Y008527D01*
X039783Y008590D01*
X039837Y008661D01*
X039873Y008724D01*
X039873Y004830D01*
X001163Y004830D01*
X001163Y019341D01*
X001301Y019203D01*
X001646Y019060D01*
X002020Y019060D01*
X002366Y019203D01*
X002630Y019468D01*
X002773Y019813D01*
X002773Y020187D01*
X002630Y020532D01*
X002497Y020666D01*
X015436Y020666D01*
X015376Y020606D01*
X015293Y020407D01*
X015293Y020323D01*
X015273Y020372D01*
X015206Y020440D01*
X015117Y020476D01*
X014549Y020476D01*
X014461Y020440D01*
X014394Y020372D01*
X014357Y020284D01*
X014357Y019716D01*
X014394Y019628D01*
X014461Y019560D01*
X014473Y019555D01*
X014473Y018928D01*
X014528Y018796D01*
X015357Y017967D01*
X015357Y017716D01*
X015394Y017628D01*
X015396Y017626D01*
X015376Y017606D01*
X015293Y017407D01*
X015293Y016593D01*
X015376Y016394D01*
X015527Y016242D01*
X015726Y016160D01*
X015941Y016160D01*
X016139Y016242D01*
X016291Y016394D01*
X016333Y016496D01*
X016376Y016394D01*
X016527Y016242D01*
X016726Y016160D01*
X016941Y016160D01*
X017139Y016242D01*
X017291Y016394D01*
X017333Y016496D01*
X017376Y016394D01*
X017527Y016242D01*
X017726Y016160D01*
X017941Y016160D01*
X018139Y016242D01*
X018291Y016394D01*
X018333Y016496D01*
X018376Y016394D01*
X018527Y016242D01*
X018726Y016160D01*
X018941Y016160D01*
X019139Y016242D01*
X019291Y016394D01*
X019333Y016496D01*
X019376Y016394D01*
X019527Y016242D01*
X019726Y016160D01*
X019941Y016160D01*
X020139Y016242D01*
X020291Y016394D01*
X020333Y016496D01*
X020376Y016394D01*
X020527Y016242D01*
X020726Y016160D01*
X020941Y016160D01*
X021139Y016242D01*
X021291Y016394D01*
X021373Y016593D01*
X021373Y017407D01*
X021291Y017606D01*
X021139Y017758D01*
X020941Y017840D01*
X020726Y017840D01*
X020527Y017758D01*
X020376Y017606D01*
X020333Y017504D01*
X020291Y017606D01*
X020139Y017758D01*
X019941Y017840D01*
X019726Y017840D01*
X019527Y017758D01*
X019376Y017606D01*
X019333Y017504D01*
X019291Y017606D01*
X019139Y017758D01*
X018941Y017840D01*
X018726Y017840D01*
X018527Y017758D01*
X018376Y017606D01*
X018333Y017504D01*
X018291Y017606D01*
X018139Y017758D01*
X017941Y017840D01*
X017726Y017840D01*
X017527Y017758D01*
X017376Y017606D01*
X017333Y017504D01*
X017291Y017606D01*
X017139Y017758D01*
X016941Y017840D01*
X016726Y017840D01*
X016527Y017758D01*
X016376Y017606D01*
X016333Y017504D01*
X016291Y017606D01*
X016271Y017626D01*
X016273Y017628D01*
X016310Y017716D01*
X016310Y018284D01*
X016273Y018372D01*
X016206Y018440D01*
X016117Y018476D01*
X015866Y018476D01*
X015193Y019149D01*
X015193Y019555D01*
X015206Y019560D01*
X015273Y019628D01*
X015293Y019677D01*
X015293Y019593D01*
X015376Y019394D01*
X015527Y019242D01*
X015726Y019160D01*
X015941Y019160D01*
X016139Y019242D01*
X016291Y019394D01*
X016333Y019496D01*
X016376Y019394D01*
X016527Y019242D01*
X016726Y019160D01*
X016941Y019160D01*
X017139Y019242D01*
X017291Y019394D01*
X017333Y019496D01*
X017376Y019394D01*
X017527Y019242D01*
X017726Y019160D01*
X017941Y019160D01*
X018139Y019242D01*
X018291Y019394D01*
X018333Y019496D01*
X018376Y019394D01*
X018527Y019242D01*
X018726Y019160D01*
X018941Y019160D01*
X019139Y019242D01*
X019291Y019394D01*
X019333Y019496D01*
X019376Y019394D01*
X019527Y019242D01*
X019726Y019160D01*
X019941Y019160D01*
X020139Y019242D01*
X020291Y019394D01*
X020333Y019496D01*
X020376Y019394D01*
X020527Y019242D01*
X020726Y019160D01*
X020941Y019160D01*
X021139Y019242D01*
X021291Y019394D01*
X021373Y019593D01*
X021373Y020407D01*
X021291Y020606D01*
X021231Y020666D01*
X025347Y020666D01*
X025018Y020338D01*
X025018Y020080D01*
X025753Y020080D01*
X025913Y020033D02*
X033250Y020033D01*
X033250Y020051D02*
X033250Y019823D01*
X033338Y019611D01*
X033500Y019449D01*
X033711Y019362D01*
X033940Y019362D01*
X034151Y019449D01*
X034313Y019611D01*
X034401Y019823D01*
X034401Y020051D01*
X034313Y020263D01*
X034151Y020425D01*
X033940Y020512D01*
X033711Y020512D01*
X033500Y020425D01*
X033338Y020263D01*
X033250Y020051D01*
X033308Y020192D02*
X026648Y020192D01*
X026636Y020350D02*
X033425Y020350D01*
X033702Y020509D02*
X026477Y020509D01*
X026648Y019875D02*
X033250Y019875D01*
X033294Y019716D02*
X032181Y019716D01*
X032311Y019558D02*
X033391Y019558D01*
X033621Y019399D02*
X032373Y019399D01*
X032373Y019241D02*
X038548Y019241D01*
X038493Y019082D02*
X032373Y019082D01*
X032373Y018924D02*
X038493Y018924D01*
X038546Y018765D02*
X032373Y018765D01*
X032373Y018607D02*
X033542Y018607D01*
X034030Y018607D02*
X034605Y018607D01*
X034363Y018448D02*
X034272Y018448D01*
X035093Y018607D02*
X036495Y018607D01*
X036253Y018448D02*
X036128Y018448D01*
X035460Y018448D02*
X035335Y018448D01*
X035575Y019292D02*
X035661Y019269D01*
X035726Y019260D01*
X035726Y019869D01*
X035862Y019869D01*
X035862Y020005D01*
X036471Y020005D01*
X036462Y020070D01*
X036439Y020156D01*
X036405Y020238D01*
X036361Y020316D01*
X036306Y020386D01*
X036243Y020449D01*
X036173Y020504D01*
X036095Y020548D01*
X036013Y020582D01*
X035927Y020605D01*
X035862Y020614D01*
X035862Y020005D01*
X035726Y020005D01*
X035726Y020614D01*
X035661Y020605D01*
X035575Y020582D01*
X035493Y020548D01*
X035415Y020504D01*
X035345Y020449D01*
X035282Y020386D01*
X035227Y020316D01*
X035183Y020238D01*
X035149Y020156D01*
X035126Y020070D01*
X035117Y020005D01*
X035726Y020005D01*
X035726Y019869D01*
X035117Y019869D01*
X035126Y019804D01*
X035149Y019718D01*
X035183Y019636D01*
X035227Y019558D01*
X035282Y019488D01*
X035345Y019425D01*
X035415Y019370D01*
X035493Y019326D01*
X035575Y019292D01*
X035726Y019399D02*
X035862Y019399D01*
X035862Y019260D02*
X035927Y019269D01*
X036013Y019292D01*
X036095Y019326D01*
X036173Y019370D01*
X036243Y019425D01*
X036306Y019488D01*
X036361Y019558D01*
X036405Y019636D01*
X036439Y019718D01*
X036462Y019804D01*
X036471Y019869D01*
X035862Y019869D01*
X035862Y019260D01*
X035862Y019558D02*
X035726Y019558D01*
X035726Y019716D02*
X035862Y019716D01*
X035862Y019875D02*
X037187Y019875D01*
X037187Y019823D02*
X037187Y020051D01*
X037275Y020263D01*
X037437Y020425D01*
X037648Y020512D01*
X037877Y020512D01*
X038088Y020425D01*
X038250Y020263D01*
X038338Y020051D01*
X038338Y019823D01*
X038250Y019611D01*
X038088Y019449D01*
X037877Y019362D01*
X037648Y019362D01*
X037437Y019449D01*
X037275Y019611D01*
X037187Y019823D01*
X037231Y019716D02*
X036438Y019716D01*
X036360Y019558D02*
X037328Y019558D01*
X037558Y019399D02*
X036210Y019399D01*
X035726Y019875D02*
X034401Y019875D01*
X034401Y020033D02*
X035121Y020033D01*
X035163Y020192D02*
X034343Y020192D01*
X034226Y020350D02*
X035254Y020350D01*
X035424Y020509D02*
X033949Y020509D01*
X034357Y019716D02*
X035149Y019716D01*
X035228Y019558D02*
X034260Y019558D01*
X034030Y019399D02*
X035378Y019399D01*
X035726Y020033D02*
X035862Y020033D01*
X035862Y020192D02*
X035726Y020192D01*
X035726Y020350D02*
X035862Y020350D01*
X035862Y020509D02*
X035726Y020509D01*
X036164Y020509D02*
X037639Y020509D01*
X037886Y020509D02*
X039873Y020509D01*
X039353Y020350D02*
X039313Y020350D01*
X039313Y020480D02*
X038996Y020480D01*
X038921Y020468D01*
X038849Y020445D01*
X038782Y020411D01*
X038721Y020366D01*
X038667Y020313D01*
X038623Y020252D01*
X038588Y020184D01*
X038565Y020112D01*
X038553Y020038D01*
X038553Y020020D01*
X039313Y020020D01*
X039313Y020480D01*
X039313Y020192D02*
X039353Y020192D01*
X039353Y020033D02*
X039313Y020033D01*
X038844Y019558D02*
X038197Y019558D01*
X038294Y019716D02*
X038646Y019716D01*
X038569Y019875D02*
X038338Y019875D01*
X038338Y020033D02*
X038553Y020033D01*
X038592Y020192D02*
X038280Y020192D01*
X038163Y020350D02*
X038705Y020350D01*
X038669Y019399D02*
X037967Y019399D01*
X037187Y020033D02*
X036467Y020033D01*
X036425Y020192D02*
X037245Y020192D01*
X037362Y020350D02*
X036334Y020350D01*
X036983Y018607D02*
X037558Y018607D01*
X037316Y018448D02*
X037225Y018448D01*
X038046Y018607D02*
X038663Y018607D01*
X038718Y018448D02*
X038288Y018448D01*
X038408Y018290D02*
X038569Y018290D01*
X038503Y018131D02*
X038474Y018131D01*
X038485Y017973D02*
X038493Y017973D01*
X038477Y017814D02*
X038526Y017814D01*
X038614Y017656D02*
X038411Y017656D01*
X038296Y017497D02*
X038837Y017497D01*
X038065Y017339D02*
X039873Y017339D01*
X039873Y017497D02*
X039830Y017497D01*
X039873Y017180D02*
X028848Y017180D01*
X028848Y017080D02*
X028848Y017338D01*
X028371Y017815D01*
X028113Y017815D01*
X028113Y017080D01*
X027953Y017080D01*
X027953Y016920D01*
X027218Y016920D01*
X027218Y016662D01*
X027696Y016185D01*
X027815Y016185D01*
X027797Y016129D01*
X027783Y016043D01*
X027783Y016009D01*
X028325Y016009D01*
X028325Y015991D01*
X028342Y015991D01*
X028342Y015450D01*
X028377Y015450D01*
X028462Y015464D01*
X028544Y015490D01*
X028622Y015530D01*
X028692Y015580D01*
X028753Y015642D01*
X028804Y015712D01*
X028843Y015789D01*
X028870Y015871D01*
X028883Y015957D01*
X028883Y015991D01*
X028342Y015991D01*
X028342Y016009D01*
X028883Y016009D01*
X028883Y016043D01*
X028870Y016129D01*
X028843Y016211D01*
X028804Y016288D01*
X028753Y016358D01*
X028692Y016420D01*
X028642Y016456D01*
X028848Y016662D01*
X028848Y016920D01*
X028113Y016920D01*
X028113Y017080D01*
X028848Y017080D01*
X028848Y016863D02*
X039873Y016863D01*
X039873Y016705D02*
X028848Y016705D01*
X028732Y016546D02*
X039873Y016546D01*
X039873Y016388D02*
X028724Y016388D01*
X028834Y016229D02*
X039873Y016229D01*
X039873Y016071D02*
X028879Y016071D01*
X028876Y015912D02*
X039873Y015912D01*
X039873Y015754D02*
X028825Y015754D01*
X028706Y015595D02*
X039873Y015595D01*
X039873Y015437D02*
X038731Y015437D01*
X038668Y015500D02*
X038834Y015334D01*
X038923Y015117D01*
X038923Y014883D01*
X038834Y014666D01*
X038668Y014500D01*
X038923Y014244D01*
X038923Y013756D01*
X038578Y013410D01*
X038089Y013410D01*
X037743Y013756D01*
X037743Y014244D01*
X037999Y014500D01*
X037833Y014666D01*
X037743Y014883D01*
X037743Y015117D01*
X037833Y015334D01*
X037999Y015500D01*
X038216Y015590D01*
X038451Y015590D01*
X038668Y015500D01*
X038857Y015278D02*
X039873Y015278D01*
X039873Y015120D02*
X038922Y015120D01*
X038923Y014961D02*
X039873Y014961D01*
X039873Y014803D02*
X038890Y014803D01*
X038812Y014644D02*
X039873Y014644D01*
X039873Y014486D02*
X038682Y014486D01*
X038841Y014327D02*
X039873Y014327D01*
X039873Y014169D02*
X038923Y014169D01*
X038923Y014010D02*
X039873Y014010D01*
X039873Y013852D02*
X038923Y013852D01*
X038861Y013693D02*
X039873Y013693D01*
X039873Y013535D02*
X038702Y013535D01*
X037964Y013535D02*
X036202Y013535D01*
X036168Y013500D02*
X036334Y013666D01*
X036423Y013883D01*
X036423Y014117D01*
X036334Y014334D01*
X036168Y014500D01*
X036423Y014756D01*
X036423Y015244D01*
X036078Y015590D01*
X035589Y015590D01*
X035243Y015244D01*
X035243Y014756D01*
X035499Y014500D01*
X035333Y014334D01*
X035243Y014117D01*
X035243Y013883D01*
X035333Y013666D01*
X035499Y013500D01*
X035716Y013410D01*
X035951Y013410D01*
X036168Y013500D01*
X036345Y013693D02*
X037806Y013693D01*
X037743Y013852D02*
X036410Y013852D01*
X036423Y014010D02*
X037743Y014010D01*
X037743Y014169D02*
X036402Y014169D01*
X036336Y014327D02*
X037826Y014327D01*
X037984Y014486D02*
X036182Y014486D01*
X036312Y014644D02*
X037855Y014644D01*
X037777Y014803D02*
X036423Y014803D01*
X036423Y014961D02*
X037743Y014961D01*
X037744Y015120D02*
X036423Y015120D01*
X036390Y015278D02*
X037810Y015278D01*
X037935Y015437D02*
X036231Y015437D01*
X035435Y015437D02*
X033731Y015437D01*
X033578Y015590D02*
X033089Y015590D01*
X032743Y015244D01*
X032743Y014756D01*
X032999Y014500D01*
X032833Y014334D01*
X032743Y014117D01*
X032743Y013883D01*
X032833Y013666D01*
X032999Y013500D01*
X033216Y013410D01*
X033451Y013410D01*
X033668Y013500D01*
X033834Y013666D01*
X033923Y013883D01*
X033923Y014117D01*
X033834Y014334D01*
X033668Y014500D01*
X033923Y014756D01*
X033923Y015244D01*
X033578Y015590D01*
X033890Y015278D02*
X035277Y015278D01*
X035243Y015120D02*
X033923Y015120D01*
X033923Y014961D02*
X035243Y014961D01*
X035243Y014803D02*
X033923Y014803D01*
X033812Y014644D02*
X035355Y014644D01*
X035484Y014486D02*
X033682Y014486D01*
X033836Y014327D02*
X035330Y014327D01*
X035265Y014169D02*
X033902Y014169D01*
X033923Y014010D02*
X035243Y014010D01*
X035256Y013852D02*
X033910Y013852D01*
X033845Y013693D02*
X035322Y013693D01*
X035464Y013535D02*
X033702Y013535D01*
X032964Y013535D02*
X028637Y013535D01*
X028679Y013517D02*
X028455Y013610D01*
X028212Y013610D01*
X027988Y013517D01*
X027816Y013346D01*
X027723Y013121D01*
X027723Y012879D01*
X027816Y012654D01*
X027861Y012610D01*
X027712Y012610D01*
X027488Y012517D01*
X027316Y012346D01*
X027223Y012121D01*
X027223Y011879D01*
X027316Y011654D01*
X027488Y011483D01*
X027712Y011390D01*
X027955Y011390D01*
X028179Y011483D01*
X028350Y011654D01*
X028443Y011879D01*
X028443Y012121D01*
X028350Y012346D01*
X028306Y012390D01*
X028455Y012390D01*
X028679Y012483D01*
X028850Y012654D01*
X028943Y012879D01*
X028943Y013121D01*
X028850Y013346D01*
X028679Y013517D01*
X028820Y013376D02*
X039873Y013376D01*
X039873Y013218D02*
X028903Y013218D01*
X028943Y013059D02*
X039873Y013059D01*
X039873Y012901D02*
X028943Y012901D01*
X028887Y012742D02*
X039873Y012742D01*
X039873Y012584D02*
X028780Y012584D01*
X028539Y012425D02*
X039873Y012425D01*
X039873Y012267D02*
X028383Y012267D01*
X028443Y012108D02*
X039873Y012108D01*
X039873Y011950D02*
X028443Y011950D01*
X028407Y011791D02*
X039873Y011791D01*
X039873Y011633D02*
X037673Y011633D01*
X037689Y011626D02*
X037438Y011730D01*
X037166Y011730D01*
X036915Y011626D01*
X036723Y011434D01*
X036619Y011183D01*
X036619Y010911D01*
X036723Y010660D01*
X036868Y010516D01*
X036723Y010371D01*
X036619Y010120D01*
X036619Y009848D01*
X036723Y009597D01*
X036885Y009436D01*
X036814Y009365D01*
X036727Y009154D01*
X036727Y008925D01*
X036814Y008714D01*
X036885Y008643D01*
X036723Y008481D01*
X036619Y008230D01*
X036619Y007959D01*
X036723Y007708D01*
X036868Y007563D01*
X036723Y007418D01*
X036619Y007167D01*
X036619Y006896D01*
X036723Y006645D01*
X036915Y006453D01*
X037166Y006349D01*
X037438Y006349D01*
X037689Y006453D01*
X037881Y006645D01*
X037985Y006896D01*
X037985Y007167D01*
X037881Y007418D01*
X037736Y007563D01*
X037881Y007708D01*
X037985Y007959D01*
X037985Y008230D01*
X037881Y008481D01*
X037719Y008643D01*
X037790Y008714D01*
X037877Y008925D01*
X037877Y009154D01*
X037790Y009365D01*
X037719Y009436D01*
X037881Y009597D01*
X037985Y009848D01*
X037985Y010120D01*
X037881Y010371D01*
X037736Y010516D01*
X037881Y010660D01*
X037985Y010911D01*
X037985Y011183D01*
X037881Y011434D01*
X037689Y011626D01*
X037841Y011474D02*
X038923Y011474D01*
X038944Y011496D02*
X038783Y011334D01*
X038695Y011122D01*
X038695Y010893D01*
X038783Y010682D01*
X038944Y010520D01*
X039156Y010433D01*
X039385Y010433D01*
X039596Y010520D01*
X039758Y010682D01*
X039846Y010893D01*
X039846Y011122D01*
X039758Y011334D01*
X039596Y011496D01*
X039385Y011583D01*
X039156Y011583D01*
X038944Y011496D01*
X038775Y011316D02*
X037930Y011316D01*
X037985Y011157D02*
X038709Y011157D01*
X038695Y010999D02*
X037985Y010999D01*
X037955Y010840D02*
X038717Y010840D01*
X038783Y010682D02*
X037890Y010682D01*
X037743Y010523D02*
X038942Y010523D01*
X039599Y010523D02*
X039873Y010523D01*
X039873Y010365D02*
X037884Y010365D01*
X037949Y010206D02*
X039873Y010206D01*
X039873Y010048D02*
X037985Y010048D01*
X037985Y009889D02*
X039873Y009889D01*
X039873Y009731D02*
X037936Y009731D01*
X037855Y009572D02*
X038847Y009572D01*
X038701Y009414D02*
X037741Y009414D01*
X037835Y009255D02*
X038624Y009255D01*
X039203Y009097D02*
X037877Y009097D01*
X037877Y008938D02*
X038598Y008938D01*
X038602Y008906D02*
X038625Y008820D01*
X038659Y008738D01*
X038704Y008661D01*
X038758Y008590D01*
X038821Y008527D01*
X038892Y008473D01*
X038969Y008428D01*
X039051Y008394D01*
X039137Y008371D01*
X039203Y008362D01*
X039203Y008972D01*
X038593Y008972D01*
X038602Y008906D01*
X038642Y008780D02*
X037817Y008780D01*
X037741Y008621D02*
X038734Y008621D01*
X038909Y008463D02*
X037889Y008463D01*
X037954Y008304D02*
X039873Y008304D01*
X039873Y008146D02*
X037985Y008146D01*
X037985Y007987D02*
X039873Y007987D01*
X039873Y007829D02*
X037931Y007829D01*
X037843Y007670D02*
X039873Y007670D01*
X039873Y007512D02*
X039643Y007512D01*
X039596Y007559D02*
X039385Y007646D01*
X039156Y007646D01*
X038944Y007559D01*
X038783Y007397D01*
X038695Y007185D01*
X038695Y006956D01*
X038783Y006745D01*
X038944Y006583D01*
X039156Y006496D01*
X039385Y006496D01*
X039596Y006583D01*
X039758Y006745D01*
X039846Y006956D01*
X039846Y007185D01*
X039758Y007397D01*
X039596Y007559D01*
X039776Y007353D02*
X039873Y007353D01*
X039873Y007195D02*
X039842Y007195D01*
X039846Y007036D02*
X039873Y007036D01*
X039873Y006878D02*
X039813Y006878D01*
X039873Y006719D02*
X039732Y006719D01*
X039873Y006561D02*
X039541Y006561D01*
X039873Y006402D02*
X037567Y006402D01*
X037797Y006561D02*
X038999Y006561D01*
X038809Y006719D02*
X037912Y006719D01*
X037977Y006878D02*
X038728Y006878D01*
X038695Y007036D02*
X037985Y007036D01*
X037973Y007195D02*
X038699Y007195D01*
X038765Y007353D02*
X037908Y007353D01*
X037788Y007512D02*
X038897Y007512D01*
X039203Y008463D02*
X039338Y008463D01*
X039338Y008621D02*
X039203Y008621D01*
X039203Y008780D02*
X039338Y008780D01*
X039338Y008938D02*
X039203Y008938D01*
X039806Y008621D02*
X039873Y008621D01*
X039873Y008463D02*
X039631Y008463D01*
X039338Y009255D02*
X039203Y009255D01*
X039203Y009414D02*
X039338Y009414D01*
X039338Y009572D02*
X039203Y009572D01*
X039693Y009572D02*
X039873Y009572D01*
X039873Y009414D02*
X039840Y009414D01*
X039873Y010682D02*
X039758Y010682D01*
X039823Y010840D02*
X039873Y010840D01*
X039873Y010999D02*
X039846Y010999D01*
X039831Y011157D02*
X039873Y011157D01*
X039873Y011316D02*
X039766Y011316D01*
X039873Y011474D02*
X039618Y011474D01*
X036930Y011633D02*
X028329Y011633D01*
X028157Y011474D02*
X029044Y011474D01*
X029049Y011476D02*
X028961Y011440D01*
X028894Y011372D01*
X028857Y011284D01*
X028857Y010716D01*
X028894Y010628D01*
X028961Y010560D01*
X029049Y010524D01*
X029617Y010524D01*
X029706Y010560D01*
X029773Y010628D01*
X029778Y010640D01*
X032889Y010640D01*
X032894Y010628D01*
X032961Y010560D01*
X033049Y010524D01*
X033617Y010524D01*
X033706Y010560D01*
X033773Y010628D01*
X033810Y010716D01*
X033810Y011284D01*
X033773Y011372D01*
X033706Y011440D01*
X033617Y011476D01*
X033049Y011476D01*
X032961Y011440D01*
X032894Y011372D01*
X032889Y011360D01*
X029778Y011360D01*
X029773Y011372D01*
X029706Y011440D01*
X029617Y011476D01*
X029049Y011476D01*
X028870Y011316D02*
X027225Y011316D01*
X027333Y011207D02*
X027040Y011500D01*
X026626Y011500D01*
X026333Y011207D01*
X026040Y011500D01*
X025626Y011500D01*
X025333Y011207D01*
X025333Y010793D01*
X025626Y010500D01*
X025876Y010500D01*
X025833Y010457D01*
X025833Y010043D01*
X026126Y009750D01*
X026540Y009750D01*
X026833Y010043D01*
X026833Y010457D01*
X026790Y010500D01*
X027040Y010500D01*
X027333Y010793D01*
X027333Y011207D01*
X027333Y011157D02*
X028857Y011157D01*
X028857Y010999D02*
X027333Y010999D01*
X027333Y010840D02*
X028857Y010840D01*
X028871Y010682D02*
X027222Y010682D01*
X027063Y010523D02*
X036860Y010523D01*
X036720Y010365D02*
X033776Y010365D01*
X033773Y010372D02*
X033706Y010440D01*
X033617Y010476D01*
X033049Y010476D01*
X032961Y010440D01*
X032894Y010372D01*
X032889Y010360D01*
X029778Y010360D01*
X029773Y010372D01*
X029706Y010440D01*
X029617Y010476D01*
X029049Y010476D01*
X028961Y010440D01*
X028894Y010372D01*
X028857Y010284D01*
X028857Y009716D01*
X028894Y009628D01*
X028961Y009560D01*
X029049Y009524D01*
X029617Y009524D01*
X029706Y009560D01*
X029773Y009628D01*
X029778Y009640D01*
X032889Y009640D01*
X032894Y009628D01*
X032961Y009560D01*
X033049Y009524D01*
X033617Y009524D01*
X033706Y009560D01*
X033773Y009628D01*
X033810Y009716D01*
X033810Y010284D01*
X033773Y010372D01*
X033810Y010206D02*
X036655Y010206D01*
X036619Y010048D02*
X033810Y010048D01*
X033810Y009889D02*
X036619Y009889D01*
X036668Y009731D02*
X033810Y009731D01*
X033717Y009572D02*
X036748Y009572D01*
X036862Y009414D02*
X028282Y009414D01*
X028350Y009346D02*
X028179Y009517D01*
X027955Y009610D01*
X027712Y009610D01*
X027488Y009517D01*
X027316Y009346D01*
X027223Y009121D01*
X027223Y008879D01*
X027316Y008654D01*
X027488Y008483D01*
X027712Y008390D01*
X027955Y008390D01*
X028179Y008483D01*
X028350Y008654D01*
X028443Y008879D01*
X028443Y009121D01*
X028350Y009346D01*
X028388Y009255D02*
X036768Y009255D01*
X036727Y009097D02*
X028443Y009097D01*
X028443Y008938D02*
X036727Y008938D01*
X036787Y008780D02*
X028402Y008780D01*
X028317Y008621D02*
X036863Y008621D01*
X036715Y008463D02*
X028130Y008463D01*
X027537Y008463D02*
X025130Y008463D01*
X025179Y008483D02*
X025350Y008654D01*
X025443Y008879D01*
X025443Y009121D01*
X025350Y009346D01*
X025179Y009517D01*
X024955Y009610D01*
X024712Y009610D01*
X024488Y009517D01*
X024316Y009346D01*
X024223Y009121D01*
X024223Y008879D01*
X024316Y008654D01*
X024488Y008483D01*
X024712Y008390D01*
X024955Y008390D01*
X025179Y008483D01*
X025317Y008621D02*
X027350Y008621D01*
X027264Y008780D02*
X025402Y008780D01*
X025443Y008938D02*
X027223Y008938D01*
X027223Y009097D02*
X025443Y009097D01*
X025388Y009255D02*
X027279Y009255D01*
X027384Y009414D02*
X025282Y009414D01*
X025046Y009572D02*
X027620Y009572D01*
X028046Y009572D02*
X028949Y009572D01*
X028857Y009731D02*
X021398Y009731D01*
X021443Y009621D02*
X021350Y009846D01*
X021179Y010017D01*
X020955Y010110D01*
X020712Y010110D01*
X020488Y010017D01*
X020316Y009846D01*
X020223Y009621D01*
X020223Y009379D01*
X020316Y009154D01*
X020488Y008983D01*
X020712Y008890D01*
X020955Y008890D01*
X021179Y008983D01*
X021350Y009154D01*
X021443Y009379D01*
X021443Y009621D01*
X021443Y009572D02*
X024620Y009572D01*
X024384Y009414D02*
X021443Y009414D01*
X021392Y009255D02*
X024279Y009255D01*
X024223Y009097D02*
X021293Y009097D01*
X021071Y008938D02*
X024223Y008938D01*
X024264Y008780D02*
X020378Y008780D01*
X020350Y008846D02*
X020179Y009017D01*
X019955Y009110D01*
X019712Y009110D01*
X019488Y009017D01*
X019316Y008846D01*
X019223Y008621D01*
X018443Y008621D01*
X018350Y008846D01*
X018196Y009000D01*
X018350Y009154D01*
X018443Y009379D01*
X018443Y009621D01*
X018350Y009846D01*
X018179Y010017D01*
X017955Y010110D01*
X017712Y010110D01*
X017488Y010017D01*
X017316Y009846D01*
X017223Y009621D01*
X017223Y009379D01*
X017316Y009154D01*
X017471Y009000D01*
X017316Y008846D01*
X017223Y008621D01*
X001163Y008621D01*
X001163Y008463D02*
X017223Y008463D01*
X017223Y008379D02*
X017316Y008154D01*
X017488Y007983D01*
X017712Y007890D01*
X017955Y007890D01*
X018179Y007983D01*
X018350Y008154D01*
X018443Y008379D01*
X018443Y008621D01*
X018443Y008463D02*
X019223Y008463D01*
X019223Y008379D02*
X019316Y008154D01*
X019488Y007983D01*
X019712Y007890D01*
X019955Y007890D01*
X020179Y007983D01*
X020350Y008154D01*
X020443Y008379D01*
X020443Y008621D01*
X024350Y008621D01*
X024537Y008463D02*
X020443Y008463D01*
X020443Y008621D02*
X020350Y008846D01*
X020258Y008938D02*
X020596Y008938D01*
X020374Y009097D02*
X019987Y009097D01*
X019679Y009097D02*
X018293Y009097D01*
X018258Y008938D02*
X019409Y008938D01*
X019289Y008780D02*
X018378Y008780D01*
X018392Y009255D02*
X020275Y009255D01*
X020223Y009414D02*
X018443Y009414D01*
X018443Y009572D02*
X020223Y009572D01*
X020269Y009731D02*
X018398Y009731D01*
X018307Y009889D02*
X020360Y009889D01*
X020561Y010048D02*
X019244Y010048D01*
X019179Y009983D02*
X019350Y010154D01*
X019443Y010379D01*
X019443Y010621D01*
X019350Y010846D01*
X019179Y011017D01*
X018955Y011110D01*
X018712Y011110D01*
X018488Y011017D01*
X018316Y010846D01*
X018223Y010621D01*
X018223Y010379D01*
X018316Y010154D01*
X018488Y009983D01*
X018712Y009890D01*
X018955Y009890D01*
X019179Y009983D01*
X019372Y010206D02*
X021295Y010206D01*
X021316Y010154D02*
X021223Y010379D01*
X021223Y010621D01*
X021316Y010846D01*
X021488Y011017D01*
X021712Y011110D01*
X021955Y011110D01*
X022179Y011017D01*
X022350Y010846D01*
X022443Y010621D01*
X022443Y010379D01*
X022350Y010154D01*
X022179Y009983D01*
X021955Y009890D01*
X021712Y009890D01*
X021488Y009983D01*
X021316Y010154D01*
X021423Y010048D02*
X021106Y010048D01*
X021307Y009889D02*
X025987Y009889D01*
X025833Y010048D02*
X022244Y010048D01*
X022372Y010206D02*
X025833Y010206D01*
X025833Y010365D02*
X022437Y010365D01*
X022443Y010523D02*
X025603Y010523D01*
X025445Y010682D02*
X022418Y010682D01*
X022353Y010840D02*
X025333Y010840D01*
X025333Y010999D02*
X023195Y010999D01*
X023179Y010983D02*
X023350Y011154D01*
X023443Y011379D01*
X023443Y011621D01*
X023350Y011846D01*
X023179Y012017D01*
X022955Y012110D01*
X022712Y012110D01*
X022488Y012017D01*
X022316Y011846D01*
X022223Y011621D01*
X022223Y011379D01*
X022316Y011154D01*
X022488Y010983D01*
X022712Y010890D01*
X022955Y010890D01*
X023179Y010983D01*
X023352Y011157D02*
X025333Y011157D01*
X025442Y011316D02*
X023417Y011316D01*
X023443Y011474D02*
X024509Y011474D01*
X024488Y011483D02*
X024712Y011390D01*
X024955Y011390D01*
X025179Y011483D01*
X025350Y011654D01*
X025443Y011879D01*
X025443Y012121D01*
X025350Y012346D01*
X025179Y012517D01*
X024955Y012610D01*
X024712Y012610D01*
X024488Y012517D01*
X024443Y012473D01*
X024443Y012621D01*
X024350Y012846D01*
X024196Y013000D01*
X024350Y013154D01*
X024443Y013379D01*
X024443Y013621D01*
X024350Y013846D01*
X024179Y014017D01*
X023955Y014110D01*
X023712Y014110D01*
X023488Y014017D01*
X023316Y013846D01*
X023223Y013621D01*
X023223Y013379D01*
X023316Y013154D01*
X023471Y013000D01*
X023316Y012846D01*
X023223Y012621D01*
X023223Y012379D01*
X023316Y012154D01*
X023488Y011983D01*
X023712Y011890D01*
X023955Y011890D01*
X024179Y011983D01*
X024223Y012027D01*
X024223Y011879D01*
X024316Y011654D01*
X024488Y011483D01*
X024338Y011633D02*
X023439Y011633D01*
X023373Y011791D02*
X024260Y011791D01*
X024223Y011950D02*
X024098Y011950D01*
X023568Y011950D02*
X023246Y011950D01*
X023363Y012108D02*
X022959Y012108D01*
X022707Y012108D02*
X021304Y012108D01*
X021350Y012154D02*
X021443Y012379D01*
X021443Y012621D01*
X021350Y012846D01*
X021196Y013000D01*
X021350Y013154D01*
X021443Y013379D01*
X021443Y013621D01*
X021350Y013846D01*
X021179Y014017D01*
X020955Y014110D01*
X020712Y014110D01*
X020488Y014017D01*
X020316Y013846D01*
X020223Y013621D01*
X020223Y013379D01*
X020316Y013154D01*
X020471Y013000D01*
X020316Y012846D01*
X020223Y012621D01*
X020223Y012379D01*
X020316Y012154D01*
X020488Y011983D01*
X020712Y011890D01*
X020955Y011890D01*
X021179Y011983D01*
X021350Y012154D01*
X021397Y012267D02*
X023270Y012267D01*
X023223Y012425D02*
X021443Y012425D01*
X021443Y012584D02*
X023223Y012584D01*
X023273Y012742D02*
X021393Y012742D01*
X021295Y012901D02*
X023371Y012901D01*
X023412Y013059D02*
X021255Y013059D01*
X021377Y013218D02*
X023290Y013218D01*
X023224Y013376D02*
X021442Y013376D01*
X021443Y013535D02*
X023223Y013535D01*
X023253Y013693D02*
X021414Y013693D01*
X021344Y013852D02*
X023322Y013852D01*
X023481Y014010D02*
X021186Y014010D01*
X020481Y014010D02*
X001163Y014010D01*
X001163Y013852D02*
X020322Y013852D01*
X020253Y013693D02*
X001163Y013693D01*
X001163Y013535D02*
X020223Y013535D01*
X020224Y013376D02*
X001163Y013376D01*
X001163Y013218D02*
X020290Y013218D01*
X020412Y013059D02*
X001163Y013059D01*
X001163Y012901D02*
X020371Y012901D01*
X020273Y012742D02*
X001163Y012742D01*
X001163Y012584D02*
X020223Y012584D01*
X020223Y012425D02*
X001163Y012425D01*
X001163Y012267D02*
X020270Y012267D01*
X020363Y012108D02*
X019959Y012108D01*
X019955Y012110D02*
X019712Y012110D01*
X019488Y012017D01*
X019316Y011846D01*
X019223Y011621D01*
X019223Y011379D01*
X019316Y011154D01*
X019488Y010983D01*
X019712Y010890D01*
X019955Y010890D01*
X020179Y010983D01*
X020350Y011154D01*
X020443Y011379D01*
X020443Y011621D01*
X020350Y011846D01*
X020179Y012017D01*
X019955Y012110D01*
X019707Y012108D02*
X001163Y012108D01*
X001163Y011950D02*
X019420Y011950D01*
X019294Y011791D02*
X001163Y011791D01*
X001163Y011633D02*
X019228Y011633D01*
X019223Y011474D02*
X001163Y011474D01*
X001163Y011316D02*
X019249Y011316D01*
X019315Y011157D02*
X001163Y011157D01*
X001163Y010999D02*
X018469Y010999D01*
X018314Y010840D02*
X001163Y010840D01*
X001163Y010682D02*
X018248Y010682D01*
X018223Y010523D02*
X001163Y010523D01*
X001163Y010365D02*
X018229Y010365D01*
X018295Y010206D02*
X001163Y010206D01*
X001163Y010048D02*
X017561Y010048D01*
X017360Y009889D02*
X001163Y009889D01*
X001163Y009731D02*
X017269Y009731D01*
X017223Y009572D02*
X001163Y009572D01*
X001163Y009414D02*
X017223Y009414D01*
X017275Y009255D02*
X001163Y009255D01*
X001163Y009097D02*
X017374Y009097D01*
X017409Y008938D02*
X001163Y008938D01*
X001163Y008780D02*
X017289Y008780D01*
X017223Y008621D02*
X017223Y008379D01*
X017254Y008304D02*
X001163Y008304D01*
X001163Y008146D02*
X017325Y008146D01*
X017484Y007987D02*
X001163Y007987D01*
X001163Y007829D02*
X033331Y007829D01*
X033333Y007834D02*
X033243Y007617D01*
X033243Y007383D01*
X033333Y007166D01*
X033499Y007000D01*
X033716Y006910D01*
X033951Y006910D01*
X034168Y007000D01*
X034333Y007166D01*
X034589Y006910D01*
X035078Y006910D01*
X035423Y007256D01*
X035423Y007744D01*
X035078Y008090D01*
X034589Y008090D01*
X034333Y007834D01*
X034168Y008000D01*
X033951Y008090D01*
X033716Y008090D01*
X033499Y008000D01*
X033333Y007834D01*
X033265Y007670D02*
X001163Y007670D01*
X001163Y007512D02*
X033243Y007512D01*
X033256Y007353D02*
X032230Y007353D01*
X032366Y007297D02*
X032020Y007440D01*
X031646Y007440D01*
X031301Y007297D01*
X031036Y007032D01*
X030893Y006687D01*
X030893Y006313D01*
X031036Y005968D01*
X031301Y005703D01*
X031646Y005560D01*
X032020Y005560D01*
X032366Y005703D01*
X032630Y005968D01*
X032773Y006313D01*
X032773Y006687D01*
X032630Y007032D01*
X032366Y007297D01*
X032468Y007195D02*
X033321Y007195D01*
X033463Y007036D02*
X032627Y007036D01*
X032694Y006878D02*
X036626Y006878D01*
X036619Y007036D02*
X035204Y007036D01*
X035362Y007195D02*
X036630Y007195D01*
X036696Y007353D02*
X035423Y007353D01*
X035423Y007512D02*
X036816Y007512D01*
X036761Y007670D02*
X035423Y007670D01*
X035339Y007829D02*
X036673Y007829D01*
X036619Y007987D02*
X035181Y007987D01*
X034486Y007987D02*
X034181Y007987D01*
X033486Y007987D02*
X020183Y007987D01*
X020342Y008146D02*
X036619Y008146D01*
X036649Y008304D02*
X020412Y008304D01*
X019484Y007987D02*
X018183Y007987D01*
X018342Y008146D02*
X019325Y008146D01*
X019254Y008304D02*
X018412Y008304D01*
X019223Y008379D02*
X019223Y008621D01*
X018423Y010048D02*
X018106Y010048D01*
X019437Y010365D02*
X021229Y010365D01*
X021223Y010523D02*
X019443Y010523D01*
X019418Y010682D02*
X021248Y010682D01*
X021314Y010840D02*
X019353Y010840D01*
X019472Y010999D02*
X019197Y010999D01*
X020195Y010999D02*
X021469Y010999D01*
X022197Y010999D02*
X022472Y010999D01*
X022315Y011157D02*
X020352Y011157D01*
X020417Y011316D02*
X022249Y011316D01*
X022223Y011474D02*
X020443Y011474D01*
X020439Y011633D02*
X022228Y011633D01*
X022294Y011791D02*
X020373Y011791D01*
X020246Y011950D02*
X020568Y011950D01*
X021098Y011950D02*
X022420Y011950D01*
X024295Y012901D02*
X027723Y012901D01*
X027723Y013059D02*
X027099Y013059D01*
X027040Y013000D02*
X027333Y013293D01*
X027333Y013707D01*
X027040Y014000D01*
X026626Y014000D01*
X026333Y013707D01*
X026333Y013293D01*
X026626Y013000D01*
X027040Y013000D01*
X027258Y013218D02*
X027763Y013218D01*
X027847Y013376D02*
X027333Y013376D01*
X027333Y013535D02*
X028030Y013535D01*
X027333Y013693D02*
X032822Y013693D01*
X032756Y013852D02*
X027189Y013852D01*
X026478Y013852D02*
X024344Y013852D01*
X024414Y013693D02*
X026333Y013693D01*
X026333Y013535D02*
X024443Y013535D01*
X024442Y013376D02*
X026333Y013376D01*
X026409Y013218D02*
X024377Y013218D01*
X024255Y013059D02*
X026567Y013059D01*
X027396Y012425D02*
X025271Y012425D01*
X025383Y012267D02*
X027283Y012267D01*
X027223Y012108D02*
X025443Y012108D01*
X025443Y011950D02*
X027223Y011950D01*
X027260Y011791D02*
X025407Y011791D01*
X025329Y011633D02*
X027338Y011633D01*
X027509Y011474D02*
X027066Y011474D01*
X026600Y011474D02*
X026066Y011474D01*
X026225Y011316D02*
X026442Y011316D01*
X026333Y011207D02*
X026333Y010793D01*
X026290Y010750D01*
X026376Y010750D01*
X026333Y010793D01*
X026333Y011207D01*
X026333Y011157D02*
X026333Y011157D01*
X026333Y010999D02*
X026333Y010999D01*
X026333Y010840D02*
X026333Y010840D01*
X026833Y010365D02*
X028890Y010365D01*
X028857Y010206D02*
X026833Y010206D01*
X026833Y010048D02*
X028857Y010048D01*
X028857Y009889D02*
X026679Y009889D01*
X025600Y011474D02*
X025157Y011474D01*
X025019Y012584D02*
X027648Y012584D01*
X027780Y012742D02*
X024393Y012742D01*
X024443Y012584D02*
X024648Y012584D01*
X025216Y013910D02*
X025451Y013910D01*
X025668Y014000D01*
X025834Y014166D01*
X025923Y014383D01*
X025923Y014617D01*
X025834Y014834D01*
X025668Y015000D01*
X025923Y015256D01*
X025923Y015744D01*
X025578Y016090D01*
X025089Y016090D01*
X024743Y015744D01*
X024743Y015256D01*
X024999Y015000D01*
X024833Y014834D01*
X024743Y014617D01*
X024743Y014383D01*
X024833Y014166D01*
X024999Y014000D01*
X025216Y013910D01*
X024989Y014010D02*
X024186Y014010D01*
X024766Y014327D02*
X001163Y014327D01*
X001163Y014169D02*
X024832Y014169D01*
X024743Y014486D02*
X001163Y014486D01*
X001163Y014644D02*
X024754Y014644D01*
X024820Y014803D02*
X001163Y014803D01*
X001163Y014961D02*
X024960Y014961D01*
X024879Y015120D02*
X001163Y015120D01*
X001163Y015278D02*
X024743Y015278D01*
X024743Y015437D02*
X001163Y015437D01*
X001163Y015595D02*
X024743Y015595D01*
X024752Y015754D02*
X001163Y015754D01*
X001163Y015912D02*
X024911Y015912D01*
X025069Y016071D02*
X001163Y016071D01*
X001163Y016229D02*
X015559Y016229D01*
X015382Y016388D02*
X001163Y016388D01*
X001163Y016546D02*
X015313Y016546D01*
X015293Y016705D02*
X001163Y016705D01*
X001163Y016863D02*
X015293Y016863D01*
X015293Y017022D02*
X001163Y017022D01*
X001163Y017180D02*
X015293Y017180D01*
X015293Y017339D02*
X001163Y017339D01*
X001163Y017497D02*
X015330Y017497D01*
X015382Y017656D02*
X001163Y017656D01*
X001163Y017814D02*
X015357Y017814D01*
X015352Y017973D02*
X001163Y017973D01*
X001163Y018131D02*
X003913Y018131D01*
X004016Y018088D02*
X004249Y018088D01*
X004464Y018177D01*
X004629Y018342D01*
X004718Y018557D01*
X004718Y018790D01*
X004629Y019005D01*
X004464Y019169D01*
X004249Y019258D01*
X004016Y019258D01*
X003801Y019169D01*
X003637Y019005D01*
X003547Y018790D01*
X003547Y018557D01*
X003637Y018342D01*
X003801Y018177D01*
X004016Y018088D01*
X004353Y018131D02*
X013464Y018131D01*
X013567Y018088D02*
X013800Y018088D01*
X014015Y018177D01*
X014180Y018342D01*
X014269Y018557D01*
X014269Y018790D01*
X014180Y019005D01*
X014015Y019169D01*
X013800Y019258D01*
X013567Y019258D01*
X013352Y019169D01*
X013188Y019005D01*
X013099Y018790D01*
X013099Y018557D01*
X013188Y018342D01*
X013352Y018177D01*
X013567Y018088D01*
X013904Y018131D02*
X015193Y018131D01*
X015035Y018290D02*
X014128Y018290D01*
X014224Y018448D02*
X014876Y018448D01*
X014718Y018607D02*
X014269Y018607D01*
X014269Y018765D02*
X014559Y018765D01*
X014475Y018924D02*
X014213Y018924D01*
X014102Y019082D02*
X014473Y019082D01*
X014473Y019241D02*
X013843Y019241D01*
X013524Y019241D02*
X004292Y019241D01*
X004551Y019082D02*
X013265Y019082D01*
X013154Y018924D02*
X004662Y018924D01*
X004718Y018765D02*
X013099Y018765D01*
X013099Y018607D02*
X004718Y018607D01*
X004673Y018448D02*
X013144Y018448D01*
X013240Y018290D02*
X004576Y018290D01*
X003689Y018290D02*
X001163Y018290D01*
X001163Y018448D02*
X003593Y018448D01*
X003547Y018607D02*
X001163Y018607D01*
X001163Y018765D02*
X003547Y018765D01*
X003603Y018924D02*
X001163Y018924D01*
X001163Y019082D02*
X001593Y019082D01*
X001263Y019241D02*
X001163Y019241D01*
X002073Y019082D02*
X003714Y019082D01*
X003973Y019241D02*
X002403Y019241D01*
X002562Y019399D02*
X014473Y019399D01*
X014468Y019558D02*
X002668Y019558D01*
X002733Y019716D02*
X014357Y019716D01*
X014357Y019875D02*
X002773Y019875D01*
X002773Y020033D02*
X014357Y020033D01*
X014357Y020192D02*
X002771Y020192D01*
X002706Y020350D02*
X014384Y020350D01*
X015282Y020350D02*
X015293Y020350D01*
X015335Y020509D02*
X002640Y020509D01*
X015199Y019558D02*
X015308Y019558D01*
X015374Y019399D02*
X015193Y019399D01*
X015193Y019241D02*
X015532Y019241D01*
X015260Y019082D02*
X023242Y019082D01*
X023084Y019241D02*
X021135Y019241D01*
X021293Y019399D02*
X022925Y019399D01*
X022800Y019524D02*
X024357Y017967D01*
X024357Y017716D01*
X024394Y017628D01*
X024461Y017560D01*
X024549Y017524D01*
X025117Y017524D01*
X025206Y017560D01*
X025273Y017628D01*
X025310Y017716D01*
X025310Y018284D01*
X025307Y018290D02*
X029480Y018290D01*
X029353Y018448D02*
X025185Y018448D01*
X024736Y018607D02*
X029293Y018607D01*
X029293Y018765D02*
X024577Y018765D01*
X024419Y018924D02*
X029293Y018924D01*
X029293Y019082D02*
X024260Y019082D01*
X024102Y019241D02*
X025440Y019241D01*
X025282Y019399D02*
X023943Y019399D01*
X023785Y019558D02*
X025123Y019558D01*
X025018Y019716D02*
X023626Y019716D01*
X023468Y019875D02*
X025018Y019875D01*
X025018Y020192D02*
X023310Y020192D01*
X023310Y020284D02*
X023273Y020372D01*
X023206Y020440D01*
X023117Y020476D01*
X022549Y020476D01*
X022461Y020440D01*
X022394Y020372D01*
X022357Y020284D01*
X022357Y019716D01*
X022394Y019628D01*
X022461Y019560D01*
X022549Y019524D01*
X022800Y019524D01*
X022468Y019558D02*
X021359Y019558D01*
X021373Y019716D02*
X022357Y019716D01*
X022357Y019875D02*
X021373Y019875D01*
X021373Y020033D02*
X022357Y020033D01*
X022357Y020192D02*
X021373Y020192D01*
X021373Y020350D02*
X022384Y020350D01*
X023282Y020350D02*
X025031Y020350D01*
X025189Y020509D02*
X021331Y020509D01*
X020374Y019399D02*
X020293Y019399D01*
X020135Y019241D02*
X020532Y019241D01*
X019532Y019241D02*
X019135Y019241D01*
X019293Y019399D02*
X019374Y019399D01*
X018532Y019241D02*
X018135Y019241D01*
X018293Y019399D02*
X018374Y019399D01*
X017532Y019241D02*
X017135Y019241D01*
X017293Y019399D02*
X017374Y019399D01*
X016532Y019241D02*
X016135Y019241D01*
X016293Y019399D02*
X016374Y019399D01*
X015577Y018765D02*
X023559Y018765D01*
X023401Y018924D02*
X015419Y018924D01*
X015736Y018607D02*
X023718Y018607D01*
X023876Y018448D02*
X016185Y018448D01*
X016307Y018290D02*
X024035Y018290D01*
X024193Y018131D02*
X016310Y018131D01*
X016310Y017973D02*
X024352Y017973D01*
X024357Y017814D02*
X023972Y017814D01*
X023971Y017815D02*
X023713Y017815D01*
X023713Y017080D01*
X023553Y017080D01*
X023553Y016920D01*
X022818Y016920D01*
X022818Y016662D01*
X023296Y016185D01*
X023553Y016185D01*
X023553Y016920D01*
X023713Y016920D01*
X023713Y016185D01*
X023971Y016185D01*
X024448Y016662D01*
X024448Y016920D01*
X023713Y016920D01*
X023713Y017080D01*
X024448Y017080D01*
X024448Y017338D01*
X023971Y017815D01*
X024130Y017656D02*
X024382Y017656D01*
X024289Y017497D02*
X025408Y017497D01*
X025284Y017656D02*
X027536Y017656D01*
X027695Y017814D02*
X025310Y017814D01*
X025310Y017973D02*
X033103Y017973D01*
X033111Y017814D02*
X028372Y017814D01*
X028530Y017656D02*
X033177Y017656D01*
X033292Y017497D02*
X028689Y017497D01*
X028847Y017339D02*
X033522Y017339D01*
X034050Y017339D02*
X034585Y017339D01*
X034355Y017497D02*
X034280Y017497D01*
X035113Y017339D02*
X036475Y017339D01*
X036245Y017497D02*
X036136Y017497D01*
X035452Y017497D02*
X035343Y017497D01*
X037002Y017339D02*
X037538Y017339D01*
X037308Y017497D02*
X037233Y017497D01*
X039873Y017022D02*
X028113Y017022D01*
X028113Y017180D02*
X027953Y017180D01*
X027953Y017080D02*
X027953Y017815D01*
X027696Y017815D01*
X027218Y017338D01*
X027218Y017080D01*
X027953Y017080D01*
X027953Y017022D02*
X026486Y017022D01*
X026486Y017180D02*
X027218Y017180D01*
X027219Y017339D02*
X026418Y017339D01*
X026486Y017270D02*
X026104Y017652D01*
X025563Y017652D01*
X025181Y017270D01*
X025181Y016730D01*
X025563Y016348D01*
X026104Y016348D01*
X026486Y016730D01*
X026486Y017270D01*
X026259Y017497D02*
X027378Y017497D01*
X027953Y017497D02*
X028113Y017497D01*
X028113Y017339D02*
X027953Y017339D01*
X027953Y017656D02*
X028113Y017656D01*
X028113Y017814D02*
X027953Y017814D01*
X027218Y016863D02*
X026486Y016863D01*
X026461Y016705D02*
X027218Y016705D01*
X027335Y016546D02*
X026302Y016546D01*
X026144Y016388D02*
X027493Y016388D01*
X027652Y016229D02*
X024015Y016229D01*
X024173Y016388D02*
X025523Y016388D01*
X025365Y016546D02*
X024332Y016546D01*
X024448Y016705D02*
X025206Y016705D01*
X025181Y016863D02*
X024448Y016863D01*
X024448Y017180D02*
X025181Y017180D01*
X025181Y017022D02*
X023713Y017022D01*
X023713Y017180D02*
X023553Y017180D01*
X023553Y017080D02*
X023553Y017815D01*
X023296Y017815D01*
X022818Y017338D01*
X022818Y017080D01*
X023553Y017080D01*
X023553Y017022D02*
X021373Y017022D01*
X021373Y017180D02*
X022818Y017180D01*
X022819Y017339D02*
X021373Y017339D01*
X021336Y017497D02*
X022978Y017497D01*
X023136Y017656D02*
X021241Y017656D01*
X021003Y017814D02*
X023295Y017814D01*
X023553Y017814D02*
X023713Y017814D01*
X023713Y017656D02*
X023553Y017656D01*
X023553Y017497D02*
X023713Y017497D01*
X023713Y017339D02*
X023553Y017339D01*
X023553Y016863D02*
X023713Y016863D01*
X023713Y016705D02*
X023553Y016705D01*
X023553Y016546D02*
X023713Y016546D01*
X023713Y016388D02*
X023553Y016388D01*
X023553Y016229D02*
X023713Y016229D01*
X023252Y016229D02*
X021107Y016229D01*
X021285Y016388D02*
X023093Y016388D01*
X022935Y016546D02*
X021354Y016546D01*
X021373Y016705D02*
X022818Y016705D01*
X022818Y016863D02*
X021373Y016863D01*
X020382Y016388D02*
X020285Y016388D01*
X020107Y016229D02*
X020559Y016229D01*
X019559Y016229D02*
X019107Y016229D01*
X019285Y016388D02*
X019382Y016388D01*
X018559Y016229D02*
X018107Y016229D01*
X018285Y016388D02*
X018382Y016388D01*
X017559Y016229D02*
X017107Y016229D01*
X017285Y016388D02*
X017382Y016388D01*
X016559Y016229D02*
X016107Y016229D01*
X016285Y016388D02*
X016382Y016388D01*
X016425Y017656D02*
X016284Y017656D01*
X016310Y017814D02*
X016663Y017814D01*
X017003Y017814D02*
X017663Y017814D01*
X017425Y017656D02*
X017241Y017656D01*
X018003Y017814D02*
X018663Y017814D01*
X018425Y017656D02*
X018241Y017656D01*
X019003Y017814D02*
X019663Y017814D01*
X019425Y017656D02*
X019241Y017656D01*
X020003Y017814D02*
X020663Y017814D01*
X020425Y017656D02*
X020241Y017656D01*
X024447Y017339D02*
X025249Y017339D01*
X025597Y016071D02*
X027788Y016071D01*
X027783Y015991D02*
X027783Y015957D01*
X027797Y015871D01*
X027824Y015789D01*
X027863Y015712D01*
X027914Y015642D01*
X027975Y015580D01*
X028045Y015530D01*
X028122Y015490D01*
X028205Y015464D01*
X028290Y015450D01*
X028325Y015450D01*
X028325Y015991D01*
X027783Y015991D01*
X027790Y015912D02*
X027128Y015912D01*
X027040Y016000D02*
X027333Y015707D01*
X027333Y015293D01*
X027040Y015000D01*
X026626Y015000D01*
X026333Y015293D01*
X026333Y015707D01*
X026626Y016000D01*
X027040Y016000D01*
X027287Y015754D02*
X027842Y015754D01*
X027960Y015595D02*
X027333Y015595D01*
X027333Y015437D02*
X032935Y015437D01*
X032777Y015278D02*
X027318Y015278D01*
X027160Y015120D02*
X032743Y015120D01*
X032743Y014961D02*
X025707Y014961D01*
X025787Y015120D02*
X026507Y015120D01*
X026348Y015278D02*
X025923Y015278D01*
X025923Y015437D02*
X026333Y015437D01*
X026333Y015595D02*
X025923Y015595D01*
X025914Y015754D02*
X026380Y015754D01*
X026538Y015912D02*
X025756Y015912D01*
X025847Y014803D02*
X032743Y014803D01*
X032855Y014644D02*
X025912Y014644D01*
X025923Y014486D02*
X032984Y014486D01*
X032830Y014327D02*
X025900Y014327D01*
X025835Y014169D02*
X032765Y014169D01*
X032743Y014010D02*
X025678Y014010D01*
X028325Y015595D02*
X028342Y015595D01*
X028325Y015754D02*
X028342Y015754D01*
X028325Y015912D02*
X028342Y015912D01*
X030187Y018290D02*
X030582Y018290D01*
X030813Y018290D02*
X030853Y018290D01*
X030853Y018448D02*
X030813Y018448D01*
X030813Y018607D02*
X030853Y018607D01*
X030853Y018765D02*
X030813Y018765D01*
X030813Y018924D02*
X030853Y018924D01*
X030853Y019082D02*
X030813Y019082D01*
X030813Y019241D02*
X030853Y019241D01*
X030853Y019399D02*
X030813Y019399D01*
X030813Y019558D02*
X030853Y019558D01*
X030853Y019716D02*
X030813Y019716D01*
X030593Y019716D02*
X030181Y019716D01*
X030311Y019558D02*
X030427Y019558D01*
X031074Y019716D02*
X031486Y019716D01*
X031356Y019558D02*
X031240Y019558D01*
X029486Y019716D02*
X026648Y019716D01*
X026543Y019558D02*
X029356Y019558D01*
X029293Y019399D02*
X026385Y019399D01*
X026226Y019241D02*
X029293Y019241D01*
X031085Y018290D02*
X031480Y018290D01*
X025913Y019241D02*
X025753Y019241D01*
X025753Y019399D02*
X025913Y019399D01*
X025913Y019558D02*
X025753Y019558D01*
X025753Y019716D02*
X025913Y019716D01*
X025913Y019875D02*
X025753Y019875D01*
X023310Y020033D02*
X023310Y020284D01*
X029623Y011474D02*
X033044Y011474D01*
X033623Y011474D02*
X036763Y011474D01*
X036674Y011316D02*
X033796Y011316D01*
X033810Y011157D02*
X036619Y011157D01*
X036619Y010999D02*
X033810Y010999D01*
X033810Y010840D02*
X036648Y010840D01*
X036714Y010682D02*
X033795Y010682D01*
X032890Y010365D02*
X029776Y010365D01*
X029717Y009572D02*
X032949Y009572D01*
X031436Y007353D02*
X001163Y007353D01*
X001163Y007195D02*
X031198Y007195D01*
X031040Y007036D02*
X001163Y007036D01*
X001163Y006878D02*
X030972Y006878D01*
X030907Y006719D02*
X001163Y006719D01*
X001163Y006561D02*
X030893Y006561D01*
X030893Y006402D02*
X001163Y006402D01*
X001163Y006244D02*
X030922Y006244D01*
X030988Y006085D02*
X020015Y006085D01*
X019955Y006110D02*
X019712Y006110D01*
X019488Y006017D01*
X019316Y005846D01*
X019223Y005621D01*
X019223Y005379D01*
X019316Y005154D01*
X019488Y004983D01*
X019712Y004890D01*
X019955Y004890D01*
X020179Y004983D01*
X020350Y005154D01*
X020443Y005379D01*
X020443Y005621D01*
X020350Y005846D01*
X020179Y006017D01*
X019955Y006110D01*
X019652Y006085D02*
X018015Y006085D01*
X017955Y006110D02*
X017712Y006110D01*
X017488Y006017D01*
X017316Y005846D01*
X017223Y005621D01*
X017223Y005379D01*
X017316Y005154D01*
X017488Y004983D01*
X017712Y004890D01*
X017955Y004890D01*
X018179Y004983D01*
X018350Y005154D01*
X018443Y005379D01*
X018443Y005621D01*
X018350Y005846D01*
X018179Y006017D01*
X017955Y006110D01*
X017652Y006085D02*
X001163Y006085D01*
X001163Y005927D02*
X017397Y005927D01*
X017284Y005768D02*
X001163Y005768D01*
X001163Y005610D02*
X017223Y005610D01*
X017223Y005451D02*
X001163Y005451D01*
X001163Y005293D02*
X017259Y005293D01*
X017337Y005134D02*
X001163Y005134D01*
X001163Y004976D02*
X017506Y004976D01*
X018161Y004976D02*
X019506Y004976D01*
X019337Y005134D02*
X018330Y005134D01*
X018408Y005293D02*
X019259Y005293D01*
X019223Y005451D02*
X018443Y005451D01*
X018443Y005610D02*
X019223Y005610D01*
X019284Y005768D02*
X018383Y005768D01*
X018269Y005927D02*
X019397Y005927D01*
X020269Y005927D02*
X031077Y005927D01*
X031236Y005768D02*
X020383Y005768D01*
X020443Y005610D02*
X031527Y005610D01*
X032140Y005610D02*
X039873Y005610D01*
X039873Y005768D02*
X032431Y005768D01*
X032589Y005927D02*
X039873Y005927D01*
X039873Y006085D02*
X032679Y006085D01*
X032745Y006244D02*
X039873Y006244D01*
X039873Y005451D02*
X020443Y005451D01*
X020408Y005293D02*
X039873Y005293D01*
X039873Y005134D02*
X020330Y005134D01*
X020161Y004976D02*
X039873Y004976D01*
X037037Y006402D02*
X032773Y006402D01*
X032773Y006561D02*
X036807Y006561D01*
X036692Y006719D02*
X032760Y006719D01*
X034204Y007036D02*
X034463Y007036D01*
D23*
X033333Y010000D03*
X033333Y011000D03*
X029333Y011000D03*
X029333Y010000D03*
X024833Y018000D03*
X022833Y020000D03*
X015833Y018000D03*
X014833Y020000D03*
D24*
X014833Y019000D01*
X015833Y018000D01*
X022833Y020000D02*
X024833Y018000D01*
X029333Y011000D02*
X033333Y011000D01*
X033333Y010000D02*
X029333Y010000D01*
M02*
