%
M48
M72
T01C0.0160
T02C0.0160
T03C0.0160
T04C0.0160
%
T01
X21760Y5000
X23760Y5000
X23760Y8000
X21760Y8000
T02
X21760Y16500
X22760Y16500
X23760Y16500
X24760Y16500
X20760Y16500
X19760Y16500
X19760Y19500
X20760Y19500
X21760Y19500
X22760Y19500
X23760Y19500
X24760Y19500
X33760Y18500
X34760Y18500
X35760Y18500
X43260Y18500
X43260Y17500
X43260Y19500
T03
X17610Y18173
X8059Y18173
T04
X5260Y19500
X40260Y6500
M30
