G75*
%MOIN*%
%OFA0B0*%
%FSLAX24Y24*%
%IPPOS*%
%LPD*%
%AMOC8*
5,1,8,0,0,1.08239X$1,22.5*
%
%ADD10C,0.0100*%
%ADD11C,0.0051*%
%ADD12C,0.0060*%
%ADD13C,0.0000*%
D10*
X004260Y004500D02*
X004260Y020496D01*
X044130Y020496D01*
X044130Y004500D01*
X004260Y004500D01*
D11*
X000492Y004500D01*
X001260Y004526D02*
X001362Y005524D01*
X001385Y005524D02*
X001260Y004526D01*
X001157Y005524D01*
X001134Y005524D02*
X001385Y005524D01*
X001311Y005524D02*
X001260Y004526D01*
X001208Y005524D01*
X001134Y005524D02*
X001260Y004526D01*
X001260Y020474D01*
X001362Y019476D01*
X001385Y019476D02*
X001260Y020474D01*
X001157Y019476D01*
X001134Y019476D02*
X001385Y019476D01*
X001311Y019476D02*
X001260Y020474D01*
X001208Y019476D01*
X001134Y019476D02*
X001260Y020474D01*
X000492Y020500D02*
X004260Y020500D01*
X004260Y020496D02*
X004259Y024264D01*
X004285Y023496D02*
X005283Y023599D01*
X005283Y023622D02*
X005283Y023370D01*
X004285Y023496D01*
X005283Y023394D01*
X005283Y023445D02*
X004285Y023496D01*
X005283Y023547D01*
X005283Y023622D02*
X004285Y023496D01*
X044234Y023500D01*
X043236Y023398D01*
X043236Y023374D02*
X044234Y023500D01*
X043236Y023602D01*
X043236Y023626D02*
X043236Y023374D01*
X043236Y023449D02*
X044234Y023500D01*
X043236Y023551D01*
X043236Y023626D02*
X044234Y023500D01*
X044259Y024268D02*
X044260Y020500D01*
D12*
X025522Y023861D02*
X025415Y023754D01*
X025202Y023754D01*
X025095Y023861D01*
X025095Y024074D01*
X025415Y024074D01*
X025522Y023968D01*
X025522Y023861D01*
X025308Y024288D02*
X025095Y024074D01*
X025308Y024288D02*
X025522Y024395D01*
X024879Y023861D02*
X024773Y023861D01*
X024773Y023754D01*
X024879Y023754D01*
X024879Y023861D01*
X024555Y023754D02*
X024128Y023754D01*
X024342Y023754D02*
X024342Y024395D01*
X024128Y024181D01*
X023911Y024288D02*
X023484Y023861D01*
X023590Y023754D01*
X023804Y023754D01*
X023911Y023861D01*
X023911Y024288D01*
X023804Y024395D01*
X023590Y024395D01*
X023484Y024288D01*
X023484Y023861D01*
X023266Y023754D02*
X022839Y023754D01*
X023052Y023754D02*
X023052Y024395D01*
X022839Y024181D01*
X001003Y013656D02*
X000363Y013656D01*
X000683Y013336D01*
X000683Y013763D01*
X000790Y013118D02*
X000683Y013011D01*
X000683Y012691D01*
X000897Y012691D01*
X001003Y012798D01*
X001003Y013011D01*
X000897Y013118D01*
X000790Y013118D01*
X000470Y012905D02*
X000683Y012691D01*
X000470Y012905D02*
X000363Y013118D01*
X000897Y012476D02*
X001003Y012476D01*
X001003Y012369D01*
X000897Y012369D01*
X000897Y012476D01*
X000897Y012151D02*
X001003Y012045D01*
X001003Y011831D01*
X000897Y011724D01*
X000470Y012151D01*
X000897Y012151D01*
X000470Y012151D02*
X000363Y012045D01*
X000363Y011831D01*
X000470Y011724D01*
X000897Y011724D01*
X000683Y011507D02*
X000683Y011080D01*
X000363Y011400D01*
X001003Y011400D01*
D13*
X007754Y018173D02*
X007756Y018208D01*
X007762Y018242D01*
X007772Y018275D01*
X007785Y018308D01*
X007802Y018338D01*
X007823Y018366D01*
X007846Y018392D01*
X007873Y018415D01*
X007901Y018434D01*
X007932Y018450D01*
X007965Y018463D01*
X007998Y018472D01*
X008033Y018477D01*
X008068Y018478D01*
X008102Y018475D01*
X008137Y018468D01*
X008170Y018457D01*
X008201Y018443D01*
X008231Y018425D01*
X008259Y018404D01*
X008284Y018379D01*
X008306Y018352D01*
X008325Y018323D01*
X008340Y018292D01*
X008352Y018259D01*
X008360Y018225D01*
X008364Y018190D01*
X008364Y018156D01*
X008360Y018121D01*
X008352Y018087D01*
X008340Y018054D01*
X008325Y018023D01*
X008306Y017994D01*
X008284Y017967D01*
X008259Y017942D01*
X008231Y017921D01*
X008201Y017903D01*
X008170Y017889D01*
X008137Y017878D01*
X008102Y017871D01*
X008068Y017868D01*
X008033Y017869D01*
X007998Y017874D01*
X007965Y017883D01*
X007932Y017896D01*
X007901Y017912D01*
X007873Y017931D01*
X007846Y017954D01*
X007823Y017980D01*
X007802Y018008D01*
X007785Y018038D01*
X007772Y018071D01*
X007762Y018104D01*
X007756Y018138D01*
X007754Y018173D01*
X017305Y018173D02*
X017307Y018208D01*
X017313Y018242D01*
X017323Y018275D01*
X017336Y018308D01*
X017353Y018338D01*
X017374Y018366D01*
X017397Y018392D01*
X017424Y018415D01*
X017452Y018434D01*
X017483Y018450D01*
X017516Y018463D01*
X017549Y018472D01*
X017584Y018477D01*
X017619Y018478D01*
X017653Y018475D01*
X017688Y018468D01*
X017721Y018457D01*
X017752Y018443D01*
X017782Y018425D01*
X017810Y018404D01*
X017835Y018379D01*
X017857Y018352D01*
X017876Y018323D01*
X017891Y018292D01*
X017903Y018259D01*
X017911Y018225D01*
X017915Y018190D01*
X017915Y018156D01*
X017911Y018121D01*
X017903Y018087D01*
X017891Y018054D01*
X017876Y018023D01*
X017857Y017994D01*
X017835Y017967D01*
X017810Y017942D01*
X017782Y017921D01*
X017752Y017903D01*
X017721Y017889D01*
X017688Y017878D01*
X017653Y017871D01*
X017619Y017868D01*
X017584Y017869D01*
X017549Y017874D01*
X017516Y017883D01*
X017483Y017896D01*
X017452Y017912D01*
X017424Y017931D01*
X017397Y017954D01*
X017374Y017980D01*
X017353Y018008D01*
X017336Y018038D01*
X017323Y018071D01*
X017313Y018104D01*
X017307Y018138D01*
X017305Y018173D01*
X036957Y019437D02*
X036959Y019471D01*
X036965Y019505D01*
X036975Y019538D01*
X036988Y019569D01*
X037006Y019599D01*
X037026Y019627D01*
X037050Y019652D01*
X037076Y019674D01*
X037104Y019692D01*
X037135Y019708D01*
X037167Y019720D01*
X037201Y019728D01*
X037235Y019732D01*
X037269Y019732D01*
X037303Y019728D01*
X037337Y019720D01*
X037369Y019708D01*
X037399Y019692D01*
X037428Y019674D01*
X037454Y019652D01*
X037478Y019627D01*
X037498Y019599D01*
X037516Y019569D01*
X037529Y019538D01*
X037539Y019505D01*
X037545Y019471D01*
X037547Y019437D01*
X037545Y019403D01*
X037539Y019369D01*
X037529Y019336D01*
X037516Y019305D01*
X037498Y019275D01*
X037478Y019247D01*
X037454Y019222D01*
X037428Y019200D01*
X037400Y019182D01*
X037369Y019166D01*
X037337Y019154D01*
X037303Y019146D01*
X037269Y019142D01*
X037235Y019142D01*
X037201Y019146D01*
X037167Y019154D01*
X037135Y019166D01*
X037104Y019182D01*
X037076Y019200D01*
X037050Y019222D01*
X037026Y019247D01*
X037006Y019275D01*
X036988Y019305D01*
X036975Y019336D01*
X036965Y019369D01*
X036959Y019403D01*
X036957Y019437D01*
X038925Y017469D02*
X038927Y017503D01*
X038933Y017537D01*
X038943Y017570D01*
X038956Y017601D01*
X038974Y017631D01*
X038994Y017659D01*
X039018Y017684D01*
X039044Y017706D01*
X039072Y017724D01*
X039103Y017740D01*
X039135Y017752D01*
X039169Y017760D01*
X039203Y017764D01*
X039237Y017764D01*
X039271Y017760D01*
X039305Y017752D01*
X039337Y017740D01*
X039367Y017724D01*
X039396Y017706D01*
X039422Y017684D01*
X039446Y017659D01*
X039466Y017631D01*
X039484Y017601D01*
X039497Y017570D01*
X039507Y017537D01*
X039513Y017503D01*
X039515Y017469D01*
X039513Y017435D01*
X039507Y017401D01*
X039497Y017368D01*
X039484Y017337D01*
X039466Y017307D01*
X039446Y017279D01*
X039422Y017254D01*
X039396Y017232D01*
X039368Y017214D01*
X039337Y017198D01*
X039305Y017186D01*
X039271Y017178D01*
X039237Y017174D01*
X039203Y017174D01*
X039169Y017178D01*
X039135Y017186D01*
X039103Y017198D01*
X039072Y017214D01*
X039044Y017232D01*
X039018Y017254D01*
X038994Y017279D01*
X038974Y017307D01*
X038956Y017337D01*
X038943Y017368D01*
X038933Y017401D01*
X038927Y017435D01*
X038925Y017469D01*
X040894Y019437D02*
X040896Y019471D01*
X040902Y019505D01*
X040912Y019538D01*
X040925Y019569D01*
X040943Y019599D01*
X040963Y019627D01*
X040987Y019652D01*
X041013Y019674D01*
X041041Y019692D01*
X041072Y019708D01*
X041104Y019720D01*
X041138Y019728D01*
X041172Y019732D01*
X041206Y019732D01*
X041240Y019728D01*
X041274Y019720D01*
X041306Y019708D01*
X041336Y019692D01*
X041365Y019674D01*
X041391Y019652D01*
X041415Y019627D01*
X041435Y019599D01*
X041453Y019569D01*
X041466Y019538D01*
X041476Y019505D01*
X041482Y019471D01*
X041484Y019437D01*
X041482Y019403D01*
X041476Y019369D01*
X041466Y019336D01*
X041453Y019305D01*
X041435Y019275D01*
X041415Y019247D01*
X041391Y019222D01*
X041365Y019200D01*
X041337Y019182D01*
X041306Y019166D01*
X041274Y019154D01*
X041240Y019146D01*
X041206Y019142D01*
X041172Y019142D01*
X041138Y019146D01*
X041104Y019154D01*
X041072Y019166D01*
X041041Y019182D01*
X041013Y019200D01*
X040987Y019222D01*
X040963Y019247D01*
X040943Y019275D01*
X040925Y019305D01*
X040912Y019336D01*
X040902Y019369D01*
X040896Y019403D01*
X040894Y019437D01*
X042402Y011008D02*
X042404Y011042D01*
X042410Y011076D01*
X042420Y011109D01*
X042433Y011140D01*
X042451Y011170D01*
X042471Y011198D01*
X042495Y011223D01*
X042521Y011245D01*
X042549Y011263D01*
X042580Y011279D01*
X042612Y011291D01*
X042646Y011299D01*
X042680Y011303D01*
X042714Y011303D01*
X042748Y011299D01*
X042782Y011291D01*
X042814Y011279D01*
X042844Y011263D01*
X042873Y011245D01*
X042899Y011223D01*
X042923Y011198D01*
X042943Y011170D01*
X042961Y011140D01*
X042974Y011109D01*
X042984Y011076D01*
X042990Y011042D01*
X042992Y011008D01*
X042990Y010974D01*
X042984Y010940D01*
X042974Y010907D01*
X042961Y010876D01*
X042943Y010846D01*
X042923Y010818D01*
X042899Y010793D01*
X042873Y010771D01*
X042845Y010753D01*
X042814Y010737D01*
X042782Y010725D01*
X042748Y010717D01*
X042714Y010713D01*
X042680Y010713D01*
X042646Y010717D01*
X042612Y010725D01*
X042580Y010737D01*
X042549Y010753D01*
X042521Y010771D01*
X042495Y010793D01*
X042471Y010818D01*
X042451Y010846D01*
X042433Y010876D01*
X042420Y010907D01*
X042410Y010940D01*
X042404Y010974D01*
X042402Y011008D01*
X040433Y009039D02*
X040435Y009073D01*
X040441Y009107D01*
X040451Y009140D01*
X040464Y009171D01*
X040482Y009201D01*
X040502Y009229D01*
X040526Y009254D01*
X040552Y009276D01*
X040580Y009294D01*
X040611Y009310D01*
X040643Y009322D01*
X040677Y009330D01*
X040711Y009334D01*
X040745Y009334D01*
X040779Y009330D01*
X040813Y009322D01*
X040845Y009310D01*
X040875Y009294D01*
X040904Y009276D01*
X040930Y009254D01*
X040954Y009229D01*
X040974Y009201D01*
X040992Y009171D01*
X041005Y009140D01*
X041015Y009107D01*
X041021Y009073D01*
X041023Y009039D01*
X041021Y009005D01*
X041015Y008971D01*
X041005Y008938D01*
X040992Y008907D01*
X040974Y008877D01*
X040954Y008849D01*
X040930Y008824D01*
X040904Y008802D01*
X040876Y008784D01*
X040845Y008768D01*
X040813Y008756D01*
X040779Y008748D01*
X040745Y008744D01*
X040711Y008744D01*
X040677Y008748D01*
X040643Y008756D01*
X040611Y008768D01*
X040580Y008784D01*
X040552Y008802D01*
X040526Y008824D01*
X040502Y008849D01*
X040482Y008877D01*
X040464Y008907D01*
X040451Y008938D01*
X040441Y008971D01*
X040435Y009005D01*
X040433Y009039D01*
X042402Y007071D02*
X042404Y007105D01*
X042410Y007139D01*
X042420Y007172D01*
X042433Y007203D01*
X042451Y007233D01*
X042471Y007261D01*
X042495Y007286D01*
X042521Y007308D01*
X042549Y007326D01*
X042580Y007342D01*
X042612Y007354D01*
X042646Y007362D01*
X042680Y007366D01*
X042714Y007366D01*
X042748Y007362D01*
X042782Y007354D01*
X042814Y007342D01*
X042844Y007326D01*
X042873Y007308D01*
X042899Y007286D01*
X042923Y007261D01*
X042943Y007233D01*
X042961Y007203D01*
X042974Y007172D01*
X042984Y007139D01*
X042990Y007105D01*
X042992Y007071D01*
X042990Y007037D01*
X042984Y007003D01*
X042974Y006970D01*
X042961Y006939D01*
X042943Y006909D01*
X042923Y006881D01*
X042899Y006856D01*
X042873Y006834D01*
X042845Y006816D01*
X042814Y006800D01*
X042782Y006788D01*
X042748Y006780D01*
X042714Y006776D01*
X042680Y006776D01*
X042646Y006780D01*
X042612Y006788D01*
X042580Y006800D01*
X042549Y006816D01*
X042521Y006834D01*
X042495Y006856D01*
X042471Y006881D01*
X042451Y006909D01*
X042433Y006939D01*
X042420Y006970D01*
X042410Y007003D01*
X042404Y007037D01*
X042402Y007071D01*
M02*
