G75*
%MOIN*%
%OFA0B0*%
%FSLAX24Y24*%
%IPPOS*%
%LPD*%
%AMOC8*
5,1,8,0,0,1.08239X$1,22.5*
%
%ADD10C,0.0100*%
%ADD11C,0.0051*%
%ADD12C,0.0060*%
%ADD13C,0.0000*%
D10*
X004260Y004500D02*
X004260Y020496D01*
X045130Y020496D01*
X045130Y004500D01*
X004260Y004500D01*
D11*
X000492Y004500D01*
X001260Y004526D02*
X001362Y005524D01*
X001385Y005524D02*
X001260Y004526D01*
X001157Y005524D01*
X001134Y005524D02*
X001385Y005524D01*
X001311Y005524D02*
X001260Y004526D01*
X001208Y005524D01*
X001134Y005524D02*
X001260Y004526D01*
X001260Y020474D01*
X001362Y019476D01*
X001385Y019476D02*
X001260Y020474D01*
X001157Y019476D01*
X001134Y019476D02*
X001385Y019476D01*
X001311Y019476D02*
X001260Y020474D01*
X001208Y019476D01*
X001134Y019476D02*
X001260Y020474D01*
X000492Y020500D02*
X004260Y020500D01*
X004260Y020496D02*
X004259Y024264D01*
X004285Y023496D02*
X005283Y023599D01*
X005283Y023622D02*
X005283Y023370D01*
X004285Y023496D01*
X005283Y023394D01*
X005283Y023445D02*
X004285Y023496D01*
X005283Y023547D01*
X005283Y023622D02*
X004285Y023496D01*
X045234Y023500D01*
X044236Y023398D01*
X044236Y023374D02*
X045234Y023500D01*
X044236Y023602D01*
X044236Y023626D02*
X044236Y023374D01*
X044236Y023449D02*
X045234Y023500D01*
X044236Y023551D01*
X044236Y023626D02*
X045234Y023500D01*
X045259Y024268D02*
X045260Y020500D01*
D12*
X026344Y024074D02*
X025917Y024074D01*
X026237Y024395D01*
X026237Y023754D01*
X025700Y023754D02*
X025273Y023754D01*
X025486Y023754D02*
X025486Y024395D01*
X025273Y024181D01*
X025057Y023861D02*
X025057Y023754D01*
X024950Y023754D01*
X024950Y023861D01*
X025057Y023861D01*
X024733Y024074D02*
X024306Y024074D01*
X024626Y024395D01*
X024626Y023754D01*
X024088Y023861D02*
X023982Y023754D01*
X023768Y023754D01*
X023661Y023861D01*
X024088Y024288D01*
X024088Y023861D01*
X023661Y023861D02*
X023661Y024288D01*
X023768Y024395D01*
X023982Y024395D01*
X024088Y024288D01*
X023230Y024395D02*
X023017Y024181D01*
X023230Y024395D02*
X023230Y023754D01*
X023017Y023754D02*
X023444Y023754D01*
X001003Y013656D02*
X000363Y013656D01*
X000683Y013336D01*
X000683Y013763D01*
X000790Y013118D02*
X000683Y013011D01*
X000683Y012691D01*
X000897Y012691D01*
X001003Y012798D01*
X001003Y013011D01*
X000897Y013118D01*
X000790Y013118D01*
X000470Y012905D02*
X000683Y012691D01*
X000470Y012905D02*
X000363Y013118D01*
X000897Y012476D02*
X001003Y012476D01*
X001003Y012369D01*
X000897Y012369D01*
X000897Y012476D01*
X000897Y012151D02*
X001003Y012045D01*
X001003Y011831D01*
X000897Y011724D01*
X000470Y012151D01*
X000897Y012151D01*
X000470Y012151D02*
X000363Y012045D01*
X000363Y011831D01*
X000470Y011724D01*
X000897Y011724D01*
X000683Y011507D02*
X000683Y011080D01*
X000363Y011400D01*
X001003Y011400D01*
D13*
X007754Y018173D02*
X007756Y018208D01*
X007762Y018242D01*
X007772Y018275D01*
X007785Y018308D01*
X007802Y018338D01*
X007823Y018366D01*
X007846Y018392D01*
X007873Y018415D01*
X007901Y018434D01*
X007932Y018450D01*
X007965Y018463D01*
X007998Y018472D01*
X008033Y018477D01*
X008068Y018478D01*
X008102Y018475D01*
X008137Y018468D01*
X008170Y018457D01*
X008201Y018443D01*
X008231Y018425D01*
X008259Y018404D01*
X008284Y018379D01*
X008306Y018352D01*
X008325Y018323D01*
X008340Y018292D01*
X008352Y018259D01*
X008360Y018225D01*
X008364Y018190D01*
X008364Y018156D01*
X008360Y018121D01*
X008352Y018087D01*
X008340Y018054D01*
X008325Y018023D01*
X008306Y017994D01*
X008284Y017967D01*
X008259Y017942D01*
X008231Y017921D01*
X008201Y017903D01*
X008170Y017889D01*
X008137Y017878D01*
X008102Y017871D01*
X008068Y017868D01*
X008033Y017869D01*
X007998Y017874D01*
X007965Y017883D01*
X007932Y017896D01*
X007901Y017912D01*
X007873Y017931D01*
X007846Y017954D01*
X007823Y017980D01*
X007802Y018008D01*
X007785Y018038D01*
X007772Y018071D01*
X007762Y018104D01*
X007756Y018138D01*
X007754Y018173D01*
X017305Y018173D02*
X017307Y018208D01*
X017313Y018242D01*
X017323Y018275D01*
X017336Y018308D01*
X017353Y018338D01*
X017374Y018366D01*
X017397Y018392D01*
X017424Y018415D01*
X017452Y018434D01*
X017483Y018450D01*
X017516Y018463D01*
X017549Y018472D01*
X017584Y018477D01*
X017619Y018478D01*
X017653Y018475D01*
X017688Y018468D01*
X017721Y018457D01*
X017752Y018443D01*
X017782Y018425D01*
X017810Y018404D01*
X017835Y018379D01*
X017857Y018352D01*
X017876Y018323D01*
X017891Y018292D01*
X017903Y018259D01*
X017911Y018225D01*
X017915Y018190D01*
X017915Y018156D01*
X017911Y018121D01*
X017903Y018087D01*
X017891Y018054D01*
X017876Y018023D01*
X017857Y017994D01*
X017835Y017967D01*
X017810Y017942D01*
X017782Y017921D01*
X017752Y017903D01*
X017721Y017889D01*
X017688Y017878D01*
X017653Y017871D01*
X017619Y017868D01*
X017584Y017869D01*
X017549Y017874D01*
X017516Y017883D01*
X017483Y017896D01*
X017452Y017912D01*
X017424Y017931D01*
X017397Y017954D01*
X017374Y017980D01*
X017353Y018008D01*
X017336Y018038D01*
X017323Y018071D01*
X017313Y018104D01*
X017307Y018138D01*
X017305Y018173D01*
M02*
