%
M48
M72
T01C0.0160
T02C0.0160
T03C0.0160
T04C0.0160
T05C0.0160
T06C0.0160
%
T01
X24833Y13500
X25833Y13500
X27333Y13500
X28333Y13500
T02
X17833Y5000
X19833Y5000
X19833Y8000
X20833Y9000
X21833Y10000
X22833Y11000
X23833Y12000
X20833Y12000
X19833Y11000
X18833Y10000
X17833Y9000
X17833Y8000
X20833Y14500
X23833Y14500
X29833Y15000
X29833Y12000
T03
X20833Y16500
X19833Y16500
X18833Y16500
X17833Y16500
X16833Y16500
X15833Y16500
X29833Y18500
X30833Y18500
X31833Y18500
T04
X28262Y18937
X26294Y18937
X24325Y18937
X24286Y16969
X25349Y16969
X26294Y16969
X27239Y16969
X28302Y16969
T05
X13684Y18173
X4133Y18173
T06
X1333Y19500
M30
