G75*
%MOIN*%
%OFA0B0*%
%FSLAX24Y24*%
%IPPOS*%
%LPD*%
%AMOC8*
5,1,8,0,0,1.08239X$1,22.5*
%
%ADD10C,0.0680*%
%ADD11R,0.0434X0.0789*%
%ADD12R,0.0631X0.0867*%
%ADD13R,0.0513X0.0789*%
%ADD14C,0.0690*%
%ADD15C,0.2180*%
%ADD16C,0.0820*%
%ADD17R,0.0710X0.0789*%
%ADD18C,0.1080*%
%ADD19OC8,0.1080*%
%ADD20OC8,0.0600*%
%ADD21OC8,0.0740*%
%ADD22OC8,0.0905*%
%ADD23OC8,0.1350*%
%ADD24C,0.0966*%
%ADD25C,0.0671*%
D10*
X019760Y016200D02*
X019760Y016800D01*
X020760Y016800D02*
X020760Y016200D01*
X021760Y016200D02*
X021760Y016800D01*
X022760Y016800D02*
X022760Y016200D01*
X023760Y016200D02*
X023760Y016800D01*
X024760Y016800D02*
X024760Y016200D01*
X024760Y019200D02*
X024760Y019800D01*
X023760Y019800D02*
X023760Y019200D01*
X022760Y019200D02*
X022760Y019800D01*
X021760Y019800D02*
X021760Y019200D01*
X020760Y019200D02*
X020760Y019800D01*
X019760Y019800D02*
X019760Y019200D01*
X033760Y018800D02*
X033760Y018200D01*
X034760Y018200D02*
X034760Y018800D01*
X035760Y018800D02*
X035760Y018200D01*
X042960Y018500D02*
X043560Y018500D01*
X043560Y017500D02*
X042960Y017500D01*
X042960Y019500D02*
X043560Y019500D01*
D11*
X016637Y008606D03*
X015968Y008606D03*
X015015Y008606D03*
X014031Y008606D03*
X013047Y008606D03*
X012358Y008606D03*
X011767Y008606D03*
X011078Y008606D03*
X010094Y008606D03*
X009110Y008606D03*
D12*
X006952Y016874D03*
X018567Y017327D03*
D13*
X017878Y008606D03*
D14*
X017610Y018173D03*
X008059Y018173D03*
D15*
X005260Y019500D03*
X035260Y006500D03*
D16*
X026760Y011000D03*
X027760Y012000D03*
X024760Y012000D03*
X023760Y011000D03*
X022760Y010000D03*
X021760Y009000D03*
X021760Y008000D03*
X023760Y008000D03*
X024760Y009000D03*
X025760Y010000D03*
X023760Y005000D03*
X021760Y005000D03*
D17*
X011708Y007000D03*
X012811Y007000D03*
D18*
X029760Y013000D03*
X039260Y012500D03*
X043260Y012500D03*
X039220Y019437D03*
D19*
X029760Y015000D03*
X037260Y012500D03*
X041260Y012500D03*
D20*
X032260Y013000D03*
X032260Y015000D03*
X031260Y010500D03*
X030260Y010500D03*
X030760Y009750D03*
D21*
X032760Y008500D03*
X028760Y008500D03*
X028760Y011500D03*
X027760Y013000D03*
X024760Y013000D03*
X032760Y011500D03*
X033760Y012000D03*
X033760Y015000D03*
D22*
X029760Y016500D03*
D23*
X031960Y016500D03*
X027560Y016500D03*
X029760Y019500D03*
D24*
X037212Y017469D03*
X038275Y017469D03*
X040165Y017469D03*
X041228Y017469D03*
D25*
X039220Y017469D03*
X037252Y019437D03*
X041189Y019437D03*
M02*
