G75*
%MOIN*%
%OFA0B0*%
%FSLAX24Y24*%
%IPPOS*%
%LPD*%
%AMOC8*
5,1,8,0,0,1.08239X$1,22.5*
%
%ADD10C,0.0100*%
%ADD11C,0.0051*%
%ADD12C,0.0060*%
%ADD13C,0.0050*%
%ADD14C,0.0000*%
%ADD15C,0.0030*%
%ADD16C,0.0020*%
%ADD17C,0.0080*%
D10*
X004260Y004500D02*
X004260Y020496D01*
X045130Y020496D01*
X045130Y004500D01*
X004260Y004500D01*
X007083Y008963D02*
X007083Y011063D01*
X007083Y008963D02*
X008815Y008963D01*
X018365Y008963D02*
X018400Y008963D01*
X018400Y011063D01*
X007123Y017602D02*
X007123Y020373D01*
X007681Y020378D01*
X018015Y020373D02*
X018400Y020373D01*
X018400Y018059D01*
D11*
X004260Y004500D02*
X000492Y004500D01*
X001260Y004526D02*
X001362Y005524D01*
X001385Y005524D02*
X001260Y004526D01*
X001157Y005524D01*
X001134Y005524D02*
X001385Y005524D01*
X001311Y005524D02*
X001260Y004526D01*
X001208Y005524D01*
X001134Y005524D02*
X001260Y004526D01*
X001260Y020474D01*
X001362Y019476D01*
X001385Y019476D02*
X001260Y020474D01*
X001157Y019476D01*
X001134Y019476D02*
X001385Y019476D01*
X001311Y019476D02*
X001260Y020474D01*
X001208Y019476D01*
X001134Y019476D02*
X001260Y020474D01*
X000492Y020500D02*
X004260Y020500D01*
X004260Y020496D02*
X004259Y024264D01*
X004285Y023496D02*
X005283Y023599D01*
X005283Y023622D02*
X005283Y023370D01*
X004285Y023496D01*
X005283Y023394D01*
X005283Y023445D02*
X004285Y023496D01*
X005283Y023547D01*
X005283Y023622D02*
X004285Y023496D01*
X045234Y023500D01*
X044236Y023398D01*
X044236Y023374D02*
X045234Y023500D01*
X044236Y023602D01*
X044236Y023626D02*
X044236Y023374D01*
X044236Y023449D02*
X045234Y023500D01*
X044236Y023551D01*
X044236Y023626D02*
X045234Y023500D01*
X045259Y024268D02*
X045260Y020500D01*
D12*
X043760Y019750D02*
X043510Y020000D01*
X043010Y020000D01*
X042760Y019750D01*
X042760Y019250D01*
X043010Y019000D01*
X042760Y018750D01*
X042760Y018250D01*
X043010Y018000D01*
X042760Y017750D01*
X042760Y017250D01*
X043010Y017000D01*
X043510Y017000D01*
X043760Y017250D01*
X043760Y017750D01*
X043510Y018000D01*
X043010Y018000D01*
X043510Y018000D02*
X043760Y018250D01*
X043760Y018750D01*
X043510Y019000D01*
X043010Y019000D01*
X043510Y019000D02*
X043760Y019250D01*
X043760Y019750D01*
X036260Y018750D02*
X036260Y018250D01*
X036010Y018000D01*
X035510Y018000D01*
X035260Y018250D01*
X035010Y018000D01*
X034510Y018000D01*
X034260Y018250D01*
X034010Y018000D01*
X033510Y018000D01*
X033260Y018250D01*
X033260Y018750D01*
X033510Y019000D01*
X034010Y019000D01*
X034260Y018750D01*
X034510Y019000D01*
X035010Y019000D01*
X035260Y018750D01*
X035510Y019000D01*
X036010Y019000D01*
X036260Y018750D01*
X035260Y018750D02*
X035260Y018250D01*
X034260Y018250D02*
X034260Y018750D01*
X025260Y019250D02*
X025010Y019000D01*
X024510Y019000D01*
X024260Y019250D01*
X024010Y019000D01*
X023510Y019000D01*
X023260Y019250D01*
X023010Y019000D01*
X022510Y019000D01*
X022260Y019250D01*
X022010Y019000D01*
X021510Y019000D01*
X021260Y019250D01*
X021010Y019000D01*
X020510Y019000D01*
X020260Y019250D01*
X020010Y019000D01*
X019510Y019000D01*
X019260Y019250D01*
X019260Y019750D01*
X019510Y020000D01*
X020010Y020000D01*
X020260Y019750D01*
X020510Y020000D01*
X021010Y020000D01*
X021260Y019750D01*
X021260Y019250D01*
X021260Y019750D02*
X021510Y020000D01*
X022010Y020000D01*
X022260Y019750D01*
X022510Y020000D01*
X023010Y020000D01*
X023260Y019750D01*
X023510Y020000D01*
X024010Y020000D01*
X024260Y019750D01*
X024510Y020000D01*
X025010Y020000D01*
X025260Y019750D01*
X025260Y019250D01*
X024260Y019250D02*
X024260Y019750D01*
X023260Y019750D02*
X023260Y019250D01*
X022260Y019250D02*
X022260Y019750D01*
X020260Y019750D02*
X020260Y019250D01*
X020510Y017000D02*
X021010Y017000D01*
X021260Y016750D01*
X021260Y016250D01*
X021010Y016000D01*
X020510Y016000D01*
X020260Y016250D01*
X020010Y016000D01*
X019510Y016000D01*
X019260Y016250D01*
X019260Y016750D01*
X019510Y017000D01*
X020010Y017000D01*
X020260Y016750D01*
X020510Y017000D01*
X020260Y016750D02*
X020260Y016250D01*
X021260Y016250D02*
X021510Y016000D01*
X022010Y016000D01*
X022260Y016250D01*
X022510Y016000D01*
X023010Y016000D01*
X023260Y016250D01*
X023510Y016000D01*
X024010Y016000D01*
X024260Y016250D01*
X024510Y016000D01*
X025010Y016000D01*
X025260Y016250D01*
X025260Y016750D01*
X025010Y017000D01*
X024510Y017000D01*
X024260Y016750D01*
X024260Y016250D01*
X024260Y016750D02*
X024010Y017000D01*
X023510Y017000D01*
X023260Y016750D01*
X023260Y016250D01*
X023260Y016750D02*
X023010Y017000D01*
X022510Y017000D01*
X022260Y016750D01*
X022260Y016250D01*
X022260Y016750D02*
X022010Y017000D01*
X021510Y017000D01*
X021260Y016750D01*
X023017Y023754D02*
X023444Y023754D01*
X023230Y023754D02*
X023230Y024395D01*
X023017Y024181D01*
X023661Y024288D02*
X023661Y023861D01*
X024088Y024288D01*
X024088Y023861D01*
X023982Y023754D01*
X023768Y023754D01*
X023661Y023861D01*
X024306Y024074D02*
X024733Y024074D01*
X024950Y023861D02*
X025057Y023861D01*
X025057Y023754D01*
X024950Y023754D01*
X024950Y023861D01*
X025273Y023754D02*
X025700Y023754D01*
X025486Y023754D02*
X025486Y024395D01*
X025273Y024181D01*
X024626Y024395D02*
X024306Y024074D01*
X024088Y024288D02*
X023982Y024395D01*
X023768Y024395D01*
X023661Y024288D01*
X024626Y024395D02*
X024626Y023754D01*
X025917Y024074D02*
X026237Y024395D01*
X026237Y023754D01*
X026344Y024074D02*
X025917Y024074D01*
X004110Y019500D02*
X004112Y019567D01*
X004118Y019635D01*
X004128Y019702D01*
X004142Y019768D01*
X004159Y019833D01*
X004181Y019897D01*
X004206Y019960D01*
X004235Y020021D01*
X004267Y020080D01*
X004303Y020137D01*
X004342Y020192D01*
X004384Y020245D01*
X004429Y020295D01*
X004477Y020342D01*
X004528Y020387D01*
X004581Y020428D01*
X004637Y020467D01*
X004695Y020502D01*
X004755Y020533D01*
X004816Y020561D01*
X004879Y020585D01*
X004943Y020606D01*
X005009Y020622D01*
X005075Y020635D01*
X005142Y020644D01*
X005209Y020649D01*
X005277Y020650D01*
X005344Y020647D01*
X005411Y020640D01*
X005478Y020629D01*
X005544Y020614D01*
X005609Y020596D01*
X005673Y020573D01*
X005735Y020547D01*
X005796Y020518D01*
X005854Y020484D01*
X005911Y020448D01*
X005966Y020408D01*
X006018Y020365D01*
X006067Y020319D01*
X006114Y020270D01*
X006158Y020219D01*
X006198Y020165D01*
X006236Y020109D01*
X006270Y020050D01*
X006300Y019990D01*
X006327Y019928D01*
X006351Y019865D01*
X006370Y019800D01*
X006386Y019735D01*
X006398Y019668D01*
X006406Y019601D01*
X006410Y019534D01*
X006410Y019466D01*
X006406Y019399D01*
X006398Y019332D01*
X006386Y019265D01*
X006370Y019200D01*
X006351Y019135D01*
X006327Y019072D01*
X006300Y019010D01*
X006270Y018950D01*
X006236Y018891D01*
X006198Y018835D01*
X006158Y018781D01*
X006114Y018730D01*
X006067Y018681D01*
X006018Y018635D01*
X005966Y018592D01*
X005911Y018552D01*
X005854Y018516D01*
X005796Y018482D01*
X005735Y018453D01*
X005673Y018427D01*
X005609Y018404D01*
X005544Y018386D01*
X005478Y018371D01*
X005411Y018360D01*
X005344Y018353D01*
X005277Y018350D01*
X005209Y018351D01*
X005142Y018356D01*
X005075Y018365D01*
X005009Y018378D01*
X004943Y018394D01*
X004879Y018415D01*
X004816Y018439D01*
X004755Y018467D01*
X004695Y018498D01*
X004637Y018533D01*
X004581Y018572D01*
X004528Y018613D01*
X004477Y018658D01*
X004429Y018705D01*
X004384Y018755D01*
X004342Y018808D01*
X004303Y018863D01*
X004267Y018920D01*
X004235Y018979D01*
X004206Y019040D01*
X004181Y019103D01*
X004159Y019167D01*
X004142Y019232D01*
X004128Y019298D01*
X004118Y019365D01*
X004112Y019433D01*
X004110Y019500D01*
X001003Y013656D02*
X000363Y013656D01*
X000683Y013336D01*
X000683Y013763D01*
X000790Y013118D02*
X000683Y013011D01*
X000683Y012691D01*
X000897Y012691D01*
X001003Y012798D01*
X001003Y013011D01*
X000897Y013118D01*
X000790Y013118D01*
X000470Y012905D02*
X000683Y012691D01*
X000470Y012905D02*
X000363Y013118D01*
X000897Y012476D02*
X001003Y012476D01*
X001003Y012369D01*
X000897Y012369D01*
X000897Y012476D01*
X000897Y012151D02*
X001003Y012045D01*
X001003Y011831D01*
X000897Y011724D01*
X000470Y012151D01*
X000897Y012151D01*
X000470Y012151D02*
X000363Y012045D01*
X000363Y011831D01*
X000470Y011724D01*
X000897Y011724D01*
X000683Y011507D02*
X000683Y011080D01*
X000363Y011400D01*
X001003Y011400D01*
X039110Y006500D02*
X039112Y006567D01*
X039118Y006635D01*
X039128Y006702D01*
X039142Y006768D01*
X039159Y006833D01*
X039181Y006897D01*
X039206Y006960D01*
X039235Y007021D01*
X039267Y007080D01*
X039303Y007137D01*
X039342Y007192D01*
X039384Y007245D01*
X039429Y007295D01*
X039477Y007342D01*
X039528Y007387D01*
X039581Y007428D01*
X039637Y007467D01*
X039695Y007502D01*
X039755Y007533D01*
X039816Y007561D01*
X039879Y007585D01*
X039943Y007606D01*
X040009Y007622D01*
X040075Y007635D01*
X040142Y007644D01*
X040209Y007649D01*
X040277Y007650D01*
X040344Y007647D01*
X040411Y007640D01*
X040478Y007629D01*
X040544Y007614D01*
X040609Y007596D01*
X040673Y007573D01*
X040735Y007547D01*
X040796Y007518D01*
X040854Y007484D01*
X040911Y007448D01*
X040966Y007408D01*
X041018Y007365D01*
X041067Y007319D01*
X041114Y007270D01*
X041158Y007219D01*
X041198Y007165D01*
X041236Y007109D01*
X041270Y007050D01*
X041300Y006990D01*
X041327Y006928D01*
X041351Y006865D01*
X041370Y006800D01*
X041386Y006735D01*
X041398Y006668D01*
X041406Y006601D01*
X041410Y006534D01*
X041410Y006466D01*
X041406Y006399D01*
X041398Y006332D01*
X041386Y006265D01*
X041370Y006200D01*
X041351Y006135D01*
X041327Y006072D01*
X041300Y006010D01*
X041270Y005950D01*
X041236Y005891D01*
X041198Y005835D01*
X041158Y005781D01*
X041114Y005730D01*
X041067Y005681D01*
X041018Y005635D01*
X040966Y005592D01*
X040911Y005552D01*
X040854Y005516D01*
X040796Y005482D01*
X040735Y005453D01*
X040673Y005427D01*
X040609Y005404D01*
X040544Y005386D01*
X040478Y005371D01*
X040411Y005360D01*
X040344Y005353D01*
X040277Y005350D01*
X040209Y005351D01*
X040142Y005356D01*
X040075Y005365D01*
X040009Y005378D01*
X039943Y005394D01*
X039879Y005415D01*
X039816Y005439D01*
X039755Y005467D01*
X039695Y005498D01*
X039637Y005533D01*
X039581Y005572D01*
X039528Y005613D01*
X039477Y005658D01*
X039429Y005705D01*
X039384Y005755D01*
X039342Y005808D01*
X039303Y005863D01*
X039267Y005920D01*
X039235Y005979D01*
X039206Y006040D01*
X039181Y006103D01*
X039159Y006167D01*
X039142Y006232D01*
X039128Y006298D01*
X039118Y006365D01*
X039112Y006433D01*
X039110Y006500D01*
D13*
X024976Y015245D02*
X024675Y015245D01*
X024825Y015245D02*
X024825Y015695D01*
X024675Y015545D01*
X024515Y015470D02*
X024440Y015395D01*
X024215Y015395D01*
X024215Y015245D02*
X024215Y015695D01*
X024440Y015695D01*
X024515Y015620D01*
X024515Y015470D01*
X024055Y015695D02*
X023905Y015695D01*
X023980Y015695D02*
X023980Y015320D01*
X023905Y015245D01*
X023830Y015245D01*
X023755Y015320D01*
X023830Y018245D02*
X023905Y018245D01*
X023980Y018320D01*
X023980Y018695D01*
X023905Y018695D02*
X024055Y018695D01*
X024215Y018695D02*
X024440Y018695D01*
X024515Y018620D01*
X024515Y018470D01*
X024440Y018395D01*
X024215Y018395D01*
X024215Y018245D02*
X024215Y018695D01*
X024675Y018620D02*
X024750Y018695D01*
X024900Y018695D01*
X024976Y018620D01*
X024976Y018545D01*
X024900Y018470D01*
X024976Y018395D01*
X024976Y018320D01*
X024900Y018245D01*
X024750Y018245D01*
X024675Y018320D01*
X024825Y018470D02*
X024900Y018470D01*
X023830Y018245D02*
X023755Y018320D01*
X034933Y017380D02*
X035008Y017305D01*
X035083Y017305D01*
X035159Y017380D01*
X035159Y017755D01*
X035234Y017755D02*
X035083Y017755D01*
X035394Y017755D02*
X035619Y017755D01*
X035694Y017680D01*
X035694Y017530D01*
X035619Y017455D01*
X035394Y017455D01*
X035394Y017305D02*
X035394Y017755D01*
X035854Y017680D02*
X035929Y017755D01*
X036079Y017755D01*
X036154Y017680D01*
X036154Y017605D01*
X035854Y017305D01*
X036154Y017305D01*
X044004Y018824D02*
X044004Y018974D01*
X044004Y018899D02*
X044379Y018899D01*
X044455Y018824D01*
X044455Y018749D01*
X044379Y018674D01*
X044304Y019134D02*
X044304Y019359D01*
X044229Y019434D01*
X044079Y019434D01*
X044004Y019359D01*
X044004Y019134D01*
X044455Y019134D01*
X044229Y019595D02*
X044229Y019895D01*
X044004Y019820D02*
X044455Y019820D01*
X044229Y019595D02*
X044004Y019820D01*
D14*
X017305Y018173D02*
X017307Y018208D01*
X017313Y018242D01*
X017323Y018275D01*
X017336Y018308D01*
X017353Y018338D01*
X017374Y018366D01*
X017397Y018392D01*
X017424Y018415D01*
X017452Y018434D01*
X017483Y018450D01*
X017516Y018463D01*
X017549Y018472D01*
X017584Y018477D01*
X017619Y018478D01*
X017653Y018475D01*
X017688Y018468D01*
X017721Y018457D01*
X017752Y018443D01*
X017782Y018425D01*
X017810Y018404D01*
X017835Y018379D01*
X017857Y018352D01*
X017876Y018323D01*
X017891Y018292D01*
X017903Y018259D01*
X017911Y018225D01*
X017915Y018190D01*
X017915Y018156D01*
X017911Y018121D01*
X017903Y018087D01*
X017891Y018054D01*
X017876Y018023D01*
X017857Y017994D01*
X017835Y017967D01*
X017810Y017942D01*
X017782Y017921D01*
X017752Y017903D01*
X017721Y017889D01*
X017688Y017878D01*
X017653Y017871D01*
X017619Y017868D01*
X017584Y017869D01*
X017549Y017874D01*
X017516Y017883D01*
X017483Y017896D01*
X017452Y017912D01*
X017424Y017931D01*
X017397Y017954D01*
X017374Y017980D01*
X017353Y018008D01*
X017336Y018038D01*
X017323Y018071D01*
X017313Y018104D01*
X017307Y018138D01*
X017305Y018173D01*
X007754Y018173D02*
X007756Y018208D01*
X007762Y018242D01*
X007772Y018275D01*
X007785Y018308D01*
X007802Y018338D01*
X007823Y018366D01*
X007846Y018392D01*
X007873Y018415D01*
X007901Y018434D01*
X007932Y018450D01*
X007965Y018463D01*
X007998Y018472D01*
X008033Y018477D01*
X008068Y018478D01*
X008102Y018475D01*
X008137Y018468D01*
X008170Y018457D01*
X008201Y018443D01*
X008231Y018425D01*
X008259Y018404D01*
X008284Y018379D01*
X008306Y018352D01*
X008325Y018323D01*
X008340Y018292D01*
X008352Y018259D01*
X008360Y018225D01*
X008364Y018190D01*
X008364Y018156D01*
X008360Y018121D01*
X008352Y018087D01*
X008340Y018054D01*
X008325Y018023D01*
X008306Y017994D01*
X008284Y017967D01*
X008259Y017942D01*
X008231Y017921D01*
X008201Y017903D01*
X008170Y017889D01*
X008137Y017878D01*
X008102Y017871D01*
X008068Y017868D01*
X008033Y017869D01*
X007998Y017874D01*
X007965Y017883D01*
X007932Y017896D01*
X007901Y017912D01*
X007873Y017931D01*
X007846Y017954D01*
X007823Y017980D01*
X007802Y018008D01*
X007785Y018038D01*
X007772Y018071D01*
X007762Y018104D01*
X007756Y018138D01*
X007754Y018173D01*
D15*
X012180Y014598D02*
X012180Y014289D01*
X012242Y014228D01*
X012365Y014228D01*
X012427Y014289D01*
X012427Y014598D01*
X012548Y014474D02*
X012672Y014598D01*
X012672Y014228D01*
X012795Y014228D02*
X012548Y014228D01*
X022274Y007317D02*
X022565Y007317D01*
X022565Y007220D02*
X022565Y007414D01*
X022371Y007220D02*
X022274Y007317D01*
X022323Y007119D02*
X022419Y007119D01*
X022468Y007071D01*
X022468Y006926D01*
X022468Y007022D02*
X022565Y007119D01*
X022565Y006926D02*
X022274Y006926D01*
X022274Y007071D01*
X022323Y007119D01*
X024274Y007071D02*
X024274Y006926D01*
X024565Y006926D01*
X024468Y006926D02*
X024468Y007071D01*
X024419Y007119D01*
X024323Y007119D01*
X024274Y007071D01*
X024323Y007220D02*
X024274Y007269D01*
X024274Y007365D01*
X024323Y007414D01*
X024371Y007414D01*
X024565Y007220D01*
X024565Y007414D01*
X024565Y007119D02*
X024468Y007022D01*
D16*
X011637Y006060D02*
X011491Y006060D01*
X011564Y006060D02*
X011564Y006280D01*
X011491Y006207D01*
X011416Y006243D02*
X011380Y006280D01*
X011306Y006280D01*
X011270Y006243D01*
X011270Y006097D01*
X011306Y006060D01*
X011380Y006060D01*
X011416Y006097D01*
X005260Y018350D02*
X005260Y018450D01*
X005260Y020550D02*
X005260Y020650D01*
X040260Y007650D02*
X040260Y007550D01*
X040260Y005450D02*
X040260Y005350D01*
D17*
X039669Y006500D02*
X039671Y006548D01*
X039677Y006596D01*
X039687Y006643D01*
X039700Y006689D01*
X039718Y006734D01*
X039738Y006778D01*
X039763Y006820D01*
X039791Y006859D01*
X039821Y006896D01*
X039855Y006930D01*
X039892Y006962D01*
X039930Y006991D01*
X039971Y007016D01*
X040014Y007038D01*
X040059Y007056D01*
X040105Y007070D01*
X040152Y007081D01*
X040200Y007088D01*
X040248Y007091D01*
X040296Y007090D01*
X040344Y007085D01*
X040392Y007076D01*
X040438Y007064D01*
X040483Y007047D01*
X040527Y007027D01*
X040569Y007004D01*
X040609Y006977D01*
X040647Y006947D01*
X040682Y006914D01*
X040714Y006878D01*
X040744Y006840D01*
X040770Y006799D01*
X040792Y006756D01*
X040812Y006712D01*
X040827Y006667D01*
X040839Y006620D01*
X040847Y006572D01*
X040851Y006524D01*
X040851Y006476D01*
X040847Y006428D01*
X040839Y006380D01*
X040827Y006333D01*
X040812Y006288D01*
X040792Y006244D01*
X040770Y006201D01*
X040744Y006160D01*
X040714Y006122D01*
X040682Y006086D01*
X040647Y006053D01*
X040609Y006023D01*
X040569Y005996D01*
X040527Y005973D01*
X040483Y005953D01*
X040438Y005936D01*
X040392Y005924D01*
X040344Y005915D01*
X040296Y005910D01*
X040248Y005909D01*
X040200Y005912D01*
X040152Y005919D01*
X040105Y005930D01*
X040059Y005944D01*
X040014Y005962D01*
X039971Y005984D01*
X039930Y006009D01*
X039892Y006038D01*
X039855Y006070D01*
X039821Y006104D01*
X039791Y006141D01*
X039763Y006180D01*
X039738Y006222D01*
X039718Y006266D01*
X039700Y006311D01*
X039687Y006357D01*
X039677Y006404D01*
X039671Y006452D01*
X039669Y006500D01*
X024060Y005500D02*
X023760Y005500D01*
X023760Y005400D01*
X023760Y005500D02*
X023460Y005500D01*
X023460Y007500D01*
X023760Y007500D01*
X023760Y007600D01*
X023760Y007500D02*
X024060Y007500D01*
X024060Y005500D01*
X022060Y005500D02*
X021760Y005500D01*
X021760Y005400D01*
X021760Y005500D02*
X021460Y005500D01*
X021460Y007500D01*
X021760Y007500D01*
X021760Y007600D01*
X021760Y007500D02*
X022060Y007500D01*
X022060Y005500D01*
X004669Y019500D02*
X004671Y019548D01*
X004677Y019596D01*
X004687Y019643D01*
X004700Y019689D01*
X004718Y019734D01*
X004738Y019778D01*
X004763Y019820D01*
X004791Y019859D01*
X004821Y019896D01*
X004855Y019930D01*
X004892Y019962D01*
X004930Y019991D01*
X004971Y020016D01*
X005014Y020038D01*
X005059Y020056D01*
X005105Y020070D01*
X005152Y020081D01*
X005200Y020088D01*
X005248Y020091D01*
X005296Y020090D01*
X005344Y020085D01*
X005392Y020076D01*
X005438Y020064D01*
X005483Y020047D01*
X005527Y020027D01*
X005569Y020004D01*
X005609Y019977D01*
X005647Y019947D01*
X005682Y019914D01*
X005714Y019878D01*
X005744Y019840D01*
X005770Y019799D01*
X005792Y019756D01*
X005812Y019712D01*
X005827Y019667D01*
X005839Y019620D01*
X005847Y019572D01*
X005851Y019524D01*
X005851Y019476D01*
X005847Y019428D01*
X005839Y019380D01*
X005827Y019333D01*
X005812Y019288D01*
X005792Y019244D01*
X005770Y019201D01*
X005744Y019160D01*
X005714Y019122D01*
X005682Y019086D01*
X005647Y019053D01*
X005609Y019023D01*
X005569Y018996D01*
X005527Y018973D01*
X005483Y018953D01*
X005438Y018936D01*
X005392Y018924D01*
X005344Y018915D01*
X005296Y018910D01*
X005248Y018909D01*
X005200Y018912D01*
X005152Y018919D01*
X005105Y018930D01*
X005059Y018944D01*
X005014Y018962D01*
X004971Y018984D01*
X004930Y019009D01*
X004892Y019038D01*
X004855Y019070D01*
X004821Y019104D01*
X004791Y019141D01*
X004763Y019180D01*
X004738Y019222D01*
X004718Y019266D01*
X004700Y019311D01*
X004687Y019357D01*
X004677Y019404D01*
X004671Y019452D01*
X004669Y019500D01*
M02*
