G75*
%MOIN*%
%OFA0B0*%
%FSLAX24Y24*%
%IPPOS*%
%LPD*%
%AMOC8*
5,1,8,0,0,1.08239X$1,22.5*
%
%ADD10C,0.0060*%
%ADD11C,0.0600*%
%ADD12R,0.0354X0.0709*%
%ADD13R,0.0551X0.0787*%
%ADD14R,0.0433X0.0709*%
%ADD15C,0.1400*%
%ADD16C,0.0740*%
%ADD17R,0.0630X0.0709*%
%ADD18C,0.1000*%
%ADD19C,0.0886*%
%ADD20OC8,0.0700*%
%ADD21C,0.0700*%
%ADD22C,0.0240*%
%ADD23C,0.0400*%
%ADD24C,0.0320*%
D10*
X021790Y005267D02*
X021907Y005150D01*
X022140Y005150D01*
X022257Y005267D01*
X022257Y005384D01*
X022140Y005500D01*
X021907Y005500D01*
X021790Y005617D01*
X021790Y005734D01*
X021907Y005851D01*
X022140Y005851D01*
X022257Y005734D01*
X022490Y005851D02*
X022840Y005851D01*
X022957Y005734D01*
X022957Y005267D01*
X022840Y005150D01*
X022490Y005150D01*
X022490Y005851D01*
X023714Y006267D02*
X023831Y006150D01*
X024065Y006150D01*
X024181Y006267D01*
X024181Y006384D01*
X024065Y006500D01*
X023831Y006500D01*
X023714Y006617D01*
X023714Y006734D01*
X023831Y006851D01*
X024065Y006851D01*
X024181Y006734D01*
X024414Y006851D02*
X024764Y006851D01*
X024881Y006734D01*
X024881Y006267D01*
X024764Y006150D01*
X024414Y006150D01*
X024414Y006851D01*
X025114Y006734D02*
X025114Y006267D01*
X025231Y006150D01*
X025464Y006150D01*
X025581Y006267D01*
X025814Y006150D02*
X025814Y006617D01*
X026047Y006851D01*
X026281Y006617D01*
X026281Y006150D01*
X026513Y006150D02*
X026513Y006851D01*
X026864Y006851D01*
X026980Y006734D01*
X026980Y006500D01*
X026864Y006384D01*
X026513Y006384D01*
X026747Y006384D02*
X026980Y006150D01*
X027213Y006150D02*
X027564Y006150D01*
X027680Y006267D01*
X027680Y006734D01*
X027564Y006851D01*
X027213Y006851D01*
X027213Y006150D01*
X027913Y006150D02*
X027913Y006851D01*
X028147Y006617D01*
X028380Y006851D01*
X028380Y006150D01*
X028613Y006267D02*
X028730Y006150D01*
X028963Y006150D01*
X029080Y006267D01*
X029080Y006734D01*
X028963Y006851D01*
X028730Y006851D01*
X028613Y006734D01*
X028613Y006267D01*
X029313Y006150D02*
X029313Y006851D01*
X029663Y006851D01*
X029780Y006734D01*
X029780Y006267D01*
X029663Y006150D01*
X029313Y006150D01*
X029488Y005617D02*
X029838Y005617D01*
X030071Y005617D02*
X030187Y005617D01*
X030187Y005150D01*
X030071Y005150D02*
X030304Y005150D01*
X030537Y005267D02*
X030537Y005500D01*
X030654Y005617D01*
X030888Y005617D01*
X031004Y005500D01*
X031004Y005267D01*
X030888Y005150D01*
X030654Y005150D01*
X030537Y005267D01*
X031237Y005150D02*
X031237Y005617D01*
X031587Y005617D01*
X031704Y005500D01*
X031704Y005150D01*
X030187Y005851D02*
X030187Y005967D01*
X029721Y005384D02*
X029488Y005384D01*
X029371Y005500D01*
X029488Y005617D01*
X029721Y005384D02*
X029838Y005267D01*
X029721Y005150D01*
X029371Y005150D01*
X029138Y005617D02*
X029021Y005617D01*
X028788Y005384D01*
X028555Y005384D02*
X028088Y005384D01*
X028088Y005500D02*
X028205Y005617D01*
X028438Y005617D01*
X028555Y005500D01*
X028555Y005384D01*
X028438Y005150D02*
X028205Y005150D01*
X028088Y005267D01*
X028088Y005500D01*
X027855Y005617D02*
X027622Y005150D01*
X027388Y005617D01*
X026456Y005734D02*
X026456Y005851D01*
X026456Y005734D02*
X026222Y005500D01*
X026222Y005150D01*
X026222Y005500D02*
X025989Y005734D01*
X025989Y005851D01*
X025289Y005851D02*
X025289Y005150D01*
X025756Y005150D01*
X025056Y005150D02*
X025056Y005851D01*
X024589Y005851D02*
X025056Y005150D01*
X024589Y005150D02*
X024589Y005851D01*
X024356Y005734D02*
X024239Y005851D01*
X024006Y005851D01*
X023889Y005734D01*
X023889Y005267D01*
X024006Y005150D01*
X024239Y005150D01*
X024356Y005267D01*
X024356Y005734D01*
X025814Y006500D02*
X026281Y006500D01*
X025581Y006734D02*
X025464Y006851D01*
X025231Y006851D01*
X025114Y006734D01*
X028788Y005617D02*
X028788Y005150D01*
D11*
X020833Y016200D02*
X020833Y016800D01*
X019833Y016800D02*
X019833Y016200D01*
X018833Y016200D02*
X018833Y016800D01*
X017833Y016800D02*
X017833Y016200D01*
X016833Y016200D02*
X016833Y016800D01*
X015833Y016800D02*
X015833Y016200D01*
X029833Y018200D02*
X029833Y018800D01*
X030833Y018800D02*
X030833Y018200D01*
X031833Y018200D02*
X031833Y018800D01*
D12*
X012711Y008606D03*
X012042Y008606D03*
X011089Y008606D03*
X010105Y008606D03*
X009121Y008606D03*
X008432Y008606D03*
X007841Y008606D03*
X007152Y008606D03*
X006168Y008606D03*
X005184Y008606D03*
D13*
X003026Y016874D03*
X014640Y017327D03*
D14*
X013951Y008606D03*
D15*
X001333Y019500D03*
D16*
X018833Y010000D03*
X019833Y011000D03*
X020833Y012000D03*
X022833Y011000D03*
X021833Y010000D03*
X020833Y009000D03*
X019833Y008000D03*
X017833Y008000D03*
X017833Y009000D03*
X023833Y012000D03*
X023833Y014500D03*
X020833Y014500D03*
X029833Y015000D03*
X029833Y012000D03*
X019833Y005000D03*
X017833Y005000D03*
D17*
X008885Y007000D03*
X007782Y007000D03*
D18*
X026294Y018937D03*
D19*
X027239Y016969D03*
X028302Y016969D03*
X025349Y016969D03*
X024286Y016969D03*
D20*
X025833Y013500D03*
X028333Y013500D03*
D21*
X027333Y013500D03*
X024833Y013500D03*
D22*
X017833Y005000D02*
X005833Y005000D01*
X005833Y008106D01*
X006168Y008606D01*
X006833Y008106D02*
X006833Y006000D01*
X018833Y006000D01*
X019833Y005000D01*
X018833Y007000D02*
X010605Y007000D01*
X010105Y008606D01*
X010833Y009000D02*
X011089Y008500D01*
X011089Y008606D01*
X010833Y009000D02*
X010833Y011000D01*
X008333Y011000D02*
X008333Y008606D01*
X008432Y008606D01*
X007841Y008606D02*
X007841Y007000D01*
X007782Y007000D01*
X008885Y007000D02*
X009333Y007000D01*
X011833Y007500D02*
X011833Y008106D01*
X012042Y008606D01*
X011833Y007500D02*
X016833Y007500D01*
X016833Y016500D01*
X016833Y017500D01*
X021833Y017500D01*
X021833Y012000D01*
X020833Y012000D01*
X019833Y012000D02*
X019833Y011000D01*
X019833Y016500D01*
X020833Y016500D02*
X020833Y014500D01*
X023833Y014500D02*
X024833Y013500D01*
X025833Y013500D02*
X025833Y014421D01*
X024286Y016969D01*
X028302Y016969D02*
X028333Y016937D01*
X028333Y013500D01*
X027333Y013500D02*
X027333Y012000D01*
X029833Y012000D01*
X029833Y015000D02*
X029333Y015500D01*
X029333Y017500D01*
X028833Y018000D01*
X015833Y018000D01*
X015833Y016500D01*
X014833Y017327D02*
X014640Y017327D01*
X017833Y016500D02*
X017833Y009000D01*
X017833Y008000D01*
X018833Y007000D02*
X018833Y010000D01*
X018833Y016500D01*
X019833Y011000D02*
X019833Y008000D01*
X007841Y008606D02*
X007833Y008606D01*
X007833Y011000D01*
X007152Y008606D02*
X006833Y008106D01*
D23*
X007833Y011000D02*
X004333Y011000D01*
X004333Y016874D01*
X003026Y016874D01*
X013333Y017327D02*
X013333Y011000D01*
X010833Y011000D01*
X008333Y011000D01*
X007833Y011000D01*
X013333Y017327D02*
X014640Y017327D01*
X014833Y017327D02*
X014833Y019500D01*
X026333Y019500D01*
X026333Y018937D01*
X026294Y018937D01*
X026333Y019500D02*
X030833Y019500D01*
X030833Y018500D01*
X030833Y018000D01*
X029833Y017500D02*
X030833Y016500D01*
X030833Y010500D01*
X023333Y010500D01*
X023333Y011000D01*
X023333Y012000D01*
X023333Y010500D02*
X023333Y010000D01*
X023333Y009000D01*
X023333Y007500D01*
X022333Y006500D01*
X029833Y017500D02*
X029833Y018500D01*
D24*
X023833Y012000D02*
X023333Y012000D01*
X023333Y011000D02*
X022833Y011000D01*
X023333Y010000D02*
X021833Y010000D01*
X020833Y009000D02*
X023333Y009000D01*
X022333Y006500D02*
X009333Y006500D01*
X009333Y007000D01*
X009333Y008106D01*
X009121Y008606D01*
M02*
