G75*
%MOIN*%
%OFA0B0*%
%FSLAX24Y24*%
%IPPOS*%
%LPD*%
%AMOC8*
5,1,8,0,0,1.08239X$1,22.5*
%
%ADD10C,0.0060*%
%ADD11C,0.0600*%
%ADD12R,0.0354X0.0709*%
%ADD13R,0.0551X0.0787*%
%ADD14R,0.0433X0.0709*%
%ADD15C,0.1400*%
%ADD16C,0.0740*%
%ADD17R,0.0630X0.0709*%
%ADD18OC8,0.0560*%
%ADD19C,0.0560*%
%ADD20C,0.1000*%
%ADD21C,0.0886*%
%ADD22OC8,0.0594*%
%ADD23OC8,0.1345*%
%ADD24C,0.0240*%
%ADD25C,0.0400*%
%ADD26C,0.0320*%
D10*
X037140Y006267D02*
X037257Y006150D01*
X037491Y006150D01*
X037607Y006267D01*
X037607Y006384D01*
X037491Y006500D01*
X037257Y006500D01*
X037140Y006617D01*
X037140Y006734D01*
X037257Y006851D01*
X037491Y006851D01*
X037607Y006734D01*
X037840Y006851D02*
X038191Y006851D01*
X038307Y006734D01*
X038307Y006267D01*
X038191Y006150D01*
X037840Y006150D01*
X037840Y006851D01*
X038540Y006734D02*
X038540Y006267D01*
X038657Y006150D01*
X038890Y006150D01*
X039007Y006267D01*
X039240Y006150D02*
X039240Y006617D01*
X039473Y006851D01*
X039707Y006617D01*
X039707Y006150D01*
X039940Y006150D02*
X039940Y006851D01*
X040290Y006851D01*
X040407Y006734D01*
X040407Y006500D01*
X040290Y006384D01*
X039940Y006384D01*
X040173Y006384D02*
X040407Y006150D01*
X040639Y006150D02*
X040990Y006150D01*
X041106Y006267D01*
X041106Y006734D01*
X040990Y006851D01*
X040639Y006851D01*
X040639Y006150D01*
X041339Y006150D02*
X041339Y006851D01*
X041573Y006617D01*
X041806Y006851D01*
X041806Y006150D01*
X042039Y006267D02*
X042156Y006150D01*
X042389Y006150D01*
X042506Y006267D01*
X042506Y006734D01*
X042389Y006851D01*
X042156Y006851D01*
X042039Y006734D01*
X042039Y006267D01*
X042739Y006150D02*
X042739Y006851D01*
X043089Y006851D01*
X043206Y006734D01*
X043206Y006267D01*
X043089Y006150D01*
X042739Y006150D01*
X039707Y006500D02*
X039240Y006500D01*
X039007Y006734D02*
X038890Y006851D01*
X038657Y006851D01*
X038540Y006734D01*
D11*
X024760Y016200D02*
X024760Y016800D01*
X023760Y016800D02*
X023760Y016200D01*
X022760Y016200D02*
X022760Y016800D01*
X021760Y016800D02*
X021760Y016200D01*
X020760Y016200D02*
X020760Y016800D01*
X019760Y016800D02*
X019760Y016200D01*
X019760Y019200D02*
X019760Y019800D01*
X020760Y019800D02*
X020760Y019200D01*
X021760Y019200D02*
X021760Y019800D01*
X022760Y019800D02*
X022760Y019200D01*
X023760Y019200D02*
X023760Y019800D01*
X024760Y019800D02*
X024760Y019200D01*
X033760Y018800D02*
X033760Y018200D01*
X034760Y018200D02*
X034760Y018800D01*
X035760Y018800D02*
X035760Y018200D01*
X042960Y018500D02*
X043560Y018500D01*
X043560Y017500D02*
X042960Y017500D01*
X042960Y019500D02*
X043560Y019500D01*
D12*
X016637Y008606D03*
X015968Y008606D03*
X015015Y008606D03*
X014031Y008606D03*
X013047Y008606D03*
X012358Y008606D03*
X011767Y008606D03*
X011078Y008606D03*
X010094Y008606D03*
X009110Y008606D03*
D13*
X006952Y016874D03*
X018567Y017327D03*
D14*
X017878Y008606D03*
D15*
X035260Y006500D03*
X005260Y019500D03*
D16*
X022760Y010000D03*
X023760Y011000D03*
X024760Y012000D03*
X026760Y011000D03*
X027760Y012000D03*
X029760Y011000D03*
X032760Y011000D03*
X025760Y010000D03*
X024760Y009000D03*
X023760Y008000D03*
X021760Y008000D03*
X021760Y009000D03*
X021760Y005000D03*
X023760Y005000D03*
X024760Y015000D03*
X027760Y015000D03*
D17*
X012811Y007000D03*
X011708Y007000D03*
D18*
X030160Y014000D03*
X033160Y014000D03*
X037360Y014000D03*
X040360Y014000D03*
D19*
X041160Y014000D03*
X038160Y014000D03*
X032360Y014000D03*
X029360Y014000D03*
D20*
X039220Y019437D03*
D21*
X038275Y017469D03*
X037212Y017469D03*
X040165Y017469D03*
X041228Y017469D03*
D22*
X030952Y017169D03*
X030952Y018154D03*
X027567Y018154D03*
X027567Y017169D03*
D23*
X026622Y019335D03*
X029260Y019650D03*
X031897Y019335D03*
D24*
X021760Y005000D02*
X009760Y005000D01*
X009760Y008106D01*
X010094Y008606D01*
X010760Y008106D02*
X010760Y006000D01*
X022760Y006000D01*
X023760Y005000D01*
X022760Y007000D02*
X014531Y007000D01*
X014031Y008606D01*
X014760Y009000D02*
X015015Y008500D01*
X015015Y008606D01*
X014760Y009000D02*
X014760Y011000D01*
X012260Y011000D02*
X012260Y008606D01*
X012358Y008606D01*
X011767Y008606D02*
X011767Y007000D01*
X011708Y007000D01*
X012811Y007000D02*
X013260Y007000D01*
X015760Y007500D02*
X015760Y008106D01*
X015968Y008606D01*
X015760Y007500D02*
X020760Y007500D01*
X020760Y016500D01*
X020760Y017500D01*
X025760Y017500D01*
X025760Y012000D01*
X024760Y012000D01*
X023760Y012000D02*
X023760Y011000D01*
X023760Y016500D01*
X024760Y016500D02*
X024760Y015000D01*
X026260Y013500D02*
X026260Y018000D01*
X019760Y018000D01*
X019760Y016500D01*
X021760Y016500D02*
X021760Y009000D01*
X021760Y008000D01*
X022760Y007000D02*
X022760Y010000D01*
X022760Y016500D01*
X027567Y017169D02*
X028736Y016000D01*
X028760Y015500D01*
X030260Y014000D01*
X030160Y014000D01*
X029360Y014000D02*
X028860Y014400D01*
X028760Y014500D01*
X028260Y014500D01*
X027760Y015000D01*
X028260Y013500D02*
X026260Y013500D01*
X028260Y013500D02*
X029760Y011000D01*
X032260Y011500D02*
X032760Y011000D01*
X032260Y011500D02*
X032260Y013900D01*
X032360Y014000D01*
X033160Y014000D02*
X033260Y014000D01*
X033260Y015000D01*
X032760Y015500D01*
X032122Y015500D01*
X030952Y017169D01*
X037212Y017469D02*
X037260Y017421D01*
X037260Y014000D01*
X037360Y014000D01*
X038160Y014000D02*
X039160Y013000D01*
X043260Y013000D01*
X043260Y017500D01*
X042260Y018500D02*
X042260Y014000D01*
X041160Y014000D01*
X040360Y014000D02*
X040260Y014000D01*
X040260Y015000D01*
X040760Y015500D01*
X040760Y017000D01*
X041228Y017469D01*
X037260Y017469D02*
X037212Y017469D01*
X023760Y011000D02*
X023760Y008000D01*
X011767Y008606D02*
X011760Y008606D01*
X011760Y011000D01*
X011078Y008606D02*
X010760Y008106D01*
D25*
X011760Y011000D02*
X008260Y011000D01*
X008260Y016874D01*
X006952Y016874D01*
X017260Y017327D02*
X017260Y011000D01*
X014760Y011000D01*
X012260Y011000D01*
X011760Y011000D01*
X017260Y017327D02*
X018260Y017327D01*
X018260Y018500D01*
X026260Y018500D01*
X026260Y020000D01*
X026760Y020000D01*
X026760Y019335D01*
X026622Y019335D01*
X026760Y020000D02*
X027760Y020000D01*
X027760Y018154D01*
X027567Y018154D01*
X029260Y019650D02*
X029260Y020000D01*
X027760Y020000D01*
X029260Y020000D02*
X030760Y020000D01*
X030760Y018154D01*
X030952Y018154D01*
X031760Y019335D02*
X031760Y020000D01*
X030760Y020000D01*
X031760Y020000D02*
X034760Y020000D01*
X039260Y020000D01*
X039260Y019437D01*
X039220Y019437D01*
X039260Y020000D02*
X042260Y020000D01*
X042760Y019500D01*
X043260Y019500D01*
X034760Y020000D02*
X034760Y018500D01*
X033760Y018500D02*
X033760Y017500D01*
X034760Y016500D01*
X034760Y009000D01*
X033260Y007500D01*
X027260Y007500D01*
X027260Y009000D01*
X027260Y010000D01*
X027260Y011000D01*
X027260Y012000D01*
X027260Y007500D02*
X026260Y006500D01*
X018567Y017327D02*
X018260Y017327D01*
X031760Y019335D02*
X031897Y019335D01*
D26*
X041228Y017469D02*
X041260Y017469D01*
X042260Y018500D02*
X043260Y018500D01*
X027760Y012000D02*
X027260Y012000D01*
X027260Y011000D02*
X026760Y011000D01*
X027260Y010000D02*
X025760Y010000D01*
X024760Y009000D02*
X027260Y009000D01*
X026260Y006500D02*
X013260Y006500D01*
X013260Y007000D01*
X013260Y008106D01*
X013047Y008606D01*
M02*
