%
M48
M72
T01C0.0160
T02C0.0160
T03C0.0160
T04C0.0160
T05C0.0160
T06C0.0160
T07C0.0160
T08C0.0160
%
T01
X29360Y14000
X30160Y14000
X32360Y14000
X33160Y14000
X37360Y14000
X38160Y14000
X40360Y14000
X41160Y14000
T02
X21760Y5000
X23760Y5000
X23760Y8000
X24760Y9000
X25760Y10000
X26760Y11000
X27760Y12000
X29760Y11000
X32760Y11000
X27760Y15000
X24760Y15000
X24760Y12000
X23760Y11000
X22760Y10000
X21760Y9000
X21760Y8000
T03
X27567Y17169
X27567Y18154
X30952Y18154
X30952Y17169
T04
X33760Y18500
X34760Y18500
X35760Y18500
X43260Y18500
X43260Y17500
X43260Y19500
X24760Y19500
X23760Y19500
X22760Y19500
X21760Y19500
X20760Y19500
X19760Y19500
X19760Y16500
X20760Y16500
X21760Y16500
X22760Y16500
X23760Y16500
X24760Y16500
T05
X37212Y17469
X38275Y17469
X39220Y17469
X40165Y17469
X41228Y17469
X41189Y19437
X39220Y19437
X37252Y19437
T06
X17610Y18173
X8059Y18173
T07
X26622Y19335
X29260Y19650
X31897Y19335
T08
X35260Y6500
X5260Y19500
M30
