G75*
%MOIN*%
%OFA0B0*%
%FSLAX24Y24*%
%IPPOS*%
%LPD*%
%AMOC8*
5,1,8,0,0,1.08239X$1,22.5*
%
%ADD10C,0.0640*%
%ADD11C,0.0650*%
%ADD12C,0.1440*%
%ADD13C,0.0780*%
%ADD14OC8,0.0740*%
%ADD15C,0.0740*%
%ADD16OC8,0.0560*%
%ADD17OC8,0.0865*%
%ADD18OC8,0.1310*%
%ADD19C,0.1040*%
%ADD20C,0.0926*%
%ADD21C,0.0631*%
%ADD22R,0.0512X0.0512*%
D10*
X015833Y016700D02*
X015833Y017300D01*
X016833Y017300D02*
X016833Y016700D01*
X017833Y016700D02*
X017833Y017300D01*
X018833Y017300D02*
X018833Y016700D01*
X019833Y016700D02*
X019833Y017300D01*
X020833Y017300D02*
X020833Y016700D01*
X020833Y019700D02*
X020833Y020300D01*
X019833Y020300D02*
X019833Y019700D01*
X018833Y019700D02*
X018833Y020300D01*
X017833Y020300D02*
X017833Y019700D01*
X016833Y019700D02*
X016833Y020300D01*
X015833Y020300D02*
X015833Y019700D01*
X029833Y019300D02*
X029833Y018700D01*
X030833Y018700D02*
X030833Y019300D01*
X031833Y019300D02*
X031833Y018700D01*
X039033Y019000D02*
X039633Y019000D01*
X039633Y018000D02*
X039033Y018000D01*
X039033Y020000D02*
X039633Y020000D01*
D11*
X013684Y018673D03*
X004133Y018673D03*
D12*
X001833Y020000D03*
X031833Y006500D03*
D13*
X017833Y005500D03*
X019833Y005500D03*
X019833Y008500D03*
X020833Y009500D03*
X021833Y010500D03*
X022833Y011500D03*
X023833Y012500D03*
X024833Y012000D03*
X023833Y013500D03*
X020833Y013500D03*
X020833Y012500D03*
X019833Y011500D03*
X018833Y010500D03*
X017833Y009500D03*
X017833Y008500D03*
X024833Y009000D03*
X027833Y009000D03*
X027833Y012000D03*
X028333Y013000D03*
X028333Y016000D03*
D14*
X025333Y015500D03*
X033333Y015000D03*
X035833Y015000D03*
X038333Y014000D03*
X034833Y007500D03*
D15*
X033833Y007500D03*
X033333Y014000D03*
X035833Y014000D03*
X038333Y015000D03*
X025333Y014500D03*
D16*
X026833Y013500D03*
X026833Y015500D03*
X026833Y011000D03*
X025833Y011000D03*
X026333Y010250D03*
D17*
X025833Y017000D03*
D18*
X028033Y017000D03*
X023633Y017000D03*
X025833Y020000D03*
D19*
X035794Y019937D03*
X039270Y009039D03*
D20*
X037302Y008094D03*
X037302Y007031D03*
X037302Y009984D03*
X037302Y011047D03*
X037802Y017969D03*
X036739Y017969D03*
X034849Y017969D03*
X033786Y017969D03*
D21*
X035794Y017969D03*
X037762Y019937D03*
X033825Y019937D03*
X039270Y011008D03*
X037302Y009039D03*
X039270Y007071D03*
D22*
X033333Y010000D03*
X033333Y011000D03*
X029333Y011000D03*
X029333Y010000D03*
X024833Y018000D03*
X022833Y020000D03*
X015833Y018000D03*
X014833Y020000D03*
M02*
