G75*
%MOIN*%
%OFA0B0*%
%FSLAX24Y24*%
%IPPOS*%
%LPD*%
%AMOC8*
5,1,8,0,0,1.08239X$1,22.5*
%
%ADD10C,0.0680*%
%ADD11C,0.0690*%
%ADD12C,0.1480*%
%ADD13C,0.0820*%
%ADD14OC8,0.0780*%
%ADD15C,0.0780*%
%ADD16OC8,0.0600*%
%ADD17OC8,0.0905*%
%ADD18OC8,0.1350*%
%ADD19C,0.1080*%
%ADD20C,0.0966*%
%ADD21C,0.0671*%
%ADD22R,0.0555X0.0555*%
D10*
X019760Y016200D02*
X019760Y016800D01*
X020760Y016800D02*
X020760Y016200D01*
X021760Y016200D02*
X021760Y016800D01*
X022760Y016800D02*
X022760Y016200D01*
X023760Y016200D02*
X023760Y016800D01*
X024760Y016800D02*
X024760Y016200D01*
X024760Y019200D02*
X024760Y019800D01*
X023760Y019800D02*
X023760Y019200D01*
X022760Y019200D02*
X022760Y019800D01*
X021760Y019800D02*
X021760Y019200D01*
X020760Y019200D02*
X020760Y019800D01*
X019760Y019800D02*
X019760Y019200D01*
X033760Y018800D02*
X033760Y018200D01*
X034760Y018200D02*
X034760Y018800D01*
X035760Y018800D02*
X035760Y018200D01*
X042960Y018500D02*
X043560Y018500D01*
X043560Y017500D02*
X042960Y017500D01*
X042960Y019500D02*
X043560Y019500D01*
D11*
X017610Y018173D03*
X008059Y018173D03*
D12*
X005260Y019500D03*
X035260Y006500D03*
D13*
X021760Y005000D03*
X023760Y005000D03*
X023760Y008000D03*
X024760Y009000D03*
X025760Y010000D03*
X026760Y011000D03*
X027760Y012000D03*
X028760Y011500D03*
X027760Y013000D03*
X024760Y013000D03*
X024760Y012000D03*
X023760Y011000D03*
X022760Y010000D03*
X021760Y009000D03*
X021760Y008000D03*
X028760Y008500D03*
X032260Y008500D03*
X032260Y011500D03*
X032760Y012500D03*
X032760Y015500D03*
D14*
X029260Y015000D03*
X036760Y014000D03*
X040760Y014000D03*
X037760Y011000D03*
X037760Y007500D03*
D15*
X036760Y007500D03*
X036760Y011000D03*
X037760Y014000D03*
X041760Y014000D03*
X029260Y014000D03*
D16*
X031260Y013000D03*
X031260Y015000D03*
X031260Y010500D03*
X030260Y010500D03*
X030760Y009750D03*
D17*
X029760Y016500D03*
D18*
X031960Y016500D03*
X027560Y016500D03*
X029760Y019500D03*
D19*
X039220Y019437D03*
X042697Y009039D03*
D20*
X040728Y008094D03*
X040728Y007031D03*
X040728Y009984D03*
X040728Y011047D03*
X041228Y017469D03*
X040165Y017469D03*
X038275Y017469D03*
X037212Y017469D03*
D21*
X039220Y017469D03*
X037252Y019437D03*
X041189Y019437D03*
X042697Y011008D03*
X040728Y009039D03*
X042697Y007071D03*
D22*
X035760Y009500D03*
X033760Y009500D03*
X033760Y011000D03*
X035760Y011000D03*
X028760Y017500D03*
X026760Y019500D03*
X019760Y017500D03*
X018760Y019500D03*
M02*
