G75*
%MOIN*%
%OFA0B0*%
%FSLAX24Y24*%
%IPPOS*%
%LPD*%
%AMOC8*
5,1,8,0,0,1.08239X$1,22.5*
%
%ADD10C,0.0680*%
%ADD11R,0.0434X0.0789*%
%ADD12R,0.0631X0.0867*%
%ADD13R,0.0513X0.0789*%
%ADD14C,0.0690*%
%ADD15C,0.1480*%
%ADD16C,0.0820*%
%ADD17R,0.0710X0.0789*%
%ADD18C,0.1080*%
%ADD19C,0.0966*%
%ADD20C,0.0671*%
%ADD21OC8,0.0780*%
%ADD22C,0.0780*%
D10*
X015833Y016200D02*
X015833Y016800D01*
X016833Y016800D02*
X016833Y016200D01*
X017833Y016200D02*
X017833Y016800D01*
X018833Y016800D02*
X018833Y016200D01*
X019833Y016200D02*
X019833Y016800D01*
X020833Y016800D02*
X020833Y016200D01*
X029833Y018200D02*
X029833Y018800D01*
X030833Y018800D02*
X030833Y018200D01*
X031833Y018200D02*
X031833Y018800D01*
D11*
X012711Y008606D03*
X012042Y008606D03*
X011089Y008606D03*
X010105Y008606D03*
X009121Y008606D03*
X008432Y008606D03*
X007841Y008606D03*
X007152Y008606D03*
X006168Y008606D03*
X005184Y008606D03*
D12*
X003026Y016874D03*
X014640Y017327D03*
D13*
X013951Y008606D03*
D14*
X013684Y018173D03*
X004133Y018173D03*
D15*
X001333Y019500D03*
D16*
X018833Y010000D03*
X019833Y011000D03*
X020833Y012000D03*
X022833Y011000D03*
X021833Y010000D03*
X020833Y009000D03*
X019833Y008000D03*
X017833Y008000D03*
X017833Y009000D03*
X023833Y012000D03*
X023833Y014500D03*
X020833Y014500D03*
X029833Y015000D03*
X029833Y012000D03*
X019833Y005000D03*
X017833Y005000D03*
D17*
X007782Y007000D03*
X008885Y007000D03*
D18*
X026294Y018937D03*
D19*
X027239Y016969D03*
X028302Y016969D03*
X025349Y016969D03*
X024286Y016969D03*
D20*
X026294Y016969D03*
X028262Y018937D03*
X024325Y018937D03*
D21*
X025833Y013500D03*
X028333Y013500D03*
D22*
X027333Y013500D03*
X024833Y013500D03*
M02*
