G75*
%MOIN*%
%OFA0B0*%
%FSLAX24Y24*%
%IPPOS*%
%LPD*%
%AMOC8*
5,1,8,0,0,1.08239X$1,22.5*
%
%ADD10C,0.0680*%
%ADD11C,0.0690*%
%ADD12C,0.1480*%
%ADD13C,0.0820*%
%ADD14OC8,0.0640*%
%ADD15C,0.0640*%
%ADD16C,0.1080*%
%ADD17C,0.0966*%
%ADD18C,0.0671*%
%ADD19OC8,0.0674*%
%ADD20OC8,0.1425*%
D10*
X019760Y016200D02*
X019760Y016800D01*
X020760Y016800D02*
X020760Y016200D01*
X021760Y016200D02*
X021760Y016800D01*
X022760Y016800D02*
X022760Y016200D01*
X023760Y016200D02*
X023760Y016800D01*
X024760Y016800D02*
X024760Y016200D01*
X024760Y019200D02*
X024760Y019800D01*
X023760Y019800D02*
X023760Y019200D01*
X022760Y019200D02*
X022760Y019800D01*
X021760Y019800D02*
X021760Y019200D01*
X020760Y019200D02*
X020760Y019800D01*
X019760Y019800D02*
X019760Y019200D01*
X033760Y018800D02*
X033760Y018200D01*
X034760Y018200D02*
X034760Y018800D01*
X035760Y018800D02*
X035760Y018200D01*
X042960Y018500D02*
X043560Y018500D01*
X043560Y017500D02*
X042960Y017500D01*
X042960Y019500D02*
X043560Y019500D01*
D11*
X017610Y018173D03*
X008059Y018173D03*
D12*
X005260Y019500D03*
X035260Y006500D03*
D13*
X021760Y005000D03*
X023760Y005000D03*
X023760Y008000D03*
X024760Y009000D03*
X025760Y010000D03*
X026760Y011000D03*
X027760Y012000D03*
X029760Y011000D03*
X032760Y011000D03*
X027760Y015000D03*
X024760Y015000D03*
X024760Y012000D03*
X023760Y011000D03*
X022760Y010000D03*
X021760Y009000D03*
X021760Y008000D03*
D14*
X030160Y014000D03*
X033160Y014000D03*
X037360Y014000D03*
X040360Y014000D03*
X038160Y011250D03*
X038160Y008000D03*
D15*
X037360Y008000D03*
X037360Y011250D03*
X038160Y014000D03*
X041160Y014000D03*
X032360Y014000D03*
X029360Y014000D03*
D16*
X039220Y019437D03*
X042947Y009789D03*
D17*
X040978Y008844D03*
X040978Y007781D03*
X040978Y010734D03*
X040978Y011797D03*
X041228Y017469D03*
X040165Y017469D03*
X038275Y017469D03*
X037212Y017469D03*
D18*
X039220Y017469D03*
X037252Y019437D03*
X041189Y019437D03*
X042947Y011758D03*
X040978Y009789D03*
X042947Y007821D03*
D19*
X030952Y017169D03*
X030952Y018154D03*
X027567Y018154D03*
X027567Y017169D03*
D20*
X026622Y019335D03*
X029260Y019650D03*
X031897Y019335D03*
M02*
