G75*
%MOIN*%
%OFA0B0*%
%FSLAX24Y24*%
%IPPOS*%
%LPD*%
%AMOC8*
5,1,8,0,0,1.08239X$1,22.5*
%
%ADD10C,0.0060*%
%ADD11C,0.0600*%
%ADD12R,0.0354X0.0709*%
%ADD13R,0.0551X0.0787*%
%ADD14R,0.0433X0.0709*%
%ADD15C,0.1400*%
%ADD16C,0.0740*%
%ADD17R,0.0630X0.0709*%
%ADD18OC8,0.0560*%
%ADD19C,0.0560*%
%ADD20C,0.1000*%
%ADD21C,0.0886*%
%ADD22OC8,0.0594*%
%ADD23OC8,0.1345*%
%ADD24C,0.0240*%
%ADD25C,0.0400*%
%ADD26C,0.0320*%
D10*
X027390Y006017D02*
X027507Y005900D01*
X027741Y005900D01*
X027857Y006017D01*
X027857Y006134D01*
X027741Y006250D01*
X027507Y006250D01*
X027390Y006367D01*
X027390Y006484D01*
X027507Y006601D01*
X027741Y006601D01*
X027857Y006484D01*
X028090Y006601D02*
X028441Y006601D01*
X028557Y006484D01*
X028557Y006017D01*
X028441Y005900D01*
X028090Y005900D01*
X028090Y006601D01*
X028790Y006484D02*
X028790Y006017D01*
X028907Y005900D01*
X029140Y005900D01*
X029257Y006017D01*
X029490Y005900D02*
X029490Y006367D01*
X029723Y006601D01*
X029957Y006367D01*
X029957Y005900D01*
X030190Y005900D02*
X030190Y006601D01*
X030540Y006601D01*
X030657Y006484D01*
X030657Y006250D01*
X030540Y006134D01*
X030190Y006134D01*
X030423Y006134D02*
X030657Y005900D01*
X030889Y005900D02*
X031240Y005900D01*
X031356Y006017D01*
X031356Y006484D01*
X031240Y006601D01*
X030889Y006601D01*
X030889Y005900D01*
X031589Y005900D02*
X031589Y006601D01*
X031823Y006367D01*
X032056Y006601D01*
X032056Y005900D01*
X032289Y006017D02*
X032406Y005900D01*
X032639Y005900D01*
X032756Y006017D01*
X032756Y006484D01*
X032639Y006601D01*
X032406Y006601D01*
X032289Y006484D01*
X032289Y006017D01*
X032989Y005900D02*
X032989Y006601D01*
X033339Y006601D01*
X033456Y006484D01*
X033456Y006017D01*
X033339Y005900D01*
X032989Y005900D01*
X029957Y006250D02*
X029490Y006250D01*
X029257Y006484D02*
X029140Y006601D01*
X028907Y006601D01*
X028790Y006484D01*
D11*
X024760Y016200D02*
X024760Y016800D01*
X023760Y016800D02*
X023760Y016200D01*
X022760Y016200D02*
X022760Y016800D01*
X021760Y016800D02*
X021760Y016200D01*
X020760Y016200D02*
X020760Y016800D01*
X019760Y016800D02*
X019760Y016200D01*
X019760Y019200D02*
X019760Y019800D01*
X020760Y019800D02*
X020760Y019200D01*
X021760Y019200D02*
X021760Y019800D01*
X022760Y019800D02*
X022760Y019200D01*
X023760Y019200D02*
X023760Y019800D01*
X024760Y019800D02*
X024760Y019200D01*
X033760Y018800D02*
X033760Y018200D01*
X034760Y018200D02*
X034760Y018800D01*
X035760Y018800D02*
X035760Y018200D01*
X042960Y018500D02*
X043560Y018500D01*
X043560Y017500D02*
X042960Y017500D01*
X042960Y019500D02*
X043560Y019500D01*
D12*
X016637Y008606D03*
X015968Y008606D03*
X015015Y008606D03*
X014031Y008606D03*
X013047Y008606D03*
X012358Y008606D03*
X011767Y008606D03*
X011078Y008606D03*
X010094Y008606D03*
X009110Y008606D03*
D13*
X006952Y016874D03*
X018567Y017327D03*
D14*
X017878Y008606D03*
D15*
X035260Y006500D03*
X005260Y019500D03*
D16*
X022760Y010000D03*
X023760Y011000D03*
X024760Y012000D03*
X026760Y011000D03*
X027760Y012000D03*
X029760Y011000D03*
X032760Y011000D03*
X025760Y010000D03*
X024760Y009000D03*
X023760Y008000D03*
X021760Y008000D03*
X021760Y009000D03*
X021760Y005000D03*
X023760Y005000D03*
X024760Y015000D03*
X027760Y015000D03*
D17*
X012811Y007000D03*
X011708Y007000D03*
D18*
X030160Y014000D03*
X033160Y014000D03*
X037360Y014000D03*
X040360Y014000D03*
X038160Y011250D03*
X038160Y008000D03*
D19*
X037360Y008000D03*
X037360Y011250D03*
X038160Y014000D03*
X041160Y014000D03*
X032360Y014000D03*
X029360Y014000D03*
D20*
X039220Y019437D03*
X042947Y009789D03*
D21*
X040978Y008844D03*
X040978Y007781D03*
X040978Y010734D03*
X040978Y011797D03*
X041228Y017469D03*
X040165Y017469D03*
X038275Y017469D03*
X037212Y017469D03*
D22*
X030952Y017169D03*
X030952Y018154D03*
X027567Y018154D03*
X027567Y017169D03*
D23*
X026622Y019335D03*
X029260Y019650D03*
X031897Y019335D03*
D24*
X021760Y005000D02*
X009760Y005000D01*
X009760Y008106D01*
X010094Y008606D01*
X010760Y008106D02*
X010760Y006000D01*
X022760Y006000D01*
X023760Y005000D01*
X022760Y007000D02*
X014531Y007000D01*
X014031Y008606D01*
X014760Y009000D02*
X015015Y008500D01*
X015015Y008606D01*
X014760Y009000D02*
X014760Y011000D01*
X012260Y011000D02*
X012260Y008606D01*
X012358Y008606D01*
X011767Y008606D02*
X011767Y007000D01*
X011708Y007000D01*
X012811Y007000D02*
X013260Y007000D01*
X015760Y007500D02*
X015760Y008106D01*
X015968Y008606D01*
X015760Y007500D02*
X020760Y007500D01*
X020760Y016500D01*
X020760Y017500D01*
X025760Y017500D01*
X025760Y012000D01*
X024760Y012000D01*
X023760Y012000D02*
X023760Y011000D01*
X023760Y016500D01*
X024760Y016500D02*
X024760Y015000D01*
X026260Y013500D02*
X026260Y018000D01*
X019760Y018000D01*
X019760Y016500D01*
X021760Y016500D02*
X021760Y009000D01*
X021760Y008000D01*
X022760Y007000D02*
X022760Y010000D01*
X022760Y016500D01*
X027567Y017169D02*
X028736Y016000D01*
X028760Y015500D01*
X030260Y014000D01*
X030160Y014000D01*
X029360Y014000D02*
X028860Y014400D01*
X028760Y014500D01*
X028260Y014500D01*
X027760Y015000D01*
X028260Y013500D02*
X026260Y013500D01*
X028260Y013500D02*
X029760Y011000D01*
X032260Y011500D02*
X032760Y011000D01*
X032260Y011500D02*
X032260Y013900D01*
X032360Y014000D01*
X033160Y014000D02*
X033260Y014000D01*
X033260Y015000D01*
X032760Y015500D01*
X032122Y015500D01*
X030952Y017169D01*
X037212Y017469D02*
X037260Y017421D01*
X037260Y014000D01*
X037360Y014000D01*
X038160Y014000D02*
X039160Y013000D01*
X043260Y013000D01*
X043260Y017500D01*
X042260Y018500D02*
X042260Y014000D01*
X041160Y014000D01*
X040360Y014000D02*
X040260Y014000D01*
X040260Y015000D01*
X040760Y015500D01*
X040760Y017000D01*
X041228Y017469D01*
X037260Y017469D02*
X037212Y017469D01*
X038707Y011797D02*
X040978Y011797D01*
X038707Y011797D02*
X038160Y011250D01*
X038160Y008000D02*
X038378Y007781D01*
X040978Y007781D01*
X023760Y008000D02*
X023760Y011000D01*
X011760Y011000D02*
X011760Y008606D01*
X011767Y008606D01*
X011078Y008606D02*
X010760Y008106D01*
D25*
X011760Y011000D02*
X008260Y011000D01*
X008260Y016874D01*
X006952Y016874D01*
X017260Y017327D02*
X017260Y011000D01*
X014760Y011000D01*
X012260Y011000D01*
X011760Y011000D01*
X017260Y017327D02*
X018260Y017327D01*
X018260Y018500D01*
X026260Y018500D01*
X026260Y020000D01*
X026760Y020000D01*
X026760Y019335D01*
X026622Y019335D01*
X026760Y020000D02*
X027760Y020000D01*
X027760Y018154D01*
X027567Y018154D01*
X029260Y019650D02*
X029260Y020000D01*
X027760Y020000D01*
X029260Y020000D02*
X030760Y020000D01*
X030760Y018154D01*
X030952Y018154D01*
X031760Y019335D02*
X031760Y020000D01*
X030760Y020000D01*
X031760Y020000D02*
X034760Y020000D01*
X039260Y020000D01*
X039260Y019437D01*
X039220Y019437D01*
X039260Y020000D02*
X042260Y020000D01*
X042760Y019500D01*
X043260Y019500D01*
X034760Y020000D02*
X034760Y018500D01*
X033760Y018500D02*
X033760Y017500D01*
X034760Y016500D01*
X034760Y009000D01*
X033260Y007500D01*
X027260Y007500D01*
X027260Y009000D01*
X027260Y010000D01*
X027260Y011000D01*
X027260Y012000D01*
X027260Y007500D02*
X026260Y006500D01*
X018567Y017327D02*
X018260Y017327D01*
X031760Y019335D02*
X031897Y019335D01*
D26*
X034760Y018500D02*
X034760Y017750D01*
X035510Y017000D01*
X035510Y008000D01*
X037010Y006250D01*
X042260Y006250D01*
X042260Y009750D01*
X042907Y009750D01*
X042947Y009789D01*
X041260Y017469D02*
X041228Y017469D01*
X042260Y018500D02*
X043260Y018500D01*
X027760Y012000D02*
X027260Y012000D01*
X027260Y011000D02*
X026760Y011000D01*
X027260Y010000D02*
X025760Y010000D01*
X024760Y009000D02*
X027260Y009000D01*
X026260Y006500D02*
X013260Y006500D01*
X013260Y007000D01*
X013260Y008106D01*
X013047Y008606D01*
M02*
