G75*
%MOIN*%
%OFA0B0*%
%FSLAX24Y24*%
%IPPOS*%
%LPD*%
%AMOC8*
5,1,8,0,0,1.08239X$1,22.5*
%
%ADD10C,0.0060*%
%ADD11C,0.0600*%
%ADD12R,0.0354X0.0709*%
%ADD13R,0.0551X0.0787*%
%ADD14R,0.0433X0.0709*%
%ADD15C,0.2100*%
%ADD16C,0.0740*%
%ADD17R,0.0630X0.0709*%
%ADD18C,0.1000*%
%ADD19OC8,0.1000*%
%ADD20OC8,0.0520*%
%ADD21OC8,0.0660*%
%ADD22OC8,0.0825*%
%ADD23OC8,0.1270*%
%ADD24C,0.0886*%
%ADD25C,0.0240*%
%ADD26C,0.0400*%
%ADD27C,0.0320*%
D10*
X037640Y006267D02*
X037757Y006150D01*
X037991Y006150D01*
X038107Y006267D01*
X038107Y006384D01*
X037991Y006500D01*
X037757Y006500D01*
X037640Y006617D01*
X037640Y006734D01*
X037757Y006851D01*
X037991Y006851D01*
X038107Y006734D01*
X038340Y006851D02*
X038691Y006851D01*
X038807Y006734D01*
X038807Y006267D01*
X038691Y006150D01*
X038340Y006150D01*
X038340Y006851D01*
X039040Y006734D02*
X039040Y006267D01*
X039157Y006150D01*
X039390Y006150D01*
X039507Y006267D01*
X039740Y006150D02*
X039740Y006617D01*
X039973Y006851D01*
X040207Y006617D01*
X040207Y006150D01*
X040440Y006150D02*
X040440Y006851D01*
X040790Y006851D01*
X040907Y006734D01*
X040907Y006500D01*
X040790Y006384D01*
X040440Y006384D01*
X040673Y006384D02*
X040907Y006150D01*
X041139Y006150D02*
X041490Y006150D01*
X041606Y006267D01*
X041606Y006734D01*
X041490Y006851D01*
X041139Y006851D01*
X041139Y006150D01*
X041839Y006150D02*
X041839Y006851D01*
X042073Y006617D01*
X042306Y006851D01*
X042306Y006150D01*
X042539Y006267D02*
X042656Y006150D01*
X042889Y006150D01*
X043006Y006267D01*
X043006Y006734D01*
X042889Y006851D01*
X042656Y006851D01*
X042539Y006734D01*
X042539Y006267D01*
X043239Y006150D02*
X043239Y006851D01*
X043589Y006851D01*
X043706Y006734D01*
X043706Y006267D01*
X043589Y006150D01*
X043239Y006150D01*
X040207Y006500D02*
X039740Y006500D01*
X039507Y006734D02*
X039390Y006851D01*
X039157Y006851D01*
X039040Y006734D01*
D11*
X024760Y016200D02*
X024760Y016800D01*
X023760Y016800D02*
X023760Y016200D01*
X022760Y016200D02*
X022760Y016800D01*
X021760Y016800D02*
X021760Y016200D01*
X020760Y016200D02*
X020760Y016800D01*
X019760Y016800D02*
X019760Y016200D01*
X019760Y019200D02*
X019760Y019800D01*
X020760Y019800D02*
X020760Y019200D01*
X021760Y019200D02*
X021760Y019800D01*
X022760Y019800D02*
X022760Y019200D01*
X023760Y019200D02*
X023760Y019800D01*
X024760Y019800D02*
X024760Y019200D01*
X033760Y018800D02*
X033760Y018200D01*
X034760Y018200D02*
X034760Y018800D01*
X035760Y018800D02*
X035760Y018200D01*
X042960Y018500D02*
X043560Y018500D01*
X043560Y017500D02*
X042960Y017500D01*
X042960Y019500D02*
X043560Y019500D01*
D12*
X016637Y008606D03*
X015968Y008606D03*
X015015Y008606D03*
X014031Y008606D03*
X013047Y008606D03*
X012358Y008606D03*
X011767Y008606D03*
X011078Y008606D03*
X010094Y008606D03*
X009110Y008606D03*
D13*
X006952Y016874D03*
X018567Y017327D03*
D14*
X017878Y008606D03*
D15*
X035260Y006500D03*
X005260Y019500D03*
D16*
X022760Y010000D03*
X023760Y011000D03*
X024760Y012000D03*
X026760Y011000D03*
X027760Y012000D03*
X025760Y010000D03*
X024760Y009000D03*
X023760Y008000D03*
X021760Y008000D03*
X021760Y009000D03*
X021760Y005000D03*
X023760Y005000D03*
D17*
X012811Y007000D03*
X011708Y007000D03*
D18*
X029760Y013000D03*
X039260Y012500D03*
X043260Y012500D03*
X039220Y019437D03*
D19*
X029760Y015000D03*
X037260Y012500D03*
X041260Y012500D03*
D20*
X032260Y013000D03*
X032260Y015000D03*
X031260Y010500D03*
X030260Y010500D03*
X030760Y009750D03*
D21*
X032760Y008500D03*
X028760Y008500D03*
X028760Y011500D03*
X027760Y013000D03*
X024760Y013000D03*
X032760Y011500D03*
X033760Y012000D03*
X033760Y015000D03*
D22*
X029760Y016500D03*
D23*
X031960Y016500D03*
X027560Y016500D03*
X029760Y019500D03*
D24*
X037212Y017469D03*
X038275Y017469D03*
X040165Y017469D03*
X041228Y017469D03*
D25*
X021760Y005000D02*
X009760Y005000D01*
X009760Y008106D01*
X010094Y008606D01*
X010760Y008106D02*
X010760Y006000D01*
X022760Y006000D01*
X023760Y005000D01*
X022760Y007000D02*
X014531Y007000D01*
X014031Y008606D01*
X014760Y009000D02*
X015015Y008500D01*
X015015Y008606D01*
X014760Y009000D02*
X014760Y011000D01*
X012260Y011000D02*
X012260Y008606D01*
X012358Y008606D01*
X011767Y008606D02*
X011767Y007000D01*
X011708Y007000D01*
X012811Y007000D02*
X013260Y007000D01*
X015760Y007500D02*
X015760Y008106D01*
X015968Y008606D01*
X015760Y007500D02*
X020760Y007500D01*
X020760Y016500D01*
X020760Y017500D01*
X025760Y017500D01*
X025760Y012000D01*
X024760Y012000D01*
X023760Y012000D02*
X023760Y011000D01*
X023760Y016500D01*
X024760Y016500D02*
X024760Y013000D01*
X027760Y013000D02*
X028760Y013000D01*
X028760Y011500D01*
X030760Y011500D01*
X030760Y009750D01*
X031260Y010500D02*
X031760Y010500D01*
X031760Y008500D01*
X032760Y008500D01*
X032760Y011500D02*
X032260Y011500D01*
X032260Y013000D01*
X029760Y013000D01*
X032760Y011500D02*
X033760Y011500D01*
X033760Y012000D01*
X023760Y011000D02*
X023760Y008000D01*
X022760Y007000D02*
X022760Y010000D01*
X022760Y016500D01*
X021760Y016500D02*
X021760Y009000D01*
X021760Y008000D01*
X011767Y008606D02*
X011760Y008606D01*
X011760Y011000D01*
X011078Y008606D02*
X010760Y008106D01*
X018567Y017327D02*
X018760Y017327D01*
X037212Y017469D02*
X037260Y017469D01*
D26*
X034760Y017500D02*
X034760Y009000D01*
X033260Y007500D01*
X027260Y007500D01*
X027260Y009000D01*
X027260Y010000D01*
X027260Y010500D01*
X027260Y011000D01*
X027260Y012000D01*
X029760Y015000D02*
X032260Y015000D01*
X033760Y015000D02*
X033760Y016500D01*
X032760Y016500D01*
X032760Y018500D01*
X029760Y018500D01*
X029760Y019500D01*
X029760Y018500D02*
X026760Y018500D01*
X026760Y016500D01*
X027560Y016500D01*
X029760Y016500D02*
X029760Y015000D01*
X031960Y016500D02*
X032760Y016500D01*
X033760Y017500D02*
X034760Y017500D01*
X033760Y017500D02*
X033760Y018500D01*
X032760Y018500D02*
X032760Y020000D01*
X034760Y020000D01*
X039260Y020000D01*
X039260Y019437D01*
X039220Y019437D01*
X039260Y020000D02*
X042260Y020000D01*
X042260Y019500D01*
X043260Y019500D01*
X034760Y020000D02*
X034760Y018500D01*
X026760Y018500D02*
X018760Y018500D01*
X018760Y017327D01*
X018567Y017327D02*
X017260Y017327D01*
X017260Y011000D01*
X014760Y011000D01*
X012260Y011000D01*
X011760Y011000D01*
X008260Y011000D01*
X008260Y016874D01*
X006952Y016874D01*
X027260Y007500D02*
X027260Y006500D01*
D27*
X013260Y006500D01*
X013260Y007000D01*
X013260Y008106D01*
X013047Y008606D01*
X024760Y009000D02*
X027260Y009000D01*
X028760Y008500D02*
X028760Y010500D01*
X027260Y010500D01*
X027260Y011000D02*
X026760Y011000D01*
X027260Y010000D02*
X025760Y010000D01*
X028760Y010500D02*
X030260Y010500D01*
X027760Y012000D02*
X027260Y012000D01*
X037260Y012500D02*
X037260Y017469D01*
X041228Y017469D02*
X041260Y017469D01*
X041260Y012500D01*
X042260Y013500D02*
X043260Y013500D01*
X043260Y012500D01*
X042260Y013500D02*
X042260Y018500D01*
X043260Y018500D01*
X043260Y017500D02*
X044260Y017500D01*
X044260Y011000D01*
X039260Y011000D01*
X039260Y012500D01*
M02*
