G75*
%MOIN*%
%OFA0B0*%
%FSLAX24Y24*%
%IPPOS*%
%LPD*%
%AMOC8*
5,1,8,0,0,1.08239X$1,22.5*
%
%ADD10C,0.0100*%
%ADD11C,0.0051*%
%ADD12C,0.0060*%
%ADD13C,0.0050*%
%ADD14C,0.0000*%
%ADD15C,0.0030*%
%ADD16C,0.0020*%
%ADD17C,0.0080*%
%ADD18C,0.0010*%
%ADD19R,0.0250X0.0900*%
%ADD20R,0.0150X0.0200*%
%ADD21R,0.0200X0.0150*%
%ADD22C,0.0120*%
%ADD23R,0.0900X0.0250*%
%ADD24C,0.0240*%
D10*
X004260Y004500D02*
X004260Y020496D01*
X045130Y020496D01*
X045130Y004500D01*
X004260Y004500D01*
X007083Y008963D02*
X007083Y011063D01*
X007083Y008963D02*
X008815Y008963D01*
X018365Y008963D02*
X018400Y008963D01*
X018400Y011063D01*
X007123Y017602D02*
X007123Y020373D01*
X007681Y020378D01*
X018015Y020373D02*
X018400Y020373D01*
X018400Y018059D01*
D11*
X004260Y004500D02*
X000492Y004500D01*
X001260Y004526D02*
X001362Y005524D01*
X001385Y005524D02*
X001260Y004526D01*
X001157Y005524D01*
X001134Y005524D02*
X001385Y005524D01*
X001311Y005524D02*
X001260Y004526D01*
X001208Y005524D01*
X001134Y005524D02*
X001260Y004526D01*
X001260Y020474D01*
X001362Y019476D01*
X001385Y019476D02*
X001260Y020474D01*
X001157Y019476D01*
X001134Y019476D02*
X001385Y019476D01*
X001311Y019476D02*
X001260Y020474D01*
X001208Y019476D01*
X001134Y019476D02*
X001260Y020474D01*
X000492Y020500D02*
X004260Y020500D01*
X004260Y020496D02*
X004259Y024264D01*
X004285Y023496D02*
X005283Y023599D01*
X005283Y023622D02*
X005283Y023370D01*
X004285Y023496D01*
X005283Y023394D01*
X005283Y023445D02*
X004285Y023496D01*
X005283Y023547D01*
X005283Y023622D02*
X004285Y023496D01*
X045234Y023500D01*
X044236Y023398D01*
X044236Y023374D02*
X045234Y023500D01*
X044236Y023602D01*
X044236Y023626D02*
X044236Y023374D01*
X044236Y023449D02*
X045234Y023500D01*
X044236Y023551D01*
X044236Y023626D02*
X045234Y023500D01*
X045259Y024268D02*
X045260Y020500D01*
D12*
X043760Y019750D02*
X043510Y020000D01*
X043010Y020000D01*
X042760Y019750D01*
X042760Y019250D01*
X043010Y019000D01*
X042760Y018750D01*
X042760Y018250D01*
X043010Y018000D01*
X042760Y017750D01*
X042760Y017250D01*
X043010Y017000D01*
X043510Y017000D01*
X043760Y017250D01*
X043760Y017750D01*
X043510Y018000D01*
X043010Y018000D01*
X043510Y018000D02*
X043760Y018250D01*
X043760Y018750D01*
X043510Y019000D01*
X043010Y019000D01*
X043510Y019000D02*
X043760Y019250D01*
X043760Y019750D01*
X041599Y020583D02*
X041599Y016719D01*
X041599Y015969D02*
X041599Y015968D01*
X036841Y015968D01*
X036841Y017719D01*
X036260Y018250D02*
X036010Y018000D01*
X035510Y018000D01*
X035260Y018250D01*
X035010Y018000D01*
X034510Y018000D01*
X034260Y018250D01*
X034010Y018000D01*
X033510Y018000D01*
X033260Y018250D01*
X033260Y018750D01*
X033510Y019000D01*
X034010Y019000D01*
X034260Y018750D01*
X034510Y019000D01*
X035010Y019000D01*
X035260Y018750D01*
X035510Y019000D01*
X036010Y019000D01*
X036260Y018750D01*
X036260Y018250D01*
X036841Y018569D02*
X036841Y020583D01*
X038020Y020583D01*
X040420Y020583D01*
X041599Y020583D01*
X040420Y020583D02*
X040420Y021665D01*
X038020Y021665D01*
X038220Y021865D01*
X040220Y021865D01*
X040420Y021665D01*
X038020Y021665D02*
X038020Y020583D01*
X035260Y018750D02*
X035260Y018250D01*
X034260Y018250D02*
X034260Y018750D01*
X031660Y019500D02*
X030660Y019500D01*
X030610Y019800D02*
X031410Y019800D01*
X031410Y021950D01*
X031260Y021950D02*
X028260Y021950D01*
X028110Y021950D02*
X028112Y021976D01*
X028117Y022002D01*
X028125Y022027D01*
X028137Y022050D01*
X028151Y022072D01*
X028169Y022091D01*
X028188Y022109D01*
X028210Y022123D01*
X028233Y022135D01*
X028258Y022143D01*
X028284Y022148D01*
X028310Y022150D01*
X028560Y022150D01*
X030960Y022150D01*
X031210Y022150D01*
X031236Y022148D01*
X031262Y022143D01*
X031287Y022135D01*
X031310Y022123D01*
X031332Y022109D01*
X031351Y022091D01*
X031369Y022072D01*
X031383Y022050D01*
X031395Y022027D01*
X031403Y022002D01*
X031408Y021976D01*
X031410Y021950D01*
X031160Y021700D02*
X031160Y020050D01*
X030960Y020050D02*
X030960Y021050D01*
X030760Y020600D02*
X030760Y020050D01*
X031410Y019800D02*
X031412Y019774D01*
X031417Y019748D01*
X031425Y019723D01*
X031437Y019700D01*
X031451Y019678D01*
X031469Y019659D01*
X031488Y019641D01*
X031510Y019627D01*
X031533Y019615D01*
X031558Y019607D01*
X031584Y019602D01*
X031610Y019600D01*
X030310Y018850D02*
X030310Y016500D01*
X029210Y016500D02*
X029210Y018850D01*
X028860Y019500D02*
X027860Y019500D01*
X027910Y019600D02*
X027936Y019602D01*
X027962Y019607D01*
X027987Y019615D01*
X028010Y019627D01*
X028032Y019641D01*
X028051Y019659D01*
X028069Y019678D01*
X028083Y019700D01*
X028095Y019723D01*
X028103Y019748D01*
X028108Y019774D01*
X028110Y019800D01*
X028910Y019800D01*
X028760Y020050D02*
X028760Y020600D01*
X028560Y021050D02*
X028560Y020050D01*
X028360Y020050D02*
X028360Y021700D01*
X028110Y021950D02*
X028110Y019800D01*
X025260Y019750D02*
X025260Y019250D01*
X025010Y019000D01*
X024510Y019000D01*
X024260Y019250D01*
X024010Y019000D01*
X023510Y019000D01*
X023260Y019250D01*
X023010Y019000D01*
X022510Y019000D01*
X022260Y019250D01*
X022010Y019000D01*
X021510Y019000D01*
X021260Y019250D01*
X021010Y019000D01*
X020510Y019000D01*
X020260Y019250D01*
X020010Y019000D01*
X019510Y019000D01*
X019260Y019250D01*
X019260Y019750D01*
X019510Y020000D01*
X020010Y020000D01*
X020260Y019750D01*
X020510Y020000D01*
X021010Y020000D01*
X021260Y019750D01*
X021260Y019250D01*
X021260Y019750D02*
X021510Y020000D01*
X022010Y020000D01*
X022260Y019750D01*
X022510Y020000D01*
X023010Y020000D01*
X023260Y019750D01*
X023510Y020000D01*
X024010Y020000D01*
X024260Y019750D01*
X024510Y020000D01*
X025010Y020000D01*
X025260Y019750D01*
X024260Y019750D02*
X024260Y019250D01*
X023260Y019250D02*
X023260Y019750D01*
X022260Y019750D02*
X022260Y019250D01*
X020260Y019250D02*
X020260Y019750D01*
X020510Y017000D02*
X021010Y017000D01*
X021260Y016750D01*
X021260Y016250D01*
X021010Y016000D01*
X020510Y016000D01*
X020260Y016250D01*
X020010Y016000D01*
X019510Y016000D01*
X019260Y016250D01*
X019260Y016750D01*
X019510Y017000D01*
X020010Y017000D01*
X020260Y016750D01*
X020510Y017000D01*
X020260Y016750D02*
X020260Y016250D01*
X021260Y016250D02*
X021510Y016000D01*
X022010Y016000D01*
X022260Y016250D01*
X022510Y016000D01*
X023010Y016000D01*
X023260Y016250D01*
X023510Y016000D01*
X024010Y016000D01*
X024260Y016250D01*
X024510Y016000D01*
X025010Y016000D01*
X025260Y016250D01*
X025260Y016750D01*
X025010Y017000D01*
X024510Y017000D01*
X024260Y016750D01*
X024260Y016250D01*
X024260Y016750D02*
X024010Y017000D01*
X023510Y017000D01*
X023260Y016750D01*
X023260Y016250D01*
X023260Y016750D02*
X023010Y017000D01*
X022510Y017000D01*
X022260Y016750D01*
X022260Y016250D01*
X022260Y016750D02*
X022010Y017000D01*
X021510Y017000D01*
X021260Y016750D01*
X025360Y013400D02*
X025510Y013400D01*
X025560Y013350D01*
X026960Y013350D01*
X027010Y013400D01*
X027160Y013400D01*
X027177Y013398D01*
X027194Y013394D01*
X027210Y013387D01*
X027224Y013377D01*
X027237Y013364D01*
X027247Y013350D01*
X027254Y013334D01*
X027258Y013317D01*
X027260Y013300D01*
X027260Y012700D01*
X027258Y012683D01*
X027254Y012666D01*
X027247Y012650D01*
X027237Y012636D01*
X027224Y012623D01*
X027210Y012613D01*
X027194Y012606D01*
X027177Y012602D01*
X027160Y012600D01*
X027010Y012600D01*
X026960Y012650D01*
X025560Y012650D01*
X025510Y012600D01*
X025360Y012600D01*
X025343Y012602D01*
X025326Y012606D01*
X025310Y012613D01*
X025296Y012623D01*
X025283Y012636D01*
X025273Y012650D01*
X025266Y012666D01*
X025262Y012683D01*
X025260Y012700D01*
X025260Y013300D01*
X025262Y013317D01*
X025266Y013334D01*
X025273Y013350D01*
X025283Y013364D01*
X025296Y013377D01*
X025310Y013387D01*
X025326Y013394D01*
X025343Y013398D01*
X025360Y013400D01*
X026159Y012120D02*
X026159Y011780D01*
X026046Y011780D02*
X026273Y011780D01*
X026414Y011837D02*
X026641Y012064D01*
X026641Y011837D01*
X026584Y011780D01*
X026471Y011780D01*
X026414Y011837D01*
X026414Y012064D01*
X026471Y012120D01*
X026584Y012120D01*
X026641Y012064D01*
X026783Y012120D02*
X026783Y011780D01*
X026783Y011893D02*
X026953Y011780D01*
X026783Y011893D02*
X026953Y012007D01*
X026159Y012120D02*
X026046Y012007D01*
X025783Y011120D02*
X025783Y010780D01*
X025783Y010893D02*
X025953Y011007D01*
X025783Y010893D02*
X025953Y010780D01*
X025641Y010837D02*
X025641Y011064D01*
X025414Y010837D01*
X025471Y010780D01*
X025584Y010780D01*
X025641Y010837D01*
X025641Y011064D02*
X025584Y011120D01*
X025471Y011120D01*
X025414Y011064D01*
X025414Y010837D01*
X025273Y010780D02*
X025046Y010780D01*
X025159Y010780D02*
X025159Y011120D01*
X025046Y011007D01*
X024783Y010120D02*
X024783Y009780D01*
X024783Y009893D02*
X024953Y010007D01*
X024783Y009893D02*
X024953Y009780D01*
X024641Y009837D02*
X024641Y010064D01*
X024414Y009837D01*
X024471Y009780D01*
X024584Y009780D01*
X024641Y009837D01*
X024641Y010064D02*
X024584Y010120D01*
X024471Y010120D01*
X024414Y010064D01*
X024414Y009837D01*
X024273Y009780D02*
X024046Y009780D01*
X024159Y009780D02*
X024159Y010120D01*
X024046Y010007D01*
X023783Y009120D02*
X023783Y008780D01*
X023783Y008893D02*
X023953Y009007D01*
X023783Y008893D02*
X023953Y008780D01*
X023641Y008837D02*
X023641Y009064D01*
X023414Y008837D01*
X023471Y008780D01*
X023584Y008780D01*
X023641Y008837D01*
X023641Y009064D02*
X023584Y009120D01*
X023471Y009120D01*
X023414Y009064D01*
X023414Y008837D01*
X023273Y008780D02*
X023046Y008780D01*
X023159Y008780D02*
X023159Y009120D01*
X023046Y009007D01*
X028360Y009100D02*
X028360Y009250D01*
X028410Y009300D01*
X028410Y010700D01*
X028360Y010750D01*
X028360Y010900D01*
X028362Y010917D01*
X028366Y010934D01*
X028373Y010950D01*
X028383Y010964D01*
X028396Y010977D01*
X028410Y010987D01*
X028426Y010994D01*
X028443Y010998D01*
X028460Y011000D01*
X029060Y011000D01*
X029077Y010998D01*
X029094Y010994D01*
X029110Y010987D01*
X029124Y010977D01*
X029137Y010964D01*
X029147Y010950D01*
X029154Y010934D01*
X029158Y010917D01*
X029160Y010900D01*
X029160Y010750D01*
X029110Y010700D01*
X029110Y009300D01*
X029160Y009250D01*
X029160Y009100D01*
X029158Y009083D01*
X029154Y009066D01*
X029147Y009050D01*
X029137Y009036D01*
X029124Y009023D01*
X029110Y009013D01*
X029094Y009006D01*
X029077Y009002D01*
X029060Y009000D01*
X028460Y009000D01*
X028443Y009002D01*
X028426Y009006D01*
X028410Y009013D01*
X028396Y009023D01*
X028383Y009036D01*
X028373Y009050D01*
X028366Y009066D01*
X028362Y009083D01*
X028360Y009100D01*
X032360Y009100D02*
X032360Y009250D01*
X032410Y009300D01*
X032410Y010700D01*
X032360Y010750D01*
X032360Y010900D01*
X032362Y010917D01*
X032366Y010934D01*
X032373Y010950D01*
X032383Y010964D01*
X032396Y010977D01*
X032410Y010987D01*
X032426Y010994D01*
X032443Y010998D01*
X032460Y011000D01*
X033060Y011000D01*
X033077Y010998D01*
X033094Y010994D01*
X033110Y010987D01*
X033124Y010977D01*
X033137Y010964D01*
X033147Y010950D01*
X033154Y010934D01*
X033158Y010917D01*
X033160Y010900D01*
X033160Y010750D01*
X033110Y010700D01*
X033110Y009300D01*
X033160Y009250D01*
X033160Y009100D01*
X033158Y009083D01*
X033154Y009066D01*
X033147Y009050D01*
X033137Y009036D01*
X033124Y009023D01*
X033110Y009013D01*
X033094Y009006D01*
X033077Y009002D01*
X033060Y009000D01*
X032460Y009000D01*
X032443Y009002D01*
X032426Y009006D01*
X032410Y009013D01*
X032396Y009023D01*
X032383Y009036D01*
X032373Y009050D01*
X032366Y009066D01*
X032362Y009083D01*
X032360Y009100D01*
X034110Y006500D02*
X034112Y006567D01*
X034118Y006635D01*
X034128Y006702D01*
X034142Y006768D01*
X034159Y006833D01*
X034181Y006897D01*
X034206Y006960D01*
X034235Y007021D01*
X034267Y007080D01*
X034303Y007137D01*
X034342Y007192D01*
X034384Y007245D01*
X034429Y007295D01*
X034477Y007342D01*
X034528Y007387D01*
X034581Y007428D01*
X034637Y007467D01*
X034695Y007502D01*
X034755Y007533D01*
X034816Y007561D01*
X034879Y007585D01*
X034943Y007606D01*
X035009Y007622D01*
X035075Y007635D01*
X035142Y007644D01*
X035209Y007649D01*
X035277Y007650D01*
X035344Y007647D01*
X035411Y007640D01*
X035478Y007629D01*
X035544Y007614D01*
X035609Y007596D01*
X035673Y007573D01*
X035735Y007547D01*
X035796Y007518D01*
X035854Y007484D01*
X035911Y007448D01*
X035966Y007408D01*
X036018Y007365D01*
X036067Y007319D01*
X036114Y007270D01*
X036158Y007219D01*
X036198Y007165D01*
X036236Y007109D01*
X036270Y007050D01*
X036300Y006990D01*
X036327Y006928D01*
X036351Y006865D01*
X036370Y006800D01*
X036386Y006735D01*
X036398Y006668D01*
X036406Y006601D01*
X036410Y006534D01*
X036410Y006466D01*
X036406Y006399D01*
X036398Y006332D01*
X036386Y006265D01*
X036370Y006200D01*
X036351Y006135D01*
X036327Y006072D01*
X036300Y006010D01*
X036270Y005950D01*
X036236Y005891D01*
X036198Y005835D01*
X036158Y005781D01*
X036114Y005730D01*
X036067Y005681D01*
X036018Y005635D01*
X035966Y005592D01*
X035911Y005552D01*
X035854Y005516D01*
X035796Y005482D01*
X035735Y005453D01*
X035673Y005427D01*
X035609Y005404D01*
X035544Y005386D01*
X035478Y005371D01*
X035411Y005360D01*
X035344Y005353D01*
X035277Y005350D01*
X035209Y005351D01*
X035142Y005356D01*
X035075Y005365D01*
X035009Y005378D01*
X034943Y005394D01*
X034879Y005415D01*
X034816Y005439D01*
X034755Y005467D01*
X034695Y005498D01*
X034637Y005533D01*
X034581Y005572D01*
X034528Y005613D01*
X034477Y005658D01*
X034429Y005705D01*
X034384Y005755D01*
X034342Y005808D01*
X034303Y005863D01*
X034267Y005920D01*
X034235Y005979D01*
X034206Y006040D01*
X034181Y006103D01*
X034159Y006167D01*
X034142Y006232D01*
X034128Y006298D01*
X034118Y006365D01*
X034112Y006433D01*
X034110Y006500D01*
X039410Y011850D02*
X039710Y011850D01*
X039560Y011700D02*
X039560Y012000D01*
X038610Y012050D02*
X038610Y012500D01*
X038610Y012950D01*
X038360Y012950D01*
X038360Y012050D01*
X038610Y012050D01*
X038610Y012500D02*
X038710Y012500D01*
X036510Y012500D02*
X036512Y012583D01*
X036518Y012666D01*
X036528Y012749D01*
X036542Y012831D01*
X036559Y012913D01*
X036581Y012993D01*
X036606Y013072D01*
X036635Y013150D01*
X036668Y013227D01*
X036705Y013302D01*
X036744Y013375D01*
X036788Y013446D01*
X036834Y013515D01*
X036884Y013582D01*
X036937Y013646D01*
X036993Y013708D01*
X037052Y013767D01*
X037114Y013823D01*
X037178Y013876D01*
X037245Y013926D01*
X037314Y013972D01*
X037385Y014016D01*
X037458Y014055D01*
X037533Y014092D01*
X037610Y014125D01*
X037688Y014154D01*
X037767Y014179D01*
X037847Y014201D01*
X037929Y014218D01*
X038011Y014232D01*
X038094Y014242D01*
X038177Y014248D01*
X038260Y014250D01*
X038343Y014248D01*
X038426Y014242D01*
X038509Y014232D01*
X038591Y014218D01*
X038673Y014201D01*
X038753Y014179D01*
X038832Y014154D01*
X038910Y014125D01*
X038987Y014092D01*
X039062Y014055D01*
X039135Y014016D01*
X039206Y013972D01*
X039275Y013926D01*
X039342Y013876D01*
X039406Y013823D01*
X039468Y013767D01*
X039527Y013708D01*
X039583Y013646D01*
X039636Y013582D01*
X039686Y013515D01*
X039732Y013446D01*
X039776Y013375D01*
X039815Y013302D01*
X039852Y013227D01*
X039885Y013150D01*
X039914Y013072D01*
X039939Y012993D01*
X039961Y012913D01*
X039978Y012831D01*
X039992Y012749D01*
X040002Y012666D01*
X040008Y012583D01*
X040010Y012500D01*
X040008Y012417D01*
X040002Y012334D01*
X039992Y012251D01*
X039978Y012169D01*
X039961Y012087D01*
X039939Y012007D01*
X039914Y011928D01*
X039885Y011850D01*
X039852Y011773D01*
X039815Y011698D01*
X039776Y011625D01*
X039732Y011554D01*
X039686Y011485D01*
X039636Y011418D01*
X039583Y011354D01*
X039527Y011292D01*
X039468Y011233D01*
X039406Y011177D01*
X039342Y011124D01*
X039275Y011074D01*
X039206Y011028D01*
X039135Y010984D01*
X039062Y010945D01*
X038987Y010908D01*
X038910Y010875D01*
X038832Y010846D01*
X038753Y010821D01*
X038673Y010799D01*
X038591Y010782D01*
X038509Y010768D01*
X038426Y010758D01*
X038343Y010752D01*
X038260Y010750D01*
X038177Y010752D01*
X038094Y010758D01*
X038011Y010768D01*
X037929Y010782D01*
X037847Y010799D01*
X037767Y010821D01*
X037688Y010846D01*
X037610Y010875D01*
X037533Y010908D01*
X037458Y010945D01*
X037385Y010984D01*
X037314Y011028D01*
X037245Y011074D01*
X037178Y011124D01*
X037114Y011177D01*
X037052Y011233D01*
X036993Y011292D01*
X036937Y011354D01*
X036884Y011418D01*
X036834Y011485D01*
X036788Y011554D01*
X036744Y011625D01*
X036705Y011698D01*
X036668Y011773D01*
X036635Y011850D01*
X036606Y011928D01*
X036581Y012007D01*
X036559Y012087D01*
X036542Y012169D01*
X036528Y012251D01*
X036518Y012334D01*
X036512Y012417D01*
X036510Y012500D01*
X037810Y012500D02*
X038010Y012500D01*
X041810Y012500D02*
X042010Y012500D01*
X040510Y012500D02*
X040512Y012583D01*
X040518Y012666D01*
X040528Y012749D01*
X040542Y012831D01*
X040559Y012913D01*
X040581Y012993D01*
X040606Y013072D01*
X040635Y013150D01*
X040668Y013227D01*
X040705Y013302D01*
X040744Y013375D01*
X040788Y013446D01*
X040834Y013515D01*
X040884Y013582D01*
X040937Y013646D01*
X040993Y013708D01*
X041052Y013767D01*
X041114Y013823D01*
X041178Y013876D01*
X041245Y013926D01*
X041314Y013972D01*
X041385Y014016D01*
X041458Y014055D01*
X041533Y014092D01*
X041610Y014125D01*
X041688Y014154D01*
X041767Y014179D01*
X041847Y014201D01*
X041929Y014218D01*
X042011Y014232D01*
X042094Y014242D01*
X042177Y014248D01*
X042260Y014250D01*
X042343Y014248D01*
X042426Y014242D01*
X042509Y014232D01*
X042591Y014218D01*
X042673Y014201D01*
X042753Y014179D01*
X042832Y014154D01*
X042910Y014125D01*
X042987Y014092D01*
X043062Y014055D01*
X043135Y014016D01*
X043206Y013972D01*
X043275Y013926D01*
X043342Y013876D01*
X043406Y013823D01*
X043468Y013767D01*
X043527Y013708D01*
X043583Y013646D01*
X043636Y013582D01*
X043686Y013515D01*
X043732Y013446D01*
X043776Y013375D01*
X043815Y013302D01*
X043852Y013227D01*
X043885Y013150D01*
X043914Y013072D01*
X043939Y012993D01*
X043961Y012913D01*
X043978Y012831D01*
X043992Y012749D01*
X044002Y012666D01*
X044008Y012583D01*
X044010Y012500D01*
X044008Y012417D01*
X044002Y012334D01*
X043992Y012251D01*
X043978Y012169D01*
X043961Y012087D01*
X043939Y012007D01*
X043914Y011928D01*
X043885Y011850D01*
X043852Y011773D01*
X043815Y011698D01*
X043776Y011625D01*
X043732Y011554D01*
X043686Y011485D01*
X043636Y011418D01*
X043583Y011354D01*
X043527Y011292D01*
X043468Y011233D01*
X043406Y011177D01*
X043342Y011124D01*
X043275Y011074D01*
X043206Y011028D01*
X043135Y010984D01*
X043062Y010945D01*
X042987Y010908D01*
X042910Y010875D01*
X042832Y010846D01*
X042753Y010821D01*
X042673Y010799D01*
X042591Y010782D01*
X042509Y010768D01*
X042426Y010758D01*
X042343Y010752D01*
X042260Y010750D01*
X042177Y010752D01*
X042094Y010758D01*
X042011Y010768D01*
X041929Y010782D01*
X041847Y010799D01*
X041767Y010821D01*
X041688Y010846D01*
X041610Y010875D01*
X041533Y010908D01*
X041458Y010945D01*
X041385Y010984D01*
X041314Y011028D01*
X041245Y011074D01*
X041178Y011124D01*
X041114Y011177D01*
X041052Y011233D01*
X040993Y011292D01*
X040937Y011354D01*
X040884Y011418D01*
X040834Y011485D01*
X040788Y011554D01*
X040744Y011625D01*
X040705Y011698D01*
X040668Y011773D01*
X040635Y011850D01*
X040606Y011928D01*
X040581Y012007D01*
X040559Y012087D01*
X040542Y012169D01*
X040528Y012251D01*
X040518Y012334D01*
X040512Y012417D01*
X040510Y012500D01*
X042360Y012050D02*
X042610Y012050D01*
X042610Y012500D01*
X042610Y012950D01*
X042360Y012950D01*
X042360Y012050D01*
X042610Y012500D02*
X042710Y012500D01*
X043560Y012000D02*
X043560Y011700D01*
X043710Y011850D02*
X043410Y011850D01*
X034160Y012600D02*
X034160Y012750D01*
X034110Y012800D01*
X034110Y014200D01*
X034160Y014250D01*
X034160Y014400D01*
X034158Y014417D01*
X034154Y014434D01*
X034147Y014450D01*
X034137Y014464D01*
X034124Y014477D01*
X034110Y014487D01*
X034094Y014494D01*
X034077Y014498D01*
X034060Y014500D01*
X033460Y014500D01*
X033443Y014498D01*
X033426Y014494D01*
X033410Y014487D01*
X033396Y014477D01*
X033383Y014464D01*
X033373Y014450D01*
X033366Y014434D01*
X033362Y014417D01*
X033360Y014400D01*
X033360Y014250D01*
X033410Y014200D01*
X033410Y012800D01*
X033360Y012750D01*
X033360Y012600D01*
X033362Y012583D01*
X033366Y012566D01*
X033373Y012550D01*
X033383Y012536D01*
X033396Y012523D01*
X033410Y012513D01*
X033426Y012506D01*
X033443Y012502D01*
X033460Y012500D01*
X034060Y012500D01*
X034077Y012502D01*
X034094Y012506D01*
X034110Y012513D01*
X034124Y012523D01*
X034137Y012536D01*
X034147Y012550D01*
X034154Y012566D01*
X034158Y012583D01*
X034160Y012600D01*
X032760Y012650D02*
X032760Y015350D01*
X032758Y015367D01*
X032754Y015384D01*
X032747Y015400D01*
X032737Y015414D01*
X032724Y015427D01*
X032710Y015437D01*
X032694Y015444D01*
X032677Y015448D01*
X032660Y015450D01*
X031860Y015450D01*
X031843Y015448D01*
X031826Y015444D01*
X031810Y015437D01*
X031796Y015427D01*
X031783Y015414D01*
X031773Y015400D01*
X031766Y015384D01*
X031762Y015367D01*
X031760Y015350D01*
X031760Y012650D01*
X031762Y012633D01*
X031766Y012616D01*
X031773Y012600D01*
X031783Y012586D01*
X031796Y012573D01*
X031810Y012563D01*
X031826Y012556D01*
X031843Y012552D01*
X031860Y012550D01*
X032660Y012550D01*
X032677Y012552D01*
X032694Y012556D01*
X032710Y012563D01*
X032724Y012573D01*
X032737Y012586D01*
X032747Y012600D01*
X032754Y012616D01*
X032758Y012633D01*
X032760Y012650D01*
X032260Y013400D02*
X032260Y013880D01*
X032260Y014130D02*
X032260Y014600D01*
X030210Y013900D02*
X030210Y013650D01*
X029760Y013650D01*
X029310Y013650D01*
X029310Y013900D01*
X030210Y013900D01*
X028010Y014000D02*
X028012Y014083D01*
X028018Y014166D01*
X028028Y014249D01*
X028042Y014331D01*
X028059Y014413D01*
X028081Y014493D01*
X028106Y014572D01*
X028135Y014650D01*
X028168Y014727D01*
X028205Y014802D01*
X028244Y014875D01*
X028288Y014946D01*
X028334Y015015D01*
X028384Y015082D01*
X028437Y015146D01*
X028493Y015208D01*
X028552Y015267D01*
X028614Y015323D01*
X028678Y015376D01*
X028745Y015426D01*
X028814Y015472D01*
X028885Y015516D01*
X028958Y015555D01*
X029033Y015592D01*
X029110Y015625D01*
X029188Y015654D01*
X029267Y015679D01*
X029347Y015701D01*
X029429Y015718D01*
X029511Y015732D01*
X029594Y015742D01*
X029677Y015748D01*
X029760Y015750D01*
X029843Y015748D01*
X029926Y015742D01*
X030009Y015732D01*
X030091Y015718D01*
X030173Y015701D01*
X030253Y015679D01*
X030332Y015654D01*
X030410Y015625D01*
X030487Y015592D01*
X030562Y015555D01*
X030635Y015516D01*
X030706Y015472D01*
X030775Y015426D01*
X030842Y015376D01*
X030906Y015323D01*
X030968Y015267D01*
X031027Y015208D01*
X031083Y015146D01*
X031136Y015082D01*
X031186Y015015D01*
X031232Y014946D01*
X031276Y014875D01*
X031315Y014802D01*
X031352Y014727D01*
X031385Y014650D01*
X031414Y014572D01*
X031439Y014493D01*
X031461Y014413D01*
X031478Y014331D01*
X031492Y014249D01*
X031502Y014166D01*
X031508Y014083D01*
X031510Y014000D01*
X031508Y013917D01*
X031502Y013834D01*
X031492Y013751D01*
X031478Y013669D01*
X031461Y013587D01*
X031439Y013507D01*
X031414Y013428D01*
X031385Y013350D01*
X031352Y013273D01*
X031315Y013198D01*
X031276Y013125D01*
X031232Y013054D01*
X031186Y012985D01*
X031136Y012918D01*
X031083Y012854D01*
X031027Y012792D01*
X030968Y012733D01*
X030906Y012677D01*
X030842Y012624D01*
X030775Y012574D01*
X030706Y012528D01*
X030635Y012484D01*
X030562Y012445D01*
X030487Y012408D01*
X030410Y012375D01*
X030332Y012346D01*
X030253Y012321D01*
X030173Y012299D01*
X030091Y012282D01*
X030009Y012268D01*
X029926Y012258D01*
X029843Y012252D01*
X029760Y012250D01*
X029677Y012252D01*
X029594Y012258D01*
X029511Y012268D01*
X029429Y012282D01*
X029347Y012299D01*
X029267Y012321D01*
X029188Y012346D01*
X029110Y012375D01*
X029033Y012408D01*
X028958Y012445D01*
X028885Y012484D01*
X028814Y012528D01*
X028745Y012574D01*
X028678Y012624D01*
X028614Y012677D01*
X028552Y012733D01*
X028493Y012792D01*
X028437Y012854D01*
X028384Y012918D01*
X028334Y012985D01*
X028288Y013054D01*
X028244Y013125D01*
X028205Y013198D01*
X028168Y013273D01*
X028135Y013350D01*
X028106Y013428D01*
X028081Y013507D01*
X028059Y013587D01*
X028042Y013669D01*
X028028Y013751D01*
X028018Y013834D01*
X028012Y013917D01*
X028010Y014000D01*
X029760Y014250D02*
X029760Y014450D01*
X029760Y013650D02*
X029760Y013550D01*
X029110Y012850D02*
X029110Y012550D01*
X028960Y012700D02*
X029260Y012700D01*
X028560Y022150D02*
X028560Y022200D01*
X030960Y022200D01*
X030960Y022150D01*
X026344Y024074D02*
X025917Y024074D01*
X026237Y024395D01*
X026237Y023754D01*
X025700Y023754D02*
X025273Y023754D01*
X025486Y023754D02*
X025486Y024395D01*
X025273Y024181D01*
X025057Y023861D02*
X025057Y023754D01*
X024950Y023754D01*
X024950Y023861D01*
X025057Y023861D01*
X024733Y024074D02*
X024306Y024074D01*
X024626Y024395D01*
X024626Y023754D01*
X024088Y023861D02*
X023982Y023754D01*
X023768Y023754D01*
X023661Y023861D01*
X024088Y024288D01*
X024088Y023861D01*
X023661Y023861D02*
X023661Y024288D01*
X023768Y024395D01*
X023982Y024395D01*
X024088Y024288D01*
X023230Y024395D02*
X023017Y024181D01*
X023230Y024395D02*
X023230Y023754D01*
X023017Y023754D02*
X023444Y023754D01*
X004110Y019500D02*
X004112Y019567D01*
X004118Y019635D01*
X004128Y019702D01*
X004142Y019768D01*
X004159Y019833D01*
X004181Y019897D01*
X004206Y019960D01*
X004235Y020021D01*
X004267Y020080D01*
X004303Y020137D01*
X004342Y020192D01*
X004384Y020245D01*
X004429Y020295D01*
X004477Y020342D01*
X004528Y020387D01*
X004581Y020428D01*
X004637Y020467D01*
X004695Y020502D01*
X004755Y020533D01*
X004816Y020561D01*
X004879Y020585D01*
X004943Y020606D01*
X005009Y020622D01*
X005075Y020635D01*
X005142Y020644D01*
X005209Y020649D01*
X005277Y020650D01*
X005344Y020647D01*
X005411Y020640D01*
X005478Y020629D01*
X005544Y020614D01*
X005609Y020596D01*
X005673Y020573D01*
X005735Y020547D01*
X005796Y020518D01*
X005854Y020484D01*
X005911Y020448D01*
X005966Y020408D01*
X006018Y020365D01*
X006067Y020319D01*
X006114Y020270D01*
X006158Y020219D01*
X006198Y020165D01*
X006236Y020109D01*
X006270Y020050D01*
X006300Y019990D01*
X006327Y019928D01*
X006351Y019865D01*
X006370Y019800D01*
X006386Y019735D01*
X006398Y019668D01*
X006406Y019601D01*
X006410Y019534D01*
X006410Y019466D01*
X006406Y019399D01*
X006398Y019332D01*
X006386Y019265D01*
X006370Y019200D01*
X006351Y019135D01*
X006327Y019072D01*
X006300Y019010D01*
X006270Y018950D01*
X006236Y018891D01*
X006198Y018835D01*
X006158Y018781D01*
X006114Y018730D01*
X006067Y018681D01*
X006018Y018635D01*
X005966Y018592D01*
X005911Y018552D01*
X005854Y018516D01*
X005796Y018482D01*
X005735Y018453D01*
X005673Y018427D01*
X005609Y018404D01*
X005544Y018386D01*
X005478Y018371D01*
X005411Y018360D01*
X005344Y018353D01*
X005277Y018350D01*
X005209Y018351D01*
X005142Y018356D01*
X005075Y018365D01*
X005009Y018378D01*
X004943Y018394D01*
X004879Y018415D01*
X004816Y018439D01*
X004755Y018467D01*
X004695Y018498D01*
X004637Y018533D01*
X004581Y018572D01*
X004528Y018613D01*
X004477Y018658D01*
X004429Y018705D01*
X004384Y018755D01*
X004342Y018808D01*
X004303Y018863D01*
X004267Y018920D01*
X004235Y018979D01*
X004206Y019040D01*
X004181Y019103D01*
X004159Y019167D01*
X004142Y019232D01*
X004128Y019298D01*
X004118Y019365D01*
X004112Y019433D01*
X004110Y019500D01*
X001003Y013656D02*
X000363Y013656D01*
X000683Y013336D01*
X000683Y013763D01*
X000790Y013118D02*
X000683Y013011D01*
X000683Y012691D01*
X000897Y012691D01*
X001003Y012798D01*
X001003Y013011D01*
X000897Y013118D01*
X000790Y013118D01*
X000470Y012905D02*
X000683Y012691D01*
X000470Y012905D02*
X000363Y013118D01*
X000897Y012476D02*
X001003Y012476D01*
X001003Y012369D01*
X000897Y012369D01*
X000897Y012476D01*
X000897Y012151D02*
X001003Y012045D01*
X001003Y011831D01*
X000897Y011724D01*
X000470Y012151D01*
X000897Y012151D01*
X000470Y012151D02*
X000363Y012045D01*
X000363Y011831D01*
X000470Y011724D01*
X000897Y011724D01*
X000683Y011507D02*
X000683Y011080D01*
X000363Y011400D01*
X001003Y011400D01*
D13*
X023755Y015320D02*
X023830Y015245D01*
X023905Y015245D01*
X023980Y015320D01*
X023980Y015695D01*
X023905Y015695D02*
X024055Y015695D01*
X024215Y015695D02*
X024440Y015695D01*
X024515Y015620D01*
X024515Y015470D01*
X024440Y015395D01*
X024215Y015395D01*
X024215Y015245D02*
X024215Y015695D01*
X024675Y015545D02*
X024825Y015695D01*
X024825Y015245D01*
X024675Y015245D02*
X024976Y015245D01*
X025285Y013875D02*
X025455Y013875D01*
X025511Y013819D01*
X025511Y013705D01*
X025455Y013648D01*
X025285Y013648D01*
X025398Y013648D02*
X025511Y013535D01*
X025644Y013535D02*
X025644Y013592D01*
X025870Y013819D01*
X025870Y013875D01*
X025644Y013875D01*
X025285Y013875D02*
X025285Y013535D01*
X028384Y013730D02*
X028459Y013655D01*
X028759Y013655D01*
X028835Y013730D01*
X028835Y013880D01*
X028759Y013955D01*
X028609Y014115D02*
X028609Y014416D01*
X028384Y014341D02*
X028609Y014115D01*
X028459Y013955D02*
X028384Y013880D01*
X028384Y013730D01*
X028384Y014341D02*
X028835Y014341D01*
X031134Y012361D02*
X031209Y012436D01*
X031284Y012436D01*
X031359Y012361D01*
X031434Y012436D01*
X031509Y012436D01*
X031585Y012361D01*
X031585Y012210D01*
X031509Y012135D01*
X031509Y011975D02*
X031585Y011900D01*
X031585Y011750D01*
X031509Y011675D01*
X031209Y011675D01*
X031134Y011750D01*
X031134Y011900D01*
X031209Y011975D01*
X031209Y012135D02*
X031134Y012210D01*
X031134Y012361D01*
X031359Y012361D02*
X031359Y012286D01*
X031584Y011150D02*
X029935Y011150D01*
X029872Y010600D02*
X029714Y010600D01*
X030647Y010600D02*
X030872Y010600D01*
X031585Y011150D02*
X031620Y011102D01*
X031653Y011052D01*
X031684Y011000D01*
X031711Y010946D01*
X031735Y010891D01*
X031755Y010834D01*
X031773Y010777D01*
X031787Y010719D01*
X031798Y010660D01*
X031805Y010600D01*
X031647Y010600D01*
X031805Y010600D02*
X031809Y010538D01*
X031810Y010475D01*
X031806Y010413D01*
X031799Y010351D01*
X031789Y010290D01*
X031774Y010229D01*
X031756Y010169D01*
X031735Y010110D01*
X031710Y010053D01*
X031682Y009998D01*
X031651Y009944D01*
X031616Y009892D01*
X031578Y009842D01*
X031538Y009795D01*
X031494Y009750D01*
X031449Y009707D01*
X031400Y009668D01*
X031350Y009631D01*
X031297Y009598D01*
X031243Y009567D01*
X031186Y009540D01*
X031129Y009517D01*
X031070Y009497D01*
X031884Y009441D02*
X031941Y009384D01*
X031998Y009384D01*
X032054Y009441D01*
X032054Y009611D01*
X031941Y009611D02*
X031884Y009554D01*
X031884Y009441D01*
X031941Y009611D02*
X032168Y009611D01*
X032225Y009554D01*
X032225Y009441D01*
X032168Y009384D01*
X032225Y009252D02*
X032111Y009138D01*
X032111Y009195D02*
X032111Y009025D01*
X032225Y009025D02*
X031884Y009025D01*
X031884Y009195D01*
X031941Y009252D01*
X032054Y009252D01*
X032111Y009195D01*
X030724Y008725D02*
X030574Y008575D01*
X030724Y008725D02*
X030724Y008275D01*
X030574Y008275D02*
X030874Y008275D01*
X030264Y008275D02*
X030264Y008725D01*
X030114Y008725D02*
X030414Y008725D01*
X028135Y008807D02*
X027794Y008807D01*
X027794Y008977D01*
X027851Y009034D01*
X027964Y009034D01*
X028021Y008977D01*
X028021Y008807D01*
X028021Y008920D02*
X028135Y009034D01*
X028078Y009166D02*
X028021Y009166D01*
X027964Y009223D01*
X027964Y009336D01*
X028021Y009393D01*
X028078Y009393D01*
X028135Y009336D01*
X028135Y009223D01*
X028078Y009166D01*
X027964Y009223D02*
X027908Y009166D01*
X027851Y009166D01*
X027794Y009223D01*
X027794Y009336D01*
X027851Y009393D01*
X027908Y009393D01*
X027964Y009336D01*
X030450Y009497D02*
X030390Y009517D01*
X030331Y009541D01*
X030274Y009569D01*
X030219Y009600D01*
X030165Y009635D01*
X030114Y009672D01*
X030065Y009713D01*
X030019Y009757D01*
X029975Y009803D01*
X029934Y009852D01*
X029896Y009903D01*
X029862Y009956D01*
X029830Y010012D01*
X029803Y010069D01*
X029778Y010128D01*
X029758Y010188D01*
X029740Y010249D01*
X029727Y010311D01*
X029718Y010374D01*
X029712Y010437D01*
X029710Y010501D01*
X029712Y010565D01*
X029718Y010628D01*
X029727Y010691D01*
X029741Y010753D01*
X029758Y010814D01*
X029779Y010874D01*
X029803Y010933D01*
X029831Y010990D01*
X029863Y011046D01*
X029898Y011099D01*
X029935Y011150D01*
X034294Y013448D02*
X034294Y013618D01*
X034351Y013675D01*
X034464Y013675D01*
X034521Y013618D01*
X034521Y013448D01*
X034521Y013561D02*
X034635Y013675D01*
X034635Y013807D02*
X034635Y014034D01*
X034635Y013920D02*
X034294Y013920D01*
X034408Y013807D01*
X034294Y013448D02*
X034635Y013448D01*
X034578Y014166D02*
X034351Y014393D01*
X034578Y014393D01*
X034635Y014336D01*
X034635Y014223D01*
X034578Y014166D01*
X034351Y014166D01*
X034294Y014223D01*
X034294Y014336D01*
X034351Y014393D01*
X038170Y016352D02*
X038245Y016277D01*
X038395Y016277D01*
X038470Y016352D01*
X038470Y016427D01*
X038395Y016502D01*
X038320Y016502D01*
X038395Y016502D02*
X038470Y016577D01*
X038470Y016652D01*
X038395Y016727D01*
X038245Y016727D01*
X038170Y016652D01*
X038705Y016352D02*
X038705Y016277D01*
X038780Y016277D01*
X038780Y016352D01*
X038705Y016352D01*
X038780Y016277D02*
X038630Y016127D01*
X038937Y016352D02*
X039012Y016277D01*
X039162Y016277D01*
X039238Y016352D01*
X039238Y016502D01*
X039162Y016577D01*
X039087Y016577D01*
X038937Y016502D01*
X038937Y016727D01*
X039238Y016727D01*
X039398Y016577D02*
X039473Y016577D01*
X039548Y016502D01*
X039623Y016577D01*
X039698Y016502D01*
X039698Y016277D01*
X039548Y016277D02*
X039548Y016502D01*
X039398Y016577D02*
X039398Y016277D01*
X039858Y016277D02*
X039858Y016577D01*
X039933Y016577D01*
X040008Y016502D01*
X040083Y016577D01*
X040158Y016502D01*
X040158Y016277D01*
X040008Y016277D02*
X040008Y016502D01*
X042245Y016194D02*
X042545Y015744D01*
X042706Y015744D02*
X043006Y016044D01*
X043006Y016119D01*
X042931Y016194D01*
X042781Y016194D01*
X042706Y016119D01*
X042545Y016194D02*
X042245Y015744D01*
X042706Y015744D02*
X043006Y015744D01*
X044379Y018674D02*
X044455Y018749D01*
X044455Y018824D01*
X044379Y018899D01*
X044004Y018899D01*
X044004Y018824D02*
X044004Y018974D01*
X044004Y019134D02*
X044004Y019359D01*
X044079Y019434D01*
X044229Y019434D01*
X044304Y019359D01*
X044304Y019134D01*
X044455Y019134D02*
X044004Y019134D01*
X044229Y019595D02*
X044229Y019895D01*
X044004Y019820D02*
X044455Y019820D01*
X044229Y019595D02*
X044004Y019820D01*
X036154Y017680D02*
X036079Y017755D01*
X035929Y017755D01*
X035854Y017680D01*
X035694Y017680D02*
X035694Y017530D01*
X035619Y017455D01*
X035394Y017455D01*
X035394Y017305D02*
X035394Y017755D01*
X035619Y017755D01*
X035694Y017680D01*
X035854Y017305D02*
X036154Y017605D01*
X036154Y017680D01*
X036154Y017305D02*
X035854Y017305D01*
X035159Y017380D02*
X035159Y017755D01*
X035234Y017755D02*
X035083Y017755D01*
X035159Y017380D02*
X035083Y017305D01*
X035008Y017305D01*
X034933Y017380D01*
X032585Y017525D02*
X032285Y017525D01*
X032585Y017825D01*
X032585Y017900D01*
X032510Y017975D01*
X032360Y017975D01*
X032285Y017900D01*
X030685Y017225D02*
X030685Y016775D01*
X030535Y016775D02*
X030835Y016775D01*
X030535Y017075D02*
X030685Y017225D01*
X028185Y017525D02*
X027885Y017525D01*
X028185Y017825D01*
X028185Y017900D01*
X028110Y017975D01*
X027960Y017975D01*
X027885Y017900D01*
X024976Y018320D02*
X024900Y018245D01*
X024750Y018245D01*
X024675Y018320D01*
X024825Y018470D02*
X024900Y018470D01*
X024976Y018395D01*
X024976Y018320D01*
X024900Y018470D02*
X024976Y018545D01*
X024976Y018620D01*
X024900Y018695D01*
X024750Y018695D01*
X024675Y018620D01*
X024515Y018620D02*
X024515Y018470D01*
X024440Y018395D01*
X024215Y018395D01*
X024215Y018245D02*
X024215Y018695D01*
X024440Y018695D01*
X024515Y018620D01*
X024055Y018695D02*
X023905Y018695D01*
X023980Y018695D02*
X023980Y018320D01*
X023905Y018245D01*
X023830Y018245D01*
X023755Y018320D01*
X032384Y019325D02*
X032835Y019625D01*
X032835Y019785D02*
X032835Y020086D01*
X032835Y019936D02*
X032384Y019936D01*
X032534Y019785D01*
X032384Y019625D02*
X032835Y019325D01*
X035809Y011575D02*
X035734Y011500D01*
X035734Y011200D01*
X035809Y011125D01*
X035959Y011125D01*
X036034Y011200D01*
X036194Y011125D02*
X036494Y011425D01*
X036494Y011500D01*
X036419Y011575D01*
X036269Y011575D01*
X036194Y011500D01*
X036034Y011500D02*
X035959Y011575D01*
X035809Y011575D01*
X036194Y011125D02*
X036494Y011125D01*
X039734Y011200D02*
X039809Y011125D01*
X039959Y011125D01*
X040034Y011200D01*
X040194Y011200D02*
X040269Y011125D01*
X040419Y011125D01*
X040494Y011200D01*
X040494Y011350D01*
X040419Y011425D01*
X040344Y011425D01*
X040194Y011350D01*
X040194Y011575D01*
X040494Y011575D01*
X040034Y011500D02*
X039959Y011575D01*
X039809Y011575D01*
X039734Y011500D01*
X039734Y011200D01*
D14*
X038925Y017469D02*
X038927Y017503D01*
X038933Y017537D01*
X038943Y017570D01*
X038956Y017601D01*
X038974Y017631D01*
X038994Y017659D01*
X039018Y017684D01*
X039044Y017706D01*
X039072Y017724D01*
X039103Y017740D01*
X039135Y017752D01*
X039169Y017760D01*
X039203Y017764D01*
X039237Y017764D01*
X039271Y017760D01*
X039305Y017752D01*
X039337Y017740D01*
X039367Y017724D01*
X039396Y017706D01*
X039422Y017684D01*
X039446Y017659D01*
X039466Y017631D01*
X039484Y017601D01*
X039497Y017570D01*
X039507Y017537D01*
X039513Y017503D01*
X039515Y017469D01*
X039513Y017435D01*
X039507Y017401D01*
X039497Y017368D01*
X039484Y017337D01*
X039466Y017307D01*
X039446Y017279D01*
X039422Y017254D01*
X039396Y017232D01*
X039368Y017214D01*
X039337Y017198D01*
X039305Y017186D01*
X039271Y017178D01*
X039237Y017174D01*
X039203Y017174D01*
X039169Y017178D01*
X039135Y017186D01*
X039103Y017198D01*
X039072Y017214D01*
X039044Y017232D01*
X039018Y017254D01*
X038994Y017279D01*
X038974Y017307D01*
X038956Y017337D01*
X038943Y017368D01*
X038933Y017401D01*
X038927Y017435D01*
X038925Y017469D01*
X036957Y019437D02*
X036959Y019471D01*
X036965Y019505D01*
X036975Y019538D01*
X036988Y019569D01*
X037006Y019599D01*
X037026Y019627D01*
X037050Y019652D01*
X037076Y019674D01*
X037104Y019692D01*
X037135Y019708D01*
X037167Y019720D01*
X037201Y019728D01*
X037235Y019732D01*
X037269Y019732D01*
X037303Y019728D01*
X037337Y019720D01*
X037369Y019708D01*
X037399Y019692D01*
X037428Y019674D01*
X037454Y019652D01*
X037478Y019627D01*
X037498Y019599D01*
X037516Y019569D01*
X037529Y019538D01*
X037539Y019505D01*
X037545Y019471D01*
X037547Y019437D01*
X037545Y019403D01*
X037539Y019369D01*
X037529Y019336D01*
X037516Y019305D01*
X037498Y019275D01*
X037478Y019247D01*
X037454Y019222D01*
X037428Y019200D01*
X037400Y019182D01*
X037369Y019166D01*
X037337Y019154D01*
X037303Y019146D01*
X037269Y019142D01*
X037235Y019142D01*
X037201Y019146D01*
X037167Y019154D01*
X037135Y019166D01*
X037104Y019182D01*
X037076Y019200D01*
X037050Y019222D01*
X037026Y019247D01*
X037006Y019275D01*
X036988Y019305D01*
X036975Y019336D01*
X036965Y019369D01*
X036959Y019403D01*
X036957Y019437D01*
X040894Y019437D02*
X040896Y019471D01*
X040902Y019505D01*
X040912Y019538D01*
X040925Y019569D01*
X040943Y019599D01*
X040963Y019627D01*
X040987Y019652D01*
X041013Y019674D01*
X041041Y019692D01*
X041072Y019708D01*
X041104Y019720D01*
X041138Y019728D01*
X041172Y019732D01*
X041206Y019732D01*
X041240Y019728D01*
X041274Y019720D01*
X041306Y019708D01*
X041336Y019692D01*
X041365Y019674D01*
X041391Y019652D01*
X041415Y019627D01*
X041435Y019599D01*
X041453Y019569D01*
X041466Y019538D01*
X041476Y019505D01*
X041482Y019471D01*
X041484Y019437D01*
X041482Y019403D01*
X041476Y019369D01*
X041466Y019336D01*
X041453Y019305D01*
X041435Y019275D01*
X041415Y019247D01*
X041391Y019222D01*
X041365Y019200D01*
X041337Y019182D01*
X041306Y019166D01*
X041274Y019154D01*
X041240Y019146D01*
X041206Y019142D01*
X041172Y019142D01*
X041138Y019146D01*
X041104Y019154D01*
X041072Y019166D01*
X041041Y019182D01*
X041013Y019200D01*
X040987Y019222D01*
X040963Y019247D01*
X040943Y019275D01*
X040925Y019305D01*
X040912Y019336D01*
X040902Y019369D01*
X040896Y019403D01*
X040894Y019437D01*
X017305Y018173D02*
X017307Y018208D01*
X017313Y018242D01*
X017323Y018275D01*
X017336Y018308D01*
X017353Y018338D01*
X017374Y018366D01*
X017397Y018392D01*
X017424Y018415D01*
X017452Y018434D01*
X017483Y018450D01*
X017516Y018463D01*
X017549Y018472D01*
X017584Y018477D01*
X017619Y018478D01*
X017653Y018475D01*
X017688Y018468D01*
X017721Y018457D01*
X017752Y018443D01*
X017782Y018425D01*
X017810Y018404D01*
X017835Y018379D01*
X017857Y018352D01*
X017876Y018323D01*
X017891Y018292D01*
X017903Y018259D01*
X017911Y018225D01*
X017915Y018190D01*
X017915Y018156D01*
X017911Y018121D01*
X017903Y018087D01*
X017891Y018054D01*
X017876Y018023D01*
X017857Y017994D01*
X017835Y017967D01*
X017810Y017942D01*
X017782Y017921D01*
X017752Y017903D01*
X017721Y017889D01*
X017688Y017878D01*
X017653Y017871D01*
X017619Y017868D01*
X017584Y017869D01*
X017549Y017874D01*
X017516Y017883D01*
X017483Y017896D01*
X017452Y017912D01*
X017424Y017931D01*
X017397Y017954D01*
X017374Y017980D01*
X017353Y018008D01*
X017336Y018038D01*
X017323Y018071D01*
X017313Y018104D01*
X017307Y018138D01*
X017305Y018173D01*
X007754Y018173D02*
X007756Y018208D01*
X007762Y018242D01*
X007772Y018275D01*
X007785Y018308D01*
X007802Y018338D01*
X007823Y018366D01*
X007846Y018392D01*
X007873Y018415D01*
X007901Y018434D01*
X007932Y018450D01*
X007965Y018463D01*
X007998Y018472D01*
X008033Y018477D01*
X008068Y018478D01*
X008102Y018475D01*
X008137Y018468D01*
X008170Y018457D01*
X008201Y018443D01*
X008231Y018425D01*
X008259Y018404D01*
X008284Y018379D01*
X008306Y018352D01*
X008325Y018323D01*
X008340Y018292D01*
X008352Y018259D01*
X008360Y018225D01*
X008364Y018190D01*
X008364Y018156D01*
X008360Y018121D01*
X008352Y018087D01*
X008340Y018054D01*
X008325Y018023D01*
X008306Y017994D01*
X008284Y017967D01*
X008259Y017942D01*
X008231Y017921D01*
X008201Y017903D01*
X008170Y017889D01*
X008137Y017878D01*
X008102Y017871D01*
X008068Y017868D01*
X008033Y017869D01*
X007998Y017874D01*
X007965Y017883D01*
X007932Y017896D01*
X007901Y017912D01*
X007873Y017931D01*
X007846Y017954D01*
X007823Y017980D01*
X007802Y018008D01*
X007785Y018038D01*
X007772Y018071D01*
X007762Y018104D01*
X007756Y018138D01*
X007754Y018173D01*
D15*
X012180Y014598D02*
X012180Y014289D01*
X012242Y014228D01*
X012365Y014228D01*
X012427Y014289D01*
X012427Y014598D01*
X012548Y014474D02*
X012672Y014598D01*
X012672Y014228D01*
X012795Y014228D02*
X012548Y014228D01*
X022274Y007317D02*
X022565Y007317D01*
X022565Y007220D02*
X022565Y007414D01*
X022371Y007220D02*
X022274Y007317D01*
X022323Y007119D02*
X022419Y007119D01*
X022468Y007071D01*
X022468Y006926D01*
X022468Y007022D02*
X022565Y007119D01*
X022565Y006926D02*
X022274Y006926D01*
X022274Y007071D01*
X022323Y007119D01*
X024274Y007071D02*
X024274Y006926D01*
X024565Y006926D01*
X024468Y006926D02*
X024468Y007071D01*
X024419Y007119D01*
X024323Y007119D01*
X024274Y007071D01*
X024323Y007220D02*
X024274Y007269D01*
X024274Y007365D01*
X024323Y007414D01*
X024371Y007414D01*
X024565Y007220D01*
X024565Y007414D01*
X024565Y007119D02*
X024468Y007022D01*
D16*
X035260Y007550D02*
X035260Y007650D01*
X035260Y005450D02*
X035260Y005350D01*
X011637Y006060D02*
X011491Y006060D01*
X011564Y006060D02*
X011564Y006280D01*
X011491Y006207D01*
X011416Y006243D02*
X011380Y006280D01*
X011306Y006280D01*
X011270Y006243D01*
X011270Y006097D01*
X011306Y006060D01*
X011380Y006060D01*
X011416Y006097D01*
X005260Y018350D02*
X005260Y018450D01*
X005260Y020550D02*
X005260Y020650D01*
D17*
X004669Y019500D02*
X004671Y019548D01*
X004677Y019596D01*
X004687Y019643D01*
X004700Y019689D01*
X004718Y019734D01*
X004738Y019778D01*
X004763Y019820D01*
X004791Y019859D01*
X004821Y019896D01*
X004855Y019930D01*
X004892Y019962D01*
X004930Y019991D01*
X004971Y020016D01*
X005014Y020038D01*
X005059Y020056D01*
X005105Y020070D01*
X005152Y020081D01*
X005200Y020088D01*
X005248Y020091D01*
X005296Y020090D01*
X005344Y020085D01*
X005392Y020076D01*
X005438Y020064D01*
X005483Y020047D01*
X005527Y020027D01*
X005569Y020004D01*
X005609Y019977D01*
X005647Y019947D01*
X005682Y019914D01*
X005714Y019878D01*
X005744Y019840D01*
X005770Y019799D01*
X005792Y019756D01*
X005812Y019712D01*
X005827Y019667D01*
X005839Y019620D01*
X005847Y019572D01*
X005851Y019524D01*
X005851Y019476D01*
X005847Y019428D01*
X005839Y019380D01*
X005827Y019333D01*
X005812Y019288D01*
X005792Y019244D01*
X005770Y019201D01*
X005744Y019160D01*
X005714Y019122D01*
X005682Y019086D01*
X005647Y019053D01*
X005609Y019023D01*
X005569Y018996D01*
X005527Y018973D01*
X005483Y018953D01*
X005438Y018936D01*
X005392Y018924D01*
X005344Y018915D01*
X005296Y018910D01*
X005248Y018909D01*
X005200Y018912D01*
X005152Y018919D01*
X005105Y018930D01*
X005059Y018944D01*
X005014Y018962D01*
X004971Y018984D01*
X004930Y019009D01*
X004892Y019038D01*
X004855Y019070D01*
X004821Y019104D01*
X004791Y019141D01*
X004763Y019180D01*
X004738Y019222D01*
X004718Y019266D01*
X004700Y019311D01*
X004687Y019357D01*
X004677Y019404D01*
X004671Y019452D01*
X004669Y019500D01*
X023260Y010300D02*
X023260Y010000D01*
X023160Y010000D01*
X023260Y010000D02*
X023260Y009700D01*
X025260Y009700D01*
X025260Y010000D01*
X025360Y010000D01*
X025260Y010000D02*
X025260Y010300D01*
X023260Y010300D01*
X024260Y010700D02*
X024260Y011000D01*
X024160Y011000D01*
X024260Y011000D02*
X024260Y011300D01*
X026260Y011300D01*
X026260Y011000D01*
X026360Y011000D01*
X026260Y011000D02*
X026260Y010700D01*
X024260Y010700D01*
X025260Y011700D02*
X025260Y012000D01*
X025160Y012000D01*
X025260Y012000D02*
X025260Y012300D01*
X027260Y012300D01*
X027260Y012000D01*
X027360Y012000D01*
X027260Y012000D02*
X027260Y011700D01*
X025260Y011700D01*
X024260Y009300D02*
X022260Y009300D01*
X022260Y009000D01*
X022160Y009000D01*
X022260Y009000D02*
X022260Y008700D01*
X024260Y008700D01*
X024260Y009000D01*
X024360Y009000D01*
X024260Y009000D02*
X024260Y009300D01*
X023760Y007600D02*
X023760Y007500D01*
X024060Y007500D01*
X024060Y005500D01*
X023760Y005500D01*
X023760Y005400D01*
X023760Y005500D02*
X023460Y005500D01*
X023460Y007500D01*
X023760Y007500D01*
X022060Y007500D02*
X021760Y007500D01*
X021760Y007600D01*
X021760Y007500D02*
X021460Y007500D01*
X021460Y005500D01*
X021760Y005500D01*
X021760Y005400D01*
X021760Y005500D02*
X022060Y005500D01*
X022060Y007500D01*
X034669Y006500D02*
X034671Y006548D01*
X034677Y006596D01*
X034687Y006643D01*
X034700Y006689D01*
X034718Y006734D01*
X034738Y006778D01*
X034763Y006820D01*
X034791Y006859D01*
X034821Y006896D01*
X034855Y006930D01*
X034892Y006962D01*
X034930Y006991D01*
X034971Y007016D01*
X035014Y007038D01*
X035059Y007056D01*
X035105Y007070D01*
X035152Y007081D01*
X035200Y007088D01*
X035248Y007091D01*
X035296Y007090D01*
X035344Y007085D01*
X035392Y007076D01*
X035438Y007064D01*
X035483Y007047D01*
X035527Y007027D01*
X035569Y007004D01*
X035609Y006977D01*
X035647Y006947D01*
X035682Y006914D01*
X035714Y006878D01*
X035744Y006840D01*
X035770Y006799D01*
X035792Y006756D01*
X035812Y006712D01*
X035827Y006667D01*
X035839Y006620D01*
X035847Y006572D01*
X035851Y006524D01*
X035851Y006476D01*
X035847Y006428D01*
X035839Y006380D01*
X035827Y006333D01*
X035812Y006288D01*
X035792Y006244D01*
X035770Y006201D01*
X035744Y006160D01*
X035714Y006122D01*
X035682Y006086D01*
X035647Y006053D01*
X035609Y006023D01*
X035569Y005996D01*
X035527Y005973D01*
X035483Y005953D01*
X035438Y005936D01*
X035392Y005924D01*
X035344Y005915D01*
X035296Y005910D01*
X035248Y005909D01*
X035200Y005912D01*
X035152Y005919D01*
X035105Y005930D01*
X035059Y005944D01*
X035014Y005962D01*
X034971Y005984D01*
X034930Y006009D01*
X034892Y006038D01*
X034855Y006070D01*
X034821Y006104D01*
X034791Y006141D01*
X034763Y006180D01*
X034738Y006222D01*
X034718Y006266D01*
X034700Y006311D01*
X034687Y006357D01*
X034677Y006404D01*
X034671Y006452D01*
X034669Y006500D01*
D18*
X026217Y010370D02*
X026192Y010345D01*
X026142Y010345D01*
X026117Y010370D01*
X026117Y010420D02*
X026167Y010445D01*
X026192Y010445D01*
X026217Y010420D01*
X026217Y010370D01*
X026117Y010420D02*
X026117Y010495D01*
X026217Y010495D01*
X026070Y010470D02*
X026070Y010420D01*
X026045Y010395D01*
X025970Y010395D01*
X026020Y010395D02*
X026070Y010345D01*
X025970Y010345D02*
X025970Y010495D01*
X026045Y010495D01*
X026070Y010470D01*
X026970Y011345D02*
X026970Y011495D01*
X027045Y011495D01*
X027070Y011470D01*
X027070Y011420D01*
X027045Y011395D01*
X026970Y011395D01*
X027020Y011395D02*
X027070Y011345D01*
X027117Y011370D02*
X027142Y011345D01*
X027192Y011345D01*
X027217Y011370D01*
X027217Y011395D01*
X027192Y011420D01*
X027167Y011420D01*
X027192Y011420D02*
X027217Y011445D01*
X027217Y011470D01*
X027192Y011495D01*
X027142Y011495D01*
X027117Y011470D01*
X025192Y009495D02*
X025117Y009420D01*
X025217Y009420D01*
X025192Y009345D02*
X025192Y009495D01*
X025070Y009470D02*
X025070Y009420D01*
X025045Y009395D01*
X024970Y009395D01*
X025020Y009395D02*
X025070Y009345D01*
X024970Y009345D02*
X024970Y009495D01*
X025045Y009495D01*
X025070Y009470D01*
X024217Y008495D02*
X024167Y008470D01*
X024117Y008420D01*
X024192Y008420D01*
X024217Y008395D01*
X024217Y008370D01*
X024192Y008345D01*
X024142Y008345D01*
X024117Y008370D01*
X024117Y008420D01*
X024070Y008420D02*
X024045Y008395D01*
X023970Y008395D01*
X024020Y008395D02*
X024070Y008345D01*
X024070Y008420D02*
X024070Y008470D01*
X024045Y008495D01*
X023970Y008495D01*
X023970Y008345D01*
D19*
X038035Y012500D03*
X042035Y012500D03*
D20*
X027335Y013000D03*
X025185Y013000D03*
D21*
X028760Y011075D03*
X028760Y008925D03*
X032760Y008925D03*
X032760Y011075D03*
X033760Y012425D03*
X033760Y014575D03*
D22*
X032510Y014130D02*
X032260Y014130D01*
X032010Y014130D01*
X032010Y013880D02*
X032260Y013880D01*
X032510Y013880D01*
D23*
X029760Y014225D03*
D24*
X031960Y017450D02*
X031960Y019200D01*
X031958Y019234D01*
X031952Y019267D01*
X031943Y019299D01*
X031930Y019330D01*
X031914Y019360D01*
X031895Y019387D01*
X031872Y019412D01*
X031847Y019435D01*
X031820Y019454D01*
X031790Y019470D01*
X031759Y019483D01*
X031727Y019492D01*
X031694Y019498D01*
X031660Y019500D01*
X027860Y019500D02*
X027826Y019498D01*
X027793Y019492D01*
X027761Y019483D01*
X027730Y019470D01*
X027700Y019454D01*
X027673Y019435D01*
X027648Y019412D01*
X027625Y019387D01*
X027606Y019360D01*
X027590Y019330D01*
X027577Y019299D01*
X027568Y019267D01*
X027562Y019234D01*
X027560Y019200D01*
X027560Y017450D01*
M02*
