%
M48
M72
T01C0.0160
T02C0.0160
T03C0.0160
T04C0.0160
T05C0.0160
T06C0.0160
T07C0.0160
T08C0.0160
T09C0.0160
%
T01
X29333Y10000
X29333Y11000
X33333Y11000
X33333Y10000
X24833Y18000
X22833Y20000
X15833Y18000
X14833Y20000
T02
X25333Y15500
X25333Y14500
X26833Y13500
X26833Y15500
X33333Y15000
X33333Y14000
X35833Y14000
X35833Y15000
X38333Y15000
X38333Y14000
X26833Y11000
X25833Y11000
X26333Y10250
X33833Y7500
X34833Y7500
T03
X17833Y5500
X19833Y5500
X19833Y8500
X20833Y9500
X21833Y10500
X22833Y11500
X23833Y12500
X24833Y12000
X23833Y13500
X20833Y13500
X20833Y12500
X19833Y11500
X18833Y10500
X17833Y9500
X17833Y8500
X24833Y9000
X27833Y9000
X27833Y12000
X28333Y13000
X28333Y16000
T04
X29833Y19000
X30833Y19000
X31833Y19000
X39333Y19000
X39333Y18000
X39333Y20000
X20833Y20000
X19833Y20000
X18833Y20000
X17833Y20000
X16833Y20000
X15833Y20000
X15833Y17000
X16833Y17000
X17833Y17000
X18833Y17000
X19833Y17000
X20833Y17000
T05
X25833Y17000
T06
X33786Y17969
X34849Y17969
X35794Y17969
X36739Y17969
X37802Y17969
X37762Y19937
X35794Y19937
X33825Y19937
X37302Y11047
X37302Y9984
X37302Y9039
X37302Y8094
X37302Y7031
X39270Y7071
X39270Y9039
X39270Y11008
T07
X13684Y18673
X4133Y18673
T08
X23633Y17000
X28033Y17000
X25833Y20000
T09
X1833Y20000
X31833Y6500
M30
