G75*
%MOIN*%
%OFA0B0*%
%FSLAX24Y24*%
%IPPOS*%
%LPD*%
%AMOC8*
5,1,8,0,0,1.08239X$1,22.5*
%
%ADD10C,0.0100*%
%ADD11C,0.0051*%
%ADD12C,0.0060*%
%ADD13C,0.0030*%
%ADD14C,0.0000*%
%ADD15C,0.0010*%
%ADD16C,0.0080*%
%ADD17C,0.0020*%
%ADD18C,0.0050*%
D10*
X004260Y004500D02*
X004260Y020496D01*
X044130Y020496D01*
X044130Y004500D01*
X004260Y004500D01*
X007083Y008963D02*
X007083Y011063D01*
X007083Y008963D02*
X008815Y008963D01*
X018365Y008963D02*
X018400Y008963D01*
X018400Y011063D01*
X007123Y017602D02*
X007123Y020373D01*
X007681Y020378D01*
X018015Y020373D02*
X018400Y020373D01*
X018400Y018059D01*
D11*
X004260Y004500D02*
X000492Y004500D01*
X001260Y004526D02*
X001362Y005524D01*
X001385Y005524D02*
X001260Y004526D01*
X001157Y005524D01*
X001134Y005524D02*
X001385Y005524D01*
X001311Y005524D02*
X001260Y004526D01*
X001208Y005524D01*
X001134Y005524D02*
X001260Y004526D01*
X001260Y020474D01*
X001362Y019476D01*
X001385Y019476D02*
X001260Y020474D01*
X001157Y019476D01*
X001134Y019476D02*
X001385Y019476D01*
X001311Y019476D02*
X001260Y020474D01*
X001208Y019476D01*
X001134Y019476D02*
X001260Y020474D01*
X000492Y020500D02*
X004260Y020500D01*
X004260Y020496D02*
X004259Y024264D01*
X004285Y023496D02*
X005283Y023599D01*
X005283Y023622D02*
X005283Y023370D01*
X004285Y023496D01*
X005283Y023394D01*
X005283Y023445D02*
X004285Y023496D01*
X005283Y023547D01*
X005283Y023622D02*
X004285Y023496D01*
X044234Y023500D01*
X043236Y023398D01*
X043236Y023374D02*
X044234Y023500D01*
X043236Y023602D01*
X043236Y023626D02*
X043236Y023374D01*
X043236Y023449D02*
X044234Y023500D01*
X043236Y023551D01*
X043236Y023626D02*
X044234Y023500D01*
X044259Y024268D02*
X044260Y020500D01*
D12*
X043760Y019750D02*
X043510Y020000D01*
X043010Y020000D01*
X042760Y019750D01*
X042760Y019250D01*
X043010Y019000D01*
X042760Y018750D01*
X042760Y018250D01*
X043010Y018000D01*
X042760Y017750D01*
X042760Y017250D01*
X043010Y017000D01*
X043510Y017000D01*
X043760Y017250D01*
X043760Y017750D01*
X043510Y018000D01*
X043010Y018000D01*
X043510Y018000D02*
X043760Y018250D01*
X043760Y018750D01*
X043510Y019000D01*
X043010Y019000D01*
X043510Y019000D02*
X043760Y019250D01*
X043760Y019750D01*
X041599Y020583D02*
X041599Y016719D01*
X041599Y015969D02*
X041599Y015968D01*
X036841Y015968D01*
X036841Y017719D01*
X036260Y018250D02*
X036010Y018000D01*
X035510Y018000D01*
X035260Y018250D01*
X035010Y018000D01*
X034510Y018000D01*
X034260Y018250D01*
X034010Y018000D01*
X033510Y018000D01*
X033260Y018250D01*
X033260Y018750D01*
X033510Y019000D01*
X034010Y019000D01*
X034260Y018750D01*
X034510Y019000D01*
X035010Y019000D01*
X035260Y018750D01*
X035510Y019000D01*
X036010Y019000D01*
X036260Y018750D01*
X036260Y018250D01*
X036841Y018569D02*
X036841Y020583D01*
X038020Y020583D01*
X040420Y020583D01*
X041599Y020583D01*
X040420Y020583D02*
X040420Y021665D01*
X038020Y021665D01*
X038220Y021865D01*
X040220Y021865D01*
X040420Y021665D01*
X038020Y021665D02*
X038020Y020583D01*
X035260Y018750D02*
X035260Y018250D01*
X034260Y018250D02*
X034260Y018750D01*
X032360Y014800D02*
X032360Y014600D01*
X032260Y014700D02*
X032460Y014700D01*
X031760Y014000D02*
X031762Y014063D01*
X031768Y014125D01*
X031778Y014187D01*
X031791Y014249D01*
X031809Y014309D01*
X031830Y014368D01*
X031855Y014426D01*
X031884Y014482D01*
X031916Y014536D01*
X031951Y014588D01*
X031989Y014637D01*
X032031Y014685D01*
X032075Y014729D01*
X032123Y014771D01*
X032172Y014809D01*
X032224Y014844D01*
X032278Y014876D01*
X032334Y014905D01*
X032392Y014930D01*
X032451Y014951D01*
X032511Y014969D01*
X032573Y014982D01*
X032635Y014992D01*
X032697Y014998D01*
X032760Y015000D01*
X032823Y014998D01*
X032885Y014992D01*
X032947Y014982D01*
X033009Y014969D01*
X033069Y014951D01*
X033128Y014930D01*
X033186Y014905D01*
X033242Y014876D01*
X033296Y014844D01*
X033348Y014809D01*
X033397Y014771D01*
X033445Y014729D01*
X033489Y014685D01*
X033531Y014637D01*
X033569Y014588D01*
X033604Y014536D01*
X033636Y014482D01*
X033665Y014426D01*
X033690Y014368D01*
X033711Y014309D01*
X033729Y014249D01*
X033742Y014187D01*
X033752Y014125D01*
X033758Y014063D01*
X033760Y014000D01*
X033758Y013937D01*
X033752Y013875D01*
X033742Y013813D01*
X033729Y013751D01*
X033711Y013691D01*
X033690Y013632D01*
X033665Y013574D01*
X033636Y013518D01*
X033604Y013464D01*
X033569Y013412D01*
X033531Y013363D01*
X033489Y013315D01*
X033445Y013271D01*
X033397Y013229D01*
X033348Y013191D01*
X033296Y013156D01*
X033242Y013124D01*
X033186Y013095D01*
X033128Y013070D01*
X033069Y013049D01*
X033009Y013031D01*
X032947Y013018D01*
X032885Y013008D01*
X032823Y013002D01*
X032760Y013000D01*
X032697Y013002D01*
X032635Y013008D01*
X032573Y013018D01*
X032511Y013031D01*
X032451Y013049D01*
X032392Y013070D01*
X032334Y013095D01*
X032278Y013124D01*
X032224Y013156D01*
X032172Y013191D01*
X032123Y013229D01*
X032075Y013271D01*
X032031Y013315D01*
X031989Y013363D01*
X031951Y013412D01*
X031916Y013464D01*
X031884Y013518D01*
X031855Y013574D01*
X031830Y013632D01*
X031809Y013691D01*
X031791Y013751D01*
X031778Y013813D01*
X031768Y013875D01*
X031762Y013937D01*
X031760Y014000D01*
X028760Y014000D02*
X028762Y014063D01*
X028768Y014125D01*
X028778Y014187D01*
X028791Y014249D01*
X028809Y014309D01*
X028830Y014368D01*
X028855Y014426D01*
X028884Y014482D01*
X028916Y014536D01*
X028951Y014588D01*
X028989Y014637D01*
X029031Y014685D01*
X029075Y014729D01*
X029123Y014771D01*
X029172Y014809D01*
X029224Y014844D01*
X029278Y014876D01*
X029334Y014905D01*
X029392Y014930D01*
X029451Y014951D01*
X029511Y014969D01*
X029573Y014982D01*
X029635Y014992D01*
X029697Y014998D01*
X029760Y015000D01*
X029823Y014998D01*
X029885Y014992D01*
X029947Y014982D01*
X030009Y014969D01*
X030069Y014951D01*
X030128Y014930D01*
X030186Y014905D01*
X030242Y014876D01*
X030296Y014844D01*
X030348Y014809D01*
X030397Y014771D01*
X030445Y014729D01*
X030489Y014685D01*
X030531Y014637D01*
X030569Y014588D01*
X030604Y014536D01*
X030636Y014482D01*
X030665Y014426D01*
X030690Y014368D01*
X030711Y014309D01*
X030729Y014249D01*
X030742Y014187D01*
X030752Y014125D01*
X030758Y014063D01*
X030760Y014000D01*
X030758Y013937D01*
X030752Y013875D01*
X030742Y013813D01*
X030729Y013751D01*
X030711Y013691D01*
X030690Y013632D01*
X030665Y013574D01*
X030636Y013518D01*
X030604Y013464D01*
X030569Y013412D01*
X030531Y013363D01*
X030489Y013315D01*
X030445Y013271D01*
X030397Y013229D01*
X030348Y013191D01*
X030296Y013156D01*
X030242Y013124D01*
X030186Y013095D01*
X030128Y013070D01*
X030069Y013049D01*
X030009Y013031D01*
X029947Y013018D01*
X029885Y013008D01*
X029823Y013002D01*
X029760Y013000D01*
X029697Y013002D01*
X029635Y013008D01*
X029573Y013018D01*
X029511Y013031D01*
X029451Y013049D01*
X029392Y013070D01*
X029334Y013095D01*
X029278Y013124D01*
X029224Y013156D01*
X029172Y013191D01*
X029123Y013229D01*
X029075Y013271D01*
X029031Y013315D01*
X028989Y013363D01*
X028951Y013412D01*
X028916Y013464D01*
X028884Y013518D01*
X028855Y013574D01*
X028830Y013632D01*
X028809Y013691D01*
X028791Y013751D01*
X028778Y013813D01*
X028768Y013875D01*
X028762Y013937D01*
X028760Y014000D01*
X029360Y014600D02*
X029360Y014800D01*
X029260Y014700D02*
X029460Y014700D01*
X025260Y016250D02*
X025010Y016000D01*
X024510Y016000D01*
X024260Y016250D01*
X024010Y016000D01*
X023510Y016000D01*
X023260Y016250D01*
X023010Y016000D01*
X022510Y016000D01*
X022260Y016250D01*
X022010Y016000D01*
X021510Y016000D01*
X021260Y016250D01*
X021010Y016000D01*
X020510Y016000D01*
X020260Y016250D01*
X020010Y016000D01*
X019510Y016000D01*
X019260Y016250D01*
X019260Y016750D01*
X019510Y017000D01*
X020010Y017000D01*
X020260Y016750D01*
X020510Y017000D01*
X021010Y017000D01*
X021260Y016750D01*
X021260Y016250D01*
X021260Y016750D02*
X021510Y017000D01*
X022010Y017000D01*
X022260Y016750D01*
X022510Y017000D01*
X023010Y017000D01*
X023260Y016750D01*
X023510Y017000D01*
X024010Y017000D01*
X024260Y016750D01*
X024510Y017000D01*
X025010Y017000D01*
X025260Y016750D01*
X025260Y016250D01*
X024260Y016250D02*
X024260Y016750D01*
X023260Y016750D02*
X023260Y016250D01*
X022260Y016250D02*
X022260Y016750D01*
X020260Y016750D02*
X020260Y016250D01*
X020510Y019000D02*
X020260Y019250D01*
X020010Y019000D01*
X019510Y019000D01*
X019260Y019250D01*
X019260Y019750D01*
X019510Y020000D01*
X020010Y020000D01*
X020260Y019750D01*
X020510Y020000D01*
X021010Y020000D01*
X021260Y019750D01*
X021260Y019250D01*
X021010Y019000D01*
X020510Y019000D01*
X020260Y019250D02*
X020260Y019750D01*
X021260Y019750D02*
X021510Y020000D01*
X022010Y020000D01*
X022260Y019750D01*
X022510Y020000D01*
X023010Y020000D01*
X023260Y019750D01*
X023510Y020000D01*
X024010Y020000D01*
X024260Y019750D01*
X024510Y020000D01*
X025010Y020000D01*
X025260Y019750D01*
X025260Y019250D01*
X025010Y019000D01*
X024510Y019000D01*
X024260Y019250D01*
X024010Y019000D01*
X023510Y019000D01*
X023260Y019250D01*
X023010Y019000D01*
X022510Y019000D01*
X022260Y019250D01*
X022010Y019000D01*
X021510Y019000D01*
X021260Y019250D01*
X022260Y019250D02*
X022260Y019750D01*
X023260Y019750D02*
X023260Y019250D01*
X024260Y019250D02*
X024260Y019750D01*
X024342Y023754D02*
X024342Y024395D01*
X024128Y024181D01*
X023911Y024288D02*
X023484Y023861D01*
X023590Y023754D01*
X023804Y023754D01*
X023911Y023861D01*
X023911Y024288D01*
X023804Y024395D01*
X023590Y024395D01*
X023484Y024288D01*
X023484Y023861D01*
X023266Y023754D02*
X022839Y023754D01*
X023052Y023754D02*
X023052Y024395D01*
X022839Y024181D01*
X024128Y023754D02*
X024555Y023754D01*
X024773Y023754D02*
X024879Y023754D01*
X024879Y023861D01*
X024773Y023861D01*
X024773Y023754D01*
X025095Y023861D02*
X025202Y023754D01*
X025415Y023754D01*
X025522Y023861D01*
X025522Y023968D01*
X025415Y024074D01*
X025095Y024074D01*
X025095Y023861D01*
X025095Y024074D02*
X025308Y024288D01*
X025522Y024395D01*
X036760Y014000D02*
X036762Y014063D01*
X036768Y014125D01*
X036778Y014187D01*
X036791Y014249D01*
X036809Y014309D01*
X036830Y014368D01*
X036855Y014426D01*
X036884Y014482D01*
X036916Y014536D01*
X036951Y014588D01*
X036989Y014637D01*
X037031Y014685D01*
X037075Y014729D01*
X037123Y014771D01*
X037172Y014809D01*
X037224Y014844D01*
X037278Y014876D01*
X037334Y014905D01*
X037392Y014930D01*
X037451Y014951D01*
X037511Y014969D01*
X037573Y014982D01*
X037635Y014992D01*
X037697Y014998D01*
X037760Y015000D01*
X037823Y014998D01*
X037885Y014992D01*
X037947Y014982D01*
X038009Y014969D01*
X038069Y014951D01*
X038128Y014930D01*
X038186Y014905D01*
X038242Y014876D01*
X038296Y014844D01*
X038348Y014809D01*
X038397Y014771D01*
X038445Y014729D01*
X038489Y014685D01*
X038531Y014637D01*
X038569Y014588D01*
X038604Y014536D01*
X038636Y014482D01*
X038665Y014426D01*
X038690Y014368D01*
X038711Y014309D01*
X038729Y014249D01*
X038742Y014187D01*
X038752Y014125D01*
X038758Y014063D01*
X038760Y014000D01*
X038758Y013937D01*
X038752Y013875D01*
X038742Y013813D01*
X038729Y013751D01*
X038711Y013691D01*
X038690Y013632D01*
X038665Y013574D01*
X038636Y013518D01*
X038604Y013464D01*
X038569Y013412D01*
X038531Y013363D01*
X038489Y013315D01*
X038445Y013271D01*
X038397Y013229D01*
X038348Y013191D01*
X038296Y013156D01*
X038242Y013124D01*
X038186Y013095D01*
X038128Y013070D01*
X038069Y013049D01*
X038009Y013031D01*
X037947Y013018D01*
X037885Y013008D01*
X037823Y013002D01*
X037760Y013000D01*
X037697Y013002D01*
X037635Y013008D01*
X037573Y013018D01*
X037511Y013031D01*
X037451Y013049D01*
X037392Y013070D01*
X037334Y013095D01*
X037278Y013124D01*
X037224Y013156D01*
X037172Y013191D01*
X037123Y013229D01*
X037075Y013271D01*
X037031Y013315D01*
X036989Y013363D01*
X036951Y013412D01*
X036916Y013464D01*
X036884Y013518D01*
X036855Y013574D01*
X036830Y013632D01*
X036809Y013691D01*
X036791Y013751D01*
X036778Y013813D01*
X036768Y013875D01*
X036762Y013937D01*
X036760Y014000D01*
X038060Y013300D02*
X038260Y013300D01*
X038160Y013400D02*
X038160Y013200D01*
X039477Y012168D02*
X041228Y012168D01*
X042078Y012168D02*
X044093Y012168D01*
X044093Y010989D01*
X044093Y008589D01*
X044093Y007411D01*
X040228Y007411D01*
X039478Y007411D02*
X039477Y007411D01*
X039477Y012168D01*
X041060Y013300D02*
X041260Y013300D01*
X041160Y013400D02*
X041160Y013200D01*
X039760Y014000D02*
X039762Y014063D01*
X039768Y014125D01*
X039778Y014187D01*
X039791Y014249D01*
X039809Y014309D01*
X039830Y014368D01*
X039855Y014426D01*
X039884Y014482D01*
X039916Y014536D01*
X039951Y014588D01*
X039989Y014637D01*
X040031Y014685D01*
X040075Y014729D01*
X040123Y014771D01*
X040172Y014809D01*
X040224Y014844D01*
X040278Y014876D01*
X040334Y014905D01*
X040392Y014930D01*
X040451Y014951D01*
X040511Y014969D01*
X040573Y014982D01*
X040635Y014992D01*
X040697Y014998D01*
X040760Y015000D01*
X040823Y014998D01*
X040885Y014992D01*
X040947Y014982D01*
X041009Y014969D01*
X041069Y014951D01*
X041128Y014930D01*
X041186Y014905D01*
X041242Y014876D01*
X041296Y014844D01*
X041348Y014809D01*
X041397Y014771D01*
X041445Y014729D01*
X041489Y014685D01*
X041531Y014637D01*
X041569Y014588D01*
X041604Y014536D01*
X041636Y014482D01*
X041665Y014426D01*
X041690Y014368D01*
X041711Y014309D01*
X041729Y014249D01*
X041742Y014187D01*
X041752Y014125D01*
X041758Y014063D01*
X041760Y014000D01*
X041758Y013937D01*
X041752Y013875D01*
X041742Y013813D01*
X041729Y013751D01*
X041711Y013691D01*
X041690Y013632D01*
X041665Y013574D01*
X041636Y013518D01*
X041604Y013464D01*
X041569Y013412D01*
X041531Y013363D01*
X041489Y013315D01*
X041445Y013271D01*
X041397Y013229D01*
X041348Y013191D01*
X041296Y013156D01*
X041242Y013124D01*
X041186Y013095D01*
X041128Y013070D01*
X041069Y013049D01*
X041009Y013031D01*
X040947Y013018D01*
X040885Y013008D01*
X040823Y013002D01*
X040760Y013000D01*
X040697Y013002D01*
X040635Y013008D01*
X040573Y013018D01*
X040511Y013031D01*
X040451Y013049D01*
X040392Y013070D01*
X040334Y013095D01*
X040278Y013124D01*
X040224Y013156D01*
X040172Y013191D01*
X040123Y013229D01*
X040075Y013271D01*
X040031Y013315D01*
X039989Y013363D01*
X039951Y013412D01*
X039916Y013464D01*
X039884Y013518D01*
X039855Y013574D01*
X039830Y013632D01*
X039809Y013691D01*
X039791Y013751D01*
X039778Y013813D01*
X039768Y013875D01*
X039762Y013937D01*
X039760Y014000D01*
X037460Y011950D02*
X037260Y011950D01*
X037360Y011850D02*
X037360Y012050D01*
X036760Y011250D02*
X036762Y011313D01*
X036768Y011375D01*
X036778Y011437D01*
X036791Y011499D01*
X036809Y011559D01*
X036830Y011618D01*
X036855Y011676D01*
X036884Y011732D01*
X036916Y011786D01*
X036951Y011838D01*
X036989Y011887D01*
X037031Y011935D01*
X037075Y011979D01*
X037123Y012021D01*
X037172Y012059D01*
X037224Y012094D01*
X037278Y012126D01*
X037334Y012155D01*
X037392Y012180D01*
X037451Y012201D01*
X037511Y012219D01*
X037573Y012232D01*
X037635Y012242D01*
X037697Y012248D01*
X037760Y012250D01*
X037823Y012248D01*
X037885Y012242D01*
X037947Y012232D01*
X038009Y012219D01*
X038069Y012201D01*
X038128Y012180D01*
X038186Y012155D01*
X038242Y012126D01*
X038296Y012094D01*
X038348Y012059D01*
X038397Y012021D01*
X038445Y011979D01*
X038489Y011935D01*
X038531Y011887D01*
X038569Y011838D01*
X038604Y011786D01*
X038636Y011732D01*
X038665Y011676D01*
X038690Y011618D01*
X038711Y011559D01*
X038729Y011499D01*
X038742Y011437D01*
X038752Y011375D01*
X038758Y011313D01*
X038760Y011250D01*
X038758Y011187D01*
X038752Y011125D01*
X038742Y011063D01*
X038729Y011001D01*
X038711Y010941D01*
X038690Y010882D01*
X038665Y010824D01*
X038636Y010768D01*
X038604Y010714D01*
X038569Y010662D01*
X038531Y010613D01*
X038489Y010565D01*
X038445Y010521D01*
X038397Y010479D01*
X038348Y010441D01*
X038296Y010406D01*
X038242Y010374D01*
X038186Y010345D01*
X038128Y010320D01*
X038069Y010299D01*
X038009Y010281D01*
X037947Y010268D01*
X037885Y010258D01*
X037823Y010252D01*
X037760Y010250D01*
X037697Y010252D01*
X037635Y010258D01*
X037573Y010268D01*
X037511Y010281D01*
X037451Y010299D01*
X037392Y010320D01*
X037334Y010345D01*
X037278Y010374D01*
X037224Y010406D01*
X037172Y010441D01*
X037123Y010479D01*
X037075Y010521D01*
X037031Y010565D01*
X036989Y010613D01*
X036951Y010662D01*
X036916Y010714D01*
X036884Y010768D01*
X036855Y010824D01*
X036830Y010882D01*
X036809Y010941D01*
X036791Y011001D01*
X036778Y011063D01*
X036768Y011125D01*
X036762Y011187D01*
X036760Y011250D01*
X037360Y008800D02*
X037360Y008600D01*
X037260Y008700D02*
X037460Y008700D01*
X036760Y008000D02*
X036762Y008063D01*
X036768Y008125D01*
X036778Y008187D01*
X036791Y008249D01*
X036809Y008309D01*
X036830Y008368D01*
X036855Y008426D01*
X036884Y008482D01*
X036916Y008536D01*
X036951Y008588D01*
X036989Y008637D01*
X037031Y008685D01*
X037075Y008729D01*
X037123Y008771D01*
X037172Y008809D01*
X037224Y008844D01*
X037278Y008876D01*
X037334Y008905D01*
X037392Y008930D01*
X037451Y008951D01*
X037511Y008969D01*
X037573Y008982D01*
X037635Y008992D01*
X037697Y008998D01*
X037760Y009000D01*
X037823Y008998D01*
X037885Y008992D01*
X037947Y008982D01*
X038009Y008969D01*
X038069Y008951D01*
X038128Y008930D01*
X038186Y008905D01*
X038242Y008876D01*
X038296Y008844D01*
X038348Y008809D01*
X038397Y008771D01*
X038445Y008729D01*
X038489Y008685D01*
X038531Y008637D01*
X038569Y008588D01*
X038604Y008536D01*
X038636Y008482D01*
X038665Y008426D01*
X038690Y008368D01*
X038711Y008309D01*
X038729Y008249D01*
X038742Y008187D01*
X038752Y008125D01*
X038758Y008063D01*
X038760Y008000D01*
X038758Y007937D01*
X038752Y007875D01*
X038742Y007813D01*
X038729Y007751D01*
X038711Y007691D01*
X038690Y007632D01*
X038665Y007574D01*
X038636Y007518D01*
X038604Y007464D01*
X038569Y007412D01*
X038531Y007363D01*
X038489Y007315D01*
X038445Y007271D01*
X038397Y007229D01*
X038348Y007191D01*
X038296Y007156D01*
X038242Y007124D01*
X038186Y007095D01*
X038128Y007070D01*
X038069Y007049D01*
X038009Y007031D01*
X037947Y007018D01*
X037885Y007008D01*
X037823Y007002D01*
X037760Y007000D01*
X037697Y007002D01*
X037635Y007008D01*
X037573Y007018D01*
X037511Y007031D01*
X037451Y007049D01*
X037392Y007070D01*
X037334Y007095D01*
X037278Y007124D01*
X037224Y007156D01*
X037172Y007191D01*
X037123Y007229D01*
X037075Y007271D01*
X037031Y007315D01*
X036989Y007363D01*
X036951Y007412D01*
X036916Y007464D01*
X036884Y007518D01*
X036855Y007574D01*
X036830Y007632D01*
X036809Y007691D01*
X036791Y007751D01*
X036778Y007813D01*
X036768Y007875D01*
X036762Y007937D01*
X036760Y008000D01*
X044093Y008589D02*
X045175Y008589D01*
X045175Y010989D01*
X045375Y010789D01*
X045375Y008789D01*
X045175Y008589D01*
X045175Y010989D02*
X044093Y010989D01*
X001003Y011400D02*
X000363Y011400D01*
X000683Y011080D01*
X000683Y011507D01*
X000470Y011724D02*
X000363Y011831D01*
X000363Y012045D01*
X000470Y012151D01*
X000897Y011724D01*
X001003Y011831D01*
X001003Y012045D01*
X000897Y012151D01*
X000470Y012151D01*
X000897Y012369D02*
X000897Y012476D01*
X001003Y012476D01*
X001003Y012369D01*
X000897Y012369D01*
X000897Y012691D02*
X001003Y012798D01*
X001003Y013011D01*
X000897Y013118D01*
X000790Y013118D01*
X000683Y013011D01*
X000683Y012691D01*
X000897Y012691D01*
X000683Y012691D02*
X000470Y012905D01*
X000363Y013118D01*
X000683Y013336D02*
X000683Y013763D01*
X000363Y013656D02*
X000683Y013336D01*
X001003Y013656D02*
X000363Y013656D01*
X000470Y011724D02*
X000897Y011724D01*
D13*
X019245Y015533D02*
X019293Y015485D01*
X019341Y015485D01*
X019390Y015533D01*
X019390Y015775D01*
X019438Y015775D02*
X019341Y015775D01*
X019539Y015775D02*
X019684Y015775D01*
X019733Y015727D01*
X019733Y015630D01*
X019684Y015582D01*
X019539Y015582D01*
X019539Y015485D02*
X019539Y015775D01*
X019834Y015678D02*
X019931Y015775D01*
X019931Y015485D01*
X020027Y015485D02*
X019834Y015485D01*
X019525Y017765D02*
X019525Y017813D01*
X019718Y018007D01*
X019718Y018055D01*
X019525Y018055D01*
X019819Y017910D02*
X020013Y017910D01*
X020114Y017958D02*
X020162Y017910D01*
X020259Y017910D01*
X020307Y017862D01*
X020307Y017813D01*
X020259Y017765D01*
X020162Y017765D01*
X020114Y017813D01*
X020114Y017958D02*
X020114Y018007D01*
X020162Y018055D01*
X020259Y018055D01*
X020307Y018007D01*
X020408Y018055D02*
X020408Y017765D01*
X020602Y017765D01*
X020703Y017813D02*
X020703Y018007D01*
X020751Y018055D01*
X020848Y018055D01*
X020897Y018007D01*
X020897Y017910D02*
X020800Y017910D01*
X020897Y017910D02*
X020897Y017813D01*
X020848Y017765D01*
X020751Y017765D01*
X020703Y017813D01*
X020505Y017910D02*
X020408Y017910D01*
X020408Y018055D02*
X020602Y018055D01*
X020998Y018055D02*
X020998Y017765D01*
X021191Y017765D02*
X021191Y018055D01*
X021095Y017958D01*
X020998Y018055D01*
X021292Y018055D02*
X021292Y017765D01*
X021486Y017765D01*
X021587Y017765D02*
X021587Y018055D01*
X021781Y017765D01*
X021781Y018055D01*
X021882Y018055D02*
X022075Y018055D01*
X021978Y018055D02*
X021978Y017765D01*
X022471Y017813D02*
X022471Y018007D01*
X022519Y018055D01*
X022616Y018055D01*
X022665Y018007D01*
X022766Y018007D02*
X022766Y017813D01*
X022814Y017765D01*
X022911Y017765D01*
X022959Y017813D01*
X022959Y018007D01*
X022911Y018055D01*
X022814Y018055D01*
X022766Y018007D01*
X022665Y017813D02*
X022616Y017765D01*
X022519Y017765D01*
X022471Y017813D01*
X023060Y017765D02*
X023060Y018055D01*
X023254Y017765D01*
X023254Y018055D01*
X023355Y018055D02*
X023548Y017765D01*
X023548Y018055D01*
X023650Y018055D02*
X023650Y017765D01*
X023843Y017765D01*
X023944Y017813D02*
X023944Y018007D01*
X023993Y018055D01*
X024089Y018055D01*
X024138Y018007D01*
X024239Y018055D02*
X024432Y018055D01*
X024336Y018055D02*
X024336Y017765D01*
X024534Y017813D02*
X024534Y018007D01*
X024582Y018055D01*
X024679Y018055D01*
X024727Y018007D01*
X024727Y017813D01*
X024679Y017765D01*
X024582Y017765D01*
X024534Y017813D01*
X024828Y017765D02*
X024828Y018055D01*
X024973Y018055D01*
X025022Y018007D01*
X025022Y017910D01*
X024973Y017862D01*
X024828Y017862D01*
X024925Y017862D02*
X025022Y017765D01*
X024138Y017813D02*
X024089Y017765D01*
X023993Y017765D01*
X023944Y017813D01*
X023746Y017910D02*
X023650Y017910D01*
X023650Y018055D02*
X023843Y018055D01*
X023355Y018055D02*
X023355Y017765D01*
X021486Y018055D02*
X021292Y018055D01*
X021292Y017910D02*
X021389Y017910D01*
X026775Y014565D02*
X026920Y014565D01*
X026968Y014517D01*
X026968Y014420D01*
X026920Y014372D01*
X026775Y014372D01*
X026871Y014372D02*
X026968Y014275D01*
X027069Y014323D02*
X027118Y014275D01*
X027214Y014275D01*
X027263Y014323D01*
X027263Y014517D01*
X027214Y014565D01*
X027118Y014565D01*
X027069Y014517D01*
X027069Y014468D01*
X027118Y014420D01*
X027263Y014420D01*
X026775Y014275D02*
X026775Y014565D01*
X028025Y015813D02*
X028073Y015765D01*
X028170Y015765D01*
X028218Y015813D01*
X028218Y015862D01*
X028170Y015910D01*
X028073Y015910D01*
X028025Y015958D01*
X028025Y016007D01*
X028073Y016055D01*
X028170Y016055D01*
X028218Y016007D01*
X028319Y015910D02*
X028513Y015910D01*
X028614Y015862D02*
X028711Y015765D01*
X028807Y015862D01*
X028807Y016055D01*
X028908Y016055D02*
X029005Y016055D01*
X028957Y016055D02*
X028957Y015765D01*
X029005Y015765D02*
X028908Y015765D01*
X029105Y015765D02*
X029105Y016055D01*
X029250Y016055D01*
X029298Y016007D01*
X029298Y015813D01*
X029250Y015765D01*
X029105Y015765D01*
X029400Y015765D02*
X029593Y015765D01*
X029694Y015813D02*
X029743Y015765D01*
X029839Y015765D01*
X029888Y015813D01*
X029888Y016007D01*
X029839Y016055D01*
X029743Y016055D01*
X029694Y016007D01*
X029694Y015813D01*
X029496Y015910D02*
X029400Y015910D01*
X029400Y016055D02*
X029400Y015765D01*
X029400Y016055D02*
X029593Y016055D01*
X030284Y016007D02*
X030284Y015813D01*
X030332Y015765D01*
X030429Y015765D01*
X030477Y015813D01*
X030477Y016007D01*
X030429Y016055D01*
X030332Y016055D01*
X030284Y016007D01*
X030578Y016055D02*
X030578Y015813D01*
X030627Y015765D01*
X030723Y015765D01*
X030772Y015813D01*
X030772Y016055D01*
X030873Y016055D02*
X031066Y016055D01*
X030970Y016055D02*
X030970Y015765D01*
X028614Y015862D02*
X028614Y016055D01*
X030364Y012885D02*
X030315Y012837D01*
X030315Y012643D01*
X030364Y012595D01*
X030460Y012595D01*
X030509Y012643D01*
X030610Y012740D02*
X030803Y012740D01*
X030755Y012595D02*
X030755Y012885D01*
X030610Y012740D01*
X030509Y012837D02*
X030460Y012885D01*
X030364Y012885D01*
X033185Y012837D02*
X033185Y012643D01*
X033234Y012595D01*
X033330Y012595D01*
X033379Y012643D01*
X033480Y012643D02*
X033528Y012595D01*
X033625Y012595D01*
X033673Y012643D01*
X033673Y012692D01*
X033625Y012740D01*
X033577Y012740D01*
X033625Y012740D02*
X033673Y012788D01*
X033673Y012837D01*
X033625Y012885D01*
X033528Y012885D01*
X033480Y012837D01*
X033379Y012837D02*
X033330Y012885D01*
X033234Y012885D01*
X033185Y012837D01*
X036025Y011657D02*
X036025Y011463D01*
X036073Y011415D01*
X036170Y011415D01*
X036218Y011463D01*
X036319Y011463D02*
X036319Y011415D01*
X036319Y011463D02*
X036513Y011657D01*
X036513Y011705D01*
X036319Y011705D01*
X036218Y011657D02*
X036170Y011705D01*
X036073Y011705D01*
X036025Y011657D01*
X038305Y012593D02*
X038354Y012545D01*
X038450Y012545D01*
X038499Y012593D01*
X038600Y012545D02*
X038793Y012738D01*
X038793Y012787D01*
X038745Y012835D01*
X038648Y012835D01*
X038600Y012787D01*
X038499Y012787D02*
X038450Y012835D01*
X038354Y012835D01*
X038305Y012787D01*
X038305Y012593D01*
X038600Y012545D02*
X038793Y012545D01*
X041305Y012593D02*
X041354Y012545D01*
X041450Y012545D01*
X041499Y012593D01*
X041600Y012593D02*
X041648Y012545D01*
X041745Y012545D01*
X041793Y012593D01*
X041793Y012690D01*
X041745Y012738D01*
X041697Y012738D01*
X041600Y012690D01*
X041600Y012835D01*
X041793Y012835D01*
X041499Y012787D02*
X041450Y012835D01*
X041354Y012835D01*
X041305Y012787D01*
X041305Y012593D01*
X040720Y015515D02*
X040720Y015805D01*
X040816Y015805D02*
X040623Y015805D01*
X040522Y015805D02*
X040522Y015563D01*
X040473Y015515D01*
X040377Y015515D01*
X040328Y015563D01*
X040328Y015805D01*
X040227Y015757D02*
X040179Y015805D01*
X040082Y015805D01*
X040034Y015757D01*
X040034Y015563D01*
X040082Y015515D01*
X040179Y015515D01*
X040227Y015563D01*
X040227Y015757D01*
X039932Y015805D02*
X039739Y015515D01*
X039638Y015515D02*
X039638Y015805D01*
X039444Y015805D02*
X039638Y015515D01*
X039444Y015515D02*
X039444Y015805D01*
X039345Y015805D02*
X039248Y015805D01*
X039296Y015805D02*
X039296Y015515D01*
X039248Y015515D02*
X039345Y015515D01*
X038852Y015515D02*
X038658Y015515D01*
X038658Y015805D01*
X038852Y015805D01*
X038755Y015660D02*
X038658Y015660D01*
X038557Y015660D02*
X038509Y015612D01*
X038364Y015612D01*
X038364Y015515D02*
X038364Y015805D01*
X038509Y015805D01*
X038557Y015757D01*
X038557Y015660D01*
X038263Y015660D02*
X038069Y015660D01*
X038069Y015708D02*
X038166Y015805D01*
X038263Y015708D01*
X038263Y015515D01*
X038069Y015515D02*
X038069Y015708D01*
X037968Y015805D02*
X037775Y015805D01*
X037871Y015805D02*
X037871Y015515D01*
X035254Y017265D02*
X035254Y017458D01*
X035157Y017555D01*
X035060Y017458D01*
X035060Y017265D01*
X034959Y017313D02*
X034959Y017507D01*
X034911Y017555D01*
X034766Y017555D01*
X034766Y017265D01*
X034911Y017265D01*
X034959Y017313D01*
X035060Y017410D02*
X035254Y017410D01*
X034664Y017410D02*
X034616Y017362D01*
X034471Y017362D01*
X034568Y017362D02*
X034664Y017265D01*
X034664Y017410D02*
X034664Y017507D01*
X034616Y017555D01*
X034471Y017555D01*
X034471Y017265D01*
X034371Y017265D02*
X034275Y017265D01*
X034323Y017265D02*
X034323Y017555D01*
X034275Y017555D02*
X034371Y017555D01*
X043025Y016458D02*
X043025Y016265D01*
X043025Y016410D02*
X043218Y016410D01*
X043218Y016458D02*
X043218Y016265D01*
X043319Y016265D02*
X043464Y016265D01*
X043513Y016313D01*
X043513Y016507D01*
X043464Y016555D01*
X043319Y016555D01*
X043319Y016265D01*
X043218Y016458D02*
X043121Y016555D01*
X043025Y016458D01*
X043614Y016507D02*
X043614Y016313D01*
X043662Y016265D01*
X043759Y016265D01*
X043807Y016313D01*
X043807Y016507D02*
X043759Y016555D01*
X043662Y016555D01*
X043614Y016507D01*
X032263Y010555D02*
X032263Y010507D01*
X032069Y010313D01*
X032069Y010265D01*
X031968Y010265D02*
X031871Y010362D01*
X031920Y010362D02*
X031775Y010362D01*
X031775Y010265D02*
X031775Y010555D01*
X031920Y010555D01*
X031968Y010507D01*
X031968Y010410D01*
X031920Y010362D01*
X032069Y010555D02*
X032263Y010555D01*
X036025Y008657D02*
X036025Y008463D01*
X036073Y008415D01*
X036170Y008415D01*
X036218Y008463D01*
X036319Y008463D02*
X036368Y008415D01*
X036464Y008415D01*
X036513Y008463D01*
X036513Y008512D01*
X036464Y008560D01*
X036319Y008560D01*
X036319Y008463D01*
X036319Y008560D02*
X036416Y008657D01*
X036513Y008705D01*
X036218Y008657D02*
X036170Y008705D01*
X036073Y008705D01*
X036025Y008657D01*
X039525Y007007D02*
X039525Y006958D01*
X039573Y006910D01*
X039670Y006910D01*
X039718Y006862D01*
X039718Y006813D01*
X039670Y006765D01*
X039573Y006765D01*
X039525Y006813D01*
X039525Y007007D02*
X039573Y007055D01*
X039670Y007055D01*
X039718Y007007D01*
X039819Y007055D02*
X040013Y007055D01*
X039916Y007055D02*
X039916Y006765D01*
X040114Y006765D02*
X040307Y006765D01*
X040408Y006765D02*
X040408Y007055D01*
X040554Y007055D01*
X040602Y007007D01*
X040602Y006910D01*
X040554Y006862D01*
X040408Y006862D01*
X040505Y006862D02*
X040602Y006765D01*
X040703Y006765D02*
X040897Y006765D01*
X040998Y006813D02*
X041046Y006765D01*
X041143Y006765D01*
X041191Y006813D01*
X041191Y007007D01*
X041143Y007055D01*
X041046Y007055D01*
X040998Y007007D01*
X040998Y006813D01*
X040800Y006910D02*
X040703Y006910D01*
X040703Y007055D02*
X040703Y006765D01*
X040703Y007055D02*
X040897Y007055D01*
X041587Y007007D02*
X041587Y006813D01*
X041635Y006765D01*
X041732Y006765D01*
X041781Y006813D01*
X041781Y007007D01*
X041732Y007055D01*
X041635Y007055D01*
X041587Y007007D01*
X041882Y007055D02*
X041882Y006813D01*
X041930Y006765D01*
X042027Y006765D01*
X042075Y006813D01*
X042075Y007055D01*
X042176Y007055D02*
X042370Y007055D01*
X042273Y007055D02*
X042273Y006765D01*
X040307Y007055D02*
X040114Y007055D01*
X040114Y006765D01*
X040114Y006910D02*
X040211Y006910D01*
X024673Y007195D02*
X024480Y007195D01*
X024673Y007388D01*
X024673Y007437D01*
X024625Y007485D01*
X024528Y007485D01*
X024480Y007437D01*
X024379Y007437D02*
X024379Y007340D01*
X024330Y007292D01*
X024185Y007292D01*
X024282Y007292D02*
X024379Y007195D01*
X024185Y007195D02*
X024185Y007485D01*
X024330Y007485D01*
X024379Y007437D01*
X022673Y007195D02*
X022480Y007195D01*
X022577Y007195D02*
X022577Y007485D01*
X022480Y007388D01*
X022379Y007340D02*
X022330Y007292D01*
X022185Y007292D01*
X022282Y007292D02*
X022379Y007195D01*
X022379Y007340D02*
X022379Y007437D01*
X022330Y007485D01*
X022185Y007485D01*
X022185Y007195D01*
X021125Y008945D02*
X021028Y008945D01*
X020980Y008993D01*
X020980Y009090D01*
X021125Y009090D01*
X021173Y009042D01*
X021173Y008993D01*
X021125Y008945D01*
X020980Y009090D02*
X021077Y009187D01*
X021173Y009235D01*
X020879Y009187D02*
X020879Y009090D01*
X020830Y009042D01*
X020685Y009042D01*
X020782Y009042D02*
X020879Y008945D01*
X020685Y008945D02*
X020685Y009235D01*
X020830Y009235D01*
X020879Y009187D01*
X021685Y009945D02*
X021685Y010235D01*
X021830Y010235D01*
X021879Y010187D01*
X021879Y010090D01*
X021830Y010042D01*
X021685Y010042D01*
X021782Y010042D02*
X021879Y009945D01*
X021980Y010090D02*
X022173Y010090D01*
X022125Y009945D02*
X022125Y010235D01*
X021980Y010090D01*
X022685Y010945D02*
X022685Y011235D01*
X022830Y011235D01*
X022879Y011187D01*
X022879Y011090D01*
X022830Y011042D01*
X022685Y011042D01*
X022782Y011042D02*
X022879Y010945D01*
X022980Y010993D02*
X023028Y010945D01*
X023125Y010945D01*
X023173Y010993D01*
X023173Y011090D01*
X023125Y011138D01*
X023077Y011138D01*
X022980Y011090D01*
X022980Y011235D01*
X023173Y011235D01*
X023685Y011945D02*
X023685Y012235D01*
X023830Y012235D01*
X023879Y012187D01*
X023879Y012090D01*
X023830Y012042D01*
X023685Y012042D01*
X023782Y012042D02*
X023879Y011945D01*
X023980Y011993D02*
X024028Y011945D01*
X024125Y011945D01*
X024173Y011993D01*
X024173Y012042D01*
X024125Y012090D01*
X024077Y012090D01*
X024125Y012090D02*
X024173Y012138D01*
X024173Y012187D01*
X024125Y012235D01*
X024028Y012235D01*
X023980Y012187D01*
D14*
X017305Y018173D02*
X017307Y018208D01*
X017313Y018242D01*
X017323Y018275D01*
X017336Y018308D01*
X017353Y018338D01*
X017374Y018366D01*
X017397Y018392D01*
X017424Y018415D01*
X017452Y018434D01*
X017483Y018450D01*
X017516Y018463D01*
X017549Y018472D01*
X017584Y018477D01*
X017619Y018478D01*
X017653Y018475D01*
X017688Y018468D01*
X017721Y018457D01*
X017752Y018443D01*
X017782Y018425D01*
X017810Y018404D01*
X017835Y018379D01*
X017857Y018352D01*
X017876Y018323D01*
X017891Y018292D01*
X017903Y018259D01*
X017911Y018225D01*
X017915Y018190D01*
X017915Y018156D01*
X017911Y018121D01*
X017903Y018087D01*
X017891Y018054D01*
X017876Y018023D01*
X017857Y017994D01*
X017835Y017967D01*
X017810Y017942D01*
X017782Y017921D01*
X017752Y017903D01*
X017721Y017889D01*
X017688Y017878D01*
X017653Y017871D01*
X017619Y017868D01*
X017584Y017869D01*
X017549Y017874D01*
X017516Y017883D01*
X017483Y017896D01*
X017452Y017912D01*
X017424Y017931D01*
X017397Y017954D01*
X017374Y017980D01*
X017353Y018008D01*
X017336Y018038D01*
X017323Y018071D01*
X017313Y018104D01*
X017307Y018138D01*
X017305Y018173D01*
X007754Y018173D02*
X007756Y018208D01*
X007762Y018242D01*
X007772Y018275D01*
X007785Y018308D01*
X007802Y018338D01*
X007823Y018366D01*
X007846Y018392D01*
X007873Y018415D01*
X007901Y018434D01*
X007932Y018450D01*
X007965Y018463D01*
X007998Y018472D01*
X008033Y018477D01*
X008068Y018478D01*
X008102Y018475D01*
X008137Y018468D01*
X008170Y018457D01*
X008201Y018443D01*
X008231Y018425D01*
X008259Y018404D01*
X008284Y018379D01*
X008306Y018352D01*
X008325Y018323D01*
X008340Y018292D01*
X008352Y018259D01*
X008360Y018225D01*
X008364Y018190D01*
X008364Y018156D01*
X008360Y018121D01*
X008352Y018087D01*
X008340Y018054D01*
X008325Y018023D01*
X008306Y017994D01*
X008284Y017967D01*
X008259Y017942D01*
X008231Y017921D01*
X008201Y017903D01*
X008170Y017889D01*
X008137Y017878D01*
X008102Y017871D01*
X008068Y017868D01*
X008033Y017869D01*
X007998Y017874D01*
X007965Y017883D01*
X007932Y017896D01*
X007901Y017912D01*
X007873Y017931D01*
X007846Y017954D01*
X007823Y017980D01*
X007802Y018008D01*
X007785Y018038D01*
X007772Y018071D01*
X007762Y018104D01*
X007756Y018138D01*
X007754Y018173D01*
X036957Y019437D02*
X036959Y019471D01*
X036965Y019505D01*
X036975Y019538D01*
X036988Y019569D01*
X037006Y019599D01*
X037026Y019627D01*
X037050Y019652D01*
X037076Y019674D01*
X037104Y019692D01*
X037135Y019708D01*
X037167Y019720D01*
X037201Y019728D01*
X037235Y019732D01*
X037269Y019732D01*
X037303Y019728D01*
X037337Y019720D01*
X037369Y019708D01*
X037399Y019692D01*
X037428Y019674D01*
X037454Y019652D01*
X037478Y019627D01*
X037498Y019599D01*
X037516Y019569D01*
X037529Y019538D01*
X037539Y019505D01*
X037545Y019471D01*
X037547Y019437D01*
X037545Y019403D01*
X037539Y019369D01*
X037529Y019336D01*
X037516Y019305D01*
X037498Y019275D01*
X037478Y019247D01*
X037454Y019222D01*
X037428Y019200D01*
X037400Y019182D01*
X037369Y019166D01*
X037337Y019154D01*
X037303Y019146D01*
X037269Y019142D01*
X037235Y019142D01*
X037201Y019146D01*
X037167Y019154D01*
X037135Y019166D01*
X037104Y019182D01*
X037076Y019200D01*
X037050Y019222D01*
X037026Y019247D01*
X037006Y019275D01*
X036988Y019305D01*
X036975Y019336D01*
X036965Y019369D01*
X036959Y019403D01*
X036957Y019437D01*
X038925Y017469D02*
X038927Y017503D01*
X038933Y017537D01*
X038943Y017570D01*
X038956Y017601D01*
X038974Y017631D01*
X038994Y017659D01*
X039018Y017684D01*
X039044Y017706D01*
X039072Y017724D01*
X039103Y017740D01*
X039135Y017752D01*
X039169Y017760D01*
X039203Y017764D01*
X039237Y017764D01*
X039271Y017760D01*
X039305Y017752D01*
X039337Y017740D01*
X039367Y017724D01*
X039396Y017706D01*
X039422Y017684D01*
X039446Y017659D01*
X039466Y017631D01*
X039484Y017601D01*
X039497Y017570D01*
X039507Y017537D01*
X039513Y017503D01*
X039515Y017469D01*
X039513Y017435D01*
X039507Y017401D01*
X039497Y017368D01*
X039484Y017337D01*
X039466Y017307D01*
X039446Y017279D01*
X039422Y017254D01*
X039396Y017232D01*
X039368Y017214D01*
X039337Y017198D01*
X039305Y017186D01*
X039271Y017178D01*
X039237Y017174D01*
X039203Y017174D01*
X039169Y017178D01*
X039135Y017186D01*
X039103Y017198D01*
X039072Y017214D01*
X039044Y017232D01*
X039018Y017254D01*
X038994Y017279D01*
X038974Y017307D01*
X038956Y017337D01*
X038943Y017368D01*
X038933Y017401D01*
X038927Y017435D01*
X038925Y017469D01*
X040894Y019437D02*
X040896Y019471D01*
X040902Y019505D01*
X040912Y019538D01*
X040925Y019569D01*
X040943Y019599D01*
X040963Y019627D01*
X040987Y019652D01*
X041013Y019674D01*
X041041Y019692D01*
X041072Y019708D01*
X041104Y019720D01*
X041138Y019728D01*
X041172Y019732D01*
X041206Y019732D01*
X041240Y019728D01*
X041274Y019720D01*
X041306Y019708D01*
X041336Y019692D01*
X041365Y019674D01*
X041391Y019652D01*
X041415Y019627D01*
X041435Y019599D01*
X041453Y019569D01*
X041466Y019538D01*
X041476Y019505D01*
X041482Y019471D01*
X041484Y019437D01*
X041482Y019403D01*
X041476Y019369D01*
X041466Y019336D01*
X041453Y019305D01*
X041435Y019275D01*
X041415Y019247D01*
X041391Y019222D01*
X041365Y019200D01*
X041337Y019182D01*
X041306Y019166D01*
X041274Y019154D01*
X041240Y019146D01*
X041206Y019142D01*
X041172Y019142D01*
X041138Y019146D01*
X041104Y019154D01*
X041072Y019166D01*
X041041Y019182D01*
X041013Y019200D01*
X040987Y019222D01*
X040963Y019247D01*
X040943Y019275D01*
X040925Y019305D01*
X040912Y019336D01*
X040902Y019369D01*
X040896Y019403D01*
X040894Y019437D01*
X042652Y011758D02*
X042654Y011792D01*
X042660Y011826D01*
X042670Y011859D01*
X042683Y011890D01*
X042701Y011920D01*
X042721Y011948D01*
X042745Y011973D01*
X042771Y011995D01*
X042799Y012013D01*
X042830Y012029D01*
X042862Y012041D01*
X042896Y012049D01*
X042930Y012053D01*
X042964Y012053D01*
X042998Y012049D01*
X043032Y012041D01*
X043064Y012029D01*
X043094Y012013D01*
X043123Y011995D01*
X043149Y011973D01*
X043173Y011948D01*
X043193Y011920D01*
X043211Y011890D01*
X043224Y011859D01*
X043234Y011826D01*
X043240Y011792D01*
X043242Y011758D01*
X043240Y011724D01*
X043234Y011690D01*
X043224Y011657D01*
X043211Y011626D01*
X043193Y011596D01*
X043173Y011568D01*
X043149Y011543D01*
X043123Y011521D01*
X043095Y011503D01*
X043064Y011487D01*
X043032Y011475D01*
X042998Y011467D01*
X042964Y011463D01*
X042930Y011463D01*
X042896Y011467D01*
X042862Y011475D01*
X042830Y011487D01*
X042799Y011503D01*
X042771Y011521D01*
X042745Y011543D01*
X042721Y011568D01*
X042701Y011596D01*
X042683Y011626D01*
X042670Y011657D01*
X042660Y011690D01*
X042654Y011724D01*
X042652Y011758D01*
X040683Y009789D02*
X040685Y009823D01*
X040691Y009857D01*
X040701Y009890D01*
X040714Y009921D01*
X040732Y009951D01*
X040752Y009979D01*
X040776Y010004D01*
X040802Y010026D01*
X040830Y010044D01*
X040861Y010060D01*
X040893Y010072D01*
X040927Y010080D01*
X040961Y010084D01*
X040995Y010084D01*
X041029Y010080D01*
X041063Y010072D01*
X041095Y010060D01*
X041125Y010044D01*
X041154Y010026D01*
X041180Y010004D01*
X041204Y009979D01*
X041224Y009951D01*
X041242Y009921D01*
X041255Y009890D01*
X041265Y009857D01*
X041271Y009823D01*
X041273Y009789D01*
X041271Y009755D01*
X041265Y009721D01*
X041255Y009688D01*
X041242Y009657D01*
X041224Y009627D01*
X041204Y009599D01*
X041180Y009574D01*
X041154Y009552D01*
X041126Y009534D01*
X041095Y009518D01*
X041063Y009506D01*
X041029Y009498D01*
X040995Y009494D01*
X040961Y009494D01*
X040927Y009498D01*
X040893Y009506D01*
X040861Y009518D01*
X040830Y009534D01*
X040802Y009552D01*
X040776Y009574D01*
X040752Y009599D01*
X040732Y009627D01*
X040714Y009657D01*
X040701Y009688D01*
X040691Y009721D01*
X040685Y009755D01*
X040683Y009789D01*
X042652Y007821D02*
X042654Y007855D01*
X042660Y007889D01*
X042670Y007922D01*
X042683Y007953D01*
X042701Y007983D01*
X042721Y008011D01*
X042745Y008036D01*
X042771Y008058D01*
X042799Y008076D01*
X042830Y008092D01*
X042862Y008104D01*
X042896Y008112D01*
X042930Y008116D01*
X042964Y008116D01*
X042998Y008112D01*
X043032Y008104D01*
X043064Y008092D01*
X043094Y008076D01*
X043123Y008058D01*
X043149Y008036D01*
X043173Y008011D01*
X043193Y007983D01*
X043211Y007953D01*
X043224Y007922D01*
X043234Y007889D01*
X043240Y007855D01*
X043242Y007821D01*
X043240Y007787D01*
X043234Y007753D01*
X043224Y007720D01*
X043211Y007689D01*
X043193Y007659D01*
X043173Y007631D01*
X043149Y007606D01*
X043123Y007584D01*
X043095Y007566D01*
X043064Y007550D01*
X043032Y007538D01*
X042998Y007530D01*
X042964Y007526D01*
X042930Y007526D01*
X042896Y007530D01*
X042862Y007538D01*
X042830Y007550D01*
X042799Y007566D01*
X042771Y007584D01*
X042745Y007606D01*
X042721Y007631D01*
X042701Y007659D01*
X042683Y007689D01*
X042670Y007720D01*
X042660Y007753D01*
X042654Y007787D01*
X042652Y007821D01*
D15*
X036262Y006580D02*
X036262Y006555D01*
X036237Y006530D01*
X036262Y006505D01*
X036262Y006480D01*
X036237Y006455D01*
X036187Y006455D01*
X036162Y006480D01*
X036115Y006455D02*
X036115Y006605D01*
X036162Y006580D02*
X036187Y006605D01*
X036237Y006605D01*
X036262Y006580D01*
X036237Y006530D02*
X036212Y006530D01*
X036115Y006530D02*
X036015Y006530D01*
X036015Y006455D02*
X036015Y006605D01*
X006262Y019455D02*
X006162Y019455D01*
X006115Y019455D02*
X006115Y019605D01*
X006162Y019555D02*
X006212Y019605D01*
X006212Y019455D01*
X006115Y019530D02*
X006015Y019530D01*
X006015Y019455D02*
X006015Y019605D01*
D16*
X023260Y010300D02*
X025260Y010300D01*
X025260Y010000D01*
X025360Y010000D01*
X025260Y010000D02*
X025260Y009700D01*
X023260Y009700D01*
X023260Y010000D01*
X023160Y010000D01*
X023260Y010000D02*
X023260Y010300D01*
X024260Y010700D02*
X024260Y011000D01*
X024160Y011000D01*
X024260Y011000D02*
X024260Y011300D01*
X026260Y011300D01*
X026260Y011000D01*
X026360Y011000D01*
X026260Y011000D02*
X026260Y010700D01*
X024260Y010700D01*
X025260Y011700D02*
X025260Y012000D01*
X025160Y012000D01*
X025260Y012000D02*
X025260Y012300D01*
X027260Y012300D01*
X027260Y012000D01*
X027360Y012000D01*
X027260Y012000D02*
X027260Y011700D01*
X025260Y011700D01*
X024260Y009300D02*
X022260Y009300D01*
X022260Y009000D01*
X022160Y009000D01*
X022260Y009000D02*
X022260Y008700D01*
X024260Y008700D01*
X024260Y009000D01*
X024360Y009000D01*
X024260Y009000D02*
X024260Y009300D01*
X023760Y007600D02*
X023760Y007500D01*
X024060Y007500D01*
X024060Y005500D01*
X023760Y005500D01*
X023760Y005400D01*
X023760Y005500D02*
X023460Y005500D01*
X023460Y007500D01*
X023760Y007500D01*
X022060Y007500D02*
X021760Y007500D01*
X021760Y007600D01*
X021760Y007500D02*
X021460Y007500D01*
X021460Y005500D01*
X021760Y005500D01*
X021760Y005400D01*
X021760Y005500D02*
X022060Y005500D01*
X022060Y007500D01*
X030260Y010700D02*
X030260Y011000D01*
X030160Y011000D01*
X030260Y011000D02*
X030260Y011300D01*
X032260Y011300D01*
X032260Y011000D01*
X032360Y011000D01*
X032260Y011000D02*
X032260Y010700D01*
X030260Y010700D01*
X027260Y014700D02*
X025260Y014700D01*
X025260Y015000D01*
X025160Y015000D01*
X025260Y015000D02*
X025260Y015300D01*
X027260Y015300D01*
X027260Y015000D01*
X027360Y015000D01*
X027260Y015000D02*
X027260Y014700D01*
D17*
X013814Y007030D02*
X013814Y006810D01*
X013741Y006810D02*
X013887Y006810D01*
X013741Y006957D02*
X013814Y007030D01*
X013666Y006993D02*
X013630Y007030D01*
X013556Y007030D01*
X013520Y006993D01*
X013520Y006847D01*
X013556Y006810D01*
X013630Y006810D01*
X013666Y006847D01*
D18*
X026504Y016382D02*
X026504Y020791D01*
X032015Y020791D01*
X032015Y016382D01*
X026504Y016382D01*
X026504Y020791D02*
X026504Y021500D01*
X029260Y021500D01*
X032015Y021500D01*
X032015Y020791D01*
X038170Y016652D02*
X038245Y016727D01*
X038395Y016727D01*
X038470Y016652D01*
X038470Y016577D01*
X038395Y016502D01*
X038470Y016427D01*
X038470Y016352D01*
X038395Y016277D01*
X038245Y016277D01*
X038170Y016352D01*
X038320Y016502D02*
X038395Y016502D01*
X038705Y016352D02*
X038705Y016277D01*
X038780Y016277D01*
X038780Y016352D01*
X038705Y016352D01*
X038780Y016277D02*
X038630Y016127D01*
X038937Y016352D02*
X039012Y016277D01*
X039162Y016277D01*
X039238Y016352D01*
X039238Y016502D01*
X039162Y016577D01*
X039087Y016577D01*
X038937Y016502D01*
X038937Y016727D01*
X039238Y016727D01*
X039398Y016577D02*
X039473Y016577D01*
X039548Y016502D01*
X039623Y016577D01*
X039698Y016502D01*
X039698Y016277D01*
X039548Y016277D02*
X039548Y016502D01*
X039398Y016577D02*
X039398Y016277D01*
X039858Y016277D02*
X039858Y016577D01*
X039933Y016577D01*
X040008Y016502D01*
X040083Y016577D01*
X040158Y016502D01*
X040158Y016277D01*
X040008Y016277D02*
X040008Y016502D01*
X040011Y010729D02*
X040236Y010729D01*
X040236Y010579D02*
X040011Y010579D01*
X039936Y010654D01*
X040011Y010729D01*
X040011Y010579D02*
X039936Y010504D01*
X039936Y010429D01*
X040236Y010429D01*
X040236Y010269D02*
X040011Y010269D01*
X039936Y010194D01*
X040011Y010119D01*
X040236Y010119D01*
X040236Y009969D02*
X039936Y009969D01*
X039936Y010044D01*
X040011Y010119D01*
X040011Y009809D02*
X040161Y009809D01*
X040236Y009734D01*
X040236Y009583D01*
X040161Y009508D01*
X040011Y009508D02*
X039936Y009659D01*
X039936Y009734D01*
X040011Y009809D01*
X039786Y009809D02*
X039786Y009508D01*
X040011Y009508D01*
X040161Y009352D02*
X040161Y009277D01*
X040236Y009277D01*
X040236Y009352D01*
X040161Y009352D01*
X040236Y009352D02*
X040387Y009201D01*
X040161Y009041D02*
X040236Y008966D01*
X040236Y008816D01*
X040161Y008741D01*
X040011Y008891D02*
X040011Y008966D01*
X040086Y009041D01*
X040161Y009041D01*
X040011Y008966D02*
X039936Y009041D01*
X039861Y009041D01*
X039786Y008966D01*
X039786Y008816D01*
X039861Y008741D01*
M02*
